<svg xmlns="http://www.w3.org/2000/svg" xmlns:xlink="http://www.w3.org/1999/xlink" viewBox="2166 296 652 146"><defs><style>.a{clip-path:url(#b);}.b{fill:#fb1010;}.b,.c,.d{font-size:14px;}.b,.c{font-family:FiraSans-Medium, Fira Sans;font-weight:500;}.c{fill:#2aa213;}.d{fill:#b1b2b2;font-family:SegoeUI, Segoe UI;}.e{fill:none;stroke:#95989a;}</style><clipPath id="b"><rect x="2166" y="296" width="652" height="146"/></clipPath></defs><g id="a" class="a"><text class="b" transform="translate(2215.5 419)"><tspan x="0" y="0">NUNCA</tspan></text><text class="c" transform="translate(2539.5 414)"><tspan x="0" y="0">SEMPRE</tspan></text><text class="d" transform="translate(2214.5 317)"><tspan x="0" y="0">Valor A</tspan></text><line class="e" x2="249.5" transform="translate(2214 296.5)"/><line class="e" x2="249.5" transform="translate(2214 356.5)"/><line class="e" x2="249.5" transform="translate(2214 386.5)"/><line class="e" x2="249.5" transform="translate(2214 326.5)"/><text class="d" transform="translate(2214.5 347)"><tspan x="0" y="0">Valor B</tspan></text><text class="d" transform="translate(2215.5 377)"><tspan x="0" y="0">Valor C</tspan></text><text class="d" transform="translate(2408.5 317)"><tspan x="0" y="0">1.2345</tspan></text><text class="d" transform="translate(2408.5 347)"><tspan x="0" y="0">23</tspan></text><text class="d" transform="translate(2409.5 377)"><tspan x="0" y="0">233</tspan></text><text class="d" transform="translate(2538.5 317)"><tspan x="0" y="0">Valor A</tspan></text><line class="e" x2="249.5" transform="translate(2538 296.5)"/><line class="e" x2="249.5" transform="translate(2538 356.5)"/><line class="e" x2="249.5" transform="translate(2538 386.5)"/><line class="e" x2="249.5" transform="translate(2538 326.5)"/><text class="d" transform="translate(2538.5 347)"><tspan x="0" y="0">Valor B</tspan></text><text class="d" transform="translate(2539.5 377)"><tspan x="0" y="0">Valor C</tspan></text><text class="d" transform="translate(2742.5 317)"><tspan x="0" y="0">1.2345</tspan></text><text class="d" transform="translate(2768.5 347)"><tspan x="0" y="0">23</tspan></text><text class="d" transform="translate(2760.5 377)"><tspan x="0" y="0">233</tspan></text></g></svg>