<?xml version="1.0" encoding="iso-8859-1"?>
<!-- Generator: Adobe Illustrator 19.0.0, SVG Export Plug-In . SVG Version: 6.00 Build 0)  -->
<svg version="1.1" id="Layer_1" xmlns="http://www.w3.org/2000/svg" xmlns:xlink="http://www.w3.org/1999/xlink" x="0px" y="0px"
	 viewBox="0 0 512 512" style="enable-background:new 0 0 512 512;" xml:space="preserve">
<circle style="fill:#0078D5;" cx="256" cy="254.74" r="44.742"/>
<path style="fill:#193651;" d="M255.902,311.992c-2.742,0-5.497-0.202-8.241-0.613c-5.462-0.819-9.226-5.91-8.407-11.372s5.909-9.225,11.372-8.407
	c11.435,1.715,22.67-1.983,30.83-10.144c6.8-6.8,10.544-15.84,10.544-25.456s-3.745-18.656-10.544-25.456
	c-6.8-6.8-15.84-10.544-25.456-10.544s-18.656,3.745-25.456,10.544c-7.963,7.962-11.696,18.944-10.242,30.129
	c0.712,5.477-3.151,10.494-8.627,11.206c-5.478,0.717-10.494-3.15-11.206-8.627c-2.26-17.388,3.547-34.464,15.933-46.849
	C226.979,205.825,241.041,200,256,200c14.959,0,29.021,5.825,39.598,16.402C306.175,226.979,312,241.042,312,256
	c0,14.958-5.825,29.021-16.402,39.598C285.052,306.144,270.656,311.992,255.902,311.992z"/>
<path style="fill:#193651;" d="M223.473,298.527c-2.559,0-5.119-0.976-7.071-2.929l-0.093-0.093c-3.905-3.905-3.905-10.237,0-14.143
	c3.905-3.905,10.237-3.905,14.143,0l0.093,0.093c3.905,3.905,3.905,10.237,0,14.143
	C228.592,297.551,226.032,298.527,223.473,298.527z"/>
<path style="fill:#193651;" d="M178.266,440.046c-3.831,0-7.485-2.213-9.143-5.939l-0.084-0.19c-2.244-5.046,0.027-10.957,5.074-13.201
	c5.044-2.243,10.956,0.027,13.201,5.074l0.084,0.19c2.244,5.046-0.027,10.957-5.074,13.201
	C181.004,439.769,179.624,440.046,178.266,440.046z"/>
<path style="fill:#193651;" d="M445.465,246.471c-2.039,0-4.095-0.621-5.871-1.911c-4.468-3.247-5.458-9.5-2.21-13.968l0.122-0.168
	c3.247-4.467,9.5-5.457,13.968-2.21s5.458,9.5,2.21,13.968l-0.122,0.168C451.606,245.042,448.557,246.471,445.465,246.471z"/>
<path style="fill:#193651;" d="M453.634,269.749c-19.986-27.602-48.206-55.369-81.66-80.648c-3.33-27.03-8.685-52.615-15.887-75.853
	c4.276-0.649,8.513-1.203,12.696-1.636c44.852-4.64,76.948,4.025,90.374,24.403c11.443,17.369,8.513,43.487-8.25,73.544
	c-2.69,4.824-0.961,10.915,3.862,13.604c4.824,2.692,10.915,0.961,13.604-3.862c20.578-36.896,23.236-70.383,7.485-94.291
	c-17.735-26.917-56.493-38.739-109.134-33.293c-5.64,0.584-11.388,1.368-17.217,2.324c-2.086-5.527-4.281-10.896-6.596-16.073
	C320.428,27.69,289.562,0,256,0s-64.428,27.69-86.911,77.97c-13.911,31.109-23.848,69.432-29.013,111.043
	c-21.744,16.399-41.223,33.829-57.747,51.685c-2.7-3.378-5.299-6.771-7.765-10.177c-26.446-36.523-34.988-68.651-24.053-90.468
	c9.32-18.595,33.404-29.117,67.817-29.627c5.522-0.082,9.933-4.625,9.851-10.147c-0.082-5.472-4.542-9.852-9.996-9.852
	c-0.05,0-0.101,0-0.151,0.001c-42.242,0.627-72.571,15.068-85.4,40.664c-14.443,28.817-5.304,68.294,25.734,111.159
	c3.326,4.593,6.878,9.178,10.622,13.749c-3.743,4.57-7.296,9.156-10.622,13.749C26.064,314.359,17.516,354.934,34.297,384
	c14.193,24.583,44.566,37.591,86.745,37.589c7.692,0,15.785-0.433,24.234-1.308c33.897-3.508,72.055-14.063,110.674-30.395
	c25.074,10.631,49.908,18.786,73.634,24.167c-1.576,4.028-3.215,7.974-4.931,11.813c-18.407,41.164-41.96,64.626-66.321,66.065
	c-20.754,1.229-41.918-14.371-59.566-43.917c-2.832-4.742-8.972-6.289-13.713-3.457c-4.742,2.832-6.289,8.972-3.457,13.713
	C202.375,493.059,228.68,512,256.015,512c1.164,0,2.33-0.034,3.497-0.103c32.178-1.9,61.797-29.553,83.4-77.866
	c2.315-5.177,4.509-10.546,6.596-16.073c5.829,0.956,11.577,1.74,17.217,2.324c8.453,0.875,16.54,1.308,24.234,1.308
	c42.174,0,72.553-13.008,86.745-37.589C494.484,354.934,485.936,314.359,453.634,269.749z M416.552,256.019
	c-12.433,13.611-26.575,26.82-41.932,39.37C375.529,282.471,376,269.313,376,256c0-13.286-0.468-26.417-1.373-39.31
	C390.054,229.299,404.189,242.51,416.552,256.019z M159.036,199.82c29.856-21.742,63.106-40.936,96.863-55.915
	c33.979,15.103,67.359,34.446,97.236,56.211c3.901,36.727,3.898,75.119-0.008,111.844c-30.069,21.875-63.51,41.111-97.299,56.103
	c-33.757-14.985-67.004-34.184-96.856-55.929C155.063,275.157,155.125,236.578,159.036,199.82z M349.49,173.025
	c-6.14-4.154-12.416-8.217-18.814-12.175c-16.187-10.013-32.82-19.155-49.572-27.299c18.622-7.036,37.176-12.666,55.185-16.616
	C341.872,134.503,346.272,153.383,349.49,173.025z M256,20c24.836,0,49.859,24.105,68.653,66.134
	c1.716,3.839,3.355,7.785,4.931,11.813c-23.726,5.382-48.561,13.536-73.636,24.168c-24.97-10.571-49.839-18.772-73.535-24.162
	c1.576-4.04,3.219-7.984,4.934-11.819C206.14,44.105,231.163,20,256,20z M175.74,116.948c18.005,3.962,36.514,9.605,55.061,16.629
	c-11.642,5.672-23.272,11.843-34.802,18.5c-11.506,6.643-22.644,13.614-33.357,20.845
	C165.849,153.257,170.222,134.409,175.74,116.948z M137.396,216.522c-0.527,7.395-0.908,14.862-1.137,22.381
	c-0.579,19.025-0.179,38,1.144,56.58c-15.405-12.609-29.557-25.862-41.982-39.484C107.844,242.381,121.995,229.13,137.396,216.522z
	 M143.218,400.388c-45.796,4.737-79.182-4.879-91.6-26.388s-4.055-55.232,22.947-92.522c2.466-3.406,5.064-6.798,7.765-10.177
	c16.524,17.857,36.004,35.288,57.748,51.687c3.33,26.911,8.662,52.548,15.843,75.764
	C151.634,399.407,147.396,399.956,143.218,400.388z M175.706,395.033c-5.571-17.573-9.939-36.425-13.129-55.999
	c10.733,7.246,21.893,14.232,33.423,20.889c11.506,6.643,23.112,12.803,34.731,18.466
	C212.096,385.444,193.587,391.081,175.706,395.033z M281.113,378.453c6.668-3.241,13.324-6.644,19.951-10.206
	c16.765-9.011,32.999-18.845,48.427-29.281c-3.218,19.645-7.619,38.528-13.203,56.099
	C318.283,391.116,299.733,385.487,281.113,378.453z M460.382,374c-12.418,21.509-45.803,31.128-91.6,26.388
	c-4.182-0.433-8.42-0.987-12.696-1.636c7.202-23.238,12.558-48.824,15.888-75.854c21.64-16.339,41.176-33.776,57.692-51.603
	c2.711,3.385,5.305,6.78,7.768,10.183C464.436,318.768,472.8,352.491,460.382,374z"/>
<path style="fill:#193651;" d="M144.362,111.677c-0.345,0-0.693-0.018-1.044-0.054l-0.207-0.021c-5.493-0.57-9.484-5.486-8.915-10.979
	c0.57-5.493,5.479-9.479,10.979-8.915l0.207,0.021c5.493,0.57,9.484,5.486,8.915,10.979
	C153.763,107.85,149.421,111.677,144.362,111.677z"/>
<g>
</g>
<g>
</g>
<g>
</g>
<g>
</g>
<g>
</g>
<g>
</g>
<g>
</g>
<g>
</g>
<g>
</g>
<g>
</g>
<g>
</g>
<g>
</g>
<g>
</g>
<g>
</g>
<g>
</g>
</svg>
