<svg xmlns="http://www.w3.org/2000/svg" xmlns:xlink="http://www.w3.org/1999/xlink" viewBox="4332 0 652 783"><defs><style>.a{clip-path:url(#b);}.b{fill:#ecf7ff;stroke:#a5c1d5;fill-rule:evenodd;opacity:0.39;}.c{fill:#86ceff;}.d,.g{fill:#fff;}.d{stroke:#95989a;}.e{fill:#6d87a8;}.e,.g,.h,.i,.j,.l{stroke:rgba(0,0,0,0);}.f,.l{fill:#3b95e3;}.h{fill:#34638d;}.i{fill:#fb1010;}.j{fill:#2aa213;}.k,.n{fill:none;}.k{stroke:#3b95e3;}.m{stroke:none;}</style><clipPath id="b"><rect x="4332" width="652" height="783"/></clipPath></defs><g id="a" class="a"><g transform="translate(3568 -1508)"><g transform="translate(812 1508)"><path class="b" d="M0,325l14.125-15.395L28.25,325l14.125-15.395L56.5,325l14.125-15.395L84.75,325l14.125-15.395L113,325l14.125-15.395L141.25,325l14.125-15.395L169.5,325l14.125-15.395L197.75,325l14.125-15.395L226,325l14.125-15.395L254.25,325l14.125-15.395L282.5,325l14.125-15.395L310.75,325l14.125-15.395L339,325l14.125-15.395L367.25,325l14.125-15.395L395.5,325l14.125-15.395L423.75,325l14.125-15.395L452,325l14.125-15.395L480.25,325l14.125-15.395L508.5,325l14.125-15.395L536.75,325l14.125-15.395L565,325V0H0Z" transform="translate(0 0)"/></g><rect class="c" width="565" height="43.944" transform="translate(812 1508)"/></g><g class="d" transform="translate(4446 95)"><rect class="m" width="448.404" height="34" rx="3"/><rect class="n" x="0.5" y="0.5" width="447.404" height="33" rx="2.5"/></g><path class="e" d="M8.162,0H6.384L2.464-8.19q.084.966.133,1.785t.049,1.981V0H1.4V-9.646H3.136L7.1-1.442q-.042-.364-.112-1.274t-.07-1.666V-9.646H8.162Zm5.5-7.546A2.966,2.966,0,0,1,16.079-6.51,4.268,4.268,0,0,1,16.94-3.7a4.9,4.9,0,0,1-.392,2.023A3.074,3.074,0,0,1,15.414-.315,3.161,3.161,0,0,1,13.65.168,2.987,2.987,0,0,1,11.228-.868a4.245,4.245,0,0,1-.868-2.814,4.9,4.9,0,0,1,.392-2.023,3.074,3.074,0,0,1,1.134-1.358A3.187,3.187,0,0,1,13.664-7.546Zm0,1.036q-1.918,0-1.918,2.828t1.9,2.814q1.9,0,1.9-2.828T13.664-6.51Zm12.81-1.036a1.859,1.859,0,0,1,1.456.609,2.373,2.373,0,0,1,.546,1.645V0H27.188V-5.11q0-1.428-1.036-1.428a1.4,1.4,0,0,0-.924.315,4.407,4.407,0,0,0-.812.987V0H23.128V-5.11q0-1.428-1.036-1.428a1.4,1.4,0,0,0-.938.322,4.412,4.412,0,0,0-.8.98V0H19.068V-7.378h1.106L20.286-6.3a2.471,2.471,0,0,1,2.128-1.246,1.938,1.938,0,0,1,1.169.35,1.92,1.92,0,0,1,.693.98,3.467,3.467,0,0,1,.959-.987A2.214,2.214,0,0,1,26.474-7.546Zm10.164,3.64q0,.322-.028.658h-4.7a2.875,2.875,0,0,0,.616,1.792,1.786,1.786,0,0,0,1.372.574,3,3,0,0,0,.98-.154,3.952,3.952,0,0,0,.938-.49l.56.77A4.078,4.078,0,0,1,33.8.168,2.987,2.987,0,0,1,31.4-.84a4.132,4.132,0,0,1-.861-2.772,5.251,5.251,0,0,1,.371-2.037,3.2,3.2,0,0,1,1.064-1.393,2.7,2.7,0,0,1,1.631-.5,2.735,2.735,0,0,1,2.254.966A4.13,4.13,0,0,1,36.638-3.906Zm-1.274-.378A2.727,2.727,0,0,0,34.93-5.95a1.529,1.529,0,0,0-1.3-.574q-1.582,0-1.722,2.324h3.458Zm3.668,2.506a.95.95,0,0,1,.7.28.933.933,0,0,1,.28.686.956.956,0,0,1-.28.693.938.938,0,0,1-.7.287.921.921,0,0,1-.686-.287.956.956,0,0,1-.28-.693.933.933,0,0,1,.28-.686A.933.933,0,0,1,39.032-1.778Zm0-5.152a.95.95,0,0,1,.7.28.933.933,0,0,1,.28.686.956.956,0,0,1-.28.693.938.938,0,0,1-.7.287.921.921,0,0,1-.686-.287.956.956,0,0,1-.28-.693.933.933,0,0,1,.28-.686A.933.933,0,0,1,39.032-6.93Z" transform="translate(4445 83)"/><g class="d" transform="translate(4447.596 174)"><rect class="m" width="448.404" height="34" rx="3"/><rect class="n" x="0.5" y="0.5" width="447.404" height="33" rx="2.5"/></g><path class="e" d="M6.622-9.646,6.468-8.582H2.73v3.15H5.978v1.064H2.73v3.3h4V0H1.4V-9.646ZM8.05-3.836V-4.928h3.962v1.092Zm13.538-3.71a1.859,1.859,0,0,1,1.456.609,2.373,2.373,0,0,1,.546,1.645V0H22.3V-5.11q0-1.428-1.036-1.428a1.4,1.4,0,0,0-.924.315,4.407,4.407,0,0,0-.812.987V0H18.242V-5.11q0-1.428-1.036-1.428a1.4,1.4,0,0,0-.938.322,4.412,4.412,0,0,0-.8.98V0H14.182V-7.378h1.106L15.4-6.3a2.471,2.471,0,0,1,2.128-1.246A1.939,1.939,0,0,1,18.7-7.2a1.92,1.92,0,0,1,.693.98,3.467,3.467,0,0,1,.959-.987A2.214,2.214,0,0,1,21.588-7.546ZM31.15-1.722a1.156,1.156,0,0,0,.154.665.939.939,0,0,0,.462.329l-.294.9a1.969,1.969,0,0,1-.924-.322,1.473,1.473,0,0,1-.518-.784,2.475,2.475,0,0,1-2.2,1.106A2.357,2.357,0,0,1,26.11-.448a2.151,2.151,0,0,1-.63-1.61,2.115,2.115,0,0,1,.847-1.806,3.963,3.963,0,0,1,2.4-.63h1.134V-5.04a1.435,1.435,0,0,0-.378-1.12A1.71,1.71,0,0,0,28.322-6.5a6.5,6.5,0,0,0-1.988.392l-.322-.938a7.425,7.425,0,0,1,2.548-.5,2.663,2.663,0,0,1,1.946.637A2.437,2.437,0,0,1,31.15-5.1ZM28.126-.8a1.923,1.923,0,0,0,1.736-1.148V-3.64H28.9q-2.044,0-2.044,1.512a1.384,1.384,0,0,0,.322.994A1.259,1.259,0,0,0,28.126-.8Zm6.958-6.58V0H33.8V-7.378Zm-.658-3.542a.89.89,0,0,1,.658.252.855.855,0,0,1,.252.63.832.832,0,0,1-.252.623.9.9,0,0,1-.658.245.886.886,0,0,1-.644-.245.832.832,0,0,1-.252-.623.855.855,0,0,1,.252-.63A.872.872,0,0,1,34.426-10.92ZM39.214.168a1.5,1.5,0,0,1-1.127-.427,1.651,1.651,0,0,1-.413-1.2v-8.89l1.288-.154v9.016a.754.754,0,0,0,.1.448.418.418,0,0,0,.357.14A1.273,1.273,0,0,0,39.9-.98l.336.9A2.1,2.1,0,0,1,39.214.168Z" transform="translate(4446 166)"/><rect class="f" width="99" height="34" rx="3" transform="translate(4797 254)"/><path class="g" d="M4.32-11.216a5.107,5.107,0,0,1,1.888.312,5.171,5.171,0,0,1,1.52.968L6.9-9.008a4.738,4.738,0,0,0-1.224-.728,3.54,3.54,0,0,0-1.288-.232,2.391,2.391,0,0,0-1.424.4A1.345,1.345,0,0,0,2.4-8.4a1.576,1.576,0,0,0,.192.808,1.715,1.715,0,0,0,.712.6,9.309,9.309,0,0,0,1.512.576,9.849,9.849,0,0,1,1.728.688A3,3,0,0,1,7.656-4.712a2.939,2.939,0,0,1,.424,1.64,3.073,3.073,0,0,1-.472,1.7A3.157,3.157,0,0,1,6.248-.224a4.92,4.92,0,0,1-2.1.416A5.13,5.13,0,0,1,.4-1.232l.832-.928a5.422,5.422,0,0,0,1.36.824,4.041,4.041,0,0,0,1.536.28,2.748,2.748,0,0,0,1.7-.5A1.717,1.717,0,0,0,6.5-3.024a1.785,1.785,0,0,0-.208-.9,1.853,1.853,0,0,0-.712-.648,7.3,7.3,0,0,0-1.464-.576,6.442,6.442,0,0,1-2.48-1.232A2.52,2.52,0,0,1,.848-8.336a2.61,2.61,0,0,1,.44-1.488A2.928,2.928,0,0,1,2.52-10.848,4.224,4.224,0,0,1,4.32-11.216ZM16.112,0,15.28-2.768H11.1L10.272,0H8.736l3.536-11.024h1.92L17.712,0Zm-4.64-4h3.44L13.2-9.76Zm9.456-7.024v9.7h4.528L25.28,0H19.408V-11.024Zm12.4,0L29.808,0H28.176L24.624-11.024h1.632l2.768,9.376,2.768-9.376ZM40.672,0,39.84-2.768H35.664L34.832,0H33.3l3.536-11.024h1.92L42.272,0Zm-4.64-4h3.44L37.76-9.76ZM47.2-4.672H45.488V0h-1.52V-11.024h2.9a5.234,5.234,0,0,1,3.128.784A2.716,2.716,0,0,1,51.056-7.9a2.852,2.852,0,0,1-.592,1.872,3.62,3.62,0,0,1-1.792,1.088L51.648,0H49.84ZM47.024-5.84a2.845,2.845,0,0,0,1.808-.488A1.9,1.9,0,0,0,49.44-7.9a1.719,1.719,0,0,0-.616-1.48,3.363,3.363,0,0,0-1.976-.456h-1.36v4Z" transform="translate(4821 277)"/><g transform="translate(3568 -1117)"><g transform="translate(812 1508)"><path class="b" d="M0,325l14.125-15.395L28.25,325l14.125-15.395L56.5,325l14.125-15.395L84.75,325l14.125-15.395L113,325l14.125-15.395L141.25,325l14.125-15.395L169.5,325l14.125-15.395L197.75,325l14.125-15.395L226,325l14.125-15.395L254.25,325l14.125-15.395L282.5,325l14.125-15.395L310.75,325l14.125-15.395L339,325l14.125-15.395L367.25,325l14.125-15.395L395.5,325l14.125-15.395L423.75,325l14.125-15.395L452,325l14.125-15.395L480.25,325l14.125-15.395L508.5,325l14.125-15.395L536.75,325l14.125-15.395L565,325V0H0Z" transform="translate(0 0)"/></g><rect class="c" width="565" height="43.944" transform="translate(812 1508)"/></g><g class="d" transform="translate(4446 486)"><rect class="m" width="448.404" height="34" rx="3"/><rect class="n" x="0.5" y="0.5" width="447.404" height="33" rx="2.5"/></g><path class="e" d="M8.162,0H6.384L2.464-8.19q.084.966.133,1.785t.049,1.981V0H1.4V-9.646H3.136L7.1-1.442q-.042-.364-.112-1.274t-.07-1.666V-9.646H8.162Zm5.5-7.546A2.966,2.966,0,0,1,16.079-6.51,4.268,4.268,0,0,1,16.94-3.7a4.9,4.9,0,0,1-.392,2.023A3.074,3.074,0,0,1,15.414-.315,3.161,3.161,0,0,1,13.65.168,2.987,2.987,0,0,1,11.228-.868a4.245,4.245,0,0,1-.868-2.814,4.9,4.9,0,0,1,.392-2.023,3.074,3.074,0,0,1,1.134-1.358A3.187,3.187,0,0,1,13.664-7.546Zm0,1.036q-1.918,0-1.918,2.828t1.9,2.814q1.9,0,1.9-2.828T13.664-6.51Zm12.81-1.036a1.859,1.859,0,0,1,1.456.609,2.373,2.373,0,0,1,.546,1.645V0H27.188V-5.11q0-1.428-1.036-1.428a1.4,1.4,0,0,0-.924.315,4.407,4.407,0,0,0-.812.987V0H23.128V-5.11q0-1.428-1.036-1.428a1.4,1.4,0,0,0-.938.322,4.412,4.412,0,0,0-.8.98V0H19.068V-7.378h1.106L20.286-6.3a2.471,2.471,0,0,1,2.128-1.246,1.938,1.938,0,0,1,1.169.35,1.92,1.92,0,0,1,.693.98,3.467,3.467,0,0,1,.959-.987A2.214,2.214,0,0,1,26.474-7.546Zm10.164,3.64q0,.322-.028.658h-4.7a2.875,2.875,0,0,0,.616,1.792,1.786,1.786,0,0,0,1.372.574,3,3,0,0,0,.98-.154,3.952,3.952,0,0,0,.938-.49l.56.77A4.078,4.078,0,0,1,33.8.168,2.987,2.987,0,0,1,31.4-.84a4.132,4.132,0,0,1-.861-2.772,5.251,5.251,0,0,1,.371-2.037,3.2,3.2,0,0,1,1.064-1.393,2.7,2.7,0,0,1,1.631-.5,2.735,2.735,0,0,1,2.254.966A4.13,4.13,0,0,1,36.638-3.906Zm-1.274-.378A2.727,2.727,0,0,0,34.93-5.95a1.529,1.529,0,0,0-1.3-.574q-1.582,0-1.722,2.324h3.458Zm3.668,2.506a.95.95,0,0,1,.7.28.933.933,0,0,1,.28.686.956.956,0,0,1-.28.693.938.938,0,0,1-.7.287.921.921,0,0,1-.686-.287.956.956,0,0,1-.28-.693.933.933,0,0,1,.28-.686A.933.933,0,0,1,39.032-1.778Zm0-5.152a.95.95,0,0,1,.7.28.933.933,0,0,1,.28.686.956.956,0,0,1-.28.693.938.938,0,0,1-.7.287.921.921,0,0,1-.686-.287.956.956,0,0,1-.28-.693.933.933,0,0,1,.28-.686A.933.933,0,0,1,39.032-6.93Z" transform="translate(4445 474)"/><g class="d" transform="translate(4447.596 565)"><rect class="m" width="448.404" height="34" rx="3"/><rect class="n" x="0.5" y="0.5" width="447.404" height="33" rx="2.5"/></g><path class="e" d="M6.622-9.646,6.468-8.582H2.73v3.15H5.978v1.064H2.73v3.3h4V0H1.4V-9.646ZM8.05-3.836V-4.928h3.962v1.092Zm13.538-3.71a1.859,1.859,0,0,1,1.456.609,2.373,2.373,0,0,1,.546,1.645V0H22.3V-5.11q0-1.428-1.036-1.428a1.4,1.4,0,0,0-.924.315,4.407,4.407,0,0,0-.812.987V0H18.242V-5.11q0-1.428-1.036-1.428a1.4,1.4,0,0,0-.938.322,4.412,4.412,0,0,0-.8.98V0H14.182V-7.378h1.106L15.4-6.3a2.471,2.471,0,0,1,2.128-1.246A1.939,1.939,0,0,1,18.7-7.2a1.92,1.92,0,0,1,.693.98,3.467,3.467,0,0,1,.959-.987A2.214,2.214,0,0,1,21.588-7.546ZM31.15-1.722a1.156,1.156,0,0,0,.154.665.939.939,0,0,0,.462.329l-.294.9a1.969,1.969,0,0,1-.924-.322,1.473,1.473,0,0,1-.518-.784,2.475,2.475,0,0,1-2.2,1.106A2.357,2.357,0,0,1,26.11-.448a2.151,2.151,0,0,1-.63-1.61,2.115,2.115,0,0,1,.847-1.806,3.963,3.963,0,0,1,2.4-.63h1.134V-5.04a1.435,1.435,0,0,0-.378-1.12A1.71,1.71,0,0,0,28.322-6.5a6.5,6.5,0,0,0-1.988.392l-.322-.938a7.425,7.425,0,0,1,2.548-.5,2.663,2.663,0,0,1,1.946.637A2.437,2.437,0,0,1,31.15-5.1ZM28.126-.8a1.923,1.923,0,0,0,1.736-1.148V-3.64H28.9q-2.044,0-2.044,1.512a1.384,1.384,0,0,0,.322.994A1.259,1.259,0,0,0,28.126-.8Zm6.958-6.58V0H33.8V-7.378Zm-.658-3.542a.89.89,0,0,1,.658.252.855.855,0,0,1,.252.63.832.832,0,0,1-.252.623.9.9,0,0,1-.658.245.886.886,0,0,1-.644-.245.832.832,0,0,1-.252-.623.855.855,0,0,1,.252-.63A.872.872,0,0,1,34.426-10.92ZM39.214.168a1.5,1.5,0,0,1-1.127-.427,1.651,1.651,0,0,1-.413-1.2v-8.89l1.288-.154v9.016a.754.754,0,0,0,.1.448.418.418,0,0,0,.357.14A1.273,1.273,0,0,0,39.9-.98l.336.9A2.1,2.1,0,0,1,39.214.168Z" transform="translate(4446 557)"/><rect class="f" width="99" height="34" rx="3" transform="translate(4797 645)"/><path class="g" d="M4.32-11.216a5.107,5.107,0,0,1,1.888.312,5.171,5.171,0,0,1,1.52.968L6.9-9.008a4.738,4.738,0,0,0-1.224-.728,3.54,3.54,0,0,0-1.288-.232,2.391,2.391,0,0,0-1.424.4A1.345,1.345,0,0,0,2.4-8.4a1.576,1.576,0,0,0,.192.808,1.715,1.715,0,0,0,.712.6,9.309,9.309,0,0,0,1.512.576,9.849,9.849,0,0,1,1.728.688A3,3,0,0,1,7.656-4.712a2.939,2.939,0,0,1,.424,1.64,3.073,3.073,0,0,1-.472,1.7A3.157,3.157,0,0,1,6.248-.224a4.92,4.92,0,0,1-2.1.416A5.13,5.13,0,0,1,.4-1.232l.832-.928a5.422,5.422,0,0,0,1.36.824,4.041,4.041,0,0,0,1.536.28,2.748,2.748,0,0,0,1.7-.5A1.717,1.717,0,0,0,6.5-3.024a1.785,1.785,0,0,0-.208-.9,1.853,1.853,0,0,0-.712-.648,7.3,7.3,0,0,0-1.464-.576,6.442,6.442,0,0,1-2.48-1.232A2.52,2.52,0,0,1,.848-8.336a2.61,2.61,0,0,1,.44-1.488A2.928,2.928,0,0,1,2.52-10.848,4.224,4.224,0,0,1,4.32-11.216ZM16.112,0,15.28-2.768H11.1L10.272,0H8.736l3.536-11.024h1.92L17.712,0Zm-4.64-4h3.44L13.2-9.76Zm9.456-7.024v9.7h4.528L25.28,0H19.408V-11.024Zm12.4,0L29.808,0H28.176L24.624-11.024h1.632l2.768,9.376,2.768-9.376ZM40.672,0,39.84-2.768H35.664L34.832,0H33.3l3.536-11.024h1.92L42.272,0Zm-4.64-4h3.44L37.76-9.76ZM47.2-4.672H45.488V0h-1.52V-11.024h2.9a5.234,5.234,0,0,1,3.128.784A2.716,2.716,0,0,1,51.056-7.9a2.852,2.852,0,0,1-.592,1.872,3.62,3.62,0,0,1-1.792,1.088L51.648,0H49.84ZM47.024-5.84a2.845,2.845,0,0,0,1.808-.488A1.9,1.9,0,0,0,49.44-7.9a1.719,1.719,0,0,0-.616-1.48,3.363,3.363,0,0,0-1.976-.456h-1.36v4Z" transform="translate(4821 668)"/><path class="h" d="M5.456-11.216a4.772,4.772,0,0,1,1.672.256,5,5,0,0,1,1.384.832l-.832.976a3.333,3.333,0,0,0-2.128-.816A2.693,2.693,0,0,0,3.336-8.912,5.463,5.463,0,0,0,2.5-5.52a5.486,5.486,0,0,0,.832,3.352,2.649,2.649,0,0,0,2.208,1.08,2.952,2.952,0,0,0,1.232-.24A6.47,6.47,0,0,0,7.888-2l.752.96a4.1,4.1,0,0,1-1.312.88,4.53,4.53,0,0,1-1.84.352A4.374,4.374,0,0,1,3.1-.472,4.37,4.37,0,0,1,1.464-2.424,7.459,7.459,0,0,1,.88-5.52a7.2,7.2,0,0,1,.608-3.1A4.485,4.485,0,0,1,3.136-10.56,4.259,4.259,0,0,1,5.456-11.216ZM16.432,0,15.6-2.768H11.424L10.592,0H9.056l3.536-11.024h1.92L18.032,0Zm-4.64-4h3.44L13.52-9.76ZM27.456,0H25.424l-4.48-9.36q.1,1.1.152,2.04t.056,2.264V0H19.728V-11.024h1.984L26.24-1.648q-.048-.416-.128-1.456t-.08-1.9v-6.016h1.424Zm7.056-11.216a4.772,4.772,0,0,1,1.672.256,5,5,0,0,1,1.384.832l-.832.976a3.333,3.333,0,0,0-2.128-.816,2.693,2.693,0,0,0-2.216,1.056,5.463,5.463,0,0,0-.84,3.392,5.486,5.486,0,0,0,.832,3.352,2.649,2.649,0,0,0,2.208,1.08,2.952,2.952,0,0,0,1.232-.24A6.471,6.471,0,0,0,36.944-2l.752.96a4.1,4.1,0,0,1-1.312.88,4.53,4.53,0,0,1-1.84.352,4.374,4.374,0,0,1-2.392-.664A4.37,4.37,0,0,1,30.52-2.424a7.459,7.459,0,0,1-.584-3.1,7.2,7.2,0,0,1,.608-3.1,4.485,4.485,0,0,1,1.648-1.944A4.259,4.259,0,0,1,34.512-11.216Zm11.072.192-.176,1.216H41.136v3.6h3.712v1.216H41.136v3.776h4.576V0h-6.1V-11.024Zm4.112,0v9.7h4.528L54.048,0H48.176V-11.024ZM62.016,0l-.832-2.768H57.008L56.176,0H54.64l3.536-11.024H60.1L63.616,0Zm-4.64-4h3.44L59.1-9.76Zm11.168-.672H66.832V0h-1.52V-11.024h2.9a5.234,5.234,0,0,1,3.128.784A2.716,2.716,0,0,1,72.4-7.9a2.852,2.852,0,0,1-.592,1.872,3.62,3.62,0,0,1-1.792,1.088L72.992,0H71.184ZM68.368-5.84a2.845,2.845,0,0,0,1.808-.488A1.9,1.9,0,0,0,70.784-7.9a1.719,1.719,0,0,0-.616-1.48,3.363,3.363,0,0,0-1.976-.456h-1.36v4Z" transform="translate(4691 669)"/><path class="i" d="M8.274,0H5.88L2.562-7.826q.126,1.036.189,1.876t.063,2V0H1.134V-9.674H3.472l3.374,7.84q-.084-.56-.168-1.477T6.594-5.138V-9.674h1.68ZM17.6-3.164a3.6,3.6,0,0,1-.413,1.743,2.907,2.907,0,0,1-1.232,1.2A4.15,4.15,0,0,1,13.986.21a3.617,3.617,0,0,1-2.66-.917A3.306,3.306,0,0,1,10.4-3.164v-6.51H12.25v6.412a2.317,2.317,0,0,0,.427,1.526,1.621,1.621,0,0,0,1.309.5,1.639,1.639,0,0,0,1.323-.5,2.317,2.317,0,0,0,.427-1.526V-9.674H17.6ZM26.866,0H24.472L21.154-7.826q.126,1.036.189,1.876t.063,2V0h-1.68V-9.674h2.338l3.374,7.84q-.084-.56-.168-1.477t-.084-1.827V-9.674h1.68ZM32.83-9.884a4.3,4.3,0,0,1,1.54.252,4.664,4.664,0,0,1,1.288.77L34.72-7.77a2.824,2.824,0,0,0-1.792-.686,2.056,2.056,0,0,0-1.729.868,4.575,4.575,0,0,0-.651,2.73,4.594,4.594,0,0,0,.644,2.7,2.04,2.04,0,0,0,1.736.882,2.451,2.451,0,0,0,1.022-.2,5.169,5.169,0,0,0,.952-.581L35.77-.966a3.969,3.969,0,0,1-1.239.84A4.043,4.043,0,0,1,32.858.21a4.2,4.2,0,0,1-2.226-.588,3.875,3.875,0,0,1-1.5-1.729A6.471,6.471,0,0,1,28.6-4.858a6.143,6.143,0,0,1,.553-2.716A4.026,4.026,0,0,1,30.667-9.3,4.055,4.055,0,0,1,32.83-9.884ZM42.21,0l-.6-2.24H38.4L37.8,0H35.882l3.01-9.674h2.282L44.17,0ZM38.766-3.64H41.23L40-8.26Z" transform="translate(4379 347)"/><path class="j" d="M3.92-9.884A4.895,4.895,0,0,1,5.7-9.59a4.518,4.518,0,0,1,1.414.9L6.2-7.644a3.6,3.6,0,0,0-1.043-.63,3.2,3.2,0,0,0-1.127-.2,1.8,1.8,0,0,0-1.085.3.987.987,0,0,0-.413.847,1.052,1.052,0,0,0,.161.6,1.491,1.491,0,0,0,.581.448,8.5,8.5,0,0,0,1.246.462A5.654,5.654,0,0,1,6.671-4.7a2.507,2.507,0,0,1,.721,1.939,2.743,2.743,0,0,1-.441,1.54A2.924,2.924,0,0,1,5.684-.168,4.677,4.677,0,0,1,3.724.21,5.2,5.2,0,0,1,1.743-.147,4.624,4.624,0,0,1,.238-1.12L1.19-2.184a4.3,4.3,0,0,0,1.162.721,3.5,3.5,0,0,0,1.33.245A2.051,2.051,0,0,0,4.97-1.6,1.266,1.266,0,0,0,5.46-2.66a1.3,1.3,0,0,0-.168-.693,1.457,1.457,0,0,0-.574-.49A6.993,6.993,0,0,0,3.542-4.3,5.519,5.519,0,0,1,1.316-5.446,2.359,2.359,0,0,1,.63-7.21a2.385,2.385,0,0,1,.42-1.4,2.767,2.767,0,0,1,1.169-.938A4.114,4.114,0,0,1,3.92-9.884Zm10.668.21-.2,1.372h-3.57v2.7H13.93v1.372H10.822v2.842h3.822V0H8.974V-9.674ZM25.564,0H23.758l-.252-4.046q-.126-2.17-.126-3.444v-.5L21.616-1.05h-1.75L17.99-8.008q.028.924.028,1.4,0,1.274-.084,2.618L17.7,0H15.9l.77-9.674h2.38L20.776-2.9,22.4-9.674h2.408ZM30.2-9.674a4.744,4.744,0,0,1,2.891.77,2.7,2.7,0,0,1,1.029,2.31,2.869,2.869,0,0,1-1.036,2.415,4.375,4.375,0,0,1-2.758.8H29.19V0H27.342V-9.674ZM30.184-4.76a2.322,2.322,0,0,0,1.5-.413,1.745,1.745,0,0,0,.5-1.421q0-1.722-2-1.722H29.19V-4.76Zm8.456.882H37.464V0H35.616V-9.674H38.5q3.836,0,3.836,2.842a2.573,2.573,0,0,1-.476,1.6,3.3,3.3,0,0,1-1.484,1.022L42.91,0H40.782Zm-1.176-1.33h1.148a2.022,2.022,0,0,0,1.337-.385A1.538,1.538,0,0,0,40.4-6.832a1.342,1.342,0,0,0-.469-1.141,2.448,2.448,0,0,0-1.477-.357h-.994Zm12.32-4.466-.2,1.372h-3.57v2.7h3.108v1.372H46.018v2.842H49.84V0H44.17V-9.674Z" transform="translate(4380 738)"/><g class="k" transform="translate(4676 253)"><rect class="m" width="96" height="35" rx="3"/><rect class="n" x="0.5" y="0.5" width="95" height="34" rx="2.5"/></g><path class="l" d="M5.456-11.216a4.772,4.772,0,0,1,1.672.256,5,5,0,0,1,1.384.832l-.832.976a3.333,3.333,0,0,0-2.128-.816A2.693,2.693,0,0,0,3.336-8.912,5.463,5.463,0,0,0,2.5-5.52a5.486,5.486,0,0,0,.832,3.352,2.649,2.649,0,0,0,2.208,1.08,2.952,2.952,0,0,0,1.232-.24A6.47,6.47,0,0,0,7.888-2l.752.96a4.1,4.1,0,0,1-1.312.88,4.53,4.53,0,0,1-1.84.352A4.374,4.374,0,0,1,3.1-.472,4.37,4.37,0,0,1,1.464-2.424,7.459,7.459,0,0,1,.88-5.52a7.2,7.2,0,0,1,.608-3.1A4.485,4.485,0,0,1,3.136-10.56,4.259,4.259,0,0,1,5.456-11.216ZM16.432,0,15.6-2.768H11.424L10.592,0H9.056l3.536-11.024h1.92L18.032,0Zm-4.64-4h3.44L13.52-9.76ZM27.456,0H25.424l-4.48-9.36q.1,1.1.152,2.04t.056,2.264V0H19.728V-11.024h1.984L26.24-1.648q-.048-.416-.128-1.456t-.08-1.9v-6.016h1.424Zm7.056-11.216a4.772,4.772,0,0,1,1.672.256,5,5,0,0,1,1.384.832l-.832.976a3.333,3.333,0,0,0-2.128-.816,2.693,2.693,0,0,0-2.216,1.056,5.463,5.463,0,0,0-.84,3.392,5.486,5.486,0,0,0,.832,3.352,2.649,2.649,0,0,0,2.208,1.08,2.952,2.952,0,0,0,1.232-.24A6.471,6.471,0,0,0,36.944-2l.752.96a4.1,4.1,0,0,1-1.312.88,4.53,4.53,0,0,1-1.84.352,4.374,4.374,0,0,1-2.392-.664A4.37,4.37,0,0,1,30.52-2.424a7.459,7.459,0,0,1-.584-3.1,7.2,7.2,0,0,1,.608-3.1,4.485,4.485,0,0,1,1.648-1.944A4.259,4.259,0,0,1,34.512-11.216Zm11.072.192-.176,1.216H41.136v3.6h3.712v1.216H41.136v3.776h4.576V0h-6.1V-11.024Zm4.112,0v9.7h4.528L54.048,0H48.176V-11.024ZM62.016,0l-.832-2.768H57.008L56.176,0H54.64l3.536-11.024H60.1L63.616,0Zm-4.64-4h3.44L59.1-9.76Zm11.168-.672H66.832V0h-1.52V-11.024h2.9a5.234,5.234,0,0,1,3.128.784A2.716,2.716,0,0,1,72.4-7.9a2.852,2.852,0,0,1-.592,1.872,3.62,3.62,0,0,1-1.792,1.088L72.992,0H71.184ZM68.368-5.84a2.845,2.845,0,0,0,1.808-.488A1.9,1.9,0,0,0,70.784-7.9a1.719,1.719,0,0,0-.616-1.48,3.363,3.363,0,0,0-1.976-.456h-1.36v4Z" transform="translate(4688 276)"/></g></svg>