<svg xmlns="http://www.w3.org/2000/svg" xmlns:xlink="http://www.w3.org/1999/xlink" viewBox="5054 0 652 594"><defs><style>.a{clip-path:url(#b);}.b{fill:#ecf7ff;stroke:#a5c1d5;fill-rule:evenodd;opacity:0.39;}.c{fill:#86ceff;}.d,.i{fill:#3b95e3;}.e{fill:#fb1010;}.e,.f{stroke:rgba(0,0,0,0);}.f{fill:#2aa213;}.g,.l{fill:none;}.g{stroke:#3b95e3;}.h{fill:#3b3b3b;font-size:20px;}.h,.i,.j{font-family:FiraSans-Regular, Fira Sans;}.i,.j{font-size:16px;}.j{fill:#fff;}.k{stroke:none;}</style><clipPath id="b"><rect x="5054" width="652" height="594"/></clipPath></defs><g id="a" class="a"><g transform="translate(4290 -1508)"><g transform="translate(812 1508)"><path class="b" d="M0,234l14.125-11.084L28.25,234l14.125-11.084L56.5,234l14.125-11.084L84.75,234l14.125-11.084L113,234l14.125-11.084L141.25,234l14.125-11.084L169.5,234l14.125-11.084L197.75,234l14.125-11.084L226,234l14.125-11.084L254.25,234l14.125-11.084L282.5,234l14.125-11.084L310.75,234l14.125-11.084L339,234l14.125-11.084L367.25,234l14.125-11.084L395.5,234l14.125-11.084L423.75,234l14.125-11.084L452,234l14.125-11.084L480.25,234l14.125-11.084L508.5,234l14.125-11.084L536.75,234l14.125-11.084L565,234V0H0Z" transform="translate(0 0)"/></g><rect class="c" width="565" height="31.639" transform="translate(812 1508)"/></g><rect class="d" width="99" height="34" rx="3" transform="translate(5530 164)"/><path class="e" d="M8.274,0H5.88L2.562-7.826q.126,1.036.189,1.876t.063,2V0H1.134V-9.674H3.472l3.374,7.84q-.084-.56-.168-1.477T6.594-5.138V-9.674h1.68ZM17.6-3.164a3.6,3.6,0,0,1-.413,1.743,2.907,2.907,0,0,1-1.232,1.2A4.15,4.15,0,0,1,13.986.21a3.617,3.617,0,0,1-2.66-.917A3.306,3.306,0,0,1,10.4-3.164v-6.51H12.25v6.412a2.317,2.317,0,0,0,.427,1.526,1.621,1.621,0,0,0,1.309.5,1.639,1.639,0,0,0,1.323-.5,2.317,2.317,0,0,0,.427-1.526V-9.674H17.6ZM26.866,0H24.472L21.154-7.826q.126,1.036.189,1.876t.063,2V0h-1.68V-9.674h2.338l3.374,7.84q-.084-.56-.168-1.477t-.084-1.827V-9.674h1.68ZM32.83-9.884a4.3,4.3,0,0,1,1.54.252,4.664,4.664,0,0,1,1.288.77L34.72-7.77a2.824,2.824,0,0,0-1.792-.686,2.056,2.056,0,0,0-1.729.868,4.575,4.575,0,0,0-.651,2.73,4.594,4.594,0,0,0,.644,2.7,2.04,2.04,0,0,0,1.736.882,2.451,2.451,0,0,0,1.022-.2,5.169,5.169,0,0,0,.952-.581L35.77-.966a3.969,3.969,0,0,1-1.239.84A4.043,4.043,0,0,1,32.858.21a4.2,4.2,0,0,1-2.226-.588,3.875,3.875,0,0,1-1.5-1.729A6.471,6.471,0,0,1,28.6-4.858a6.143,6.143,0,0,1,.553-2.716A4.026,4.026,0,0,1,30.667-9.3,4.055,4.055,0,0,1,32.83-9.884ZM42.21,0l-.6-2.24H38.4L37.8,0H35.882l3.01-9.674h2.282L44.17,0ZM38.766-3.64H41.23L40-8.26Z" transform="translate(5101 259)"/><path class="f" d="M3.92-9.884A4.895,4.895,0,0,1,5.7-9.59a4.518,4.518,0,0,1,1.414.9L6.2-7.644a3.6,3.6,0,0,0-1.043-.63,3.2,3.2,0,0,0-1.127-.2,1.8,1.8,0,0,0-1.085.3.987.987,0,0,0-.413.847,1.052,1.052,0,0,0,.161.6,1.491,1.491,0,0,0,.581.448,8.5,8.5,0,0,0,1.246.462A5.654,5.654,0,0,1,6.671-4.7a2.507,2.507,0,0,1,.721,1.939,2.743,2.743,0,0,1-.441,1.54A2.924,2.924,0,0,1,5.684-.168,4.677,4.677,0,0,1,3.724.21,5.2,5.2,0,0,1,1.743-.147,4.624,4.624,0,0,1,.238-1.12L1.19-2.184a4.3,4.3,0,0,0,1.162.721,3.5,3.5,0,0,0,1.33.245A2.051,2.051,0,0,0,4.97-1.6,1.266,1.266,0,0,0,5.46-2.66a1.3,1.3,0,0,0-.168-.693,1.457,1.457,0,0,0-.574-.49A6.993,6.993,0,0,0,3.542-4.3,5.519,5.519,0,0,1,1.316-5.446,2.359,2.359,0,0,1,.63-7.21a2.385,2.385,0,0,1,.42-1.4,2.767,2.767,0,0,1,1.169-.938A4.114,4.114,0,0,1,3.92-9.884Zm10.668.21-.2,1.372h-3.57v2.7H13.93v1.372H10.822v2.842h3.822V0H8.974V-9.674ZM25.564,0H23.758l-.252-4.046q-.126-2.17-.126-3.444v-.5L21.616-1.05h-1.75L17.99-8.008q.028.924.028,1.4,0,1.274-.084,2.618L17.7,0H15.9l.77-9.674h2.38L20.776-2.9,22.4-9.674h2.408ZM30.2-9.674a4.744,4.744,0,0,1,2.891.77,2.7,2.7,0,0,1,1.029,2.31,2.869,2.869,0,0,1-1.036,2.415,4.375,4.375,0,0,1-2.758.8H29.19V0H27.342V-9.674ZM30.184-4.76a2.322,2.322,0,0,0,1.5-.413,1.745,1.745,0,0,0,.5-1.421q0-1.722-2-1.722H29.19V-4.76Zm8.456.882H37.464V0H35.616V-9.674H38.5q3.836,0,3.836,2.842a2.573,2.573,0,0,1-.476,1.6,3.3,3.3,0,0,1-1.484,1.022L42.91,0H40.782Zm-1.176-1.33h1.148a2.022,2.022,0,0,0,1.337-.385A1.538,1.538,0,0,0,40.4-6.832a1.342,1.342,0,0,0-.469-1.141,2.448,2.448,0,0,0-1.477-.357h-.994Zm12.32-4.466-.2,1.372h-3.57v2.7h3.108v1.372H46.018v2.842H49.84V0H44.17V-9.674Z" transform="translate(5102 577)"/><g class="g" transform="translate(5409 163)"><rect class="k" width="96" height="35" rx="3"/><rect class="l" x="0.5" y="0.5" width="95" height="34" rx="2.5"/></g><text class="h" transform="translate(5137 112)"><tspan x="0" y="0">Aceita os termos e condições?</tspan></text><text class="i" transform="translate(5442 186)"><tspan x="0" y="0">NÃO</tspan></text><text class="j" transform="translate(5565 186)"><tspan x="0" y="0">SIM</tspan></text><g transform="translate(4290 -1190)"><g transform="translate(812 1508)"><path class="b" d="M0,234l14.125-11.084L28.25,234l14.125-11.084L56.5,234l14.125-11.084L84.75,234l14.125-11.084L113,234l14.125-11.084L141.25,234l14.125-11.084L169.5,234l14.125-11.084L197.75,234l14.125-11.084L226,234l14.125-11.084L254.25,234l14.125-11.084L282.5,234l14.125-11.084L310.75,234l14.125-11.084L339,234l14.125-11.084L367.25,234l14.125-11.084L395.5,234l14.125-11.084L423.75,234l14.125-11.084L452,234l14.125-11.084L480.25,234l14.125-11.084L508.5,234l14.125-11.084L536.75,234l14.125-11.084L565,234V0H0Z" transform="translate(0 0)"/></g><rect class="c" width="565" height="31.639" transform="translate(812 1508)"/></g><rect class="d" width="99" height="34" rx="3" transform="translate(5530 482)"/><g class="g" transform="translate(5409 481)"><rect class="k" width="96" height="35" rx="3"/><rect class="l" x="0.5" y="0.5" width="95" height="34" rx="2.5"/></g><text class="h" transform="translate(5137 430)"><tspan x="0" y="0">Aceita os termos e condições?</tspan></text><text class="i" transform="translate(5425 505)"><tspan x="0" y="0">RECUSAR</tspan></text><text class="j" transform="translate(5551 505)"><tspan x="0" y="0">ACEITAR</tspan></text></g></svg>