<svg xmlns="http://www.w3.org/2000/svg" xmlns:xlink="http://www.w3.org/1999/xlink" viewBox="1444 0 652 711"><defs><style>.a{clip-path:url(#b);}.b{fill:#ecf7ff;stroke:#a5c1d5;fill-rule:evenodd;opacity:0.39;}.c{fill:#86ceff;}.d,.o{fill:none;}.d,.k,.l{stroke:#95989a;}.e{fill:rgba(134,206,255,0.61);}.f,.i{fill:#3b95e3;}.f{font-size:15px;}.f,.h,.j{font-family:FiraSans-Regular, Fira Sans;}.g{fill:#fb1010;}.g,.m{font-size:14px;font-family:FiraSans-Medium, Fira Sans;font-weight:500;}.h{fill:#95989a;font-size:12px;}.j,.k{fill:#fff;}.j{font-size:7px;}.l{fill:#e5e5e5;}.m{fill:#2aa213;}.n{stroke:none;}</style><clipPath id="b"><rect x="1444" width="652" height="711"/></clipPath></defs><g id="a" class="a"><g transform="translate(680 -1507)"><g transform="translate(9 1116)"><path class="b" d="M0,291.3l14.125-13.8L28.25,291.3l14.125-13.8L56.5,291.3l14.125-13.8L84.75,291.3l14.125-13.8L113,291.3l14.125-13.8,14.125,13.8,14.125-13.8L169.5,291.3l14.125-13.8,14.125,13.8,14.125-13.8L226,291.3l14.125-13.8,14.125,13.8,14.125-13.8L282.5,291.3l14.125-13.8,14.125,13.8,14.125-13.8L339,291.3l14.125-13.8,14.125,13.8,14.125-13.8L395.5,291.3l14.125-13.8,14.125,13.8,14.125-13.8L452,291.3l14.125-13.8,14.125,13.8,14.125-13.8L508.5,291.3l14.125-13.8,14.125,13.8,14.125-13.8L565,291.3V0H0Z" transform="translate(803 392)"/></g><rect class="c" width="565" height="48" transform="translate(812 1508)"/></g><g transform="translate(680 -1166)"><g transform="translate(9 1116)"><path class="b" d="M0,327.1l14.125-15.494L28.25,327.1l14.125-15.494L56.5,327.1l14.125-15.494L84.75,327.1l14.125-15.494L113,327.1l14.125-15.494L141.25,327.1l14.125-15.494L169.5,327.1l14.125-15.494L197.75,327.1l14.125-15.494L226,327.1l14.125-15.494L254.25,327.1l14.125-15.494L282.5,327.1l14.125-15.494L310.75,327.1l14.125-15.494L339,327.1l14.125-15.494L367.25,327.1l14.125-15.494L395.5,327.1l14.125-15.494L423.75,327.1l14.125-15.494L452,327.1l14.125-15.494L480.25,327.1l14.125-15.494L508.5,327.1l14.125-15.494L536.75,327.1l14.125-15.494L565,327.1V0H0Z" transform="translate(803 392)"/></g><rect class="c" width="565" height="48" transform="translate(812 1508)"/></g><line class="d" x2="553" transform="translate(1499.5 216.5)"/><line class="d" x2="525.3" transform="translate(1512 594.5)"/><line class="d" x2="553" transform="translate(1499.5 236.5)"/><rect class="e" width="16" height="18" rx="2" transform="translate(1736 243)"/><rect class="e" width="16" height="18" rx="2" transform="translate(1745 621)"/><text class="f" transform="translate(1722 257)"><tspan x="0" y="0" xml:space="preserve">1   2   3   4   5   6 </tspan></text><text class="f" transform="translate(1731 635)"><tspan x="0" y="0" xml:space="preserve">1   2   3   4   5   6 </tspan></text><text class="g" transform="translate(1492 313)"><tspan x="0" y="0">NUNCA</tspan></text><text class="h" transform="translate(1495 60)"><tspan x="0" y="0">Home / Dashboard</tspan></text><text class="h" transform="translate(1512 416)"><tspan x="0" y="0">Home / Dashboard</tspan></text><rect class="i" width="48" height="19" transform="translate(1499 64)"/><rect class="i" width="48" height="19" transform="translate(1512 434)"/><text class="j" transform="translate(1513 76)"><tspan x="0" y="0">NOVO</tspan></text><text class="j" transform="translate(1526 446)"><tspan x="0" y="0">NOVO</tspan></text><line class="d" x2="553" transform="translate(1499.5 96.5)"/><line class="d" x2="525.3" transform="translate(1512 474.5)"/><line class="d" x2="553" transform="translate(1499.5 116.5)"/><line class="d" x2="525.3" transform="translate(1512 494.5)"/><line class="d" x2="553" transform="translate(1499.5 136.5)"/><line class="d" x2="525.3" transform="translate(1512 514.5)"/><line class="d" x2="553" transform="translate(1499.5 156.5)"/><line class="d" x2="525.3" transform="translate(1512 534.5)"/><line class="d" x2="553" transform="translate(1499.5 176.5)"/><line class="d" x2="525.3" transform="translate(1512 554.5)"/><line class="d" x2="553" transform="translate(1499.5 196.5)"/><line class="d" x2="525.3" transform="translate(1512 574.5)"/><g class="k" transform="translate(1857 74)"><rect class="n" width="156" height="17"/><rect class="o" x="0.5" y="0.5" width="155" height="16"/></g><g class="k" transform="translate(1867 436)"><rect class="n" width="156" height="17"/><rect class="o" x="0.5" y="0.5" width="155" height="16"/></g><g class="l" transform="translate(2012 74)"><rect class="n" width="18" height="17"/><rect class="o" x="0.5" y="0.5" width="17" height="16"/></g><g class="l" transform="translate(2019 436)"><rect class="n" width="18" height="17"/><rect class="o" x="0.5" y="0.5" width="17" height="16"/></g><text class="m" transform="translate(1492 692)"><tspan x="0" y="0">SEMPRE</tspan></text></g></svg>