<svg xmlns="http://www.w3.org/2000/svg" xmlns:xlink="http://www.w3.org/1999/xlink" viewBox="540.791 160 845.209 334"><defs><style>.a,.c,.d,.i{fill:none;}.a{clip-rule:evenodd;}.b,.g{fill:#fff;}.b,.c,.d{opacity:0.151;}.c,.d{stroke:#fff;}.c{stroke-width:4px;}.d{stroke-width:3px;}.e{opacity:0.179;}.f{clip-path:url(#a);}.h{stroke:none;}</style><clipPath id="a"><path class="a" d="M0-1.619,1.76-7.439a18.643,18.643,0,0,0,8.821,2.23,6.1,6.1,0,0,0,4.233-1.2C16.2-7.4,17.158-8.049,17.54-9.666a3.345,3.345,0,0,0-.515-2.9c-.537-.931-1.634-1.346-3.4-2.49l-3.047-1.366c-2.5-1.648-3.4-2.146-4.24-3.6a11.029,11.029,0,0,1-.656-6.554c.616-2.609,1.665-3.3,3.959-4.989s6.1-2.387,9.034-2.387a35.06,35.06,0,0,1,9.373,1.179l-1.639,5.531a15.45,15.45,0,0,0-6.7-1.666,12.863,12.863,0,0,0-4.524.629,3.47,3.47,0,0,0-2.495,2.958c-.267,1.129.3,2.21,2.123,3.415l3.609,2.15c2.543,1.663,4.816,3.222,5.628,4.7A10.461,10.461,0,0,1,24.9-8.63a10.242,10.242,0,0,1-4.76,6.547C17.539-.3,12.648,0,9.056,0A35.345,35.345,0,0,1,0-1.619ZM38.468-14.8,29.987-33.73h7.6l5.24,13.56L54.7-33.73h8.674L45.964-14.382,42.832-.528H35.474L38.468-14.8ZM65.807-33.766h9.278L82.791-9.043,88.7-33.766h7.1L88.169-.514h-9.6l-7.827-26-5.487,26H57.894l7.913-33.252ZM97.552-6.019c-3.235-5.413-3.381-7.343-2.787-13.064s2.853-7.93,6.516-11.043,9.048-4.364,14.368-4.364a41.909,41.909,0,0,1,10.392,1.41l-1.263,5.853c-4.269-1.6-6.608-2.238-9.129-2.138-7.051.279-9.871,3.637-10.925,4.985s-1.989,2.106-2.557,6.114.532,5.987,1.724,8.467,5.2,4.167,8.932,4.167c3.21,0,3.386-.274,7.52-2.242l-1.2,6.545c-9.083,1.9-18.359.721-21.595-4.691Zm31.34-28.271H136.4l-3.134,13.1h14.767l3.147-13.426H158.2L151.185-1.258h-7.617l3.347-14.253H132.174L128.892-1.258h-7.353l7.353-33.032Zm32.045.093h12.379c3.256,0,6.524.36,8.561,2.313a7.316,7.316,0,0,1,2.038,7.474c-2.038,6.5-7.488,5.777-10.328,6.189A4.718,4.718,0,0,1,176.76-16.7c1.425,1.526,4.334,15.343,4.334,15.343h-7.507S171.553-11.643,170.2-13.63c-.629-.926-.9-1.31-1.822-1.31h-4.17L161.17-1.615h-7.458L160.937-34.2Zm7.715,13.671c6.054,0,7.566-2.314,7.946-4.172.9-4.409-3.85-4.372-6.642-4.372h-2.712l-1.7,8.544ZM186.708-6.6c-2.1-3.257-2.942-7.484-1.677-12.839a20.722,20.722,0,0,1,7.842-11.983c3.671-2.847,7.41-3.58,12.226-3.58,4.8,0,10.29,1.9,12.419,5.117a17.127,17.127,0,0,1,1.939,13.367c-1.293,5.477-3.347,8.038-6.995,11.249s-9.09,4.258-14.028,4.258c-4.709,0-9.629-2.333-11.727-5.59Zm20.153-2.377a15.618,15.618,0,0,0,5.052-8.8c1.041-4.409.4-7.91-1.657-10s-4.943-2.162-6.389-2.162a12.371,12.371,0,0,0-7.462,3.484,16.312,16.312,0,0,0-4.337,9.174,15.426,15.426,0,0,0,.268,7.093c.393,1.044,3.081,4.107,6.4,4.107,3.47,0,5.642-.4,8.126-2.9Z" transform="translate(0 35)"/></clipPath></defs><path class="b" d="M400,331.582v39.809l35.918-22.027Z" transform="translate(1309.135 -344.84) rotate(53)"/><circle class="b" cx="14" cy="14" r="14" transform="translate(1170 245)"/><rect class="b" width="15" height="15" transform="translate(618 429)"/><rect class="b" width="23" height="23" transform="translate(560.709 258.791) rotate(60)"/><path class="c" d="M400,331.582v39.809l35.918-22.027Z" transform="matrix(0.966, 0.259, -0.259, 0.966, 786.213, -27.199)"/><g class="d" transform="translate(656 160)"><circle class="h" cx="14" cy="14" r="14"/><circle class="i" cx="14" cy="14" r="12.5"/></g><g class="e" transform="translate(1166 459)"><g class="f"><path class="g" d="M-5,5H225V-40H-5Z" transform="translate(0 35)"/></g></g></svg>