<svg xmlns="http://www.w3.org/2000/svg" viewBox="48 316 1183.4 167.577">
  <defs>
    <style>
      .cls-1 {
        fill: #429ce8;
      }

      .cls-1, .cls-3, .cls-4 {
        fill-rule: evenodd;
      }

      .cls-2 {
        fill: #8d4220;
      }

      .cls-3 {
        fill: #512812;
      }

      .cls-4 {
        fill: #fff;
        opacity: 0.375;
      }
    </style>
  </defs>
  <g id="LOGO" transform="translate(-341.353 568.535)">
    <g id="Group" transform="translate(389.353 -252.535)">
      <g id="espresso" transform="translate(0)">
        <path id="ESPRESSO-2" data-name="ESPRESSO" class="cls-1" d="M101.094,1.8V25.921H30.04V71.113H86.018V94.441H30.04v46.094h71.054v24.23H0V1.8ZM224.23,31.443a8.329,8.329,0,0,1-2.827,3.494,7.016,7.016,0,0,1-3.824,1.014,9.614,9.614,0,0,1-4.988-1.747q-2.771-1.747-6.54-3.888a52.952,52.952,0,0,0-8.812-3.888,36.477,36.477,0,0,0-11.916-1.747A34.5,34.5,0,0,0,174.515,26.2a22.765,22.765,0,0,0-7.759,4.226,16.872,16.872,0,0,0-4.711,6.48,21.583,21.583,0,0,0-1.552,8.283,14.558,14.558,0,0,0,3.159,9.579,26.439,26.439,0,0,0,8.369,6.537,76.938,76.938,0,0,0,11.861,4.846q6.651,2.141,13.579,4.564a129.553,129.553,0,0,1,13.579,5.635A47.02,47.02,0,0,1,222.9,84.467a36.772,36.772,0,0,1,8.369,12q3.159,7.1,3.159,17.243a57.011,57.011,0,0,1-3.713,20.68,47.785,47.785,0,0,1-10.863,16.792,51.07,51.07,0,0,1-17.459,11.27,63.332,63.332,0,0,1-23.611,4.113,74.925,74.925,0,0,1-15.075-1.521,78.384,78.384,0,0,1-14.244-4.339,73.949,73.949,0,0,1-12.748-6.762,62.954,62.954,0,0,1-10.586-8.79l8.646-14.538a11.094,11.094,0,0,1,2.937-2.648,7.085,7.085,0,0,1,3.824-1.071,10.471,10.471,0,0,1,5.986,2.31q3.215,2.31,7.593,5.128a57.873,57.873,0,0,0,10.309,5.128,39.261,39.261,0,0,0,14.244,2.31q12.748,0,19.731-6.142T206.384,118a16.565,16.565,0,0,0-3.159-10.481,25.588,25.588,0,0,0-8.369-6.818,61.875,61.875,0,0,0-11.861-4.677q-6.651-1.916-13.523-4.17a115.481,115.481,0,0,1-13.523-5.41,43.787,43.787,0,0,1-11.861-8.227,37.474,37.474,0,0,1-8.369-12.679q-3.159-7.607-3.159-18.764a45.056,45.056,0,0,1,3.492-17.356,44.458,44.458,0,0,1,10.2-14.989A50.23,50.23,0,0,1,162.709,3.944,59.046,59.046,0,0,1,184.99,0a73.666,73.666,0,0,1,26.16,4.508,58.9,58.9,0,0,1,20.4,12.622ZM299.48,107.4v57.363H269.662V1.8h52.21q16.073,0,27.823,3.832a53.3,53.3,0,0,1,19.4,10.706A41.942,41.942,0,0,1,380.4,32.8a58.3,58.3,0,0,1,3.658,20.962,58.763,58.763,0,0,1-3.88,21.694,45.031,45.031,0,0,1-11.639,16.961,53.939,53.939,0,0,1-19.4,11.044Q337.5,107.4,321.872,107.4Zm0-23.667h22.391a44.241,44.241,0,0,0,14.3-2.085,26.471,26.471,0,0,0,10.087-5.973,24.536,24.536,0,0,0,5.986-9.467,36.781,36.781,0,0,0,2-12.453,33.352,33.352,0,0,0-2-11.833,23.414,23.414,0,0,0-5.986-9.016,26.511,26.511,0,0,0-10.087-5.691,46.577,46.577,0,0,0-14.3-1.972H299.48ZM449.442,101.09v63.675H419.624V1.8h48.884q16.406,0,28.1,3.437t19.177,9.636A37.15,37.15,0,0,1,526.759,29.7a50.135,50.135,0,0,1,3.492,18.99,49.962,49.962,0,0,1-2.383,15.552,45.272,45.272,0,0,1-6.873,13.3A46.631,46.631,0,0,1,509.91,88.017a57.689,57.689,0,0,1-15.02,7.213,29.749,29.749,0,0,1,9.755,9.354l40.127,60.181H517.947a12.924,12.924,0,0,1-6.6-1.578,13.585,13.585,0,0,1-4.6-4.508l-33.7-52.179a11.918,11.918,0,0,0-4.157-4.17,14.357,14.357,0,0,0-6.706-1.24Zm0-21.751h18.622A45.451,45.451,0,0,0,482.752,77.2a28.278,28.278,0,0,0,10.309-5.917,23.778,23.778,0,0,0,6.041-8.96,31.438,31.438,0,0,0,2-11.383q0-12.4-8.036-19.046t-24.553-6.649H449.442ZM676.333,1.8V25.921H605.279V71.113h55.978V94.441H605.279v46.094h71.054v24.23H575.239V1.8ZM799.47,31.443a8.33,8.33,0,0,1-2.827,3.494,7.016,7.016,0,0,1-3.824,1.014,9.614,9.614,0,0,1-4.988-1.747q-2.771-1.747-6.54-3.888a52.955,52.955,0,0,0-8.812-3.888,36.477,36.477,0,0,0-11.916-1.747A34.5,34.5,0,0,0,749.754,26.2a22.765,22.765,0,0,0-7.759,4.226,16.875,16.875,0,0,0-4.711,6.48,21.583,21.583,0,0,0-1.552,8.283,14.558,14.558,0,0,0,3.159,9.579,26.439,26.439,0,0,0,8.369,6.537,76.933,76.933,0,0,0,11.861,4.846q6.651,2.141,13.579,4.564a129.54,129.54,0,0,1,13.579,5.635,47.021,47.021,0,0,1,11.861,8.114,36.773,36.773,0,0,1,8.369,12q3.159,7.1,3.159,17.243a57.009,57.009,0,0,1-3.714,20.68,47.786,47.786,0,0,1-10.863,16.792,51.071,51.071,0,0,1-17.459,11.27,63.332,63.332,0,0,1-23.611,4.113,74.924,74.924,0,0,1-15.075-1.521,78.381,78.381,0,0,1-14.244-4.339,73.951,73.951,0,0,1-12.748-6.762,62.955,62.955,0,0,1-10.586-8.79l8.646-14.538a11.1,11.1,0,0,1,2.938-2.648,7.085,7.085,0,0,1,3.824-1.071,10.471,10.471,0,0,1,5.986,2.31q3.215,2.31,7.593,5.128a57.871,57.871,0,0,0,10.309,5.128,39.26,39.26,0,0,0,14.244,2.31q12.748,0,19.731-6.142T781.623,118a16.565,16.565,0,0,0-3.159-10.481,25.589,25.589,0,0,0-8.369-6.818,61.877,61.877,0,0,0-11.861-4.677q-6.651-1.916-13.523-4.17a115.476,115.476,0,0,1-13.523-5.41,43.788,43.788,0,0,1-11.861-8.227,37.473,37.473,0,0,1-8.369-12.679Q707.8,57.927,707.8,46.77a45.058,45.058,0,0,1,3.492-17.356,44.458,44.458,0,0,1,10.2-14.989A50.23,50.23,0,0,1,737.949,3.944,59.045,59.045,0,0,1,760.229,0a73.665,73.665,0,0,1,26.16,4.508,58.9,58.9,0,0,1,20.4,12.622Zm130.342,0a8.33,8.33,0,0,1-2.827,3.494,7.016,7.016,0,0,1-3.824,1.014,9.614,9.614,0,0,1-4.988-1.747q-2.771-1.747-6.54-3.888a52.954,52.954,0,0,0-8.812-3.888A36.477,36.477,0,0,0,890.9,24.681,34.5,34.5,0,0,0,880.1,26.2a22.764,22.764,0,0,0-7.759,4.226,16.872,16.872,0,0,0-4.711,6.48,21.583,21.583,0,0,0-1.552,8.283,14.557,14.557,0,0,0,3.159,9.579,26.439,26.439,0,0,0,8.369,6.537,76.947,76.947,0,0,0,11.861,4.846q6.651,2.141,13.579,4.564a129.557,129.557,0,0,1,13.579,5.635,47.02,47.02,0,0,1,11.861,8.114,36.774,36.774,0,0,1,8.369,12q3.159,7.1,3.159,17.243a57.012,57.012,0,0,1-3.713,20.68,47.783,47.783,0,0,1-10.863,16.792,51.069,51.069,0,0,1-17.459,11.27,63.331,63.331,0,0,1-23.611,4.113,74.925,74.925,0,0,1-15.075-1.521,78.384,78.384,0,0,1-14.244-4.339,73.947,73.947,0,0,1-12.747-6.762,62.958,62.958,0,0,1-10.586-8.79l8.646-14.538a11.1,11.1,0,0,1,2.937-2.648,7.086,7.086,0,0,1,3.824-1.071,10.471,10.471,0,0,1,5.986,2.31q3.215,2.31,7.593,5.128a57.872,57.872,0,0,0,10.309,5.128,39.261,39.261,0,0,0,14.244,2.31q12.748,0,19.731-6.142T911.965,118a16.564,16.564,0,0,0-3.159-10.481,25.588,25.588,0,0,0-8.369-6.818,61.876,61.876,0,0,0-11.861-4.677q-6.651-1.916-13.523-4.17a115.479,115.479,0,0,1-13.523-5.41,43.786,43.786,0,0,1-11.861-8.227A37.473,37.473,0,0,1,841.3,65.534q-3.159-7.607-3.159-18.764a45.055,45.055,0,0,1,3.492-17.356,44.457,44.457,0,0,1,10.2-14.989A50.229,50.229,0,0,1,868.291,3.944,59.046,59.046,0,0,1,890.571,0a73.667,73.667,0,0,1,26.16,4.508,58.9,58.9,0,0,1,20.4,12.622Z" transform="translate(0 0)"/>
        <path id="Path" class="cls-1" d="M1702.61,101.519h-35.735s-2.946,10.864-4.907,15.964c-3.917,10.18-11.633,18.99-18.728,26.428a74.727,74.727,0,0,1-25.606,17.412,91.086,91.086,0,0,1-66.342,0,75.186,75.186,0,0,1-25.717-17.412A78.345,78.345,0,0,1,1509,117.482a91.658,91.658,0,0,1-5.875-33.19A91.658,91.658,0,0,1,1509,51.1a78.345,78.345,0,0,1,16.572-26.428,75.186,75.186,0,0,1,25.717-17.412C1561.3,3.093,1572.371,0,1584.491,0s21.023,1.24,34.486,6.487,17.831,10.144,24.926,17.545S1658.7,40.922,1662.614,51.1c1.681,4.37,4.1,13.6,4.1,13.6h38.136s14.838.171,14.838,19.087S1702.61,101.519,1702.61,101.519Z" transform="translate(-536.285 0)"/>
      </g>
      <ellipse id="Oval" class="cls-2" cx="55.424" cy="56.349" rx="55.424" ry="56.349" transform="translate(994.556 28.175)"/>
      <path id="Combined-Shape" class="cls-3" d="M1643.386,63.091A54.915,54.915,0,0,0,1601.635,43.8c-30.61,0-55.424,25.228-55.424,56.349a56.477,56.477,0,0,0,29.068,49.583,56.677,56.677,0,0,1-13.673-37.061c0-31.121,24.814-56.349,55.424-56.349A54.465,54.465,0,0,1,1643.386,63.091Z" transform="translate(-551.655 -15.628)"/>
      <path id="Fill-42" class="cls-4" d="M1647.282,187.592a2.666,2.666,0,1,0-2.666,2.653,2.658,2.658,0,0,0,2.666-2.653" transform="translate(-585.813 -65.984)"/>
      <path id="Fill-44" class="cls-4" d="M1679.955,159.882a4.671,4.671,0,1,1-4.64-4.141,4.413,4.413,0,0,1,4.64,4.141" transform="translate(-596.061 -55.565)"/>
      <path id="Fill-46" class="cls-4" d="M1694.316,116.713a4.642,4.642,0,1,1-4.641-4.774,4.708,4.708,0,0,1,4.641,4.774" transform="translate(-601.184 -39.938)"/>
    </g>
  </g>
</svg>
