<?xml version="1.0" standalone="no"?><!-- Generator: Gravit.io --><svg xmlns="http://www.w3.org/2000/svg" xmlns:xlink="http://www.w3.org/1999/xlink" style="isolation:isolate" viewBox="15.985 20.617 258.031 287.766" width="258.031" height="287.766"><g id="null"><g id="null"><g id="null"><path d=" M 249.593 22.741 L 40.407 22.741 C 34.493 22.74 28.821 25.089 24.639 29.271 C 20.457 33.453 18.108 39.125 18.108 45.04 L 18.108 102.379 L 271.892 102.379 L 271.892 45.04 C 271.892 39.125 269.543 33.453 265.361 29.271 C 261.179 25.089 255.507 22.74 249.593 22.741 L 249.593 22.741 Z " fill="rgb(143,182,225)"/></g></g><g id="null"><g id="null"><rect x="109.427" y="103.441" width="71.144" height="32.917" transform="matrix(1,0,0,1,0,0)" fill="rgb(237,235,235)"/></g></g><g id="null" style="opacity:0.302;"><g opacity="0.302"><rect x="174.201" y="103.441" width="6.371" height="32.917" transform="matrix(1,0,0,1,0,0)" fill="rgb(149,149,149)"/></g></g><g id="null" style="opacity:0.302;"><g id="null" style="opacity:0.302;"><g opacity="0.302"><path d=" M 120.046 104.503 C 119.759 104.486 119.479 104.592 119.276 104.795 C 119.073 104.998 118.967 105.279 118.984 105.565 L 118.984 131.052 C 118.984 131.638 119.459 132.114 120.046 132.114 C 120.632 132.114 121.108 131.638 121.108 131.052 L 121.108 105.565 C 121.107 104.979 120.632 104.504 120.046 104.503 L 120.046 104.503 Z  M 132.788 104.503 L 125.356 104.503 C 124.185 104.509 123.238 105.457 123.232 106.627 L 123.232 129.988 C 123.238 131.158 124.185 132.106 125.356 132.112 L 132.788 132.112 C 133.959 132.106 134.906 131.158 134.912 129.988 L 134.912 106.627 C 134.906 105.457 133.959 104.509 132.788 104.503 Z " fill="rgb(255,255,255)"/></g></g></g><g id="null"><path d=" M 42.531 48.225 C 42.531 46.467 43.959 45.04 45.717 45.04 C 47.475 45.04 48.903 46.467 48.903 48.225 C 48.903 49.984 47.475 51.411 45.717 51.411 C 43.959 51.411 42.531 49.984 42.531 48.225 Z " fill="rgb(241,93,81)"/></g><g id="null"><path d=" M 42.531 69.462 C 42.531 67.704 43.959 66.276 45.717 66.276 C 47.475 66.276 48.903 67.704 48.903 69.462 C 48.903 71.221 47.475 72.648 45.717 72.648 C 43.959 72.648 42.531 71.221 42.531 69.462 Z " fill="rgb(99,190,110)"/></g><g id="null"><g id="null"><path d=" M 130.664 58.844 C 130.664 50.639 137.326 43.978 145.531 43.978 C 153.735 43.978 160.397 50.639 160.397 58.844 C 160.397 67.049 153.735 73.71 145.531 73.71 C 137.326 73.71 130.664 67.049 130.664 58.844 Z " fill="rgb(155,181,198)"/></g></g><g id="null"><g id="null"><path d=" M 151.902 58.844 C 151.902 57.672 152.854 56.72 154.026 56.72 C 155.198 56.72 156.15 57.672 156.15 58.844 C 156.15 60.016 155.198 60.968 154.026 60.968 C 152.854 60.968 151.902 60.016 151.902 58.844 Z " fill="rgb(255,255,255)"/></g></g><g id="null"><g id="null"><path d=" M 188.642 200.921 C 188.376 200.426 187.915 200.064 187.371 199.924 C 186.826 199.783 186.248 199.875 185.775 200.179 C 182.4 201.35 179.132 202.806 176.005 204.532 C 172.935 206.377 170.023 208.472 167.298 210.797 C 166.301 211.384 165.969 212.667 166.555 213.664 C 167.142 214.661 168.425 214.994 169.422 214.407 C 172.147 212.082 175.059 209.987 178.129 208.142 C 181.256 206.416 184.524 204.96 187.898 203.789 C 188.403 203.532 188.774 203.071 188.916 202.523 C 189.058 201.974 188.959 201.391 188.642 200.921 Z  M 130.664 218.442 C 126.595 215.269 122.301 212.394 117.816 209.841 C 110.915 206.018 103.057 202.514 103.057 202.514 C 102.06 201.928 100.776 202.26 100.19 203.257 C 99.603 204.254 99.936 205.538 100.933 206.124 C 100.933 206.124 108.791 209.523 115.692 213.345 C 120.158 215.929 124.45 218.803 128.54 221.947 C 129.017 222.238 129.591 222.324 130.132 222.184 C 130.672 222.044 131.133 221.69 131.408 221.204 C 131.718 220.75 131.815 220.183 131.672 219.651 C 131.529 219.12 131.162 218.678 130.665 218.441 L 130.664 218.442 Z  M 94.562 199.009 C 93.389 199.009 92.438 199.96 92.438 201.133 C 92.438 202.306 93.389 203.257 94.562 203.257 C 95.735 203.257 96.686 202.306 96.686 201.133 C 96.683 199.962 95.734 199.013 94.562 199.009 L 94.562 199.009 Z  M 145.531 204.319 C 144.361 204.325 143.414 205.272 143.408 206.443 L 143.408 221.309 C 143.408 222.482 144.358 223.433 145.531 223.433 C 146.704 223.433 147.655 222.482 147.655 221.309 L 147.655 206.442 C 147.649 205.273 146.704 204.326 145.535 204.318 L 145.531 204.319 Z  M 145.531 189.453 C 144.361 189.459 143.414 190.406 143.408 191.577 L 143.408 195.824 C 143.408 196.997 144.358 197.948 145.531 197.948 C 146.704 197.948 147.655 196.997 147.655 195.824 L 147.655 191.577 C 147.65 190.407 146.705 189.46 145.535 189.452 L 145.531 189.453 Z  M 145.531 144.855 C 144.361 144.861 143.414 145.808 143.408 146.979 L 143.408 180.958 C 143.408 182.131 144.358 183.082 145.531 183.082 C 146.704 183.082 147.655 182.131 147.655 180.958 L 147.655 146.978 C 147.649 145.809 146.704 144.862 145.535 144.854 L 145.531 144.855 Z " fill="rgb(168,125,80)"/></g></g><g id="null"><g id="null"><rect x="142.345" y="137.421" width="6.371" height="7.433" transform="matrix(1,0,0,1,0,0)" fill="rgb(155,181,198)"/></g></g><g id="null"><path d=" M 180.572 115.122 L 180.572 127.864 L 241.095 129.988 L 241.095 112.998 L 180.572 115.122 Z " fill="rgb(155,181,198)"/></g><g id="null" style="opacity:0.502;"><g opacity="0.502"><path d=" M 180.572 123.616 L 180.572 128.926 L 240.035 128.926 L 240.035 127.864 L 180.572 123.616 Z " fill="rgb(149,149,149)"/></g></g><g id="null"><g id="null"><path d=" M 213.489 294.575 L 77.572 294.575 C 76.404 294.575 74.386 296.06 74.386 297.761 C 74.386 299.354 76.403 300.947 77.572 300.947 L 120.046 300.947 C 120.849 300.956 121.583 301.404 121.957 302.114 L 121.957 302.114 L 124.294 305.193 L 166.767 305.193 L 169.104 302.114 L 169.104 302.114 C 169.444 301.373 170.2 300.911 171.015 300.947 L 213.489 300.947 C 215.215 300.868 216.596 299.487 216.675 297.761 C 216.559 296.051 215.198 294.691 213.489 294.575 Z  M 121.108 292.451 L 169.953 292.451 C 187.683 282.045 200.004 258.365 200.641 232.987 L 90.314 232.987 C 90.951 258.366 103.268 282.045 121.108 292.451 L 121.108 292.451 Z " fill="rgb(234,146,146)"/></g></g><g id="null" style="opacity:0.502;"><g id="null" style="opacity:0.502;"><g opacity="0.502"><path d=" M 90.314 302.008 L 94.562 302.008 L 94.562 293.513 L 90.314 293.513 L 90.314 302.008 Z  M 126.843 279.284 C 112.933 265.374 111.552 232.986 111.552 232.986 C 111.552 231.813 110.601 230.863 109.428 230.863 C 108.255 230.863 107.305 231.813 107.305 232.986 C 107.305 232.986 109.003 267.497 123.764 282.256 C 124.614 283.106 125.992 283.106 126.843 282.256 C 127.249 281.869 127.48 281.332 127.48 280.77 C 127.48 280.208 127.249 279.671 126.843 279.284 Z " fill="rgb(255,255,255)"/></g></g></g><g id="null" style="opacity:0.502;"><g id="null" style="opacity:0.502;"><g opacity="0.502"><path d=" M 198.305 232.987 C 196.181 256.348 186.516 277.479 170.06 287.141 C 170.06 287.141 158.271 288.203 145.531 288.203 C 130.347 288.203 113.888 287.141 113.888 287.141 C 116.162 289.132 118.615 290.91 121.215 292.451 L 169.955 292.451 C 187.685 282.045 200.006 258.365 200.643 232.987 L 198.305 232.987 Z  M 124.294 306.255 L 165.706 306.255 L 172.077 299.885 L 120.047 299.885 L 124.294 306.255 Z " fill="rgb(149,149,149)"/></g></g></g><g id="null"><path d=" M 190.341 276.524 C 202.13 275.887 219.86 267.498 219.86 253.163 C 219.977 244.101 212.88 236.582 203.826 236.176 C 203.931 234.796 203.931 233.309 203.931 231.928 C 203.782 230.823 202.913 229.954 201.808 229.804 L 89.253 229.804 C 88.147 229.954 87.278 230.823 87.129 231.928 C 87.129 257.306 98.384 279.177 115.162 291.392 L 77.572 291.392 C 74.053 291.392 71.201 294.244 71.201 297.763 C 71.201 301.282 74.053 304.134 77.572 304.134 L 120.043 304.134 L 122.38 307.213 L 122.38 307.213 C 122.72 307.955 123.476 308.417 124.291 308.381 L 166.765 308.381 C 167.568 308.372 168.301 307.924 168.676 307.213 L 168.676 307.213 L 171.012 304.134 L 213.486 304.134 C 217.005 304.134 219.857 301.282 219.857 297.763 C 219.857 294.244 217.005 291.392 213.486 291.392 L 175.9 291.392 C 181.513 287.281 186.395 282.255 190.341 276.524 L 190.341 276.524 Z  M 203.507 240.421 C 210.621 240.739 215.613 245.942 215.613 253.163 C 215.613 264.1 202.87 270.365 193.314 271.852 C 198.983 262.253 202.464 251.52 203.508 240.421 L 203.507 240.421 Z  M 213.489 295.637 C 214.662 295.637 215.613 296.588 215.613 297.761 C 215.613 298.934 214.662 299.885 213.489 299.885 L 169.953 299.885 C 169.15 299.894 168.417 300.342 168.042 301.052 L 168.042 301.052 L 165.705 304.132 L 125.356 304.132 L 123.019 301.052 L 123.019 301.052 C 122.679 300.311 121.923 299.849 121.108 299.885 L 77.572 299.885 C 76.399 299.885 75.448 298.934 75.448 297.761 C 75.448 296.588 76.399 295.637 77.572 295.637 L 213.489 295.637 Z  M 168.891 291.392 L 122.17 291.392 C 104.44 280.986 92.119 259.43 91.482 234.052 L 199.688 234.052 C 199.048 259.428 186.731 280.983 168.891 291.392 Z  M 145.531 41.854 C 136.149 41.854 128.543 49.459 128.543 58.841 C 128.543 68.223 136.149 75.828 145.531 75.828 C 154.912 75.828 162.518 68.223 162.518 58.841 C 162.489 49.471 154.9 41.882 145.531 41.854 L 145.531 41.854 Z  M 145.531 71.586 C 140.377 71.586 135.73 68.482 133.758 63.72 C 131.786 58.959 132.876 53.478 136.52 49.834 C 140.165 46.189 145.645 45.099 150.407 47.071 C 155.168 49.044 158.273 53.69 158.273 58.844 C 158.252 65.873 152.559 71.566 145.531 71.586 L 145.531 71.586 Z  M 249.589 20.617 L 40.407 20.617 C 26.92 20.619 15.987 31.552 15.985 45.04 L 15.985 101.318 C 15.991 103.661 17.889 105.559 20.232 105.565 L 107.304 105.565 L 107.304 134.237 C 107.31 136.58 109.208 138.478 111.551 138.484 L 139.372 138.484 L 140.222 145.068 L 140.222 145.068 C 140.352 146.146 141.259 146.962 142.346 146.979 L 148.716 146.979 C 149.802 146.962 150.709 146.146 150.84 145.068 L 150.84 145.068 L 151.69 138.484 L 178.449 138.484 C 180.792 138.478 182.69 136.58 182.696 134.237 L 182.696 130.096 L 238.974 132.113 C 241.318 132.106 243.215 130.208 243.222 127.865 L 243.222 115.122 C 243.215 112.779 241.318 110.881 238.974 110.874 L 182.696 112.891 L 182.696 105.564 L 269.768 105.564 C 272.111 105.558 274.009 103.66 274.015 101.317 L 274.015 45.04 C 274.013 31.552 263.08 20.619 249.593 20.617 L 249.589 20.617 Z  M 146.805 142.73 L 144.15 142.73 L 143.619 138.483 L 147.332 138.483 L 146.805 142.73 Z  M 178.449 134.236 L 111.551 134.236 L 111.551 105.565 L 178.448 105.565 L 178.449 134.236 Z  M 238.972 115.123 L 238.972 127.865 L 182.694 125.848 L 182.694 117.249 L 238.972 115.123 Z  M 269.765 101.318 L 20.232 101.318 L 20.232 45.04 C 20.23 39.688 22.355 34.555 26.139 30.771 C 29.923 26.987 35.056 24.862 40.407 24.865 L 249.593 24.865 C 254.944 24.862 260.077 26.987 263.861 30.771 C 267.645 34.555 269.77 39.688 269.768 45.04 L 269.765 101.318 Z  M 45.717 63.091 C 42.198 63.091 39.346 65.943 39.346 69.461 C 39.346 72.98 42.198 75.832 45.717 75.832 C 49.235 75.832 52.088 72.98 52.088 69.461 C 52.077 65.947 49.231 63.101 45.717 63.091 L 45.717 63.091 Z  M 45.717 71.585 C 44.544 71.585 43.593 70.634 43.593 69.461 C 43.593 68.288 44.544 67.337 45.717 67.337 C 46.89 67.337 47.841 68.288 47.841 69.461 C 47.838 70.633 46.889 71.583 45.717 71.586 L 45.717 71.585 Z  M 45.717 41.853 C 42.198 41.853 39.346 44.705 39.346 48.224 C 39.346 51.742 42.198 54.594 45.717 54.594 C 49.235 54.594 52.088 51.742 52.088 48.224 C 52.076 44.71 49.231 41.864 45.717 41.854 L 45.717 41.853 Z  M 45.717 50.347 C 44.544 50.347 43.593 49.397 43.593 48.224 C 43.593 47.051 44.544 46.1 45.717 46.1 C 46.89 46.1 47.841 47.051 47.841 48.224 C 47.838 49.396 46.889 50.346 45.717 50.349 L 45.717 50.347 Z " fill="rgb(56,77,104)"/></g></g></svg>