<svg xmlns="http://www.w3.org/2000/svg" xmlns:xlink="http://www.w3.org/1999/xlink" viewBox="2888 0 652 711"><defs><style>.a,.j,.p,.r,.t,.u{fill:none;}.b{clip-path:url(#j);}.c{fill:#ecf7ff;stroke:#a5c1d5;fill-rule:evenodd;opacity:0.39;}.d{fill:#86ceff;}.e{fill:#fb1010;}.e,.f{font-size:14px;font-family:FiraSans-Medium, Fira Sans;font-weight:500;}.f{fill:#2aa213;}.g{fill:#95989a;font-size:12px;}.g,.i,.n{font-family:FiraSans-Regular, Fira Sans;}.h,.n{fill:#3b95e3;}.i,.k{fill:#fff;}.i{font-size:7px;}.j,.k,.m{stroke:#95989a;}.l{fill:rgba(134,206,255,0.61);}.m{fill:#e5e5e5;}.n{font-size:15px;}.o{clip-path:url(#a);}.p{stroke:#fe3030;}.q{clip-path:url(#e);}.r{stroke:#ff2727;}.s{clip-path:url(#f);}.t{stroke:#197d19;}.u{stroke:#3f8b30;}.v{stroke:none;}</style><clipPath id="a"><rect class="a" width="2" height="190"/></clipPath><clipPath id="e"><rect class="a" width="474" height="2"/></clipPath><clipPath id="f"><rect class="a" width="2" height="225"/></clipPath><clipPath id="j"><rect x="2888" width="652" height="711"/></clipPath></defs><g id="i" class="b"><g transform="translate(2936 1)"><path class="c" d="M0,291.3l14.415-13.8L28.83,291.3l14.415-13.8L57.66,291.3l14.415-13.8L86.49,291.3l14.415-13.8,14.415,13.8,14.415-13.8,14.415,13.8,14.415-13.8,14.415,13.8L187.4,277.5l14.415,13.8,14.415-13.8,14.415,13.8,14.415-13.8,14.415,13.8,14.415-13.8L288.3,291.3l14.415-13.8,14.415,13.8,14.415-13.8,14.415,13.8,14.415-13.8,14.415,13.8,14.415-13.8,14.415,13.8,14.415-13.8,14.415,13.8,14.415-13.8,14.415,13.8L475.7,277.5l14.415,13.8,14.415-13.8,14.415,13.8,14.415-13.8,14.415,13.8,14.415-13.8L576.6,291.3V0H0Z"/><rect class="d" width="576.6" height="48"/></g><g transform="translate(2936 342)"><path class="c" d="M0,327.1l14.415-15.494L28.83,327.1l14.415-15.494L57.66,327.1l14.415-15.494L86.49,327.1l14.415-15.494L115.32,327.1l14.415-15.494L144.15,327.1l14.415-15.494L172.98,327.1,187.4,311.606,201.81,327.1l14.415-15.494L230.64,327.1l14.415-15.494L259.47,327.1l14.415-15.494L288.3,327.1l14.415-15.494L317.13,327.1l14.415-15.494L345.96,327.1l14.415-15.494L374.79,327.1l14.415-15.494L403.62,327.1l14.415-15.494L432.45,327.1l14.415-15.494L461.28,327.1,475.7,311.606,490.11,327.1l14.415-15.494L518.94,327.1l14.415-15.494L547.77,327.1l14.415-15.494L576.6,327.1V0H0Z"/><rect class="d" width="576.6" height="48"/></g><text class="e" transform="translate(2936 313)"><tspan x="0" y="0">NUNCA</tspan></text><text class="f" transform="translate(2936 692)"><tspan x="0" y="0">SEMPRE</tspan></text><text class="g" transform="translate(2950 70)"><tspan x="0" y="0">Home / Dashboard</tspan></text><rect class="h" width="48" height="19" transform="translate(2958 80)"/><text class="i" transform="translate(2971 92)"><tspan x="0" y="0">NOVO</tspan></text><line class="j" x2="553" transform="translate(2950.5 106.5)"/><line class="j" x2="553" transform="translate(2950.5 126.5)"/><line class="j" x2="553" transform="translate(2950.5 146.5)"/><line class="j" x2="553" transform="translate(2950.5 166.5)"/><line class="j" x2="553" transform="translate(2950.5 186.5)"/><line class="j" x2="553" transform="translate(2950.5 206.5)"/><line class="j" x2="553" transform="translate(2950.5 226.5)"/><line class="j" x2="553" transform="translate(2950.5 246.5)"/><g class="k" transform="translate(3308 77)"><rect class="v" width="156" height="17"/><rect class="a" x="0.5" y="0.5" width="155" height="16"/></g><rect class="l" width="16" height="18" rx="2" transform="translate(3195 253)"/><g class="m" transform="translate(3462 77)"><rect class="v" width="18" height="17"/><rect class="a" x="0.5" y="0.5" width="17" height="16"/></g><text class="n" transform="translate(3181 267)"><tspan x="0" y="0" xml:space="preserve">1   2   3   4   5   6 </tspan></text><g class="o" transform="translate(2945.5 66.5)"><g transform="translate(-753.5 -470.5)"><line class="p" y2="4" transform="translate(753.5 470.5)"/></g><g transform="translate(-752.5 -470.5)"><line class="p" y2="4" transform="translate(753.5 470.5)"/></g><g transform="translate(-753.5 -462.5)"><line class="p" y2="4" transform="translate(753.5 470.5)"/></g><g transform="translate(-752.5 -462.5)"><line class="p" y2="4" transform="translate(753.5 470.5)"/></g><g transform="translate(-753.5 -454.5)"><line class="p" y2="4" transform="translate(753.5 470.5)"/></g><g transform="translate(-752.5 -454.5)"><line class="p" y2="4" transform="translate(753.5 470.5)"/></g><g transform="translate(-753.5 -446.5)"><line class="p" y2="4" transform="translate(753.5 470.5)"/></g><g transform="translate(-752.5 -446.5)"><line class="p" y2="4" transform="translate(753.5 470.5)"/></g><g transform="translate(-753.5 -438.5)"><line class="p" y2="4" transform="translate(753.5 470.5)"/></g><g transform="translate(-752.5 -438.5)"><line class="p" y2="4" transform="translate(753.5 470.5)"/></g><g transform="translate(-753.5 -430.5)"><line class="p" y2="4" transform="translate(753.5 470.5)"/></g><g transform="translate(-752.5 -430.5)"><line class="p" y2="4" transform="translate(753.5 470.5)"/></g><g transform="translate(-753.5 -422.5)"><line class="p" y2="4" transform="translate(753.5 470.5)"/></g><g transform="translate(-752.5 -422.5)"><line class="p" y2="4" transform="translate(753.5 470.5)"/></g><g transform="translate(-753.5 -414.5)"><line class="p" y2="4" transform="translate(753.5 470.5)"/></g><g transform="translate(-752.5 -414.5)"><line class="p" y2="4" transform="translate(753.5 470.5)"/></g><g transform="translate(-753.5 -406.5)"><line class="p" y2="4" transform="translate(753.5 470.5)"/></g><g transform="translate(-752.5 -406.5)"><line class="p" y2="4" transform="translate(753.5 470.5)"/></g><g transform="translate(-753.5 -398.5)"><line class="p" y2="4" transform="translate(753.5 470.5)"/></g><g transform="translate(-752.5 -398.5)"><line class="p" y2="4" transform="translate(753.5 470.5)"/></g><g transform="translate(-753.5 -390.5)"><line class="p" y2="4" transform="translate(753.5 470.5)"/></g><g transform="translate(-752.5 -390.5)"><line class="p" y2="4" transform="translate(753.5 470.5)"/></g><g transform="translate(-753.5 -382.5)"><line class="p" y2="4" transform="translate(753.5 470.5)"/></g><g transform="translate(-752.5 -382.5)"><line class="p" y2="4" transform="translate(753.5 470.5)"/></g><g transform="translate(-753.5 -374.5)"><line class="p" y2="4" transform="translate(753.5 470.5)"/></g><g transform="translate(-752.5 -374.5)"><line class="p" y2="4" transform="translate(753.5 470.5)"/></g><g transform="translate(-753.5 -366.5)"><line class="p" y2="4" transform="translate(753.5 470.5)"/></g><g transform="translate(-752.5 -366.5)"><line class="p" y2="4" transform="translate(753.5 470.5)"/></g><g transform="translate(-753.5 -358.5)"><line class="p" y2="4" transform="translate(753.5 470.5)"/></g><g transform="translate(-752.5 -358.5)"><line class="p" y2="4" transform="translate(753.5 470.5)"/></g><g transform="translate(-753.5 -350.5)"><line class="p" y2="4" transform="translate(753.5 470.5)"/></g><g transform="translate(-752.5 -350.5)"><line class="p" y2="4" transform="translate(753.5 470.5)"/></g><g transform="translate(-753.5 -342.5)"><line class="p" y2="4" transform="translate(753.5 470.5)"/></g><g transform="translate(-752.5 -342.5)"><line class="p" y2="4" transform="translate(753.5 470.5)"/></g><g transform="translate(-753.5 -334.5)"><line class="p" y2="4" transform="translate(753.5 470.5)"/></g><g transform="translate(-752.5 -334.5)"><line class="p" y2="4" transform="translate(753.5 470.5)"/></g><g transform="translate(-753.5 -326.5)"><line class="p" y2="4" transform="translate(753.5 470.5)"/></g><g transform="translate(-752.5 -326.5)"><line class="p" y2="4" transform="translate(753.5 470.5)"/></g><g transform="translate(-753.5 -318.5)"><line class="p" y2="4" transform="translate(753.5 470.5)"/></g><g transform="translate(-752.5 -318.5)"><line class="p" y2="4" transform="translate(753.5 470.5)"/></g><g transform="translate(-753.5 -310.5)"><line class="p" y2="4" transform="translate(753.5 470.5)"/></g><g transform="translate(-752.5 -310.5)"><line class="p" y2="4" transform="translate(753.5 470.5)"/></g><g transform="translate(-753.5 -302.5)"><line class="p" y2="4" transform="translate(753.5 470.5)"/></g><g transform="translate(-752.5 -302.5)"><line class="p" y2="4" transform="translate(753.5 470.5)"/></g><g transform="translate(-753.5 -294.5)"><line class="p" y2="4" transform="translate(753.5 470.5)"/></g><g transform="translate(-752.5 -294.5)"><line class="p" y2="4" transform="translate(753.5 470.5)"/></g><g transform="translate(-753.5 -286.5)"><line class="p" y2="4" transform="translate(753.5 470.5)"/></g><g transform="translate(-752.5 -286.5)"><line class="p" y2="4" transform="translate(753.5 470.5)"/></g></g><g class="o" transform="translate(2956.5 66.5)"><g transform="translate(-753.5 -470.5)"><line class="p" y2="4" transform="translate(753.5 470.5)"/></g><g transform="translate(-752.5 -470.5)"><line class="p" y2="4" transform="translate(753.5 470.5)"/></g><g transform="translate(-753.5 -462.5)"><line class="p" y2="4" transform="translate(753.5 470.5)"/></g><g transform="translate(-752.5 -462.5)"><line class="p" y2="4" transform="translate(753.5 470.5)"/></g><g transform="translate(-753.5 -454.5)"><line class="p" y2="4" transform="translate(753.5 470.5)"/></g><g transform="translate(-752.5 -454.5)"><line class="p" y2="4" transform="translate(753.5 470.5)"/></g><g transform="translate(-753.5 -446.5)"><line class="p" y2="4" transform="translate(753.5 470.5)"/></g><g transform="translate(-752.5 -446.5)"><line class="p" y2="4" transform="translate(753.5 470.5)"/></g><g transform="translate(-753.5 -438.5)"><line class="p" y2="4" transform="translate(753.5 470.5)"/></g><g transform="translate(-752.5 -438.5)"><line class="p" y2="4" transform="translate(753.5 470.5)"/></g><g transform="translate(-753.5 -430.5)"><line class="p" y2="4" transform="translate(753.5 470.5)"/></g><g transform="translate(-752.5 -430.5)"><line class="p" y2="4" transform="translate(753.5 470.5)"/></g><g transform="translate(-753.5 -422.5)"><line class="p" y2="4" transform="translate(753.5 470.5)"/></g><g transform="translate(-752.5 -422.5)"><line class="p" y2="4" transform="translate(753.5 470.5)"/></g><g transform="translate(-753.5 -414.5)"><line class="p" y2="4" transform="translate(753.5 470.5)"/></g><g transform="translate(-752.5 -414.5)"><line class="p" y2="4" transform="translate(753.5 470.5)"/></g><g transform="translate(-753.5 -406.5)"><line class="p" y2="4" transform="translate(753.5 470.5)"/></g><g transform="translate(-752.5 -406.5)"><line class="p" y2="4" transform="translate(753.5 470.5)"/></g><g transform="translate(-753.5 -398.5)"><line class="p" y2="4" transform="translate(753.5 470.5)"/></g><g transform="translate(-752.5 -398.5)"><line class="p" y2="4" transform="translate(753.5 470.5)"/></g><g transform="translate(-753.5 -390.5)"><line class="p" y2="4" transform="translate(753.5 470.5)"/></g><g transform="translate(-752.5 -390.5)"><line class="p" y2="4" transform="translate(753.5 470.5)"/></g><g transform="translate(-753.5 -382.5)"><line class="p" y2="4" transform="translate(753.5 470.5)"/></g><g transform="translate(-752.5 -382.5)"><line class="p" y2="4" transform="translate(753.5 470.5)"/></g><g transform="translate(-753.5 -374.5)"><line class="p" y2="4" transform="translate(753.5 470.5)"/></g><g transform="translate(-752.5 -374.5)"><line class="p" y2="4" transform="translate(753.5 470.5)"/></g><g transform="translate(-753.5 -366.5)"><line class="p" y2="4" transform="translate(753.5 470.5)"/></g><g transform="translate(-752.5 -366.5)"><line class="p" y2="4" transform="translate(753.5 470.5)"/></g><g transform="translate(-753.5 -358.5)"><line class="p" y2="4" transform="translate(753.5 470.5)"/></g><g transform="translate(-752.5 -358.5)"><line class="p" y2="4" transform="translate(753.5 470.5)"/></g><g transform="translate(-753.5 -350.5)"><line class="p" y2="4" transform="translate(753.5 470.5)"/></g><g transform="translate(-752.5 -350.5)"><line class="p" y2="4" transform="translate(753.5 470.5)"/></g><g transform="translate(-753.5 -342.5)"><line class="p" y2="4" transform="translate(753.5 470.5)"/></g><g transform="translate(-752.5 -342.5)"><line class="p" y2="4" transform="translate(753.5 470.5)"/></g><g transform="translate(-753.5 -334.5)"><line class="p" y2="4" transform="translate(753.5 470.5)"/></g><g transform="translate(-752.5 -334.5)"><line class="p" y2="4" transform="translate(753.5 470.5)"/></g><g transform="translate(-753.5 -326.5)"><line class="p" y2="4" transform="translate(753.5 470.5)"/></g><g transform="translate(-752.5 -326.5)"><line class="p" y2="4" transform="translate(753.5 470.5)"/></g><g transform="translate(-753.5 -318.5)"><line class="p" y2="4" transform="translate(753.5 470.5)"/></g><g transform="translate(-752.5 -318.5)"><line class="p" y2="4" transform="translate(753.5 470.5)"/></g><g transform="translate(-753.5 -310.5)"><line class="p" y2="4" transform="translate(753.5 470.5)"/></g><g transform="translate(-752.5 -310.5)"><line class="p" y2="4" transform="translate(753.5 470.5)"/></g><g transform="translate(-753.5 -302.5)"><line class="p" y2="4" transform="translate(753.5 470.5)"/></g><g transform="translate(-752.5 -302.5)"><line class="p" y2="4" transform="translate(753.5 470.5)"/></g><g transform="translate(-753.5 -294.5)"><line class="p" y2="4" transform="translate(753.5 470.5)"/></g><g transform="translate(-752.5 -294.5)"><line class="p" y2="4" transform="translate(753.5 470.5)"/></g><g transform="translate(-753.5 -286.5)"><line class="p" y2="4" transform="translate(753.5 470.5)"/></g><g transform="translate(-752.5 -286.5)"><line class="p" y2="4" transform="translate(753.5 470.5)"/></g></g><g class="o" transform="translate(3479.5 66.5)"><g transform="translate(-753.5 -470.5)"><line class="p" y2="4" transform="translate(753.5 470.5)"/></g><g transform="translate(-752.5 -470.5)"><line class="p" y2="4" transform="translate(753.5 470.5)"/></g><g transform="translate(-753.5 -462.5)"><line class="p" y2="4" transform="translate(753.5 470.5)"/></g><g transform="translate(-752.5 -462.5)"><line class="p" y2="4" transform="translate(753.5 470.5)"/></g><g transform="translate(-753.5 -454.5)"><line class="p" y2="4" transform="translate(753.5 470.5)"/></g><g transform="translate(-752.5 -454.5)"><line class="p" y2="4" transform="translate(753.5 470.5)"/></g><g transform="translate(-753.5 -446.5)"><line class="p" y2="4" transform="translate(753.5 470.5)"/></g><g transform="translate(-752.5 -446.5)"><line class="p" y2="4" transform="translate(753.5 470.5)"/></g><g transform="translate(-753.5 -438.5)"><line class="p" y2="4" transform="translate(753.5 470.5)"/></g><g transform="translate(-752.5 -438.5)"><line class="p" y2="4" transform="translate(753.5 470.5)"/></g><g transform="translate(-753.5 -430.5)"><line class="p" y2="4" transform="translate(753.5 470.5)"/></g><g transform="translate(-752.5 -430.5)"><line class="p" y2="4" transform="translate(753.5 470.5)"/></g><g transform="translate(-753.5 -422.5)"><line class="p" y2="4" transform="translate(753.5 470.5)"/></g><g transform="translate(-752.5 -422.5)"><line class="p" y2="4" transform="translate(753.5 470.5)"/></g><g transform="translate(-753.5 -414.5)"><line class="p" y2="4" transform="translate(753.5 470.5)"/></g><g transform="translate(-752.5 -414.5)"><line class="p" y2="4" transform="translate(753.5 470.5)"/></g><g transform="translate(-753.5 -406.5)"><line class="p" y2="4" transform="translate(753.5 470.5)"/></g><g transform="translate(-752.5 -406.5)"><line class="p" y2="4" transform="translate(753.5 470.5)"/></g><g transform="translate(-753.5 -398.5)"><line class="p" y2="4" transform="translate(753.5 470.5)"/></g><g transform="translate(-752.5 -398.5)"><line class="p" y2="4" transform="translate(753.5 470.5)"/></g><g transform="translate(-753.5 -390.5)"><line class="p" y2="4" transform="translate(753.5 470.5)"/></g><g transform="translate(-752.5 -390.5)"><line class="p" y2="4" transform="translate(753.5 470.5)"/></g><g transform="translate(-753.5 -382.5)"><line class="p" y2="4" transform="translate(753.5 470.5)"/></g><g transform="translate(-752.5 -382.5)"><line class="p" y2="4" transform="translate(753.5 470.5)"/></g><g transform="translate(-753.5 -374.5)"><line class="p" y2="4" transform="translate(753.5 470.5)"/></g><g transform="translate(-752.5 -374.5)"><line class="p" y2="4" transform="translate(753.5 470.5)"/></g><g transform="translate(-753.5 -366.5)"><line class="p" y2="4" transform="translate(753.5 470.5)"/></g><g transform="translate(-752.5 -366.5)"><line class="p" y2="4" transform="translate(753.5 470.5)"/></g><g transform="translate(-753.5 -358.5)"><line class="p" y2="4" transform="translate(753.5 470.5)"/></g><g transform="translate(-752.5 -358.5)"><line class="p" y2="4" transform="translate(753.5 470.5)"/></g><g transform="translate(-753.5 -350.5)"><line class="p" y2="4" transform="translate(753.5 470.5)"/></g><g transform="translate(-752.5 -350.5)"><line class="p" y2="4" transform="translate(753.5 470.5)"/></g><g transform="translate(-753.5 -342.5)"><line class="p" y2="4" transform="translate(753.5 470.5)"/></g><g transform="translate(-752.5 -342.5)"><line class="p" y2="4" transform="translate(753.5 470.5)"/></g><g transform="translate(-753.5 -334.5)"><line class="p" y2="4" transform="translate(753.5 470.5)"/></g><g transform="translate(-752.5 -334.5)"><line class="p" y2="4" transform="translate(753.5 470.5)"/></g><g transform="translate(-753.5 -326.5)"><line class="p" y2="4" transform="translate(753.5 470.5)"/></g><g transform="translate(-752.5 -326.5)"><line class="p" y2="4" transform="translate(753.5 470.5)"/></g><g transform="translate(-753.5 -318.5)"><line class="p" y2="4" transform="translate(753.5 470.5)"/></g><g transform="translate(-752.5 -318.5)"><line class="p" y2="4" transform="translate(753.5 470.5)"/></g><g transform="translate(-753.5 -310.5)"><line class="p" y2="4" transform="translate(753.5 470.5)"/></g><g transform="translate(-752.5 -310.5)"><line class="p" y2="4" transform="translate(753.5 470.5)"/></g><g transform="translate(-753.5 -302.5)"><line class="p" y2="4" transform="translate(753.5 470.5)"/></g><g transform="translate(-752.5 -302.5)"><line class="p" y2="4" transform="translate(753.5 470.5)"/></g><g transform="translate(-753.5 -294.5)"><line class="p" y2="4" transform="translate(753.5 470.5)"/></g><g transform="translate(-752.5 -294.5)"><line class="p" y2="4" transform="translate(753.5 470.5)"/></g><g transform="translate(-753.5 -286.5)"><line class="p" y2="4" transform="translate(753.5 470.5)"/></g><g transform="translate(-752.5 -286.5)"><line class="p" y2="4" transform="translate(753.5 470.5)"/></g></g><g class="o" transform="translate(3502.5 66.5)"><g transform="translate(-753.5 -470.5)"><line class="p" y2="4" transform="translate(753.5 470.5)"/></g><g transform="translate(-752.5 -470.5)"><line class="p" y2="4" transform="translate(753.5 470.5)"/></g><g transform="translate(-753.5 -462.5)"><line class="p" y2="4" transform="translate(753.5 470.5)"/></g><g transform="translate(-752.5 -462.5)"><line class="p" y2="4" transform="translate(753.5 470.5)"/></g><g transform="translate(-753.5 -454.5)"><line class="p" y2="4" transform="translate(753.5 470.5)"/></g><g transform="translate(-752.5 -454.5)"><line class="p" y2="4" transform="translate(753.5 470.5)"/></g><g transform="translate(-753.5 -446.5)"><line class="p" y2="4" transform="translate(753.5 470.5)"/></g><g transform="translate(-752.5 -446.5)"><line class="p" y2="4" transform="translate(753.5 470.5)"/></g><g transform="translate(-753.5 -438.5)"><line class="p" y2="4" transform="translate(753.5 470.5)"/></g><g transform="translate(-752.5 -438.5)"><line class="p" y2="4" transform="translate(753.5 470.5)"/></g><g transform="translate(-753.5 -430.5)"><line class="p" y2="4" transform="translate(753.5 470.5)"/></g><g transform="translate(-752.5 -430.5)"><line class="p" y2="4" transform="translate(753.5 470.5)"/></g><g transform="translate(-753.5 -422.5)"><line class="p" y2="4" transform="translate(753.5 470.5)"/></g><g transform="translate(-752.5 -422.5)"><line class="p" y2="4" transform="translate(753.5 470.5)"/></g><g transform="translate(-753.5 -414.5)"><line class="p" y2="4" transform="translate(753.5 470.5)"/></g><g transform="translate(-752.5 -414.5)"><line class="p" y2="4" transform="translate(753.5 470.5)"/></g><g transform="translate(-753.5 -406.5)"><line class="p" y2="4" transform="translate(753.5 470.5)"/></g><g transform="translate(-752.5 -406.5)"><line class="p" y2="4" transform="translate(753.5 470.5)"/></g><g transform="translate(-753.5 -398.5)"><line class="p" y2="4" transform="translate(753.5 470.5)"/></g><g transform="translate(-752.5 -398.5)"><line class="p" y2="4" transform="translate(753.5 470.5)"/></g><g transform="translate(-753.5 -390.5)"><line class="p" y2="4" transform="translate(753.5 470.5)"/></g><g transform="translate(-752.5 -390.5)"><line class="p" y2="4" transform="translate(753.5 470.5)"/></g><g transform="translate(-753.5 -382.5)"><line class="p" y2="4" transform="translate(753.5 470.5)"/></g><g transform="translate(-752.5 -382.5)"><line class="p" y2="4" transform="translate(753.5 470.5)"/></g><g transform="translate(-753.5 -374.5)"><line class="p" y2="4" transform="translate(753.5 470.5)"/></g><g transform="translate(-752.5 -374.5)"><line class="p" y2="4" transform="translate(753.5 470.5)"/></g><g transform="translate(-753.5 -366.5)"><line class="p" y2="4" transform="translate(753.5 470.5)"/></g><g transform="translate(-752.5 -366.5)"><line class="p" y2="4" transform="translate(753.5 470.5)"/></g><g transform="translate(-753.5 -358.5)"><line class="p" y2="4" transform="translate(753.5 470.5)"/></g><g transform="translate(-752.5 -358.5)"><line class="p" y2="4" transform="translate(753.5 470.5)"/></g><g transform="translate(-753.5 -350.5)"><line class="p" y2="4" transform="translate(753.5 470.5)"/></g><g transform="translate(-752.5 -350.5)"><line class="p" y2="4" transform="translate(753.5 470.5)"/></g><g transform="translate(-753.5 -342.5)"><line class="p" y2="4" transform="translate(753.5 470.5)"/></g><g transform="translate(-752.5 -342.5)"><line class="p" y2="4" transform="translate(753.5 470.5)"/></g><g transform="translate(-753.5 -334.5)"><line class="p" y2="4" transform="translate(753.5 470.5)"/></g><g transform="translate(-752.5 -334.5)"><line class="p" y2="4" transform="translate(753.5 470.5)"/></g><g transform="translate(-753.5 -326.5)"><line class="p" y2="4" transform="translate(753.5 470.5)"/></g><g transform="translate(-752.5 -326.5)"><line class="p" y2="4" transform="translate(753.5 470.5)"/></g><g transform="translate(-753.5 -318.5)"><line class="p" y2="4" transform="translate(753.5 470.5)"/></g><g transform="translate(-752.5 -318.5)"><line class="p" y2="4" transform="translate(753.5 470.5)"/></g><g transform="translate(-753.5 -310.5)"><line class="p" y2="4" transform="translate(753.5 470.5)"/></g><g transform="translate(-752.5 -310.5)"><line class="p" y2="4" transform="translate(753.5 470.5)"/></g><g transform="translate(-753.5 -302.5)"><line class="p" y2="4" transform="translate(753.5 470.5)"/></g><g transform="translate(-752.5 -302.5)"><line class="p" y2="4" transform="translate(753.5 470.5)"/></g><g transform="translate(-753.5 -294.5)"><line class="p" y2="4" transform="translate(753.5 470.5)"/></g><g transform="translate(-752.5 -294.5)"><line class="p" y2="4" transform="translate(753.5 470.5)"/></g><g transform="translate(-753.5 -286.5)"><line class="p" y2="4" transform="translate(753.5 470.5)"/></g><g transform="translate(-752.5 -286.5)"><line class="p" y2="4" transform="translate(753.5 470.5)"/></g></g><g class="q" transform="translate(3006.5 98.5)"><g transform="translate(-874.5 -857.5)"><line class="r" x2="4" transform="translate(874.5 857.5)"/></g><g transform="translate(-866.5 -857.5)"><line class="r" x2="4" transform="translate(874.5 857.5)"/></g><g transform="translate(-858.5 -857.5)"><line class="r" x2="4" transform="translate(874.5 857.5)"/></g><g transform="translate(-850.5 -857.5)"><line class="r" x2="4" transform="translate(874.5 857.5)"/></g><g transform="translate(-842.5 -857.5)"><line class="r" x2="4" transform="translate(874.5 857.5)"/></g><g transform="translate(-834.5 -857.5)"><line class="r" x2="4" transform="translate(874.5 857.5)"/></g><g transform="translate(-826.5 -857.5)"><line class="r" x2="4" transform="translate(874.5 857.5)"/></g><g transform="translate(-818.5 -857.5)"><line class="r" x2="4" transform="translate(874.5 857.5)"/></g><g transform="translate(-810.5 -857.5)"><line class="r" x2="4" transform="translate(874.5 857.5)"/></g><g transform="translate(-802.5 -857.5)"><line class="r" x2="4" transform="translate(874.5 857.5)"/></g><g transform="translate(-794.5 -857.5)"><line class="r" x2="4" transform="translate(874.5 857.5)"/></g><g transform="translate(-786.5 -857.5)"><line class="r" x2="4" transform="translate(874.5 857.5)"/></g><g transform="translate(-778.5 -857.5)"><line class="r" x2="4" transform="translate(874.5 857.5)"/></g><g transform="translate(-770.5 -857.5)"><line class="r" x2="4" transform="translate(874.5 857.5)"/></g><g transform="translate(-762.5 -857.5)"><line class="r" x2="4" transform="translate(874.5 857.5)"/></g><g transform="translate(-754.5 -857.5)"><line class="r" x2="4" transform="translate(874.5 857.5)"/></g><g transform="translate(-746.5 -857.5)"><line class="r" x2="4" transform="translate(874.5 857.5)"/></g><g transform="translate(-738.5 -857.5)"><line class="r" x2="4" transform="translate(874.5 857.5)"/></g><g transform="translate(-730.5 -857.5)"><line class="r" x2="4" transform="translate(874.5 857.5)"/></g><g transform="translate(-722.5 -857.5)"><line class="r" x2="4" transform="translate(874.5 857.5)"/></g><g transform="translate(-714.5 -857.5)"><line class="r" x2="4" transform="translate(874.5 857.5)"/></g><g transform="translate(-706.5 -857.5)"><line class="r" x2="4" transform="translate(874.5 857.5)"/></g><g transform="translate(-698.5 -857.5)"><line class="r" x2="4" transform="translate(874.5 857.5)"/></g><g transform="translate(-690.5 -857.5)"><line class="r" x2="4" transform="translate(874.5 857.5)"/></g><g transform="translate(-682.5 -857.5)"><line class="r" x2="4" transform="translate(874.5 857.5)"/></g><g transform="translate(-674.5 -857.5)"><line class="r" x2="4" transform="translate(874.5 857.5)"/></g><g transform="translate(-666.5 -857.5)"><line class="r" x2="4" transform="translate(874.5 857.5)"/></g><g transform="translate(-658.5 -857.5)"><line class="r" x2="4" transform="translate(874.5 857.5)"/></g><g transform="translate(-650.5 -857.5)"><line class="r" x2="4" transform="translate(874.5 857.5)"/></g><g transform="translate(-642.5 -857.5)"><line class="r" x2="4" transform="translate(874.5 857.5)"/></g><g transform="translate(-634.5 -857.5)"><line class="r" x2="4" transform="translate(874.5 857.5)"/></g><g transform="translate(-626.5 -857.5)"><line class="r" x2="4" transform="translate(874.5 857.5)"/></g><g transform="translate(-618.5 -857.5)"><line class="r" x2="4" transform="translate(874.5 857.5)"/></g><g transform="translate(-610.5 -857.5)"><line class="r" x2="4" transform="translate(874.5 857.5)"/></g><g transform="translate(-602.5 -857.5)"><line class="r" x2="4" transform="translate(874.5 857.5)"/></g><g transform="translate(-594.5 -857.5)"><line class="r" x2="4" transform="translate(874.5 857.5)"/></g><g transform="translate(-586.5 -857.5)"><line class="r" x2="4" transform="translate(874.5 857.5)"/></g><g transform="translate(-578.5 -857.5)"><line class="r" x2="4" transform="translate(874.5 857.5)"/></g><g transform="translate(-570.5 -857.5)"><line class="r" x2="4" transform="translate(874.5 857.5)"/></g><g transform="translate(-562.5 -857.5)"><line class="r" x2="4" transform="translate(874.5 857.5)"/></g><g transform="translate(-554.5 -857.5)"><line class="r" x2="4" transform="translate(874.5 857.5)"/></g><g transform="translate(-546.5 -857.5)"><line class="r" x2="4" transform="translate(874.5 857.5)"/></g><g transform="translate(-538.5 -857.5)"><line class="r" x2="4" transform="translate(874.5 857.5)"/></g><g transform="translate(-530.5 -857.5)"><line class="r" x2="4" transform="translate(874.5 857.5)"/></g><g transform="translate(-522.5 -857.5)"><line class="r" x2="4" transform="translate(874.5 857.5)"/></g><g transform="translate(-514.5 -857.5)"><line class="r" x2="4" transform="translate(874.5 857.5)"/></g><g transform="translate(-506.5 -857.5)"><line class="r" x2="4" transform="translate(874.5 857.5)"/></g><g transform="translate(-498.5 -857.5)"><line class="r" x2="4" transform="translate(874.5 857.5)"/></g><g transform="translate(-490.5 -857.5)"><line class="r" x2="4" transform="translate(874.5 857.5)"/></g><g transform="translate(-482.5 -857.5)"><line class="r" x2="4" transform="translate(874.5 857.5)"/></g><g transform="translate(-474.5 -857.5)"><line class="r" x2="4" transform="translate(874.5 857.5)"/></g><g transform="translate(-466.5 -857.5)"><line class="r" x2="4" transform="translate(874.5 857.5)"/></g><g transform="translate(-458.5 -857.5)"><line class="r" x2="4" transform="translate(874.5 857.5)"/></g><g transform="translate(-450.5 -857.5)"><line class="r" x2="4" transform="translate(874.5 857.5)"/></g><g transform="translate(-442.5 -857.5)"><line class="r" x2="4" transform="translate(874.5 857.5)"/></g><g transform="translate(-434.5 -857.5)"><line class="r" x2="4" transform="translate(874.5 857.5)"/></g><g transform="translate(-426.5 -857.5)"><line class="r" x2="4" transform="translate(874.5 857.5)"/></g><g transform="translate(-418.5 -857.5)"><line class="r" x2="4" transform="translate(874.5 857.5)"/></g><g transform="translate(-410.5 -857.5)"><line class="r" x2="4" transform="translate(874.5 857.5)"/></g><g transform="translate(-402.5 -857.5)"><line class="r" x2="4" transform="translate(874.5 857.5)"/></g><g transform="translate(-874.5 -856.5)"><line class="r" x2="4" transform="translate(874.5 857.5)"/></g><g transform="translate(-866.5 -856.5)"><line class="r" x2="4" transform="translate(874.5 857.5)"/></g><g transform="translate(-858.5 -856.5)"><line class="r" x2="4" transform="translate(874.5 857.5)"/></g><g transform="translate(-850.5 -856.5)"><line class="r" x2="4" transform="translate(874.5 857.5)"/></g><g transform="translate(-842.5 -856.5)"><line class="r" x2="4" transform="translate(874.5 857.5)"/></g><g transform="translate(-834.5 -856.5)"><line class="r" x2="4" transform="translate(874.5 857.5)"/></g><g transform="translate(-826.5 -856.5)"><line class="r" x2="4" transform="translate(874.5 857.5)"/></g><g transform="translate(-818.5 -856.5)"><line class="r" x2="4" transform="translate(874.5 857.5)"/></g><g transform="translate(-810.5 -856.5)"><line class="r" x2="4" transform="translate(874.5 857.5)"/></g><g transform="translate(-802.5 -856.5)"><line class="r" x2="4" transform="translate(874.5 857.5)"/></g><g transform="translate(-794.5 -856.5)"><line class="r" x2="4" transform="translate(874.5 857.5)"/></g><g transform="translate(-786.5 -856.5)"><line class="r" x2="4" transform="translate(874.5 857.5)"/></g><g transform="translate(-778.5 -856.5)"><line class="r" x2="4" transform="translate(874.5 857.5)"/></g><g transform="translate(-770.5 -856.5)"><line class="r" x2="4" transform="translate(874.5 857.5)"/></g><g transform="translate(-762.5 -856.5)"><line class="r" x2="4" transform="translate(874.5 857.5)"/></g><g transform="translate(-754.5 -856.5)"><line class="r" x2="4" transform="translate(874.5 857.5)"/></g><g transform="translate(-746.5 -856.5)"><line class="r" x2="4" transform="translate(874.5 857.5)"/></g><g transform="translate(-738.5 -856.5)"><line class="r" x2="4" transform="translate(874.5 857.5)"/></g><g transform="translate(-730.5 -856.5)"><line class="r" x2="4" transform="translate(874.5 857.5)"/></g><g transform="translate(-722.5 -856.5)"><line class="r" x2="4" transform="translate(874.5 857.5)"/></g><g transform="translate(-714.5 -856.5)"><line class="r" x2="4" transform="translate(874.5 857.5)"/></g><g transform="translate(-706.5 -856.5)"><line class="r" x2="4" transform="translate(874.5 857.5)"/></g><g transform="translate(-698.5 -856.5)"><line class="r" x2="4" transform="translate(874.5 857.5)"/></g><g transform="translate(-690.5 -856.5)"><line class="r" x2="4" transform="translate(874.5 857.5)"/></g><g transform="translate(-682.5 -856.5)"><line class="r" x2="4" transform="translate(874.5 857.5)"/></g><g transform="translate(-674.5 -856.5)"><line class="r" x2="4" transform="translate(874.5 857.5)"/></g><g transform="translate(-666.5 -856.5)"><line class="r" x2="4" transform="translate(874.5 857.5)"/></g><g transform="translate(-658.5 -856.5)"><line class="r" x2="4" transform="translate(874.5 857.5)"/></g><g transform="translate(-650.5 -856.5)"><line class="r" x2="4" transform="translate(874.5 857.5)"/></g><g transform="translate(-642.5 -856.5)"><line class="r" x2="4" transform="translate(874.5 857.5)"/></g><g transform="translate(-634.5 -856.5)"><line class="r" x2="4" transform="translate(874.5 857.5)"/></g><g transform="translate(-626.5 -856.5)"><line class="r" x2="4" transform="translate(874.5 857.5)"/></g><g transform="translate(-618.5 -856.5)"><line class="r" x2="4" transform="translate(874.5 857.5)"/></g><g transform="translate(-610.5 -856.5)"><line class="r" x2="4" transform="translate(874.5 857.5)"/></g><g transform="translate(-602.5 -856.5)"><line class="r" x2="4" transform="translate(874.5 857.5)"/></g><g transform="translate(-594.5 -856.5)"><line class="r" x2="4" transform="translate(874.5 857.5)"/></g><g transform="translate(-586.5 -856.5)"><line class="r" x2="4" transform="translate(874.5 857.5)"/></g><g transform="translate(-578.5 -856.5)"><line class="r" x2="4" transform="translate(874.5 857.5)"/></g><g transform="translate(-570.5 -856.5)"><line class="r" x2="4" transform="translate(874.5 857.5)"/></g><g transform="translate(-562.5 -856.5)"><line class="r" x2="4" transform="translate(874.5 857.5)"/></g><g transform="translate(-554.5 -856.5)"><line class="r" x2="4" transform="translate(874.5 857.5)"/></g><g transform="translate(-546.5 -856.5)"><line class="r" x2="4" transform="translate(874.5 857.5)"/></g><g transform="translate(-538.5 -856.5)"><line class="r" x2="4" transform="translate(874.5 857.5)"/></g><g transform="translate(-530.5 -856.5)"><line class="r" x2="4" transform="translate(874.5 857.5)"/></g><g transform="translate(-522.5 -856.5)"><line class="r" x2="4" transform="translate(874.5 857.5)"/></g><g transform="translate(-514.5 -856.5)"><line class="r" x2="4" transform="translate(874.5 857.5)"/></g><g transform="translate(-506.5 -856.5)"><line class="r" x2="4" transform="translate(874.5 857.5)"/></g><g transform="translate(-498.5 -856.5)"><line class="r" x2="4" transform="translate(874.5 857.5)"/></g><g transform="translate(-490.5 -856.5)"><line class="r" x2="4" transform="translate(874.5 857.5)"/></g><g transform="translate(-482.5 -856.5)"><line class="r" x2="4" transform="translate(874.5 857.5)"/></g><g transform="translate(-474.5 -856.5)"><line class="r" x2="4" transform="translate(874.5 857.5)"/></g><g transform="translate(-466.5 -856.5)"><line class="r" x2="4" transform="translate(874.5 857.5)"/></g><g transform="translate(-458.5 -856.5)"><line class="r" x2="4" transform="translate(874.5 857.5)"/></g><g transform="translate(-450.5 -856.5)"><line class="r" x2="4" transform="translate(874.5 857.5)"/></g><g transform="translate(-442.5 -856.5)"><line class="r" x2="4" transform="translate(874.5 857.5)"/></g><g transform="translate(-434.5 -856.5)"><line class="r" x2="4" transform="translate(874.5 857.5)"/></g><g transform="translate(-426.5 -856.5)"><line class="r" x2="4" transform="translate(874.5 857.5)"/></g><g transform="translate(-418.5 -856.5)"><line class="r" x2="4" transform="translate(874.5 857.5)"/></g><g transform="translate(-410.5 -856.5)"><line class="r" x2="4" transform="translate(874.5 857.5)"/></g><g transform="translate(-402.5 -856.5)"><line class="r" x2="4" transform="translate(874.5 857.5)"/></g></g><text class="g" transform="translate(2961 414)"><tspan x="0" y="0">Home / Dashboard</tspan></text><rect class="h" width="48" height="19" transform="translate(2962 430)"/><text class="i" transform="translate(2977 442)"><tspan x="0" y="0">NOVO</tspan></text><line class="j" x2="521.5" transform="translate(2963.5 469.688)"/><line class="j" x2="521.5" transform="translate(2963.5 489.348)"/><line class="j" x2="521.5" transform="translate(2963.5 509.009)"/><line class="j" x2="521.5" transform="translate(2963.5 528.67)"/><line class="j" x2="521.5" transform="translate(2963.5 548.33)"/><line class="j" x2="521.5" transform="translate(2963.5 567.991)"/><line class="j" x2="521.5" transform="translate(2963.5 587.652)"/><line class="j" x2="521.5" transform="translate(2963.5 607.312)"/><g class="k" transform="translate(3314 432)"><rect class="v" width="156" height="17"/><rect class="a" x="0.5" y="0.5" width="155" height="16"/></g><rect class="l" width="16" height="18" rx="2" transform="translate(3187 622)"/><g class="m" transform="translate(3468 432)"><rect class="v" width="18" height="17"/><rect class="a" x="0.5" y="0.5" width="17" height="16"/></g><text class="n" transform="translate(3173 636)"><tspan x="0" y="0" xml:space="preserve">1   2   3   4   5   6 </tspan></text><g class="s" transform="translate(2960.5 404.5)"><g transform="translate(-753.5 -470.5)"><line class="t" y2="4" transform="translate(753.5 470.5)"/></g><g transform="translate(-752.5 -470.5)"><line class="t" y2="4" transform="translate(753.5 470.5)"/></g><g transform="translate(-753.5 -462.5)"><line class="t" y2="4" transform="translate(753.5 470.5)"/></g><g transform="translate(-752.5 -462.5)"><line class="t" y2="4" transform="translate(753.5 470.5)"/></g><g transform="translate(-753.5 -454.5)"><line class="t" y2="4" transform="translate(753.5 470.5)"/></g><g transform="translate(-752.5 -454.5)"><line class="t" y2="4" transform="translate(753.5 470.5)"/></g><g transform="translate(-753.5 -446.5)"><line class="t" y2="4" transform="translate(753.5 470.5)"/></g><g transform="translate(-752.5 -446.5)"><line class="t" y2="4" transform="translate(753.5 470.5)"/></g><g transform="translate(-753.5 -438.5)"><line class="t" y2="4" transform="translate(753.5 470.5)"/></g><g transform="translate(-752.5 -438.5)"><line class="t" y2="4" transform="translate(753.5 470.5)"/></g><g transform="translate(-753.5 -430.5)"><line class="t" y2="4" transform="translate(753.5 470.5)"/></g><g transform="translate(-752.5 -430.5)"><line class="t" y2="4" transform="translate(753.5 470.5)"/></g><g transform="translate(-753.5 -422.5)"><line class="t" y2="4" transform="translate(753.5 470.5)"/></g><g transform="translate(-752.5 -422.5)"><line class="t" y2="4" transform="translate(753.5 470.5)"/></g><g transform="translate(-753.5 -414.5)"><line class="t" y2="4" transform="translate(753.5 470.5)"/></g><g transform="translate(-752.5 -414.5)"><line class="t" y2="4" transform="translate(753.5 470.5)"/></g><g transform="translate(-753.5 -406.5)"><line class="t" y2="4" transform="translate(753.5 470.5)"/></g><g transform="translate(-752.5 -406.5)"><line class="t" y2="4" transform="translate(753.5 470.5)"/></g><g transform="translate(-753.5 -398.5)"><line class="t" y2="4" transform="translate(753.5 470.5)"/></g><g transform="translate(-752.5 -398.5)"><line class="t" y2="4" transform="translate(753.5 470.5)"/></g><g transform="translate(-753.5 -390.5)"><line class="t" y2="4" transform="translate(753.5 470.5)"/></g><g transform="translate(-752.5 -390.5)"><line class="t" y2="4" transform="translate(753.5 470.5)"/></g><g transform="translate(-753.5 -382.5)"><line class="t" y2="4" transform="translate(753.5 470.5)"/></g><g transform="translate(-752.5 -382.5)"><line class="t" y2="4" transform="translate(753.5 470.5)"/></g><g transform="translate(-753.5 -374.5)"><line class="t" y2="4" transform="translate(753.5 470.5)"/></g><g transform="translate(-752.5 -374.5)"><line class="t" y2="4" transform="translate(753.5 470.5)"/></g><g transform="translate(-753.5 -366.5)"><line class="t" y2="4" transform="translate(753.5 470.5)"/></g><g transform="translate(-752.5 -366.5)"><line class="t" y2="4" transform="translate(753.5 470.5)"/></g><g transform="translate(-753.5 -358.5)"><line class="t" y2="4" transform="translate(753.5 470.5)"/></g><g transform="translate(-752.5 -358.5)"><line class="t" y2="4" transform="translate(753.5 470.5)"/></g><g transform="translate(-753.5 -350.5)"><line class="t" y2="4" transform="translate(753.5 470.5)"/></g><g transform="translate(-752.5 -350.5)"><line class="t" y2="4" transform="translate(753.5 470.5)"/></g><g transform="translate(-753.5 -342.5)"><line class="t" y2="4" transform="translate(753.5 470.5)"/></g><g transform="translate(-752.5 -342.5)"><line class="t" y2="4" transform="translate(753.5 470.5)"/></g><g transform="translate(-753.5 -334.5)"><line class="t" y2="4" transform="translate(753.5 470.5)"/></g><g transform="translate(-752.5 -334.5)"><line class="t" y2="4" transform="translate(753.5 470.5)"/></g><g transform="translate(-753.5 -326.5)"><line class="t" y2="4" transform="translate(753.5 470.5)"/></g><g transform="translate(-752.5 -326.5)"><line class="t" y2="4" transform="translate(753.5 470.5)"/></g><g transform="translate(-753.5 -318.5)"><line class="t" y2="4" transform="translate(753.5 470.5)"/></g><g transform="translate(-752.5 -318.5)"><line class="t" y2="4" transform="translate(753.5 470.5)"/></g><g transform="translate(-753.5 -310.5)"><line class="t" y2="4" transform="translate(753.5 470.5)"/></g><g transform="translate(-752.5 -310.5)"><line class="t" y2="4" transform="translate(753.5 470.5)"/></g><g transform="translate(-753.5 -302.5)"><line class="t" y2="4" transform="translate(753.5 470.5)"/></g><g transform="translate(-752.5 -302.5)"><line class="t" y2="4" transform="translate(753.5 470.5)"/></g><g transform="translate(-753.5 -294.5)"><line class="t" y2="4" transform="translate(753.5 470.5)"/></g><g transform="translate(-752.5 -294.5)"><line class="t" y2="4" transform="translate(753.5 470.5)"/></g><g transform="translate(-753.5 -286.5)"><line class="t" y2="4" transform="translate(753.5 470.5)"/></g><g transform="translate(-752.5 -286.5)"><line class="t" y2="4" transform="translate(753.5 470.5)"/></g><g transform="translate(-753.5 -278.5)"><line class="t" y2="4" transform="translate(753.5 470.5)"/></g><g transform="translate(-752.5 -278.5)"><line class="t" y2="4" transform="translate(753.5 470.5)"/></g><g transform="translate(-753.5 -270.5)"><line class="t" y2="4" transform="translate(753.5 470.5)"/></g><g transform="translate(-752.5 -270.5)"><line class="t" y2="4" transform="translate(753.5 470.5)"/></g><g transform="translate(-753.5 -262.5)"><line class="t" y2="4" transform="translate(753.5 470.5)"/></g><g transform="translate(-752.5 -262.5)"><line class="t" y2="4" transform="translate(753.5 470.5)"/></g><g transform="translate(-753.5 -254.5)"><line class="t" y2="4" transform="translate(753.5 470.5)"/></g><g transform="translate(-752.5 -254.5)"><line class="t" y2="4" transform="translate(753.5 470.5)"/></g><g transform="translate(-753.5 -246.5)"><line class="t" y2="4" transform="translate(753.5 470.5)"/></g><g transform="translate(-752.5 -246.5)"><line class="t" y2="4" transform="translate(753.5 470.5)"/></g></g><g class="s" transform="translate(3485.5 404.5)"><g transform="translate(-753.5 -470.5)"><line class="t" y2="4" transform="translate(753.5 470.5)"/></g><g transform="translate(-752.5 -470.5)"><line class="t" y2="4" transform="translate(753.5 470.5)"/></g><g transform="translate(-753.5 -462.5)"><line class="t" y2="4" transform="translate(753.5 470.5)"/></g><g transform="translate(-752.5 -462.5)"><line class="t" y2="4" transform="translate(753.5 470.5)"/></g><g transform="translate(-753.5 -454.5)"><line class="t" y2="4" transform="translate(753.5 470.5)"/></g><g transform="translate(-752.5 -454.5)"><line class="t" y2="4" transform="translate(753.5 470.5)"/></g><g transform="translate(-753.5 -446.5)"><line class="t" y2="4" transform="translate(753.5 470.5)"/></g><g transform="translate(-752.5 -446.5)"><line class="t" y2="4" transform="translate(753.5 470.5)"/></g><g transform="translate(-753.5 -438.5)"><line class="t" y2="4" transform="translate(753.5 470.5)"/></g><g transform="translate(-752.5 -438.5)"><line class="t" y2="4" transform="translate(753.5 470.5)"/></g><g transform="translate(-753.5 -430.5)"><line class="t" y2="4" transform="translate(753.5 470.5)"/></g><g transform="translate(-752.5 -430.5)"><line class="t" y2="4" transform="translate(753.5 470.5)"/></g><g transform="translate(-753.5 -422.5)"><line class="t" y2="4" transform="translate(753.5 470.5)"/></g><g transform="translate(-752.5 -422.5)"><line class="t" y2="4" transform="translate(753.5 470.5)"/></g><g transform="translate(-753.5 -414.5)"><line class="t" y2="4" transform="translate(753.5 470.5)"/></g><g transform="translate(-752.5 -414.5)"><line class="t" y2="4" transform="translate(753.5 470.5)"/></g><g transform="translate(-753.5 -406.5)"><line class="t" y2="4" transform="translate(753.5 470.5)"/></g><g transform="translate(-752.5 -406.5)"><line class="t" y2="4" transform="translate(753.5 470.5)"/></g><g transform="translate(-753.5 -398.5)"><line class="t" y2="4" transform="translate(753.5 470.5)"/></g><g transform="translate(-752.5 -398.5)"><line class="t" y2="4" transform="translate(753.5 470.5)"/></g><g transform="translate(-753.5 -390.5)"><line class="t" y2="4" transform="translate(753.5 470.5)"/></g><g transform="translate(-752.5 -390.5)"><line class="t" y2="4" transform="translate(753.5 470.5)"/></g><g transform="translate(-753.5 -382.5)"><line class="t" y2="4" transform="translate(753.5 470.5)"/></g><g transform="translate(-752.5 -382.5)"><line class="t" y2="4" transform="translate(753.5 470.5)"/></g><g transform="translate(-753.5 -374.5)"><line class="t" y2="4" transform="translate(753.5 470.5)"/></g><g transform="translate(-752.5 -374.5)"><line class="t" y2="4" transform="translate(753.5 470.5)"/></g><g transform="translate(-753.5 -366.5)"><line class="t" y2="4" transform="translate(753.5 470.5)"/></g><g transform="translate(-752.5 -366.5)"><line class="t" y2="4" transform="translate(753.5 470.5)"/></g><g transform="translate(-753.5 -358.5)"><line class="t" y2="4" transform="translate(753.5 470.5)"/></g><g transform="translate(-752.5 -358.5)"><line class="t" y2="4" transform="translate(753.5 470.5)"/></g><g transform="translate(-753.5 -350.5)"><line class="t" y2="4" transform="translate(753.5 470.5)"/></g><g transform="translate(-752.5 -350.5)"><line class="t" y2="4" transform="translate(753.5 470.5)"/></g><g transform="translate(-753.5 -342.5)"><line class="t" y2="4" transform="translate(753.5 470.5)"/></g><g transform="translate(-752.5 -342.5)"><line class="t" y2="4" transform="translate(753.5 470.5)"/></g><g transform="translate(-753.5 -334.5)"><line class="t" y2="4" transform="translate(753.5 470.5)"/></g><g transform="translate(-752.5 -334.5)"><line class="t" y2="4" transform="translate(753.5 470.5)"/></g><g transform="translate(-753.5 -326.5)"><line class="t" y2="4" transform="translate(753.5 470.5)"/></g><g transform="translate(-752.5 -326.5)"><line class="t" y2="4" transform="translate(753.5 470.5)"/></g><g transform="translate(-753.5 -318.5)"><line class="t" y2="4" transform="translate(753.5 470.5)"/></g><g transform="translate(-752.5 -318.5)"><line class="t" y2="4" transform="translate(753.5 470.5)"/></g><g transform="translate(-753.5 -310.5)"><line class="t" y2="4" transform="translate(753.5 470.5)"/></g><g transform="translate(-752.5 -310.5)"><line class="t" y2="4" transform="translate(753.5 470.5)"/></g><g transform="translate(-753.5 -302.5)"><line class="t" y2="4" transform="translate(753.5 470.5)"/></g><g transform="translate(-752.5 -302.5)"><line class="t" y2="4" transform="translate(753.5 470.5)"/></g><g transform="translate(-753.5 -294.5)"><line class="t" y2="4" transform="translate(753.5 470.5)"/></g><g transform="translate(-752.5 -294.5)"><line class="t" y2="4" transform="translate(753.5 470.5)"/></g><g transform="translate(-753.5 -286.5)"><line class="t" y2="4" transform="translate(753.5 470.5)"/></g><g transform="translate(-752.5 -286.5)"><line class="t" y2="4" transform="translate(753.5 470.5)"/></g><g transform="translate(-753.5 -278.5)"><line class="t" y2="4" transform="translate(753.5 470.5)"/></g><g transform="translate(-752.5 -278.5)"><line class="t" y2="4" transform="translate(753.5 470.5)"/></g><g transform="translate(-753.5 -270.5)"><line class="t" y2="4" transform="translate(753.5 470.5)"/></g><g transform="translate(-752.5 -270.5)"><line class="t" y2="4" transform="translate(753.5 470.5)"/></g><g transform="translate(-753.5 -262.5)"><line class="t" y2="4" transform="translate(753.5 470.5)"/></g><g transform="translate(-752.5 -262.5)"><line class="t" y2="4" transform="translate(753.5 470.5)"/></g><g transform="translate(-753.5 -254.5)"><line class="t" y2="4" transform="translate(753.5 470.5)"/></g><g transform="translate(-752.5 -254.5)"><line class="t" y2="4" transform="translate(753.5 470.5)"/></g><g transform="translate(-753.5 -246.5)"><line class="t" y2="4" transform="translate(753.5 470.5)"/></g><g transform="translate(-752.5 -246.5)"><line class="t" y2="4" transform="translate(753.5 470.5)"/></g></g><g class="q" transform="translate(3001.5 448.5)"><g transform="translate(-874.5 -857.5)"><line class="u" x2="4" transform="translate(874.5 857.5)"/></g><g transform="translate(-866.5 -857.5)"><line class="u" x2="4" transform="translate(874.5 857.5)"/></g><g transform="translate(-858.5 -857.5)"><line class="u" x2="4" transform="translate(874.5 857.5)"/></g><g transform="translate(-850.5 -857.5)"><line class="u" x2="4" transform="translate(874.5 857.5)"/></g><g transform="translate(-842.5 -857.5)"><line class="u" x2="4" transform="translate(874.5 857.5)"/></g><g transform="translate(-834.5 -857.5)"><line class="u" x2="4" transform="translate(874.5 857.5)"/></g><g transform="translate(-826.5 -857.5)"><line class="u" x2="4" transform="translate(874.5 857.5)"/></g><g transform="translate(-818.5 -857.5)"><line class="u" x2="4" transform="translate(874.5 857.5)"/></g><g transform="translate(-810.5 -857.5)"><line class="u" x2="4" transform="translate(874.5 857.5)"/></g><g transform="translate(-802.5 -857.5)"><line class="u" x2="4" transform="translate(874.5 857.5)"/></g><g transform="translate(-794.5 -857.5)"><line class="u" x2="4" transform="translate(874.5 857.5)"/></g><g transform="translate(-786.5 -857.5)"><line class="u" x2="4" transform="translate(874.5 857.5)"/></g><g transform="translate(-778.5 -857.5)"><line class="u" x2="4" transform="translate(874.5 857.5)"/></g><g transform="translate(-770.5 -857.5)"><line class="u" x2="4" transform="translate(874.5 857.5)"/></g><g transform="translate(-762.5 -857.5)"><line class="u" x2="4" transform="translate(874.5 857.5)"/></g><g transform="translate(-754.5 -857.5)"><line class="u" x2="4" transform="translate(874.5 857.5)"/></g><g transform="translate(-746.5 -857.5)"><line class="u" x2="4" transform="translate(874.5 857.5)"/></g><g transform="translate(-738.5 -857.5)"><line class="u" x2="4" transform="translate(874.5 857.5)"/></g><g transform="translate(-730.5 -857.5)"><line class="u" x2="4" transform="translate(874.5 857.5)"/></g><g transform="translate(-722.5 -857.5)"><line class="u" x2="4" transform="translate(874.5 857.5)"/></g><g transform="translate(-714.5 -857.5)"><line class="u" x2="4" transform="translate(874.5 857.5)"/></g><g transform="translate(-706.5 -857.5)"><line class="u" x2="4" transform="translate(874.5 857.5)"/></g><g transform="translate(-698.5 -857.5)"><line class="u" x2="4" transform="translate(874.5 857.5)"/></g><g transform="translate(-690.5 -857.5)"><line class="u" x2="4" transform="translate(874.5 857.5)"/></g><g transform="translate(-682.5 -857.5)"><line class="u" x2="4" transform="translate(874.5 857.5)"/></g><g transform="translate(-674.5 -857.5)"><line class="u" x2="4" transform="translate(874.5 857.5)"/></g><g transform="translate(-666.5 -857.5)"><line class="u" x2="4" transform="translate(874.5 857.5)"/></g><g transform="translate(-658.5 -857.5)"><line class="u" x2="4" transform="translate(874.5 857.5)"/></g><g transform="translate(-650.5 -857.5)"><line class="u" x2="4" transform="translate(874.5 857.5)"/></g><g transform="translate(-642.5 -857.5)"><line class="u" x2="4" transform="translate(874.5 857.5)"/></g><g transform="translate(-634.5 -857.5)"><line class="u" x2="4" transform="translate(874.5 857.5)"/></g><g transform="translate(-626.5 -857.5)"><line class="u" x2="4" transform="translate(874.5 857.5)"/></g><g transform="translate(-618.5 -857.5)"><line class="u" x2="4" transform="translate(874.5 857.5)"/></g><g transform="translate(-610.5 -857.5)"><line class="u" x2="4" transform="translate(874.5 857.5)"/></g><g transform="translate(-602.5 -857.5)"><line class="u" x2="4" transform="translate(874.5 857.5)"/></g><g transform="translate(-594.5 -857.5)"><line class="u" x2="4" transform="translate(874.5 857.5)"/></g><g transform="translate(-586.5 -857.5)"><line class="u" x2="4" transform="translate(874.5 857.5)"/></g><g transform="translate(-578.5 -857.5)"><line class="u" x2="4" transform="translate(874.5 857.5)"/></g><g transform="translate(-570.5 -857.5)"><line class="u" x2="4" transform="translate(874.5 857.5)"/></g><g transform="translate(-562.5 -857.5)"><line class="u" x2="4" transform="translate(874.5 857.5)"/></g><g transform="translate(-554.5 -857.5)"><line class="u" x2="4" transform="translate(874.5 857.5)"/></g><g transform="translate(-546.5 -857.5)"><line class="u" x2="4" transform="translate(874.5 857.5)"/></g><g transform="translate(-538.5 -857.5)"><line class="u" x2="4" transform="translate(874.5 857.5)"/></g><g transform="translate(-530.5 -857.5)"><line class="u" x2="4" transform="translate(874.5 857.5)"/></g><g transform="translate(-522.5 -857.5)"><line class="u" x2="4" transform="translate(874.5 857.5)"/></g><g transform="translate(-514.5 -857.5)"><line class="u" x2="4" transform="translate(874.5 857.5)"/></g><g transform="translate(-506.5 -857.5)"><line class="u" x2="4" transform="translate(874.5 857.5)"/></g><g transform="translate(-498.5 -857.5)"><line class="u" x2="4" transform="translate(874.5 857.5)"/></g><g transform="translate(-490.5 -857.5)"><line class="u" x2="4" transform="translate(874.5 857.5)"/></g><g transform="translate(-482.5 -857.5)"><line class="u" x2="4" transform="translate(874.5 857.5)"/></g><g transform="translate(-474.5 -857.5)"><line class="u" x2="4" transform="translate(874.5 857.5)"/></g><g transform="translate(-466.5 -857.5)"><line class="u" x2="4" transform="translate(874.5 857.5)"/></g><g transform="translate(-458.5 -857.5)"><line class="u" x2="4" transform="translate(874.5 857.5)"/></g><g transform="translate(-450.5 -857.5)"><line class="u" x2="4" transform="translate(874.5 857.5)"/></g><g transform="translate(-442.5 -857.5)"><line class="u" x2="4" transform="translate(874.5 857.5)"/></g><g transform="translate(-434.5 -857.5)"><line class="u" x2="4" transform="translate(874.5 857.5)"/></g><g transform="translate(-426.5 -857.5)"><line class="u" x2="4" transform="translate(874.5 857.5)"/></g><g transform="translate(-418.5 -857.5)"><line class="u" x2="4" transform="translate(874.5 857.5)"/></g><g transform="translate(-410.5 -857.5)"><line class="u" x2="4" transform="translate(874.5 857.5)"/></g><g transform="translate(-402.5 -857.5)"><line class="u" x2="4" transform="translate(874.5 857.5)"/></g><g transform="translate(-874.5 -856.5)"><line class="u" x2="4" transform="translate(874.5 857.5)"/></g><g transform="translate(-866.5 -856.5)"><line class="u" x2="4" transform="translate(874.5 857.5)"/></g><g transform="translate(-858.5 -856.5)"><line class="u" x2="4" transform="translate(874.5 857.5)"/></g><g transform="translate(-850.5 -856.5)"><line class="u" x2="4" transform="translate(874.5 857.5)"/></g><g transform="translate(-842.5 -856.5)"><line class="u" x2="4" transform="translate(874.5 857.5)"/></g><g transform="translate(-834.5 -856.5)"><line class="u" x2="4" transform="translate(874.5 857.5)"/></g><g transform="translate(-826.5 -856.5)"><line class="u" x2="4" transform="translate(874.5 857.5)"/></g><g transform="translate(-818.5 -856.5)"><line class="u" x2="4" transform="translate(874.5 857.5)"/></g><g transform="translate(-810.5 -856.5)"><line class="u" x2="4" transform="translate(874.5 857.5)"/></g><g transform="translate(-802.5 -856.5)"><line class="u" x2="4" transform="translate(874.5 857.5)"/></g><g transform="translate(-794.5 -856.5)"><line class="u" x2="4" transform="translate(874.5 857.5)"/></g><g transform="translate(-786.5 -856.5)"><line class="u" x2="4" transform="translate(874.5 857.5)"/></g><g transform="translate(-778.5 -856.5)"><line class="u" x2="4" transform="translate(874.5 857.5)"/></g><g transform="translate(-770.5 -856.5)"><line class="u" x2="4" transform="translate(874.5 857.5)"/></g><g transform="translate(-762.5 -856.5)"><line class="u" x2="4" transform="translate(874.5 857.5)"/></g><g transform="translate(-754.5 -856.5)"><line class="u" x2="4" transform="translate(874.5 857.5)"/></g><g transform="translate(-746.5 -856.5)"><line class="u" x2="4" transform="translate(874.5 857.5)"/></g><g transform="translate(-738.5 -856.5)"><line class="u" x2="4" transform="translate(874.5 857.5)"/></g><g transform="translate(-730.5 -856.5)"><line class="u" x2="4" transform="translate(874.5 857.5)"/></g><g transform="translate(-722.5 -856.5)"><line class="u" x2="4" transform="translate(874.5 857.5)"/></g><g transform="translate(-714.5 -856.5)"><line class="u" x2="4" transform="translate(874.5 857.5)"/></g><g transform="translate(-706.5 -856.5)"><line class="u" x2="4" transform="translate(874.5 857.5)"/></g><g transform="translate(-698.5 -856.5)"><line class="u" x2="4" transform="translate(874.5 857.5)"/></g><g transform="translate(-690.5 -856.5)"><line class="u" x2="4" transform="translate(874.5 857.5)"/></g><g transform="translate(-682.5 -856.5)"><line class="u" x2="4" transform="translate(874.5 857.5)"/></g><g transform="translate(-674.5 -856.5)"><line class="u" x2="4" transform="translate(874.5 857.5)"/></g><g transform="translate(-666.5 -856.5)"><line class="u" x2="4" transform="translate(874.5 857.5)"/></g><g transform="translate(-658.5 -856.5)"><line class="u" x2="4" transform="translate(874.5 857.5)"/></g><g transform="translate(-650.5 -856.5)"><line class="u" x2="4" transform="translate(874.5 857.5)"/></g><g transform="translate(-642.5 -856.5)"><line class="u" x2="4" transform="translate(874.5 857.5)"/></g><g transform="translate(-634.5 -856.5)"><line class="u" x2="4" transform="translate(874.5 857.5)"/></g><g transform="translate(-626.5 -856.5)"><line class="u" x2="4" transform="translate(874.5 857.5)"/></g><g transform="translate(-618.5 -856.5)"><line class="u" x2="4" transform="translate(874.5 857.5)"/></g><g transform="translate(-610.5 -856.5)"><line class="u" x2="4" transform="translate(874.5 857.5)"/></g><g transform="translate(-602.5 -856.5)"><line class="u" x2="4" transform="translate(874.5 857.5)"/></g><g transform="translate(-594.5 -856.5)"><line class="u" x2="4" transform="translate(874.5 857.5)"/></g><g transform="translate(-586.5 -856.5)"><line class="u" x2="4" transform="translate(874.5 857.5)"/></g><g transform="translate(-578.5 -856.5)"><line class="u" x2="4" transform="translate(874.5 857.5)"/></g><g transform="translate(-570.5 -856.5)"><line class="u" x2="4" transform="translate(874.5 857.5)"/></g><g transform="translate(-562.5 -856.5)"><line class="u" x2="4" transform="translate(874.5 857.5)"/></g><g transform="translate(-554.5 -856.5)"><line class="u" x2="4" transform="translate(874.5 857.5)"/></g><g transform="translate(-546.5 -856.5)"><line class="u" x2="4" transform="translate(874.5 857.5)"/></g><g transform="translate(-538.5 -856.5)"><line class="u" x2="4" transform="translate(874.5 857.5)"/></g><g transform="translate(-530.5 -856.5)"><line class="u" x2="4" transform="translate(874.5 857.5)"/></g><g transform="translate(-522.5 -856.5)"><line class="u" x2="4" transform="translate(874.5 857.5)"/></g><g transform="translate(-514.5 -856.5)"><line class="u" x2="4" transform="translate(874.5 857.5)"/></g><g transform="translate(-506.5 -856.5)"><line class="u" x2="4" transform="translate(874.5 857.5)"/></g><g transform="translate(-498.5 -856.5)"><line class="u" x2="4" transform="translate(874.5 857.5)"/></g><g transform="translate(-490.5 -856.5)"><line class="u" x2="4" transform="translate(874.5 857.5)"/></g><g transform="translate(-482.5 -856.5)"><line class="u" x2="4" transform="translate(874.5 857.5)"/></g><g transform="translate(-474.5 -856.5)"><line class="u" x2="4" transform="translate(874.5 857.5)"/></g><g transform="translate(-466.5 -856.5)"><line class="u" x2="4" transform="translate(874.5 857.5)"/></g><g transform="translate(-458.5 -856.5)"><line class="u" x2="4" transform="translate(874.5 857.5)"/></g><g transform="translate(-450.5 -856.5)"><line class="u" x2="4" transform="translate(874.5 857.5)"/></g><g transform="translate(-442.5 -856.5)"><line class="u" x2="4" transform="translate(874.5 857.5)"/></g><g transform="translate(-434.5 -856.5)"><line class="u" x2="4" transform="translate(874.5 857.5)"/></g><g transform="translate(-426.5 -856.5)"><line class="u" x2="4" transform="translate(874.5 857.5)"/></g><g transform="translate(-418.5 -856.5)"><line class="u" x2="4" transform="translate(874.5 857.5)"/></g><g transform="translate(-410.5 -856.5)"><line class="u" x2="4" transform="translate(874.5 857.5)"/></g><g transform="translate(-402.5 -856.5)"><line class="u" x2="4" transform="translate(874.5 857.5)"/></g></g></g></svg>