<svg xmlns="http://www.w3.org/2000/svg" xmlns:xlink="http://www.w3.org/1999/xlink" viewBox="0 0 652 146"><defs><style>.a{clip-path:url(#b);}.b{fill:#fb1010;}.c{fill:#2aa213;}.d{fill:#b1b2b2;}.e{fill:none;stroke:#95989a;}.f{fill:#fff;}</style><clipPath id="b"><rect width="652" height="146"/></clipPath></defs><g id="a" class="a"><rect class="f" width="652" height="146"/><path class="b" d="M8.274,0H5.88L2.562-7.826q.126,1.036.189,1.876t.063,2V0H1.134V-9.674H3.472l3.374,7.84q-.084-.56-.168-1.477T6.594-5.138V-9.674h1.68ZM17.6-3.164a3.6,3.6,0,0,1-.413,1.743,2.907,2.907,0,0,1-1.232,1.2A4.15,4.15,0,0,1,13.986.21a3.617,3.617,0,0,1-2.66-.917A3.306,3.306,0,0,1,10.4-3.164v-6.51H12.25v6.412a2.317,2.317,0,0,0,.427,1.526,1.621,1.621,0,0,0,1.309.5,1.639,1.639,0,0,0,1.323-.5,2.317,2.317,0,0,0,.427-1.526V-9.674H17.6ZM26.866,0H24.472L21.154-7.826q.126,1.036.189,1.876t.063,2V0h-1.68V-9.674h2.338l3.374,7.84q-.084-.56-.168-1.477t-.084-1.827V-9.674h1.68Zm7.5-9.632a4.663,4.663,0,0,1,1.288.77L34.72-7.77a2.824,2.824,0,0,0-1.792-.686,2.056,2.056,0,0,0-1.729.868,4.575,4.575,0,0,0-.651,2.73,4.594,4.594,0,0,0,.644,2.7,2.04,2.04,0,0,0,1.736.882,2.451,2.451,0,0,0,1.022-.2,5.169,5.169,0,0,0,.952-.581L35.77-.966a3.969,3.969,0,0,1-1.239.84A4.043,4.043,0,0,1,32.858.21a4.2,4.2,0,0,1-2.226-.588,3.875,3.875,0,0,1-1.5-1.729A6.471,6.471,0,0,1,28.6-4.858a6.143,6.143,0,0,1,.553-2.716A4.026,4.026,0,0,1,30.667-9.3a4.055,4.055,0,0,1,2.163-.588A4.3,4.3,0,0,1,34.37-9.632ZM42.21,0l-.6-2.24H38.4L37.8,0H35.882l3.01-9.674h2.282L44.17,0ZM38.766-3.64H41.23L40-8.26Z" transform="translate(49.5 123)"/><path class="c" d="M5.7-9.59a4.518,4.518,0,0,1,1.414.9L6.2-7.644a3.6,3.6,0,0,0-1.043-.63,3.2,3.2,0,0,0-1.127-.2,1.8,1.8,0,0,0-1.085.3.987.987,0,0,0-.413.847,1.052,1.052,0,0,0,.161.6,1.491,1.491,0,0,0,.581.448,8.5,8.5,0,0,0,1.246.462A5.654,5.654,0,0,1,6.671-4.7a2.507,2.507,0,0,1,.721,1.939,2.743,2.743,0,0,1-.441,1.54A2.924,2.924,0,0,1,5.684-.168,4.677,4.677,0,0,1,3.724.21,5.2,5.2,0,0,1,1.743-.147,4.624,4.624,0,0,1,.238-1.12L1.19-2.184a4.3,4.3,0,0,0,1.162.721,3.5,3.5,0,0,0,1.33.245A2.051,2.051,0,0,0,4.97-1.6,1.266,1.266,0,0,0,5.46-2.66a1.3,1.3,0,0,0-.168-.693,1.457,1.457,0,0,0-.574-.49A6.993,6.993,0,0,0,3.542-4.3,5.519,5.519,0,0,1,1.316-5.446,2.359,2.359,0,0,1,.63-7.21a2.385,2.385,0,0,1,.42-1.4,2.767,2.767,0,0,1,1.169-.938,4.114,4.114,0,0,1,1.7-.336A4.895,4.895,0,0,1,5.7-9.59Zm8.89-.084-.2,1.372h-3.57v2.7H13.93v1.372H10.822v2.842h3.822V0H8.974V-9.674ZM25.564,0H23.758l-.252-4.046q-.126-2.17-.126-3.444v-.5L21.616-1.05h-1.75L17.99-8.008q.028.924.028,1.4,0,1.274-.084,2.618L17.7,0H15.9l.77-9.674h2.38L20.776-2.9,22.4-9.674h2.408Zm7.525-8.9a2.7,2.7,0,0,1,1.029,2.31,2.869,2.869,0,0,1-1.036,2.415,4.375,4.375,0,0,1-2.758.8H29.19V0H27.342V-9.674H30.2A4.744,4.744,0,0,1,33.089-8.9ZM31.682-5.173a1.745,1.745,0,0,0,.5-1.421q0-1.722-2-1.722H29.19V-4.76h.994A2.322,2.322,0,0,0,31.682-5.173Zm6.958,1.3H37.464V0H35.616V-9.674H38.5q3.836,0,3.836,2.842a2.573,2.573,0,0,1-.476,1.6,3.3,3.3,0,0,1-1.484,1.022L42.91,0H40.782Zm-1.176-1.33h1.148a2.022,2.022,0,0,0,1.337-.385A1.538,1.538,0,0,0,40.4-6.832a1.342,1.342,0,0,0-.469-1.141,2.448,2.448,0,0,0-1.477-.357h-.994Zm12.32-4.466-.2,1.372h-3.57v2.7h3.108v1.372H46.018v2.842H49.84V0H44.17V-9.674Z" transform="translate(373.5 118)"/><path class="d" d="M1.859-10.042,4.744-1.49l2.851-8.552H9.119L5.455,0H4.013L.355-10.042Zm8.682,8.935a1.445,1.445,0,0,0,.923.308,2.806,2.806,0,0,0,1.258-.3,1.693,1.693,0,0,0,1.025-1.634v-.991a2.105,2.105,0,0,1-.581.239,4.951,4.951,0,0,1-.7.137l-.745.1a2.85,2.85,0,0,0-1,.28,1.092,1.092,0,0,0-.567,1.025A1.013,1.013,0,0,0,10.541-1.107Zm2.591-3.329a.668.668,0,0,0,.567-.355,1.082,1.082,0,0,0,.082-.472,1,1,0,0,0-.448-.913,2.4,2.4,0,0,0-1.282-.284,1.629,1.629,0,0,0-1.367.52,1.709,1.709,0,0,0-.294.854H9.242a2.114,2.114,0,0,1,.878-1.883,3.607,3.607,0,0,1,1.958-.53,3.985,3.985,0,0,1,2.1.492,1.67,1.67,0,0,1,.8,1.531v4.218a.54.54,0,0,0,.079.308.379.379,0,0,0,.332.116q.082,0,.185-.01t.219-.031V.034a3.427,3.427,0,0,1-.437.1,3.2,3.2,0,0,1-.41.021,1.012,1.012,0,0,1-.923-.451,1.741,1.741,0,0,1-.212-.677,3.131,3.131,0,0,1-1.08.854,3.341,3.341,0,0,1-1.552.362A2.308,2.308,0,0,1,9.512-.373a2.055,2.055,0,0,1-.646-1.548A1.994,1.994,0,0,1,9.5-3.5a3.025,3.025,0,0,1,1.668-.69Zm3.9-5.605h1.23V0h-1.23Zm7.66,8.323a4.615,4.615,0,0,0,.455-2.061,3.67,3.67,0,0,0-.328-1.668A1.846,1.846,0,0,0,23.023-6.46a1.766,1.766,0,0,0-1.641.861,3.992,3.992,0,0,0-.513,2.078,3.473,3.473,0,0,0,.513,1.948,1.806,1.806,0,0,0,1.627.779A1.7,1.7,0,0,0,24.688-1.719ZM25.45-6.59a3.684,3.684,0,0,1,.978,2.775,4.762,4.762,0,0,1-.861,2.926A3.116,3.116,0,0,1,22.894.267a3.017,3.017,0,0,1-2.4-1.022A4.037,4.037,0,0,1,19.605-3.5a4.367,4.367,0,0,1,.937-2.939,3.143,3.143,0,0,1,2.516-1.094A3.315,3.315,0,0,1,25.45-6.59Zm2.475-.731h1.169v1.265a2.794,2.794,0,0,1,.7-.9,1.826,1.826,0,0,1,1.292-.53q.034,0,.116.007l.28.027v1.3a1.838,1.838,0,0,0-.2-.027q-.092-.007-.2-.007a1.756,1.756,0,0,0-1.429.6,2.088,2.088,0,0,0-.5,1.377V0h-1.23ZM41-4.115,39.471-8.552l-1.62,4.437ZM38.76-10.042H40.3L43.941,0h-1.49L41.433-3.008H37.461L36.374,0H34.979Z" transform="translate(48.5 21)"/><line class="e" x2="249.5" transform="translate(48 0.5)"/><line class="e" x2="249.5" transform="translate(48 60.5)"/><line class="e" x2="249.5" transform="translate(48 90.5)"/><line class="e" x2="249.5" transform="translate(48 30.5)"/><path class="d" d="M1.859-10.042,4.744-1.49l2.851-8.552H9.119L5.455,0H4.013L.355-10.042Zm8.682,8.935a1.445,1.445,0,0,0,.923.308,2.806,2.806,0,0,0,1.258-.3,1.693,1.693,0,0,0,1.025-1.634v-.991a2.105,2.105,0,0,1-.581.239,4.951,4.951,0,0,1-.7.137l-.745.1a2.85,2.85,0,0,0-1,.28,1.092,1.092,0,0,0-.567,1.025A1.013,1.013,0,0,0,10.541-1.107Zm2.591-3.329a.668.668,0,0,0,.567-.355,1.082,1.082,0,0,0,.082-.472,1,1,0,0,0-.448-.913,2.4,2.4,0,0,0-1.282-.284,1.629,1.629,0,0,0-1.367.52,1.709,1.709,0,0,0-.294.854H9.242a2.114,2.114,0,0,1,.878-1.883,3.607,3.607,0,0,1,1.958-.53,3.985,3.985,0,0,1,2.1.492,1.67,1.67,0,0,1,.8,1.531v4.218a.54.54,0,0,0,.079.308.379.379,0,0,0,.332.116q.082,0,.185-.01t.219-.031V.034a3.427,3.427,0,0,1-.437.1,3.2,3.2,0,0,1-.41.021,1.012,1.012,0,0,1-.923-.451,1.741,1.741,0,0,1-.212-.677,3.131,3.131,0,0,1-1.08.854,3.341,3.341,0,0,1-1.552.362A2.308,2.308,0,0,1,9.512-.373a2.055,2.055,0,0,1-.646-1.548A1.994,1.994,0,0,1,9.5-3.5a3.025,3.025,0,0,1,1.668-.69Zm3.9-5.605h1.23V0h-1.23Zm7.66,8.323a4.615,4.615,0,0,0,.455-2.061,3.67,3.67,0,0,0-.328-1.668A1.846,1.846,0,0,0,23.023-6.46a1.766,1.766,0,0,0-1.641.861,3.992,3.992,0,0,0-.513,2.078,3.473,3.473,0,0,0,.513,1.948,1.806,1.806,0,0,0,1.627.779A1.7,1.7,0,0,0,24.688-1.719ZM25.45-6.59a3.684,3.684,0,0,1,.978,2.775,4.762,4.762,0,0,1-.861,2.926A3.116,3.116,0,0,1,22.894.267a3.017,3.017,0,0,1-2.4-1.022A4.037,4.037,0,0,1,19.605-3.5a4.367,4.367,0,0,1,.937-2.939,3.143,3.143,0,0,1,2.516-1.094A3.315,3.315,0,0,1,25.45-6.59Zm2.475-.731h1.169v1.265a2.794,2.794,0,0,1,.7-.9,1.826,1.826,0,0,1,1.292-.53q.034,0,.116.007l.28.027v1.3a1.838,1.838,0,0,0-.2-.027q-.092-.007-.2-.007a1.756,1.756,0,0,0-1.429.6,2.088,2.088,0,0,0-.5,1.377V0h-1.23ZM40.38-5.8a3.051,3.051,0,0,0,1.34-.239,1.378,1.378,0,0,0,.752-1.354,1.3,1.3,0,0,0-.8-1.326,3.6,3.6,0,0,0-1.34-.191H37.905V-5.8Zm.458,4.635a2.069,2.069,0,0,0,1.784-.725,1.825,1.825,0,0,0,.335-1.107,1.473,1.473,0,0,0-.978-1.49A3.7,3.7,0,0,0,40.605-4.7h-2.7v3.534Zm-4.266-8.88h4.313a2.86,2.86,0,0,1,2.509,1.053,2.433,2.433,0,0,1,.438,1.436A2.26,2.26,0,0,1,43.292-6a2.639,2.639,0,0,1-.807.588,3.413,3.413,0,0,1,1.155.663,2.406,2.406,0,0,1,.677,1.812,2.8,2.8,0,0,1-.608,1.757A3.426,3.426,0,0,1,40.817,0H36.572Z" transform="translate(48.5 51)"/><path class="d" d="M1.859-10.042,4.744-1.49l2.851-8.552H9.119L5.455,0H4.013L.355-10.042Zm8.682,8.935a1.445,1.445,0,0,0,.923.308,2.806,2.806,0,0,0,1.258-.3,1.693,1.693,0,0,0,1.025-1.634v-.991a2.105,2.105,0,0,1-.581.239,4.951,4.951,0,0,1-.7.137l-.745.1a2.85,2.85,0,0,0-1,.28,1.092,1.092,0,0,0-.567,1.025A1.013,1.013,0,0,0,10.541-1.107Zm2.591-3.329a.668.668,0,0,0,.567-.355,1.082,1.082,0,0,0,.082-.472,1,1,0,0,0-.448-.913,2.4,2.4,0,0,0-1.282-.284,1.629,1.629,0,0,0-1.367.52,1.709,1.709,0,0,0-.294.854H9.242a2.114,2.114,0,0,1,.878-1.883,3.607,3.607,0,0,1,1.958-.53,3.985,3.985,0,0,1,2.1.492,1.67,1.67,0,0,1,.8,1.531v4.218a.54.54,0,0,0,.079.308.379.379,0,0,0,.332.116q.082,0,.185-.01t.219-.031V.034a3.427,3.427,0,0,1-.437.1,3.2,3.2,0,0,1-.41.021,1.012,1.012,0,0,1-.923-.451,1.741,1.741,0,0,1-.212-.677,3.131,3.131,0,0,1-1.08.854,3.341,3.341,0,0,1-1.552.362A2.308,2.308,0,0,1,9.512-.373a2.055,2.055,0,0,1-.646-1.548A1.994,1.994,0,0,1,9.5-3.5a3.025,3.025,0,0,1,1.668-.69Zm3.9-5.605h1.23V0h-1.23Zm7.66,8.323a4.615,4.615,0,0,0,.455-2.061,3.67,3.67,0,0,0-.328-1.668A1.846,1.846,0,0,0,23.023-6.46a1.766,1.766,0,0,0-1.641.861,3.992,3.992,0,0,0-.513,2.078,3.473,3.473,0,0,0,.513,1.948,1.806,1.806,0,0,0,1.627.779A1.7,1.7,0,0,0,24.688-1.719ZM25.45-6.59a3.684,3.684,0,0,1,.978,2.775,4.762,4.762,0,0,1-.861,2.926A3.116,3.116,0,0,1,22.894.267a3.017,3.017,0,0,1-2.4-1.022A4.037,4.037,0,0,1,19.605-3.5a4.367,4.367,0,0,1,.937-2.939,3.143,3.143,0,0,1,2.516-1.094A3.315,3.315,0,0,1,25.45-6.59Zm2.475-.731h1.169v1.265a2.794,2.794,0,0,1,.7-.9,1.826,1.826,0,0,1,1.292-.53q.034,0,.116.007l.28.027v1.3a1.838,1.838,0,0,0-.2-.027q-.092-.007-.2-.007a1.756,1.756,0,0,0-1.429.6,2.088,2.088,0,0,0-.5,1.377V0h-1.23ZM43.8-9.311a3.549,3.549,0,0,1,1.169,2.283H43.641a2.76,2.76,0,0,0-.9-1.538,2.849,2.849,0,0,0-1.89-.567,3.031,3.031,0,0,0-2.4,1.042,4.752,4.752,0,0,0-.913,3.2,4.642,4.642,0,0,0,.824,2.861,2.878,2.878,0,0,0,2.458,1.1,2.6,2.6,0,0,0,2.29-1.155,4.394,4.394,0,0,0,.622-1.6h1.326a4.531,4.531,0,0,1-1.176,2.659A4.184,4.184,0,0,1,40.66.26,4.259,4.259,0,0,1,37.721-.8a5.521,5.521,0,0,1-1.565-4.327,5.528,5.528,0,0,1,1.176-3.644,4.3,4.3,0,0,1,3.507-1.545A4.115,4.115,0,0,1,43.8-9.311Z" transform="translate(49.5 81)"/><path class="d" d="M1.34-6.932v-.943A5.013,5.013,0,0,0,3.2-8.309a2.139,2.139,0,0,0,.786-1.439h.971V0H3.644V-6.932ZM8.982-1.49h1.429V0H8.982ZM12.636-2.2A4.233,4.233,0,0,1,14.41-3.9l1.313-.759a6.179,6.179,0,0,0,1.237-.875,1.8,1.8,0,0,0,.561-1.3,1.813,1.813,0,0,0-.513-1.357,1.869,1.869,0,0,0-1.367-.5,1.786,1.786,0,0,0-1.75.957A3.426,3.426,0,0,0,13.6-6.316H12.353A4.394,4.394,0,0,1,12.824-8.4a2.96,2.96,0,0,1,2.823-1.422,3.06,3.06,0,0,1,2.458.909,3.042,3.042,0,0,1,.776,2.023,2.751,2.751,0,0,1-.827,2.01,8.1,8.1,0,0,1-1.716,1.176l-.937.52a6.066,6.066,0,0,0-1.053.7,2.565,2.565,0,0,0-.861,1.319h5.346V0h-6.72A5.709,5.709,0,0,1,12.636-2.2ZM20.58-.687A3.539,3.539,0,0,1,19.8-3.008h1.285a3.187,3.187,0,0,0,.355,1.381,1.87,1.87,0,0,0,1.729.772,2.267,2.267,0,0,0,1.559-.52,1.706,1.706,0,0,0,.588-1.34,1.56,1.56,0,0,0-.619-1.415,3.13,3.13,0,0,0-1.719-.4q-.123,0-.25,0t-.256.01V-5.605q.191.021.321.027t.28.007a2.569,2.569,0,0,0,1.135-.219,1.39,1.39,0,0,0,.779-1.367,1.335,1.335,0,0,0-.52-1.128,1.939,1.939,0,0,0-1.21-.4,1.794,1.794,0,0,0-1.7.82,2.843,2.843,0,0,0-.294,1.285H20.043a3.692,3.692,0,0,1,.438-1.859A2.758,2.758,0,0,1,23.126-9.8a3.585,3.585,0,0,1,2.317.667,2.344,2.344,0,0,1,.82,1.931,2.155,2.155,0,0,1-.485,1.463A2.039,2.039,0,0,1,25-5.2a2.124,2.124,0,0,1,1.207.817A2.472,2.472,0,0,1,26.64-2.9a3.016,3.016,0,0,1-.923,2.283A3.64,3.64,0,0,1,23.1.267,3.076,3.076,0,0,1,20.58-.687Zm11.3-2.779V-7.9L28.738-3.466ZM31.9,0V-2.393H27.6V-3.6l4.484-6.221h1.039v6.351h1.442v1.073H33.127V0Zm4.867-2.5a1.706,1.706,0,0,0,.978,1.456,2.359,2.359,0,0,0,1.012.205,1.9,1.9,0,0,0,1.62-.7A2.5,2.5,0,0,0,40.9-3.076a2.019,2.019,0,0,0-.625-1.586,2.171,2.171,0,0,0-1.5-.561,2.26,2.26,0,0,0-1.09.246,2.336,2.336,0,0,0-.776.684l-1.066-.062.745-5.271h5.086v1.189H37.509l-.417,2.721a3.057,3.057,0,0,1,.649-.39,3.3,3.3,0,0,1,1.265-.226,3.236,3.236,0,0,1,2.283.868,2.871,2.871,0,0,1,.937,2.2,3.777,3.777,0,0,1-.858,2.447A3.318,3.318,0,0,1,38.63.246a3.487,3.487,0,0,1-2.116-.673A2.671,2.671,0,0,1,35.485-2.5Z" transform="translate(242.5 21)"/><path class="d" d="M.96-2.2A4.233,4.233,0,0,1,2.734-3.9l1.313-.759a6.179,6.179,0,0,0,1.237-.875,1.8,1.8,0,0,0,.561-1.3,1.813,1.813,0,0,0-.513-1.357,1.869,1.869,0,0,0-1.367-.5,1.786,1.786,0,0,0-1.75.957,3.426,3.426,0,0,0-.287,1.422H.677A4.394,4.394,0,0,1,1.148-8.4,2.96,2.96,0,0,1,3.972-9.823a3.06,3.06,0,0,1,2.458.909,3.042,3.042,0,0,1,.776,2.023,2.751,2.751,0,0,1-.827,2.01A8.1,8.1,0,0,1,4.662-3.705l-.937.52a6.066,6.066,0,0,0-1.053.7,2.565,2.565,0,0,0-.861,1.319H7.157V0H.438A5.709,5.709,0,0,1,.96-2.2ZM8.9-.687a3.539,3.539,0,0,1-.783-2.321H9.406a3.187,3.187,0,0,0,.355,1.381,1.87,1.87,0,0,0,1.729.772,2.267,2.267,0,0,0,1.559-.52,1.706,1.706,0,0,0,.588-1.34,1.56,1.56,0,0,0-.619-1.415,3.13,3.13,0,0,0-1.719-.4q-.123,0-.25,0t-.256.01V-5.605q.191.021.321.027t.28.007A2.569,2.569,0,0,0,12.53-5.79a1.39,1.39,0,0,0,.779-1.367,1.335,1.335,0,0,0-.52-1.128,1.939,1.939,0,0,0-1.21-.4,1.794,1.794,0,0,0-1.7.82,2.843,2.843,0,0,0-.294,1.285H8.367A3.692,3.692,0,0,1,8.8-8.436,2.758,2.758,0,0,1,11.45-9.8a3.585,3.585,0,0,1,2.317.667,2.344,2.344,0,0,1,.82,1.931A2.155,2.155,0,0,1,14.1-5.742a2.039,2.039,0,0,1-.779.547,2.124,2.124,0,0,1,1.207.817,2.472,2.472,0,0,1,.434,1.48,3.016,3.016,0,0,1-.923,2.283,3.64,3.64,0,0,1-2.618.882A3.076,3.076,0,0,1,8.9-.687Z" transform="translate(242.5 51)"/><path class="d" d="M.96-2.2A4.233,4.233,0,0,1,2.734-3.9l1.313-.759a6.179,6.179,0,0,0,1.237-.875,1.8,1.8,0,0,0,.561-1.3,1.813,1.813,0,0,0-.513-1.357,1.869,1.869,0,0,0-1.367-.5,1.786,1.786,0,0,0-1.75.957,3.426,3.426,0,0,0-.287,1.422H.677A4.394,4.394,0,0,1,1.148-8.4,2.96,2.96,0,0,1,3.972-9.823a3.06,3.06,0,0,1,2.458.909,3.042,3.042,0,0,1,.776,2.023,2.751,2.751,0,0,1-.827,2.01A8.1,8.1,0,0,1,4.662-3.705l-.937.52a6.066,6.066,0,0,0-1.053.7,2.565,2.565,0,0,0-.861,1.319H7.157V0H.438A5.709,5.709,0,0,1,.96-2.2ZM8.9-.687a3.539,3.539,0,0,1-.783-2.321H9.406a3.187,3.187,0,0,0,.355,1.381,1.87,1.87,0,0,0,1.729.772,2.267,2.267,0,0,0,1.559-.52,1.706,1.706,0,0,0,.588-1.34,1.56,1.56,0,0,0-.619-1.415,3.13,3.13,0,0,0-1.719-.4q-.123,0-.25,0t-.256.01V-5.605q.191.021.321.027t.28.007A2.569,2.569,0,0,0,12.53-5.79a1.39,1.39,0,0,0,.779-1.367,1.335,1.335,0,0,0-.52-1.128,1.939,1.939,0,0,0-1.21-.4,1.794,1.794,0,0,0-1.7.82,2.843,2.843,0,0,0-.294,1.285H8.367A3.692,3.692,0,0,1,8.8-8.436,2.758,2.758,0,0,1,11.45-9.8a3.585,3.585,0,0,1,2.317.667,2.344,2.344,0,0,1,.82,1.931A2.155,2.155,0,0,1,14.1-5.742a2.039,2.039,0,0,1-.779.547,2.124,2.124,0,0,1,1.207.817,2.472,2.472,0,0,1,.434,1.48,3.016,3.016,0,0,1-.923,2.283,3.64,3.64,0,0,1-2.618.882A3.076,3.076,0,0,1,8.9-.687Zm7.786,0a3.539,3.539,0,0,1-.783-2.321h1.285a3.187,3.187,0,0,0,.355,1.381,1.87,1.87,0,0,0,1.729.772,2.267,2.267,0,0,0,1.559-.52,1.706,1.706,0,0,0,.588-1.34,1.56,1.56,0,0,0-.619-1.415,3.13,3.13,0,0,0-1.719-.4q-.123,0-.25,0t-.256.01V-5.605q.191.021.321.027t.28.007a2.569,2.569,0,0,0,1.135-.219A1.39,1.39,0,0,0,21.1-7.157a1.335,1.335,0,0,0-.52-1.128,1.939,1.939,0,0,0-1.21-.4,1.794,1.794,0,0,0-1.7.82,2.843,2.843,0,0,0-.294,1.285H16.153a3.692,3.692,0,0,1,.438-1.859A2.758,2.758,0,0,1,19.236-9.8a3.585,3.585,0,0,1,2.317.667,2.344,2.344,0,0,1,.82,1.931,2.155,2.155,0,0,1-.485,1.463,2.039,2.039,0,0,1-.779.547,2.124,2.124,0,0,1,1.207.817A2.472,2.472,0,0,1,22.75-2.9a3.016,3.016,0,0,1-.923,2.283,3.64,3.64,0,0,1-2.618.882A3.076,3.076,0,0,1,16.69-.687Z" transform="translate(243.5 81)"/><path class="d" d="M1.859-10.042,4.744-1.49l2.851-8.552H9.119L5.455,0H4.013L.355-10.042Zm8.682,8.935a1.445,1.445,0,0,0,.923.308,2.806,2.806,0,0,0,1.258-.3,1.693,1.693,0,0,0,1.025-1.634v-.991a2.105,2.105,0,0,1-.581.239,4.951,4.951,0,0,1-.7.137l-.745.1a2.85,2.85,0,0,0-1,.28,1.092,1.092,0,0,0-.567,1.025A1.013,1.013,0,0,0,10.541-1.107Zm2.591-3.329a.668.668,0,0,0,.567-.355,1.082,1.082,0,0,0,.082-.472,1,1,0,0,0-.448-.913,2.4,2.4,0,0,0-1.282-.284,1.629,1.629,0,0,0-1.367.52,1.709,1.709,0,0,0-.294.854H9.242a2.114,2.114,0,0,1,.878-1.883,3.607,3.607,0,0,1,1.958-.53,3.985,3.985,0,0,1,2.1.492,1.67,1.67,0,0,1,.8,1.531v4.218a.54.54,0,0,0,.079.308.379.379,0,0,0,.332.116q.082,0,.185-.01t.219-.031V.034a3.427,3.427,0,0,1-.437.1,3.2,3.2,0,0,1-.41.021,1.012,1.012,0,0,1-.923-.451,1.741,1.741,0,0,1-.212-.677,3.131,3.131,0,0,1-1.08.854,3.341,3.341,0,0,1-1.552.362A2.308,2.308,0,0,1,9.512-.373a2.055,2.055,0,0,1-.646-1.548A1.994,1.994,0,0,1,9.5-3.5a3.025,3.025,0,0,1,1.668-.69Zm3.9-5.605h1.23V0h-1.23Zm7.66,8.323a4.615,4.615,0,0,0,.455-2.061,3.67,3.67,0,0,0-.328-1.668A1.846,1.846,0,0,0,23.023-6.46a1.766,1.766,0,0,0-1.641.861,3.992,3.992,0,0,0-.513,2.078,3.473,3.473,0,0,0,.513,1.948,1.806,1.806,0,0,0,1.627.779A1.7,1.7,0,0,0,24.688-1.719ZM25.45-6.59a3.684,3.684,0,0,1,.978,2.775,4.762,4.762,0,0,1-.861,2.926A3.116,3.116,0,0,1,22.894.267a3.017,3.017,0,0,1-2.4-1.022A4.037,4.037,0,0,1,19.605-3.5a4.367,4.367,0,0,1,.937-2.939,3.143,3.143,0,0,1,2.516-1.094A3.315,3.315,0,0,1,25.45-6.59Zm2.475-.731h1.169v1.265a2.794,2.794,0,0,1,.7-.9,1.826,1.826,0,0,1,1.292-.53q.034,0,.116.007l.28.027v1.3a1.838,1.838,0,0,0-.2-.027q-.092-.007-.2-.007a1.756,1.756,0,0,0-1.429.6,2.088,2.088,0,0,0-.5,1.377V0h-1.23ZM41-4.115,39.471-8.552l-1.62,4.437ZM38.76-10.042H40.3L43.941,0h-1.49L41.433-3.008H37.461L36.374,0H34.979Z" transform="translate(372.5 21)"/><line class="e" x2="249.5" transform="translate(372 0.5)"/><line class="e" x2="249.5" transform="translate(372 60.5)"/><line class="e" x2="249.5" transform="translate(372 90.5)"/><line class="e" x2="249.5" transform="translate(372 30.5)"/><path class="d" d="M1.859-10.042,4.744-1.49l2.851-8.552H9.119L5.455,0H4.013L.355-10.042Zm8.682,8.935a1.445,1.445,0,0,0,.923.308,2.806,2.806,0,0,0,1.258-.3,1.693,1.693,0,0,0,1.025-1.634v-.991a2.105,2.105,0,0,1-.581.239,4.951,4.951,0,0,1-.7.137l-.745.1a2.85,2.85,0,0,0-1,.28,1.092,1.092,0,0,0-.567,1.025A1.013,1.013,0,0,0,10.541-1.107Zm2.591-3.329a.668.668,0,0,0,.567-.355,1.082,1.082,0,0,0,.082-.472,1,1,0,0,0-.448-.913,2.4,2.4,0,0,0-1.282-.284,1.629,1.629,0,0,0-1.367.52,1.709,1.709,0,0,0-.294.854H9.242a2.114,2.114,0,0,1,.878-1.883,3.607,3.607,0,0,1,1.958-.53,3.985,3.985,0,0,1,2.1.492,1.67,1.67,0,0,1,.8,1.531v4.218a.54.54,0,0,0,.079.308.379.379,0,0,0,.332.116q.082,0,.185-.01t.219-.031V.034a3.427,3.427,0,0,1-.437.1,3.2,3.2,0,0,1-.41.021,1.012,1.012,0,0,1-.923-.451,1.741,1.741,0,0,1-.212-.677,3.131,3.131,0,0,1-1.08.854,3.341,3.341,0,0,1-1.552.362A2.308,2.308,0,0,1,9.512-.373a2.055,2.055,0,0,1-.646-1.548A1.994,1.994,0,0,1,9.5-3.5a3.025,3.025,0,0,1,1.668-.69Zm3.9-5.605h1.23V0h-1.23Zm7.66,8.323a4.615,4.615,0,0,0,.455-2.061,3.67,3.67,0,0,0-.328-1.668A1.846,1.846,0,0,0,23.023-6.46a1.766,1.766,0,0,0-1.641.861,3.992,3.992,0,0,0-.513,2.078,3.473,3.473,0,0,0,.513,1.948,1.806,1.806,0,0,0,1.627.779A1.7,1.7,0,0,0,24.688-1.719ZM25.45-6.59a3.684,3.684,0,0,1,.978,2.775,4.762,4.762,0,0,1-.861,2.926A3.116,3.116,0,0,1,22.894.267a3.017,3.017,0,0,1-2.4-1.022A4.037,4.037,0,0,1,19.605-3.5a4.367,4.367,0,0,1,.937-2.939,3.143,3.143,0,0,1,2.516-1.094A3.315,3.315,0,0,1,25.45-6.59Zm2.475-.731h1.169v1.265a2.794,2.794,0,0,1,.7-.9,1.826,1.826,0,0,1,1.292-.53q.034,0,.116.007l.28.027v1.3a1.838,1.838,0,0,0-.2-.027q-.092-.007-.2-.007a1.756,1.756,0,0,0-1.429.6,2.088,2.088,0,0,0-.5,1.377V0h-1.23ZM40.38-5.8a3.051,3.051,0,0,0,1.34-.239,1.378,1.378,0,0,0,.752-1.354,1.3,1.3,0,0,0-.8-1.326,3.6,3.6,0,0,0-1.34-.191H37.905V-5.8Zm.458,4.635a2.069,2.069,0,0,0,1.784-.725,1.825,1.825,0,0,0,.335-1.107,1.473,1.473,0,0,0-.978-1.49A3.7,3.7,0,0,0,40.605-4.7h-2.7v3.534Zm-4.266-8.88h4.313a2.86,2.86,0,0,1,2.509,1.053,2.433,2.433,0,0,1,.438,1.436A2.26,2.26,0,0,1,43.292-6a2.639,2.639,0,0,1-.807.588,3.413,3.413,0,0,1,1.155.663,2.406,2.406,0,0,1,.677,1.812,2.8,2.8,0,0,1-.608,1.757A3.426,3.426,0,0,1,40.817,0H36.572Z" transform="translate(372.5 51)"/><path class="d" d="M1.859-10.042,4.744-1.49l2.851-8.552H9.119L5.455,0H4.013L.355-10.042Zm8.682,8.935a1.445,1.445,0,0,0,.923.308,2.806,2.806,0,0,0,1.258-.3,1.693,1.693,0,0,0,1.025-1.634v-.991a2.105,2.105,0,0,1-.581.239,4.951,4.951,0,0,1-.7.137l-.745.1a2.85,2.85,0,0,0-1,.28,1.092,1.092,0,0,0-.567,1.025A1.013,1.013,0,0,0,10.541-1.107Zm2.591-3.329a.668.668,0,0,0,.567-.355,1.082,1.082,0,0,0,.082-.472,1,1,0,0,0-.448-.913,2.4,2.4,0,0,0-1.282-.284,1.629,1.629,0,0,0-1.367.52,1.709,1.709,0,0,0-.294.854H9.242a2.114,2.114,0,0,1,.878-1.883,3.607,3.607,0,0,1,1.958-.53,3.985,3.985,0,0,1,2.1.492,1.67,1.67,0,0,1,.8,1.531v4.218a.54.54,0,0,0,.079.308.379.379,0,0,0,.332.116q.082,0,.185-.01t.219-.031V.034a3.427,3.427,0,0,1-.437.1,3.2,3.2,0,0,1-.41.021,1.012,1.012,0,0,1-.923-.451,1.741,1.741,0,0,1-.212-.677,3.131,3.131,0,0,1-1.08.854,3.341,3.341,0,0,1-1.552.362A2.308,2.308,0,0,1,9.512-.373a2.055,2.055,0,0,1-.646-1.548A1.994,1.994,0,0,1,9.5-3.5a3.025,3.025,0,0,1,1.668-.69Zm3.9-5.605h1.23V0h-1.23Zm7.66,8.323a4.615,4.615,0,0,0,.455-2.061,3.67,3.67,0,0,0-.328-1.668A1.846,1.846,0,0,0,23.023-6.46a1.766,1.766,0,0,0-1.641.861,3.992,3.992,0,0,0-.513,2.078,3.473,3.473,0,0,0,.513,1.948,1.806,1.806,0,0,0,1.627.779A1.7,1.7,0,0,0,24.688-1.719ZM25.45-6.59a3.684,3.684,0,0,1,.978,2.775,4.762,4.762,0,0,1-.861,2.926A3.116,3.116,0,0,1,22.894.267a3.017,3.017,0,0,1-2.4-1.022A4.037,4.037,0,0,1,19.605-3.5a4.367,4.367,0,0,1,.937-2.939,3.143,3.143,0,0,1,2.516-1.094A3.315,3.315,0,0,1,25.45-6.59Zm2.475-.731h1.169v1.265a2.794,2.794,0,0,1,.7-.9,1.826,1.826,0,0,1,1.292-.53q.034,0,.116.007l.28.027v1.3a1.838,1.838,0,0,0-.2-.027q-.092-.007-.2-.007a1.756,1.756,0,0,0-1.429.6,2.088,2.088,0,0,0-.5,1.377V0h-1.23ZM43.8-9.311a3.549,3.549,0,0,1,1.169,2.283H43.641a2.76,2.76,0,0,0-.9-1.538,2.849,2.849,0,0,0-1.89-.567,3.031,3.031,0,0,0-2.4,1.042,4.752,4.752,0,0,0-.913,3.2,4.642,4.642,0,0,0,.824,2.861,2.878,2.878,0,0,0,2.458,1.1,2.6,2.6,0,0,0,2.29-1.155,4.394,4.394,0,0,0,.622-1.6h1.326a4.531,4.531,0,0,1-1.176,2.659A4.184,4.184,0,0,1,40.66.26,4.259,4.259,0,0,1,37.721-.8a5.521,5.521,0,0,1-1.565-4.327,5.528,5.528,0,0,1,1.176-3.644,4.3,4.3,0,0,1,3.507-1.545A4.115,4.115,0,0,1,43.8-9.311Z" transform="translate(373.5 81)"/><path class="d" d="M1.34-6.932v-.943A5.013,5.013,0,0,0,3.2-8.309a2.139,2.139,0,0,0,.786-1.439h.971V0H3.644V-6.932ZM8.982-1.49h1.429V0H8.982ZM12.636-2.2A4.233,4.233,0,0,1,14.41-3.9l1.313-.759a6.179,6.179,0,0,0,1.237-.875,1.8,1.8,0,0,0,.561-1.3,1.813,1.813,0,0,0-.513-1.357,1.869,1.869,0,0,0-1.367-.5,1.786,1.786,0,0,0-1.75.957A3.426,3.426,0,0,0,13.6-6.316H12.353A4.394,4.394,0,0,1,12.824-8.4a2.96,2.96,0,0,1,2.823-1.422,3.06,3.06,0,0,1,2.458.909,3.042,3.042,0,0,1,.776,2.023,2.751,2.751,0,0,1-.827,2.01,8.1,8.1,0,0,1-1.716,1.176l-.937.52a6.066,6.066,0,0,0-1.053.7,2.565,2.565,0,0,0-.861,1.319h5.346V0h-6.72A5.709,5.709,0,0,1,12.636-2.2ZM20.58-.687A3.539,3.539,0,0,1,19.8-3.008h1.285a3.187,3.187,0,0,0,.355,1.381,1.87,1.87,0,0,0,1.729.772,2.267,2.267,0,0,0,1.559-.52,1.706,1.706,0,0,0,.588-1.34,1.56,1.56,0,0,0-.619-1.415,3.13,3.13,0,0,0-1.719-.4q-.123,0-.25,0t-.256.01V-5.605q.191.021.321.027t.28.007a2.569,2.569,0,0,0,1.135-.219,1.39,1.39,0,0,0,.779-1.367,1.335,1.335,0,0,0-.52-1.128,1.939,1.939,0,0,0-1.21-.4,1.794,1.794,0,0,0-1.7.82,2.843,2.843,0,0,0-.294,1.285H20.043a3.692,3.692,0,0,1,.438-1.859A2.758,2.758,0,0,1,23.126-9.8a3.585,3.585,0,0,1,2.317.667,2.344,2.344,0,0,1,.82,1.931,2.155,2.155,0,0,1-.485,1.463A2.039,2.039,0,0,1,25-5.2a2.124,2.124,0,0,1,1.207.817A2.472,2.472,0,0,1,26.64-2.9a3.016,3.016,0,0,1-.923,2.283A3.64,3.64,0,0,1,23.1.267,3.076,3.076,0,0,1,20.58-.687Zm11.3-2.779V-7.9L28.738-3.466ZM31.9,0V-2.393H27.6V-3.6l4.484-6.221h1.039v6.351h1.442v1.073H33.127V0Zm4.867-2.5a1.706,1.706,0,0,0,.978,1.456,2.359,2.359,0,0,0,1.012.205,1.9,1.9,0,0,0,1.62-.7A2.5,2.5,0,0,0,40.9-3.076a2.019,2.019,0,0,0-.625-1.586,2.171,2.171,0,0,0-1.5-.561,2.26,2.26,0,0,0-1.09.246,2.336,2.336,0,0,0-.776.684l-1.066-.062.745-5.271h5.086v1.189H37.509l-.417,2.721a3.057,3.057,0,0,1,.649-.39,3.3,3.3,0,0,1,1.265-.226,3.236,3.236,0,0,1,2.283.868,2.871,2.871,0,0,1,.937,2.2,3.777,3.777,0,0,1-.858,2.447A3.318,3.318,0,0,1,38.63.246a3.487,3.487,0,0,1-2.116-.673A2.671,2.671,0,0,1,35.485-2.5Z" transform="translate(576.5 21)"/><path class="d" d="M.96-2.2A4.233,4.233,0,0,1,2.734-3.9l1.313-.759a6.179,6.179,0,0,0,1.237-.875,1.8,1.8,0,0,0,.561-1.3,1.813,1.813,0,0,0-.513-1.357,1.869,1.869,0,0,0-1.367-.5,1.786,1.786,0,0,0-1.75.957,3.426,3.426,0,0,0-.287,1.422H.677A4.394,4.394,0,0,1,1.148-8.4,2.96,2.96,0,0,1,3.972-9.823a3.06,3.06,0,0,1,2.458.909,3.042,3.042,0,0,1,.776,2.023,2.751,2.751,0,0,1-.827,2.01A8.1,8.1,0,0,1,4.662-3.705l-.937.52a6.066,6.066,0,0,0-1.053.7,2.565,2.565,0,0,0-.861,1.319H7.157V0H.438A5.709,5.709,0,0,1,.96-2.2ZM8.9-.687a3.539,3.539,0,0,1-.783-2.321H9.406a3.187,3.187,0,0,0,.355,1.381,1.87,1.87,0,0,0,1.729.772,2.267,2.267,0,0,0,1.559-.52,1.706,1.706,0,0,0,.588-1.34,1.56,1.56,0,0,0-.619-1.415,3.13,3.13,0,0,0-1.719-.4q-.123,0-.25,0t-.256.01V-5.605q.191.021.321.027t.28.007A2.569,2.569,0,0,0,12.53-5.79a1.39,1.39,0,0,0,.779-1.367,1.335,1.335,0,0,0-.52-1.128,1.939,1.939,0,0,0-1.21-.4,1.794,1.794,0,0,0-1.7.82,2.843,2.843,0,0,0-.294,1.285H8.367A3.692,3.692,0,0,1,8.8-8.436,2.758,2.758,0,0,1,11.45-9.8a3.585,3.585,0,0,1,2.317.667,2.344,2.344,0,0,1,.82,1.931A2.155,2.155,0,0,1,14.1-5.742a2.039,2.039,0,0,1-.779.547,2.124,2.124,0,0,1,1.207.817,2.472,2.472,0,0,1,.434,1.48,3.016,3.016,0,0,1-.923,2.283,3.64,3.64,0,0,1-2.618.882A3.076,3.076,0,0,1,8.9-.687Z" transform="translate(602.5 51)"/><path class="d" d="M.96-2.2A4.233,4.233,0,0,1,2.734-3.9l1.313-.759a6.179,6.179,0,0,0,1.237-.875,1.8,1.8,0,0,0,.561-1.3,1.813,1.813,0,0,0-.513-1.357,1.869,1.869,0,0,0-1.367-.5,1.786,1.786,0,0,0-1.75.957,3.426,3.426,0,0,0-.287,1.422H.677A4.394,4.394,0,0,1,1.148-8.4,2.96,2.96,0,0,1,3.972-9.823a3.06,3.06,0,0,1,2.458.909,3.042,3.042,0,0,1,.776,2.023,2.751,2.751,0,0,1-.827,2.01A8.1,8.1,0,0,1,4.662-3.705l-.937.52a6.066,6.066,0,0,0-1.053.7,2.565,2.565,0,0,0-.861,1.319H7.157V0H.438A5.709,5.709,0,0,1,.96-2.2ZM8.9-.687a3.539,3.539,0,0,1-.783-2.321H9.406a3.187,3.187,0,0,0,.355,1.381,1.87,1.87,0,0,0,1.729.772,2.267,2.267,0,0,0,1.559-.52,1.706,1.706,0,0,0,.588-1.34,1.56,1.56,0,0,0-.619-1.415,3.13,3.13,0,0,0-1.719-.4q-.123,0-.25,0t-.256.01V-5.605q.191.021.321.027t.28.007A2.569,2.569,0,0,0,12.53-5.79a1.39,1.39,0,0,0,.779-1.367,1.335,1.335,0,0,0-.52-1.128,1.939,1.939,0,0,0-1.21-.4,1.794,1.794,0,0,0-1.7.82,2.843,2.843,0,0,0-.294,1.285H8.367A3.692,3.692,0,0,1,8.8-8.436,2.758,2.758,0,0,1,11.45-9.8a3.585,3.585,0,0,1,2.317.667,2.344,2.344,0,0,1,.82,1.931A2.155,2.155,0,0,1,14.1-5.742a2.039,2.039,0,0,1-.779.547,2.124,2.124,0,0,1,1.207.817,2.472,2.472,0,0,1,.434,1.48,3.016,3.016,0,0,1-.923,2.283,3.64,3.64,0,0,1-2.618.882A3.076,3.076,0,0,1,8.9-.687Zm7.786,0a3.539,3.539,0,0,1-.783-2.321h1.285a3.187,3.187,0,0,0,.355,1.381,1.87,1.87,0,0,0,1.729.772,2.267,2.267,0,0,0,1.559-.52,1.706,1.706,0,0,0,.588-1.34,1.56,1.56,0,0,0-.619-1.415,3.13,3.13,0,0,0-1.719-.4q-.123,0-.25,0t-.256.01V-5.605q.191.021.321.027t.28.007a2.569,2.569,0,0,0,1.135-.219A1.39,1.39,0,0,0,21.1-7.157a1.335,1.335,0,0,0-.52-1.128,1.939,1.939,0,0,0-1.21-.4,1.794,1.794,0,0,0-1.7.82,2.843,2.843,0,0,0-.294,1.285H16.153a3.692,3.692,0,0,1,.438-1.859A2.758,2.758,0,0,1,19.236-9.8a3.585,3.585,0,0,1,2.317.667,2.344,2.344,0,0,1,.82,1.931,2.155,2.155,0,0,1-.485,1.463,2.039,2.039,0,0,1-.779.547,2.124,2.124,0,0,1,1.207.817A2.472,2.472,0,0,1,22.75-2.9a3.016,3.016,0,0,1-.923,2.283,3.64,3.64,0,0,1-2.618.882A3.076,3.076,0,0,1,16.69-.687Z" transform="translate(594.5 81)"/></g></svg>