<svg xmlns="http://www.w3.org/2000/svg" xmlns:xlink="http://www.w3.org/1999/xlink" viewBox="2166 0 652 206"><defs><style>.a,.g,.i{fill:none;}.b{clip-path:url(#e);}.c{fill:#fb1010;}.c,.d,.e{stroke:rgba(0,0,0,0);}.d{fill:#2aa213;}.e{fill:#b1b2b2;}.f{clip-path:url(#a);}.g{stroke:#fe3030;}.h{clip-path:url(#b);}.i{stroke:#049b18;}</style><clipPath id="a"><rect class="a" width="2" height="135"/></clipPath><clipPath id="b"><rect class="a" width="2" height="77"/></clipPath><clipPath id="e"><rect x="2166" width="652" height="206"/></clipPath></defs><g id="d" class="b"><path class="c" d="M8.274,0H5.88L2.562-7.826q.126,1.036.189,1.876t.063,2V0H1.134V-9.674H3.472l3.374,7.84q-.084-.56-.168-1.477T6.594-5.138V-9.674h1.68ZM17.6-3.164a3.6,3.6,0,0,1-.413,1.743,2.907,2.907,0,0,1-1.232,1.2A4.15,4.15,0,0,1,13.986.21a3.617,3.617,0,0,1-2.66-.917A3.306,3.306,0,0,1,10.4-3.164v-6.51H12.25v6.412a2.317,2.317,0,0,0,.427,1.526,1.621,1.621,0,0,0,1.309.5,1.639,1.639,0,0,0,1.323-.5,2.317,2.317,0,0,0,.427-1.526V-9.674H17.6ZM26.866,0H24.472L21.154-7.826q.126,1.036.189,1.876t.063,2V0h-1.68V-9.674h2.338l3.374,7.84q-.084-.56-.168-1.477t-.084-1.827V-9.674h1.68ZM32.83-9.884a4.3,4.3,0,0,1,1.54.252,4.664,4.664,0,0,1,1.288.77L34.72-7.77a2.824,2.824,0,0,0-1.792-.686,2.056,2.056,0,0,0-1.729.868,4.575,4.575,0,0,0-.651,2.73,4.594,4.594,0,0,0,.644,2.7,2.04,2.04,0,0,0,1.736.882,2.451,2.451,0,0,0,1.022-.2,5.169,5.169,0,0,0,.952-.581L35.77-.966a3.969,3.969,0,0,1-1.239.84A4.043,4.043,0,0,1,32.858.21a4.2,4.2,0,0,1-2.226-.588,3.875,3.875,0,0,1-1.5-1.729A6.471,6.471,0,0,1,28.6-4.858a6.143,6.143,0,0,1,.553-2.716A4.026,4.026,0,0,1,30.667-9.3,4.055,4.055,0,0,1,32.83-9.884ZM42.21,0l-.6-2.24H38.4L37.8,0H35.882l3.01-9.674h2.282L44.17,0ZM38.766-3.64H41.23L40-8.26Z" transform="translate(2214.5 166)"/><path class="d" d="M3.92-9.884A4.895,4.895,0,0,1,5.7-9.59a4.518,4.518,0,0,1,1.414.9L6.2-7.644a3.6,3.6,0,0,0-1.043-.63,3.2,3.2,0,0,0-1.127-.2,1.8,1.8,0,0,0-1.085.3.987.987,0,0,0-.413.847,1.052,1.052,0,0,0,.161.6,1.491,1.491,0,0,0,.581.448,8.5,8.5,0,0,0,1.246.462A5.654,5.654,0,0,1,6.671-4.7a2.507,2.507,0,0,1,.721,1.939,2.743,2.743,0,0,1-.441,1.54A2.924,2.924,0,0,1,5.684-.168,4.677,4.677,0,0,1,3.724.21,5.2,5.2,0,0,1,1.743-.147,4.624,4.624,0,0,1,.238-1.12L1.19-2.184a4.3,4.3,0,0,0,1.162.721,3.5,3.5,0,0,0,1.33.245A2.051,2.051,0,0,0,4.97-1.6,1.266,1.266,0,0,0,5.46-2.66a1.3,1.3,0,0,0-.168-.693,1.457,1.457,0,0,0-.574-.49A6.993,6.993,0,0,0,3.542-4.3,5.519,5.519,0,0,1,1.316-5.446,2.359,2.359,0,0,1,.63-7.21a2.385,2.385,0,0,1,.42-1.4,2.767,2.767,0,0,1,1.169-.938A4.114,4.114,0,0,1,3.92-9.884Zm10.668.21-.2,1.372h-3.57v2.7H13.93v1.372H10.822v2.842h3.822V0H8.974V-9.674ZM25.564,0H23.758l-.252-4.046q-.126-2.17-.126-3.444v-.5L21.616-1.05h-1.75L17.99-8.008q.028.924.028,1.4,0,1.274-.084,2.618L17.7,0H15.9l.77-9.674h2.38L20.776-2.9,22.4-9.674h2.408ZM30.2-9.674a4.744,4.744,0,0,1,2.891.77,2.7,2.7,0,0,1,1.029,2.31,2.869,2.869,0,0,1-1.036,2.415,4.375,4.375,0,0,1-2.758.8H29.19V0H27.342V-9.674ZM30.184-4.76a2.322,2.322,0,0,0,1.5-.413,1.745,1.745,0,0,0,.5-1.421q0-1.722-2-1.722H29.19V-4.76Zm8.456.882H37.464V0H35.616V-9.674H38.5q3.836,0,3.836,2.842a2.573,2.573,0,0,1-.476,1.6,3.3,3.3,0,0,1-1.484,1.022L42.91,0H40.782Zm-1.176-1.33h1.148a2.022,2.022,0,0,0,1.337-.385A1.538,1.538,0,0,0,40.4-6.832a1.342,1.342,0,0,0-.469-1.141,2.448,2.448,0,0,0-1.477-.357h-.994Zm12.32-4.466-.2,1.372h-3.57v2.7h3.108v1.372H46.018v2.842H49.84V0H44.17V-9.674Z" transform="translate(2529.5 166)"/><path class="e" d="M7.125.223A5.983,5.983,0,0,1,2.519-1.642,6.849,6.849,0,0,1,.789-6.494a7.257,7.257,0,0,1,1.763-5.121,6.193,6.193,0,0,1,4.787-1.911,5.85,5.85,0,0,1,4.513,1.855,6.873,6.873,0,0,1,1.712,4.852A7.279,7.279,0,0,1,11.81-1.67,6.08,6.08,0,0,1,7.125.223Zm.1-11.81a3.7,3.7,0,0,0-2.973,1.364,5.4,5.4,0,0,0-1.146,3.59A5.447,5.447,0,0,0,4.221-3.062,3.59,3.59,0,0,0,7.134-1.707,3.761,3.761,0,0,0,10.149-3a5.38,5.38,0,0,0,1.1-3.609,5.64,5.64,0,0,0-1.072-3.683A3.623,3.623,0,0,0,7.227-11.587Zm22.535.158H25.939V0H23.731V-11.43H19.918V-13.3h9.843Zm2.792-.065a1.294,1.294,0,0,1-.9-.343,1.129,1.129,0,0,1-.376-.872,1.158,1.158,0,0,1,.376-.881,1.275,1.275,0,0,1,.9-.353,1.315,1.315,0,0,1,.928.353,1.152,1.152,0,0,1,.38.881,1.136,1.136,0,0,1-.38.858A1.305,1.305,0,0,1,32.554-11.495ZM33.621,0H31.469V-9.5h2.152Zm7.821-.1a3.73,3.73,0,0,1-1.661.315q-2.765,0-2.765-2.653V-7.812H35.43V-9.5h1.586v-2.2l2.152-.612V-9.5h2.273v1.688H39.169v4.75a1.872,1.872,0,0,0,.306,1.206,1.271,1.271,0,0,0,1.021.362,1.48,1.48,0,0,0,.946-.315Zm10.14.1H49.43V-1.5h-.037A3.1,3.1,0,0,1,46.479.223q-3.368,0-3.368-4.045V-9.5h2.152v5.455q0,2.561,1.976,2.561a2,2,0,0,0,1.573-.705,2.7,2.7,0,0,0,.617-1.846V-9.5h2.152Zm4.963,0H54.384V-14.064h2.162Zm7.014.223a4.709,4.709,0,0,1-3.511-1.331,4.809,4.809,0,0,1-1.313-3.53A5,5,0,0,1,60.1-8.377a5.032,5.032,0,0,1,3.688-1.345,4.558,4.558,0,0,1,3.47,1.308A5.053,5.053,0,0,1,68.5-4.787a4.979,4.979,0,0,1-1.341,3.641A4.815,4.815,0,0,1,63.559.223Zm.1-8.229a2.457,2.457,0,0,0-1.995.881,3.69,3.69,0,0,0-.733,2.431,3.476,3.476,0,0,0,.742,2.352,2.493,2.493,0,0,0,1.985.858,2.365,2.365,0,0,0,1.953-.844,3.737,3.737,0,0,0,.682-2.4,3.794,3.794,0,0,0-.682-2.421A2.354,2.354,0,0,0,63.661-8.006Z" transform="translate(2214.5 26)"/><path class="e" d="M5.236.164A4.327,4.327,0,0,1,1.894-1.21,5.1,5.1,0,0,1,.643-4.785,5.384,5.384,0,0,1,1.921-8.559,4.478,4.478,0,0,1,5.4-9.967,4.209,4.209,0,0,1,8.668-8.6,5.106,5.106,0,0,1,9.912-5.024,5.417,5.417,0,0,1,8.641-1.23,3.773,3.773,0,0,1,8-.656l2.755,1.976H8.668L6.822-.062A5.314,5.314,0,0,1,5.236.164Zm.082-9.092A3.16,3.16,0,0,0,2.81-7.813a4.314,4.314,0,0,0-.964,2.926,4.384,4.384,0,0,0,.937,2.919,3.08,3.08,0,0,0,2.454,1.1A3.218,3.218,0,0,0,7.779-1.921a4.3,4.3,0,0,0,.93-2.946,4.479,4.479,0,0,0-.9-3A3.094,3.094,0,0,0,5.318-8.928ZM17.35,0H16.229V-1.107H16.2A2.3,2.3,0,0,1,14.041.164q-2.5,0-2.5-2.98V-7h1.114v4.006q0,2.215,1.7,2.215a1.715,1.715,0,0,0,1.35-.6,2.315,2.315,0,0,0,.53-1.583V-7H17.35Zm2.837-8.777a.71.71,0,0,1-.513-.205.692.692,0,0,1-.212-.52.7.7,0,0,1,.212-.523.7.7,0,0,1,.513-.208.724.724,0,0,1,.523.208.7.7,0,0,1,.215.523.693.693,0,0,1-.215.513A.718.718,0,0,1,20.187-8.777ZM20.733,0H19.612V-7h1.121Zm1.846-.253v-1.2A3.318,3.318,0,0,0,24.6-.779q1.477,0,1.477-.984a.854.854,0,0,0-.126-.475,1.26,1.26,0,0,0-.342-.345,2.631,2.631,0,0,0-.506-.27q-.291-.12-.625-.25a8.056,8.056,0,0,1-.817-.373,2.468,2.468,0,0,1-.588-.424,1.577,1.577,0,0,1-.355-.537,1.9,1.9,0,0,1-.12-.7,1.673,1.673,0,0,1,.226-.872,2,2,0,0,1,.6-.636,2.805,2.805,0,0,1,.858-.386,3.805,3.805,0,0,1,.995-.13A4.016,4.016,0,0,1,26.9-6.85v1.135a3.171,3.171,0,0,0-1.777-.506,2.078,2.078,0,0,0-.567.072,1.389,1.389,0,0,0-.434.2.932.932,0,0,0-.28.311.819.819,0,0,0-.1.4.959.959,0,0,0,.1.458,1.008,1.008,0,0,0,.291.328,2.221,2.221,0,0,0,.465.26q.273.116.622.253a8.658,8.658,0,0,1,.834.366,2.86,2.86,0,0,1,.629.424,1.656,1.656,0,0,1,.4.543,1.753,1.753,0,0,1,.14.731,1.725,1.725,0,0,1-.229.9,1.963,1.963,0,0,1-.612.636A2.8,2.8,0,0,1,25.5.041a4.354,4.354,0,0,1-1.046.123A3.971,3.971,0,0,1,22.579-.253ZM38.589,0H37.468V-4.033q0-2.188-1.627-2.187a1.774,1.774,0,0,0-1.381.632A2.356,2.356,0,0,0,33.9-3.965V0H32.778V-10.363H33.9v4.525h.027a2.546,2.546,0,0,1,2.3-1.326q2.365,0,2.365,2.851Zm7.738-3.22H41.385a2.618,2.618,0,0,0,.629,1.8,2.168,2.168,0,0,0,1.654.636,3.439,3.439,0,0,0,2.174-.779V-.506a4.063,4.063,0,0,1-2.44.67A2.959,2.959,0,0,1,41.07-.79a3.9,3.9,0,0,1-.848-2.683,3.828,3.828,0,0,1,.926-2.663,2.97,2.97,0,0,1,2.3-1.029,2.632,2.632,0,0,1,2.126.889,3.705,3.705,0,0,1,.752,2.468Zm-1.148-.95a2.281,2.281,0,0,0-.468-1.511,1.6,1.6,0,0,0-1.282-.54,1.811,1.811,0,0,0-1.347.567A2.575,2.575,0,0,0,41.4-4.17ZM53.833,0H52.712V-3.992q0-2.229-1.627-2.229a1.765,1.765,0,0,0-1.391.632,2.344,2.344,0,0,0-.55,1.6V0H48.022V-7h1.121v1.162h.027a2.526,2.526,0,0,1,2.3-1.326,2.142,2.142,0,0,1,1.757.742,3.3,3.3,0,0,1,.608,2.143ZM61.92,0H60.8V-1.189h-.027A2.588,2.588,0,0,1,58.365.164a2.615,2.615,0,0,1-2.109-.94,3.856,3.856,0,0,1-.79-2.56,4.2,4.2,0,0,1,.875-2.782,2.886,2.886,0,0,1,2.331-1.046,2.244,2.244,0,0,1,2.1,1.135H60.8v-4.334H61.92ZM60.8-3.165V-4.2a2,2,0,0,0-.561-1.436,1.88,1.88,0,0,0-1.422-.588,1.936,1.936,0,0,0-1.613.752,3.3,3.3,0,0,0-.588,2.078,2.964,2.964,0,0,0,.564,1.911,1.843,1.843,0,0,0,1.514.7,1.915,1.915,0,0,0,1.521-.677A2.521,2.521,0,0,0,60.8-3.165Zm7.041-2.7a1.371,1.371,0,0,0-.848-.226,1.431,1.431,0,0,0-1.2.677,3.129,3.129,0,0,0-.482,1.846V0H64.189V-7h1.121v1.442h.027a2.444,2.444,0,0,1,.731-1.152,1.668,1.668,0,0,1,1.1-.414,1.83,1.83,0,0,1,.67.1ZM74.683-3.22H69.74a2.618,2.618,0,0,0,.629,1.8,2.168,2.168,0,0,0,1.654.636A3.439,3.439,0,0,0,74.2-1.559V-.506a4.063,4.063,0,0,1-2.44.67A2.959,2.959,0,0,1,69.426-.79a3.9,3.9,0,0,1-.848-2.683A3.828,3.828,0,0,1,69.5-6.135a2.97,2.97,0,0,1,2.3-1.029,2.632,2.632,0,0,1,2.126.889,3.705,3.705,0,0,1,.752,2.468Zm-1.148-.95a2.281,2.281,0,0,0-.468-1.511,1.6,1.6,0,0,0-1.282-.54,1.811,1.811,0,0,0-1.347.567,2.575,2.575,0,0,0-.684,1.483Zm6.494-1.7a1.371,1.371,0,0,0-.848-.226,1.431,1.431,0,0,0-1.2.677A3.129,3.129,0,0,0,77.5-3.568V0H76.378V-7H77.5v1.442h.027a2.444,2.444,0,0,1,.731-1.152,1.668,1.668,0,0,1,1.1-.414,1.83,1.83,0,0,1,.67.1Zm1.791-2.912a.71.71,0,0,1-.513-.205.692.692,0,0,1-.212-.52.7.7,0,0,1,.212-.523.7.7,0,0,1,.513-.208.724.724,0,0,1,.523.208.7.7,0,0,1,.215.523.693.693,0,0,1-.215.513A.718.718,0,0,1,81.819-8.777ZM82.366,0H81.245V-7h1.121Zm5.517-.068A2.161,2.161,0,0,1,86.837.15Q85,.15,85-1.9V-6.043h-1.2V-7H85V-8.709l1.121-.362V-7h1.764v.957H86.119V-2.1a1.635,1.635,0,0,0,.239,1,.955.955,0,0,0,.793.3,1.179,1.179,0,0,0,.731-.232Zm8.982-5.8a1.371,1.371,0,0,0-.848-.226,1.431,1.431,0,0,0-1.2.677,3.129,3.129,0,0,0-.482,1.846V0H93.215V-7h1.121v1.442h.027a2.444,2.444,0,0,1,.731-1.152,1.668,1.668,0,0,1,1.1-.414,1.83,1.83,0,0,1,.67.1Zm1.791-2.912a.71.71,0,0,1-.513-.205.692.692,0,0,1-.212-.52.7.7,0,0,1,.212-.523.7.7,0,0,1,.513-.208.724.724,0,0,1,.523.208.7.7,0,0,1,.215.523.693.693,0,0,1-.215.513A.718.718,0,0,1,98.656-8.777ZM99.2,0H98.082V-7H99.2Zm1.846-.253v-1.2a3.318,3.318,0,0,0,2.017.677q1.477,0,1.477-.984a.854.854,0,0,0-.126-.475,1.26,1.26,0,0,0-.342-.345,2.631,2.631,0,0,0-.506-.27q-.291-.12-.625-.25a8.056,8.056,0,0,1-.817-.373,2.468,2.468,0,0,1-.588-.424,1.577,1.577,0,0,1-.355-.537,1.9,1.9,0,0,1-.12-.7,1.673,1.673,0,0,1,.226-.872,2,2,0,0,1,.6-.636,2.805,2.805,0,0,1,.858-.386,3.805,3.805,0,0,1,.995-.13,4.016,4.016,0,0,1,1.627.314v1.135a3.171,3.171,0,0,0-1.777-.506,2.078,2.078,0,0,0-.567.072,1.389,1.389,0,0,0-.434.2.932.932,0,0,0-.28.311.819.819,0,0,0-.1.4.959.959,0,0,0,.1.458,1.008,1.008,0,0,0,.291.328,2.221,2.221,0,0,0,.465.26q.273.116.622.253a8.658,8.658,0,0,1,.834.366,2.86,2.86,0,0,1,.629.424,1.656,1.656,0,0,1,.4.543,1.753,1.753,0,0,1,.14.731,1.725,1.725,0,0,1-.229.9,1.963,1.963,0,0,1-.612.636,2.8,2.8,0,0,1-.882.376,4.354,4.354,0,0,1-1.046.123A3.971,3.971,0,0,1,101.049-.253ZM113.073,0h-1.121V-1.107h-.027a2.3,2.3,0,0,1-2.16,1.271q-2.5,0-2.5-2.98V-7h1.114v4.006q0,2.215,1.7,2.215a1.715,1.715,0,0,0,1.35-.6,2.315,2.315,0,0,0,.53-1.583V-7h1.121Zm1.839-.253v-1.2a3.318,3.318,0,0,0,2.017.677q1.477,0,1.477-.984a.854.854,0,0,0-.126-.475,1.26,1.26,0,0,0-.342-.345,2.631,2.631,0,0,0-.506-.27q-.291-.12-.625-.25a8.056,8.056,0,0,1-.817-.373A2.468,2.468,0,0,1,115.4-3.9a1.577,1.577,0,0,1-.355-.537,1.9,1.9,0,0,1-.12-.7,1.673,1.673,0,0,1,.226-.872,2,2,0,0,1,.6-.636,2.805,2.805,0,0,1,.858-.386,3.805,3.805,0,0,1,.995-.13,4.016,4.016,0,0,1,1.627.314v1.135a3.171,3.171,0,0,0-1.777-.506,2.078,2.078,0,0,0-.567.072,1.389,1.389,0,0,0-.434.2.932.932,0,0,0-.28.311.819.819,0,0,0-.1.4.959.959,0,0,0,.1.458,1.008,1.008,0,0,0,.291.328,2.221,2.221,0,0,0,.465.26q.273.116.622.253a8.658,8.658,0,0,1,.834.366,2.86,2.86,0,0,1,.629.424,1.656,1.656,0,0,1,.4.543,1.753,1.753,0,0,1,.14.731,1.725,1.725,0,0,1-.229.9,1.963,1.963,0,0,1-.612.636,2.8,2.8,0,0,1-.882.376,4.354,4.354,0,0,1-1.046.123A3.971,3.971,0,0,1,114.912-.253ZM130.122,0H129V-1.094h-.027A2.347,2.347,0,0,1,126.82.164a2.3,2.3,0,0,1-1.637-.554,1.918,1.918,0,0,1-.591-1.47q0-1.962,2.311-2.283l2.1-.294q0-1.784-1.442-1.784a3.446,3.446,0,0,0-2.283.861V-6.508a4.338,4.338,0,0,1,2.379-.656q2.468,0,2.468,2.611ZM129-3.541l-1.688.232a2.741,2.741,0,0,0-1.176.386,1.114,1.114,0,0,0-.4.981,1.068,1.068,0,0,0,.366.837,1.413,1.413,0,0,0,.974.325,1.8,1.8,0,0,0,1.377-.584A2.088,2.088,0,0,0,129-2.844Zm6.645,3.288v-1.2a3.318,3.318,0,0,0,2.017.677q1.477,0,1.477-.984a.854.854,0,0,0-.126-.475,1.26,1.26,0,0,0-.342-.345,2.631,2.631,0,0,0-.506-.27q-.291-.12-.625-.25a8.056,8.056,0,0,1-.817-.373,2.468,2.468,0,0,1-.588-.424,1.577,1.577,0,0,1-.355-.537,1.9,1.9,0,0,1-.12-.7,1.673,1.673,0,0,1,.226-.872,2,2,0,0,1,.6-.636,2.805,2.805,0,0,1,.858-.386,3.805,3.805,0,0,1,.995-.13,4.016,4.016,0,0,1,1.627.314v1.135a3.171,3.171,0,0,0-1.777-.506,2.078,2.078,0,0,0-.567.072,1.389,1.389,0,0,0-.434.2.932.932,0,0,0-.28.311.819.819,0,0,0-.1.4.959.959,0,0,0,.1.458,1.008,1.008,0,0,0,.291.328,2.221,2.221,0,0,0,.465.26q.273.116.622.253a8.658,8.658,0,0,1,.834.366,2.86,2.86,0,0,1,.629.424,1.656,1.656,0,0,1,.4.543,1.753,1.753,0,0,1,.14.731,1.725,1.725,0,0,1-.229.9,1.963,1.963,0,0,1-.612.636,2.8,2.8,0,0,1-.882.376,4.354,4.354,0,0,1-1.046.123A3.971,3.971,0,0,1,135.646-.253Zm9.29.417a3.247,3.247,0,0,1-2.478-.981,3.634,3.634,0,0,1-.926-2.6,3.785,3.785,0,0,1,.964-2.755,3.465,3.465,0,0,1,2.6-.991,3.14,3.14,0,0,1,2.444.964,3.822,3.822,0,0,1,.878,2.673,3.761,3.761,0,0,1-.947,2.683A3.317,3.317,0,0,1,144.936.164Zm.082-6.385a2.132,2.132,0,0,0-1.709.735,3.018,3.018,0,0,0-.629,2.027,2.854,2.854,0,0,0,.636,1.962,2.161,2.161,0,0,0,1.7.718,2.049,2.049,0,0,0,1.671-.7,3.055,3.055,0,0,0,.584-2,3.108,3.108,0,0,0-.584-2.023A2.04,2.04,0,0,0,145.018-6.221ZM156.188,0h-1.121V-1.189h-.027A2.588,2.588,0,0,1,152.633.164a2.615,2.615,0,0,1-2.109-.94,3.856,3.856,0,0,1-.79-2.56,4.2,4.2,0,0,1,.875-2.782,2.886,2.886,0,0,1,2.331-1.046,2.244,2.244,0,0,1,2.1,1.135h.027v-4.334h1.121Zm-1.121-3.165V-4.2a2,2,0,0,0-.561-1.436,1.88,1.88,0,0,0-1.422-.588,1.936,1.936,0,0,0-1.613.752,3.3,3.3,0,0,0-.588,2.078,2.964,2.964,0,0,0,.564,1.911,1.843,1.843,0,0,0,1.514.7,1.915,1.915,0,0,0,1.521-.677A2.521,2.521,0,0,0,155.066-3.165ZM163.468,0h-1.121V-1.094h-.027A2.347,2.347,0,0,1,160.166.164a2.3,2.3,0,0,1-1.637-.554,1.918,1.918,0,0,1-.591-1.47q0-1.962,2.311-2.283l2.1-.294q0-1.784-1.442-1.784a3.446,3.446,0,0,0-2.283.861V-6.508A4.338,4.338,0,0,1,161-7.164q2.468,0,2.468,2.611Zm-1.121-3.541-1.688.232a2.741,2.741,0,0,0-1.176.386,1.114,1.114,0,0,0-.4.981,1.068,1.068,0,0,0,.366.837,1.413,1.413,0,0,0,.974.325,1.8,1.8,0,0,0,1.377-.584,2.088,2.088,0,0,0,.543-1.48ZM166.7,0H165.58V-10.363H166.7Zm7.9-3.22h-4.942a2.618,2.618,0,0,0,.629,1.8,2.168,2.168,0,0,0,1.654.636,3.439,3.439,0,0,0,2.174-.779V-.506a4.063,4.063,0,0,1-2.44.67A2.959,2.959,0,0,1,169.34-.79a3.9,3.9,0,0,1-.848-2.683,3.828,3.828,0,0,1,.926-2.663,2.97,2.97,0,0,1,2.3-1.029,2.632,2.632,0,0,1,2.126.889,3.705,3.705,0,0,1,.752,2.468Zm-1.148-.95a2.281,2.281,0,0,0-.468-1.511,1.6,1.6,0,0,0-1.282-.54,1.811,1.811,0,0,0-1.347.567,2.575,2.575,0,0,0-.684,1.483Zm2.42,3.917v-1.2a3.318,3.318,0,0,0,2.017.677q1.477,0,1.477-.984a.854.854,0,0,0-.126-.475,1.26,1.26,0,0,0-.342-.345,2.631,2.631,0,0,0-.506-.27q-.291-.12-.625-.25a8.056,8.056,0,0,1-.817-.373,2.468,2.468,0,0,1-.588-.424A1.577,1.577,0,0,1,176-4.437a1.9,1.9,0,0,1-.12-.7,1.673,1.673,0,0,1,.226-.872,2,2,0,0,1,.6-.636,2.805,2.805,0,0,1,.858-.386,3.805,3.805,0,0,1,.995-.13,4.016,4.016,0,0,1,1.627.314v1.135a3.171,3.171,0,0,0-1.777-.506,2.078,2.078,0,0,0-.567.072,1.389,1.389,0,0,0-.434.2.932.932,0,0,0-.28.311.819.819,0,0,0-.1.4.959.959,0,0,0,.1.458,1.008,1.008,0,0,0,.291.328,2.221,2.221,0,0,0,.465.26q.273.116.622.253a8.658,8.658,0,0,1,.834.366,2.86,2.86,0,0,1,.629.424,1.656,1.656,0,0,1,.4.543,1.753,1.753,0,0,1,.14.731,1.725,1.725,0,0,1-.229.9,1.963,1.963,0,0,1-.612.636,2.8,2.8,0,0,1-.882.376,4.354,4.354,0,0,1-1.046.123A3.971,3.971,0,0,1,175.868-.253ZM191.078,0h-1.121V-1.094h-.027A2.347,2.347,0,0,1,187.776.164a2.3,2.3,0,0,1-1.637-.554,1.918,1.918,0,0,1-.591-1.47q0-1.962,2.311-2.283l2.1-.294q0-1.784-1.442-1.784a3.446,3.446,0,0,0-2.283.861V-6.508a4.338,4.338,0,0,1,2.379-.656q2.468,0,2.468,2.611Zm-1.121-3.541-1.688.232a2.741,2.741,0,0,0-1.176.386,1.114,1.114,0,0,0-.4.981,1.068,1.068,0,0,0,.366.837,1.413,1.413,0,0,0,.974.325,1.8,1.8,0,0,0,1.377-.584,2.088,2.088,0,0,0,.543-1.48ZM199,0H197.88V-3.992q0-2.229-1.627-2.229a1.765,1.765,0,0,0-1.391.632,2.344,2.344,0,0,0-.55,1.6V0H193.19V-7h1.121v1.162h.027a2.526,2.526,0,0,1,2.3-1.326,2.142,2.142,0,0,1,1.757.742A3.3,3.3,0,0,1,199-4.279Zm5.359-.068a2.162,2.162,0,0,1-1.046.219q-1.839,0-1.839-2.051V-6.043h-1.2V-7h1.2V-8.709l1.121-.362V-7h1.764v.957H202.6V-2.1a1.635,1.635,0,0,0,.239,1,.955.955,0,0,0,.793.3,1.179,1.179,0,0,0,.731-.232Zm7.123-3.151h-4.942a2.618,2.618,0,0,0,.629,1.8,2.168,2.168,0,0,0,1.654.636A3.439,3.439,0,0,0,211-1.559V-.506a4.063,4.063,0,0,1-2.44.67,2.959,2.959,0,0,1-2.331-.954,3.9,3.9,0,0,1-.848-2.683,3.828,3.828,0,0,1,.926-2.663,2.97,2.97,0,0,1,2.3-1.029,2.632,2.632,0,0,1,2.126.889,3.705,3.705,0,0,1,.752,2.468Zm-1.148-.95a2.281,2.281,0,0,0-.468-1.511,1.6,1.6,0,0,0-1.282-.54,1.811,1.811,0,0,0-1.347.567,2.575,2.575,0,0,0-.684,1.483ZM213.568.15a.726.726,0,0,1-.537-.226.742.742,0,0,1-.222-.54.754.754,0,0,1,.222-.543.72.72,0,0,1,.537-.229.739.739,0,0,1,.547.229.748.748,0,0,1,.226.543.737.737,0,0,1-.226.54A.745.745,0,0,1,213.568.15Z" transform="translate(2228.5 51.598)"/><path class="e" d="M7.125.223A5.983,5.983,0,0,1,2.519-1.642,6.849,6.849,0,0,1,.789-6.494a7.257,7.257,0,0,1,1.763-5.121,6.193,6.193,0,0,1,4.787-1.911,5.85,5.85,0,0,1,4.513,1.855,6.873,6.873,0,0,1,1.712,4.852A7.279,7.279,0,0,1,11.81-1.67,6.08,6.08,0,0,1,7.125.223Zm.1-11.81a3.7,3.7,0,0,0-2.973,1.364,5.4,5.4,0,0,0-1.146,3.59A5.447,5.447,0,0,0,4.221-3.062,3.59,3.59,0,0,0,7.134-1.707,3.761,3.761,0,0,0,10.149-3a5.38,5.38,0,0,0,1.1-3.609,5.64,5.64,0,0,0-1.072-3.683A3.623,3.623,0,0,0,7.227-11.587Zm22.535.158H25.939V0H23.731V-11.43H19.918V-13.3h9.843Zm2.792-.065a1.294,1.294,0,0,1-.9-.343,1.129,1.129,0,0,1-.376-.872,1.158,1.158,0,0,1,.376-.881,1.275,1.275,0,0,1,.9-.353,1.315,1.315,0,0,1,.928.353,1.152,1.152,0,0,1,.38.881,1.136,1.136,0,0,1-.38.858A1.305,1.305,0,0,1,32.554-11.495ZM33.621,0H31.469V-9.5h2.152Zm7.821-.1a3.73,3.73,0,0,1-1.661.315q-2.765,0-2.765-2.653V-7.812H35.43V-9.5h1.586v-2.2l2.152-.612V-9.5h2.273v1.688H39.169v4.75a1.872,1.872,0,0,0,.306,1.206,1.271,1.271,0,0,0,1.021.362,1.48,1.48,0,0,0,.946-.315Zm10.14.1H49.43V-1.5h-.037A3.1,3.1,0,0,1,46.479.223q-3.368,0-3.368-4.045V-9.5h2.152v5.455q0,2.561,1.976,2.561a2,2,0,0,0,1.573-.705,2.7,2.7,0,0,0,.617-1.846V-9.5h2.152Zm4.963,0H54.384V-14.064h2.162Zm7.014.223a4.709,4.709,0,0,1-3.511-1.331,4.809,4.809,0,0,1-1.313-3.53A5,5,0,0,1,60.1-8.377a5.032,5.032,0,0,1,3.688-1.345,4.558,4.558,0,0,1,3.47,1.308A5.053,5.053,0,0,1,68.5-4.787a4.979,4.979,0,0,1-1.341,3.641A4.815,4.815,0,0,1,63.559.223Zm.1-8.229a2.457,2.457,0,0,0-1.995.881,3.69,3.69,0,0,0-.733,2.431,3.476,3.476,0,0,0,.742,2.352,2.493,2.493,0,0,0,1.985.858,2.365,2.365,0,0,0,1.953-.844,3.737,3.737,0,0,0,.682-2.4,3.794,3.794,0,0,0-.682-2.421A2.354,2.354,0,0,0,63.661-8.006Z" transform="translate(2214.5 89)"/><path class="e" d="M5.236.164A4.327,4.327,0,0,1,1.894-1.21,5.1,5.1,0,0,1,.643-4.785,5.384,5.384,0,0,1,1.921-8.559,4.478,4.478,0,0,1,5.4-9.967,4.209,4.209,0,0,1,8.668-8.6,5.106,5.106,0,0,1,9.912-5.024,5.417,5.417,0,0,1,8.641-1.23,3.773,3.773,0,0,1,8-.656l2.755,1.976H8.668L6.822-.062A5.314,5.314,0,0,1,5.236.164Zm.082-9.092A3.16,3.16,0,0,0,2.81-7.813a4.314,4.314,0,0,0-.964,2.926,4.384,4.384,0,0,0,.937,2.919,3.08,3.08,0,0,0,2.454,1.1A3.218,3.218,0,0,0,7.779-1.921a4.3,4.3,0,0,0,.93-2.946,4.479,4.479,0,0,0-.9-3A3.094,3.094,0,0,0,5.318-8.928ZM17.35,0H16.229V-1.107H16.2A2.3,2.3,0,0,1,14.041.164q-2.5,0-2.5-2.98V-7h1.114v4.006q0,2.215,1.7,2.215a1.715,1.715,0,0,0,1.35-.6,2.315,2.315,0,0,0,.53-1.583V-7H17.35Zm2.837-8.777a.71.71,0,0,1-.513-.205.692.692,0,0,1-.212-.52.7.7,0,0,1,.212-.523.7.7,0,0,1,.513-.208.724.724,0,0,1,.523.208.7.7,0,0,1,.215.523.693.693,0,0,1-.215.513A.718.718,0,0,1,20.187-8.777ZM20.733,0H19.612V-7h1.121Zm1.846-.253v-1.2A3.318,3.318,0,0,0,24.6-.779q1.477,0,1.477-.984a.854.854,0,0,0-.126-.475,1.26,1.26,0,0,0-.342-.345,2.631,2.631,0,0,0-.506-.27q-.291-.12-.625-.25a8.056,8.056,0,0,1-.817-.373,2.468,2.468,0,0,1-.588-.424,1.577,1.577,0,0,1-.355-.537,1.9,1.9,0,0,1-.12-.7,1.673,1.673,0,0,1,.226-.872,2,2,0,0,1,.6-.636,2.805,2.805,0,0,1,.858-.386,3.805,3.805,0,0,1,.995-.13A4.016,4.016,0,0,1,26.9-6.85v1.135a3.171,3.171,0,0,0-1.777-.506,2.078,2.078,0,0,0-.567.072,1.389,1.389,0,0,0-.434.2.932.932,0,0,0-.28.311.819.819,0,0,0-.1.4.959.959,0,0,0,.1.458,1.008,1.008,0,0,0,.291.328,2.221,2.221,0,0,0,.465.26q.273.116.622.253a8.658,8.658,0,0,1,.834.366,2.86,2.86,0,0,1,.629.424,1.656,1.656,0,0,1,.4.543,1.753,1.753,0,0,1,.14.731,1.725,1.725,0,0,1-.229.9,1.963,1.963,0,0,1-.612.636A2.8,2.8,0,0,1,25.5.041a4.354,4.354,0,0,1-1.046.123A3.971,3.971,0,0,1,22.579-.253ZM38.589,0H37.468V-4.033q0-2.188-1.627-2.187a1.774,1.774,0,0,0-1.381.632A2.356,2.356,0,0,0,33.9-3.965V0H32.778V-10.363H33.9v4.525h.027a2.546,2.546,0,0,1,2.3-1.326q2.365,0,2.365,2.851Zm7.738-3.22H41.385a2.618,2.618,0,0,0,.629,1.8,2.168,2.168,0,0,0,1.654.636,3.439,3.439,0,0,0,2.174-.779V-.506a4.063,4.063,0,0,1-2.44.67A2.959,2.959,0,0,1,41.07-.79a3.9,3.9,0,0,1-.848-2.683,3.828,3.828,0,0,1,.926-2.663,2.97,2.97,0,0,1,2.3-1.029,2.632,2.632,0,0,1,2.126.889,3.705,3.705,0,0,1,.752,2.468Zm-1.148-.95a2.281,2.281,0,0,0-.468-1.511,1.6,1.6,0,0,0-1.282-.54,1.811,1.811,0,0,0-1.347.567A2.575,2.575,0,0,0,41.4-4.17ZM53.833,0H52.712V-3.992q0-2.229-1.627-2.229a1.765,1.765,0,0,0-1.391.632,2.344,2.344,0,0,0-.55,1.6V0H48.022V-7h1.121v1.162h.027a2.526,2.526,0,0,1,2.3-1.326,2.142,2.142,0,0,1,1.757.742,3.3,3.3,0,0,1,.608,2.143ZM61.92,0H60.8V-1.189h-.027A2.588,2.588,0,0,1,58.365.164a2.615,2.615,0,0,1-2.109-.94,3.856,3.856,0,0,1-.79-2.56,4.2,4.2,0,0,1,.875-2.782,2.886,2.886,0,0,1,2.331-1.046,2.244,2.244,0,0,1,2.1,1.135H60.8v-4.334H61.92ZM60.8-3.165V-4.2a2,2,0,0,0-.561-1.436,1.88,1.88,0,0,0-1.422-.588,1.936,1.936,0,0,0-1.613.752,3.3,3.3,0,0,0-.588,2.078,2.964,2.964,0,0,0,.564,1.911,1.843,1.843,0,0,0,1.514.7,1.915,1.915,0,0,0,1.521-.677A2.521,2.521,0,0,0,60.8-3.165Zm7.041-2.7a1.371,1.371,0,0,0-.848-.226,1.431,1.431,0,0,0-1.2.677,3.129,3.129,0,0,0-.482,1.846V0H64.189V-7h1.121v1.442h.027a2.444,2.444,0,0,1,.731-1.152,1.668,1.668,0,0,1,1.1-.414,1.83,1.83,0,0,1,.67.1ZM74.683-3.22H69.74a2.618,2.618,0,0,0,.629,1.8,2.168,2.168,0,0,0,1.654.636A3.439,3.439,0,0,0,74.2-1.559V-.506a4.063,4.063,0,0,1-2.44.67A2.959,2.959,0,0,1,69.426-.79a3.9,3.9,0,0,1-.848-2.683A3.828,3.828,0,0,1,69.5-6.135a2.97,2.97,0,0,1,2.3-1.029,2.632,2.632,0,0,1,2.126.889,3.705,3.705,0,0,1,.752,2.468Zm-1.148-.95a2.281,2.281,0,0,0-.468-1.511,1.6,1.6,0,0,0-1.282-.54,1.811,1.811,0,0,0-1.347.567,2.575,2.575,0,0,0-.684,1.483Zm6.494-1.7a1.371,1.371,0,0,0-.848-.226,1.431,1.431,0,0,0-1.2.677A3.129,3.129,0,0,0,77.5-3.568V0H76.378V-7H77.5v1.442h.027a2.444,2.444,0,0,1,.731-1.152,1.668,1.668,0,0,1,1.1-.414,1.83,1.83,0,0,1,.67.1Zm1.791-2.912a.71.71,0,0,1-.513-.205.692.692,0,0,1-.212-.52.7.7,0,0,1,.212-.523.7.7,0,0,1,.513-.208.724.724,0,0,1,.523.208.7.7,0,0,1,.215.523.693.693,0,0,1-.215.513A.718.718,0,0,1,81.819-8.777ZM82.366,0H81.245V-7h1.121Zm5.517-.068A2.161,2.161,0,0,1,86.837.15Q85,.15,85-1.9V-6.043h-1.2V-7H85V-8.709l1.121-.362V-7h1.764v.957H86.119V-2.1a1.635,1.635,0,0,0,.239,1,.955.955,0,0,0,.793.3,1.179,1.179,0,0,0,.731-.232Zm8.982-5.8a1.371,1.371,0,0,0-.848-.226,1.431,1.431,0,0,0-1.2.677,3.129,3.129,0,0,0-.482,1.846V0H93.215V-7h1.121v1.442h.027a2.444,2.444,0,0,1,.731-1.152,1.668,1.668,0,0,1,1.1-.414,1.83,1.83,0,0,1,.67.1Zm1.791-2.912a.71.71,0,0,1-.513-.205.692.692,0,0,1-.212-.52.7.7,0,0,1,.212-.523.7.7,0,0,1,.513-.208.724.724,0,0,1,.523.208.7.7,0,0,1,.215.523.693.693,0,0,1-.215.513A.718.718,0,0,1,98.656-8.777ZM99.2,0H98.082V-7H99.2Zm1.846-.253v-1.2a3.318,3.318,0,0,0,2.017.677q1.477,0,1.477-.984a.854.854,0,0,0-.126-.475,1.26,1.26,0,0,0-.342-.345,2.631,2.631,0,0,0-.506-.27q-.291-.12-.625-.25a8.056,8.056,0,0,1-.817-.373,2.468,2.468,0,0,1-.588-.424,1.577,1.577,0,0,1-.355-.537,1.9,1.9,0,0,1-.12-.7,1.673,1.673,0,0,1,.226-.872,2,2,0,0,1,.6-.636,2.805,2.805,0,0,1,.858-.386,3.805,3.805,0,0,1,.995-.13,4.016,4.016,0,0,1,1.627.314v1.135a3.171,3.171,0,0,0-1.777-.506,2.078,2.078,0,0,0-.567.072,1.389,1.389,0,0,0-.434.2.932.932,0,0,0-.28.311.819.819,0,0,0-.1.4.959.959,0,0,0,.1.458,1.008,1.008,0,0,0,.291.328,2.221,2.221,0,0,0,.465.26q.273.116.622.253a8.658,8.658,0,0,1,.834.366,2.86,2.86,0,0,1,.629.424,1.656,1.656,0,0,1,.4.543,1.753,1.753,0,0,1,.14.731,1.725,1.725,0,0,1-.229.9,1.963,1.963,0,0,1-.612.636,2.8,2.8,0,0,1-.882.376,4.354,4.354,0,0,1-1.046.123A3.971,3.971,0,0,1,101.049-.253ZM113.073,0h-1.121V-1.107h-.027a2.3,2.3,0,0,1-2.16,1.271q-2.5,0-2.5-2.98V-7h1.114v4.006q0,2.215,1.7,2.215a1.715,1.715,0,0,0,1.35-.6,2.315,2.315,0,0,0,.53-1.583V-7h1.121Zm1.839-.253v-1.2a3.318,3.318,0,0,0,2.017.677q1.477,0,1.477-.984a.854.854,0,0,0-.126-.475,1.26,1.26,0,0,0-.342-.345,2.631,2.631,0,0,0-.506-.27q-.291-.12-.625-.25a8.056,8.056,0,0,1-.817-.373A2.468,2.468,0,0,1,115.4-3.9a1.577,1.577,0,0,1-.355-.537,1.9,1.9,0,0,1-.12-.7,1.673,1.673,0,0,1,.226-.872,2,2,0,0,1,.6-.636,2.805,2.805,0,0,1,.858-.386,3.805,3.805,0,0,1,.995-.13,4.016,4.016,0,0,1,1.627.314v1.135a3.171,3.171,0,0,0-1.777-.506,2.078,2.078,0,0,0-.567.072,1.389,1.389,0,0,0-.434.2.932.932,0,0,0-.28.311.819.819,0,0,0-.1.4.959.959,0,0,0,.1.458,1.008,1.008,0,0,0,.291.328,2.221,2.221,0,0,0,.465.26q.273.116.622.253a8.658,8.658,0,0,1,.834.366,2.86,2.86,0,0,1,.629.424,1.656,1.656,0,0,1,.4.543,1.753,1.753,0,0,1,.14.731,1.725,1.725,0,0,1-.229.9,1.963,1.963,0,0,1-.612.636,2.8,2.8,0,0,1-.882.376,4.354,4.354,0,0,1-1.046.123A3.971,3.971,0,0,1,114.912-.253ZM130.122,0H129V-1.094h-.027A2.347,2.347,0,0,1,126.82.164a2.3,2.3,0,0,1-1.637-.554,1.918,1.918,0,0,1-.591-1.47q0-1.962,2.311-2.283l2.1-.294q0-1.784-1.442-1.784a3.446,3.446,0,0,0-2.283.861V-6.508a4.338,4.338,0,0,1,2.379-.656q2.468,0,2.468,2.611ZM129-3.541l-1.688.232a2.741,2.741,0,0,0-1.176.386,1.114,1.114,0,0,0-.4.981,1.068,1.068,0,0,0,.366.837,1.413,1.413,0,0,0,.974.325,1.8,1.8,0,0,0,1.377-.584A2.088,2.088,0,0,0,129-2.844Zm6.645,3.288v-1.2a3.318,3.318,0,0,0,2.017.677q1.477,0,1.477-.984a.854.854,0,0,0-.126-.475,1.26,1.26,0,0,0-.342-.345,2.631,2.631,0,0,0-.506-.27q-.291-.12-.625-.25a8.056,8.056,0,0,1-.817-.373,2.468,2.468,0,0,1-.588-.424,1.577,1.577,0,0,1-.355-.537,1.9,1.9,0,0,1-.12-.7,1.673,1.673,0,0,1,.226-.872,2,2,0,0,1,.6-.636,2.805,2.805,0,0,1,.858-.386,3.805,3.805,0,0,1,.995-.13,4.016,4.016,0,0,1,1.627.314v1.135a3.171,3.171,0,0,0-1.777-.506,2.078,2.078,0,0,0-.567.072,1.389,1.389,0,0,0-.434.2.932.932,0,0,0-.28.311.819.819,0,0,0-.1.4.959.959,0,0,0,.1.458,1.008,1.008,0,0,0,.291.328,2.221,2.221,0,0,0,.465.26q.273.116.622.253a8.658,8.658,0,0,1,.834.366,2.86,2.86,0,0,1,.629.424,1.656,1.656,0,0,1,.4.543,1.753,1.753,0,0,1,.14.731,1.725,1.725,0,0,1-.229.9,1.963,1.963,0,0,1-.612.636,2.8,2.8,0,0,1-.882.376,4.354,4.354,0,0,1-1.046.123A3.971,3.971,0,0,1,135.646-.253Zm9.29.417a3.247,3.247,0,0,1-2.478-.981,3.634,3.634,0,0,1-.926-2.6,3.785,3.785,0,0,1,.964-2.755,3.465,3.465,0,0,1,2.6-.991,3.14,3.14,0,0,1,2.444.964,3.822,3.822,0,0,1,.878,2.673,3.761,3.761,0,0,1-.947,2.683A3.317,3.317,0,0,1,144.936.164Zm.082-6.385a2.132,2.132,0,0,0-1.709.735,3.018,3.018,0,0,0-.629,2.027,2.854,2.854,0,0,0,.636,1.962,2.161,2.161,0,0,0,1.7.718,2.049,2.049,0,0,0,1.671-.7,3.055,3.055,0,0,0,.584-2,3.108,3.108,0,0,0-.584-2.023A2.04,2.04,0,0,0,145.018-6.221ZM156.188,0h-1.121V-1.189h-.027A2.588,2.588,0,0,1,152.633.164a2.615,2.615,0,0,1-2.109-.94,3.856,3.856,0,0,1-.79-2.56,4.2,4.2,0,0,1,.875-2.782,2.886,2.886,0,0,1,2.331-1.046,2.244,2.244,0,0,1,2.1,1.135h.027v-4.334h1.121Zm-1.121-3.165V-4.2a2,2,0,0,0-.561-1.436,1.88,1.88,0,0,0-1.422-.588,1.936,1.936,0,0,0-1.613.752,3.3,3.3,0,0,0-.588,2.078,2.964,2.964,0,0,0,.564,1.911,1.843,1.843,0,0,0,1.514.7,1.915,1.915,0,0,0,1.521-.677A2.521,2.521,0,0,0,155.066-3.165ZM163.468,0h-1.121V-1.094h-.027A2.347,2.347,0,0,1,160.166.164a2.3,2.3,0,0,1-1.637-.554,1.918,1.918,0,0,1-.591-1.47q0-1.962,2.311-2.283l2.1-.294q0-1.784-1.442-1.784a3.446,3.446,0,0,0-2.283.861V-6.508A4.338,4.338,0,0,1,161-7.164q2.468,0,2.468,2.611Zm-1.121-3.541-1.688.232a2.741,2.741,0,0,0-1.176.386,1.114,1.114,0,0,0-.4.981,1.068,1.068,0,0,0,.366.837,1.413,1.413,0,0,0,.974.325,1.8,1.8,0,0,0,1.377-.584,2.088,2.088,0,0,0,.543-1.48ZM166.7,0H165.58V-10.363H166.7Zm7.9-3.22h-4.942a2.618,2.618,0,0,0,.629,1.8,2.168,2.168,0,0,0,1.654.636,3.439,3.439,0,0,0,2.174-.779V-.506a4.063,4.063,0,0,1-2.44.67A2.959,2.959,0,0,1,169.34-.79a3.9,3.9,0,0,1-.848-2.683,3.828,3.828,0,0,1,.926-2.663,2.97,2.97,0,0,1,2.3-1.029,2.632,2.632,0,0,1,2.126.889,3.705,3.705,0,0,1,.752,2.468Zm-1.148-.95a2.281,2.281,0,0,0-.468-1.511,1.6,1.6,0,0,0-1.282-.54,1.811,1.811,0,0,0-1.347.567,2.575,2.575,0,0,0-.684,1.483Zm2.42,3.917v-1.2a3.318,3.318,0,0,0,2.017.677q1.477,0,1.477-.984a.854.854,0,0,0-.126-.475,1.26,1.26,0,0,0-.342-.345,2.631,2.631,0,0,0-.506-.27q-.291-.12-.625-.25a8.056,8.056,0,0,1-.817-.373,2.468,2.468,0,0,1-.588-.424A1.577,1.577,0,0,1,176-4.437a1.9,1.9,0,0,1-.12-.7,1.673,1.673,0,0,1,.226-.872,2,2,0,0,1,.6-.636,2.805,2.805,0,0,1,.858-.386,3.805,3.805,0,0,1,.995-.13,4.016,4.016,0,0,1,1.627.314v1.135a3.171,3.171,0,0,0-1.777-.506,2.078,2.078,0,0,0-.567.072,1.389,1.389,0,0,0-.434.2.932.932,0,0,0-.28.311.819.819,0,0,0-.1.4.959.959,0,0,0,.1.458,1.008,1.008,0,0,0,.291.328,2.221,2.221,0,0,0,.465.26q.273.116.622.253a8.658,8.658,0,0,1,.834.366,2.86,2.86,0,0,1,.629.424,1.656,1.656,0,0,1,.4.543,1.753,1.753,0,0,1,.14.731,1.725,1.725,0,0,1-.229.9,1.963,1.963,0,0,1-.612.636,2.8,2.8,0,0,1-.882.376,4.354,4.354,0,0,1-1.046.123A3.971,3.971,0,0,1,175.868-.253ZM191.078,0h-1.121V-1.094h-.027A2.347,2.347,0,0,1,187.776.164a2.3,2.3,0,0,1-1.637-.554,1.918,1.918,0,0,1-.591-1.47q0-1.962,2.311-2.283l2.1-.294q0-1.784-1.442-1.784a3.446,3.446,0,0,0-2.283.861V-6.508a4.338,4.338,0,0,1,2.379-.656q2.468,0,2.468,2.611Zm-1.121-3.541-1.688.232a2.741,2.741,0,0,0-1.176.386,1.114,1.114,0,0,0-.4.981,1.068,1.068,0,0,0,.366.837,1.413,1.413,0,0,0,.974.325,1.8,1.8,0,0,0,1.377-.584,2.088,2.088,0,0,0,.543-1.48ZM199,0H197.88V-3.992q0-2.229-1.627-2.229a1.765,1.765,0,0,0-1.391.632,2.344,2.344,0,0,0-.55,1.6V0H193.19V-7h1.121v1.162h.027a2.526,2.526,0,0,1,2.3-1.326,2.142,2.142,0,0,1,1.757.742A3.3,3.3,0,0,1,199-4.279Zm5.359-.068a2.162,2.162,0,0,1-1.046.219q-1.839,0-1.839-2.051V-6.043h-1.2V-7h1.2V-8.709l1.121-.362V-7h1.764v.957H202.6V-2.1a1.635,1.635,0,0,0,.239,1,.955.955,0,0,0,.793.3,1.179,1.179,0,0,0,.731-.232Zm7.123-3.151h-4.942a2.618,2.618,0,0,0,.629,1.8,2.168,2.168,0,0,0,1.654.636A3.439,3.439,0,0,0,211-1.559V-.506a4.063,4.063,0,0,1-2.44.67,2.959,2.959,0,0,1-2.331-.954,3.9,3.9,0,0,1-.848-2.683,3.828,3.828,0,0,1,.926-2.663,2.97,2.97,0,0,1,2.3-1.029,2.632,2.632,0,0,1,2.126.889,3.705,3.705,0,0,1,.752,2.468Zm-1.148-.95a2.281,2.281,0,0,0-.468-1.511,1.6,1.6,0,0,0-1.282-.54,1.811,1.811,0,0,0-1.347.567,2.575,2.575,0,0,0-.684,1.483ZM213.568.15a.726.726,0,0,1-.537-.226.742.742,0,0,1-.222-.54.754.754,0,0,1,.222-.543.72.72,0,0,1,.537-.229.739.739,0,0,1,.547.229.748.748,0,0,1,.226.543.737.737,0,0,1-.226.54A.745.745,0,0,1,213.568.15Z" transform="translate(2228.5 114.598)"/><path class="e" d="M7.125.223A5.983,5.983,0,0,1,2.519-1.642,6.849,6.849,0,0,1,.789-6.494a7.257,7.257,0,0,1,1.763-5.121,6.193,6.193,0,0,1,4.787-1.911,5.85,5.85,0,0,1,4.513,1.855,6.873,6.873,0,0,1,1.712,4.852A7.279,7.279,0,0,1,11.81-1.67,6.08,6.08,0,0,1,7.125.223Zm.1-11.81a3.7,3.7,0,0,0-2.973,1.364,5.4,5.4,0,0,0-1.146,3.59A5.447,5.447,0,0,0,4.221-3.062,3.59,3.59,0,0,0,7.134-1.707,3.761,3.761,0,0,0,10.149-3a5.38,5.38,0,0,0,1.1-3.609,5.64,5.64,0,0,0-1.072-3.683A3.623,3.623,0,0,0,7.227-11.587Zm22.535.158H25.939V0H23.731V-11.43H19.918V-13.3h9.843Zm2.792-.065a1.294,1.294,0,0,1-.9-.343,1.129,1.129,0,0,1-.376-.872,1.158,1.158,0,0,1,.376-.881,1.275,1.275,0,0,1,.9-.353,1.315,1.315,0,0,1,.928.353,1.152,1.152,0,0,1,.38.881,1.136,1.136,0,0,1-.38.858A1.305,1.305,0,0,1,32.554-11.495ZM33.621,0H31.469V-9.5h2.152Zm7.821-.1a3.73,3.73,0,0,1-1.661.315q-2.765,0-2.765-2.653V-7.812H35.43V-9.5h1.586v-2.2l2.152-.612V-9.5h2.273v1.688H39.169v4.75a1.872,1.872,0,0,0,.306,1.206,1.271,1.271,0,0,0,1.021.362,1.48,1.48,0,0,0,.946-.315Zm10.14.1H49.43V-1.5h-.037A3.1,3.1,0,0,1,46.479.223q-3.368,0-3.368-4.045V-9.5h2.152v5.455q0,2.561,1.976,2.561a2,2,0,0,0,1.573-.705,2.7,2.7,0,0,0,.617-1.846V-9.5h2.152Zm4.963,0H54.384V-14.064h2.162Zm7.014.223a4.709,4.709,0,0,1-3.511-1.331,4.809,4.809,0,0,1-1.313-3.53A5,5,0,0,1,60.1-8.377a5.032,5.032,0,0,1,3.688-1.345,4.558,4.558,0,0,1,3.47,1.308A5.053,5.053,0,0,1,68.5-4.787a4.979,4.979,0,0,1-1.341,3.641A4.815,4.815,0,0,1,63.559.223Zm.1-8.229a2.457,2.457,0,0,0-1.995.881,3.69,3.69,0,0,0-.733,2.431,3.476,3.476,0,0,0,.742,2.352,2.493,2.493,0,0,0,1.985.858,2.365,2.365,0,0,0,1.953-.844,3.737,3.737,0,0,0,.682-2.4,3.794,3.794,0,0,0-.682-2.421A2.354,2.354,0,0,0,63.661-8.006Z" transform="translate(2524.5 26)"/><path class="e" d="M5.236.164A4.327,4.327,0,0,1,1.894-1.21,5.1,5.1,0,0,1,.643-4.785,5.384,5.384,0,0,1,1.921-8.559,4.478,4.478,0,0,1,5.4-9.967,4.209,4.209,0,0,1,8.668-8.6,5.106,5.106,0,0,1,9.912-5.024,5.417,5.417,0,0,1,8.641-1.23,3.773,3.773,0,0,1,8-.656l2.755,1.976H8.668L6.822-.062A5.314,5.314,0,0,1,5.236.164Zm.082-9.092A3.16,3.16,0,0,0,2.81-7.813a4.314,4.314,0,0,0-.964,2.926,4.384,4.384,0,0,0,.937,2.919,3.08,3.08,0,0,0,2.454,1.1A3.218,3.218,0,0,0,7.779-1.921a4.3,4.3,0,0,0,.93-2.946,4.479,4.479,0,0,0-.9-3A3.094,3.094,0,0,0,5.318-8.928ZM17.35,0H16.229V-1.107H16.2A2.3,2.3,0,0,1,14.041.164q-2.5,0-2.5-2.98V-7h1.114v4.006q0,2.215,1.7,2.215a1.715,1.715,0,0,0,1.35-.6,2.315,2.315,0,0,0,.53-1.583V-7H17.35Zm2.837-8.777a.71.71,0,0,1-.513-.205.692.692,0,0,1-.212-.52.7.7,0,0,1,.212-.523.7.7,0,0,1,.513-.208.724.724,0,0,1,.523.208.7.7,0,0,1,.215.523.693.693,0,0,1-.215.513A.718.718,0,0,1,20.187-8.777ZM20.733,0H19.612V-7h1.121Zm1.846-.253v-1.2A3.318,3.318,0,0,0,24.6-.779q1.477,0,1.477-.984a.854.854,0,0,0-.126-.475,1.26,1.26,0,0,0-.342-.345,2.631,2.631,0,0,0-.506-.27q-.291-.12-.625-.25a8.056,8.056,0,0,1-.817-.373,2.468,2.468,0,0,1-.588-.424,1.577,1.577,0,0,1-.355-.537,1.9,1.9,0,0,1-.12-.7,1.673,1.673,0,0,1,.226-.872,2,2,0,0,1,.6-.636,2.805,2.805,0,0,1,.858-.386,3.805,3.805,0,0,1,.995-.13A4.016,4.016,0,0,1,26.9-6.85v1.135a3.171,3.171,0,0,0-1.777-.506,2.078,2.078,0,0,0-.567.072,1.389,1.389,0,0,0-.434.2.932.932,0,0,0-.28.311.819.819,0,0,0-.1.4.959.959,0,0,0,.1.458,1.008,1.008,0,0,0,.291.328,2.221,2.221,0,0,0,.465.26q.273.116.622.253a8.658,8.658,0,0,1,.834.366,2.86,2.86,0,0,1,.629.424,1.656,1.656,0,0,1,.4.543,1.753,1.753,0,0,1,.14.731,1.725,1.725,0,0,1-.229.9,1.963,1.963,0,0,1-.612.636A2.8,2.8,0,0,1,25.5.041a4.354,4.354,0,0,1-1.046.123A3.971,3.971,0,0,1,22.579-.253ZM38.589,0H37.468V-4.033q0-2.188-1.627-2.187a1.774,1.774,0,0,0-1.381.632A2.356,2.356,0,0,0,33.9-3.965V0H32.778V-10.363H33.9v4.525h.027a2.546,2.546,0,0,1,2.3-1.326q2.365,0,2.365,2.851Zm7.738-3.22H41.385a2.618,2.618,0,0,0,.629,1.8,2.168,2.168,0,0,0,1.654.636,3.439,3.439,0,0,0,2.174-.779V-.506a4.063,4.063,0,0,1-2.44.67A2.959,2.959,0,0,1,41.07-.79a3.9,3.9,0,0,1-.848-2.683,3.828,3.828,0,0,1,.926-2.663,2.97,2.97,0,0,1,2.3-1.029,2.632,2.632,0,0,1,2.126.889,3.705,3.705,0,0,1,.752,2.468Zm-1.148-.95a2.281,2.281,0,0,0-.468-1.511,1.6,1.6,0,0,0-1.282-.54,1.811,1.811,0,0,0-1.347.567A2.575,2.575,0,0,0,41.4-4.17ZM53.833,0H52.712V-3.992q0-2.229-1.627-2.229a1.765,1.765,0,0,0-1.391.632,2.344,2.344,0,0,0-.55,1.6V0H48.022V-7h1.121v1.162h.027a2.526,2.526,0,0,1,2.3-1.326,2.142,2.142,0,0,1,1.757.742,3.3,3.3,0,0,1,.608,2.143ZM61.92,0H60.8V-1.189h-.027A2.588,2.588,0,0,1,58.365.164a2.615,2.615,0,0,1-2.109-.94,3.856,3.856,0,0,1-.79-2.56,4.2,4.2,0,0,1,.875-2.782,2.886,2.886,0,0,1,2.331-1.046,2.244,2.244,0,0,1,2.1,1.135H60.8v-4.334H61.92ZM60.8-3.165V-4.2a2,2,0,0,0-.561-1.436,1.88,1.88,0,0,0-1.422-.588,1.936,1.936,0,0,0-1.613.752,3.3,3.3,0,0,0-.588,2.078,2.964,2.964,0,0,0,.564,1.911,1.843,1.843,0,0,0,1.514.7,1.915,1.915,0,0,0,1.521-.677A2.521,2.521,0,0,0,60.8-3.165Zm7.041-2.7a1.371,1.371,0,0,0-.848-.226,1.431,1.431,0,0,0-1.2.677,3.129,3.129,0,0,0-.482,1.846V0H64.189V-7h1.121v1.442h.027a2.444,2.444,0,0,1,.731-1.152,1.668,1.668,0,0,1,1.1-.414,1.83,1.83,0,0,1,.67.1ZM74.683-3.22H69.74a2.618,2.618,0,0,0,.629,1.8,2.168,2.168,0,0,0,1.654.636A3.439,3.439,0,0,0,74.2-1.559V-.506a4.063,4.063,0,0,1-2.44.67A2.959,2.959,0,0,1,69.426-.79a3.9,3.9,0,0,1-.848-2.683A3.828,3.828,0,0,1,69.5-6.135a2.97,2.97,0,0,1,2.3-1.029,2.632,2.632,0,0,1,2.126.889,3.705,3.705,0,0,1,.752,2.468Zm-1.148-.95a2.281,2.281,0,0,0-.468-1.511,1.6,1.6,0,0,0-1.282-.54,1.811,1.811,0,0,0-1.347.567,2.575,2.575,0,0,0-.684,1.483Zm6.494-1.7a1.371,1.371,0,0,0-.848-.226,1.431,1.431,0,0,0-1.2.677A3.129,3.129,0,0,0,77.5-3.568V0H76.378V-7H77.5v1.442h.027a2.444,2.444,0,0,1,.731-1.152,1.668,1.668,0,0,1,1.1-.414,1.83,1.83,0,0,1,.67.1Zm1.791-2.912a.71.71,0,0,1-.513-.205.692.692,0,0,1-.212-.52.7.7,0,0,1,.212-.523.7.7,0,0,1,.513-.208.724.724,0,0,1,.523.208.7.7,0,0,1,.215.523.693.693,0,0,1-.215.513A.718.718,0,0,1,81.819-8.777ZM82.366,0H81.245V-7h1.121Zm5.517-.068A2.161,2.161,0,0,1,86.837.15Q85,.15,85-1.9V-6.043h-1.2V-7H85V-8.709l1.121-.362V-7h1.764v.957H86.119V-2.1a1.635,1.635,0,0,0,.239,1,.955.955,0,0,0,.793.3,1.179,1.179,0,0,0,.731-.232Zm8.982-5.8a1.371,1.371,0,0,0-.848-.226,1.431,1.431,0,0,0-1.2.677,3.129,3.129,0,0,0-.482,1.846V0H93.215V-7h1.121v1.442h.027a2.444,2.444,0,0,1,.731-1.152,1.668,1.668,0,0,1,1.1-.414,1.83,1.83,0,0,1,.67.1Zm1.791-2.912a.71.71,0,0,1-.513-.205.692.692,0,0,1-.212-.52.7.7,0,0,1,.212-.523.7.7,0,0,1,.513-.208.724.724,0,0,1,.523.208.7.7,0,0,1,.215.523.693.693,0,0,1-.215.513A.718.718,0,0,1,98.656-8.777ZM99.2,0H98.082V-7H99.2Zm1.846-.253v-1.2a3.318,3.318,0,0,0,2.017.677q1.477,0,1.477-.984a.854.854,0,0,0-.126-.475,1.26,1.26,0,0,0-.342-.345,2.631,2.631,0,0,0-.506-.27q-.291-.12-.625-.25a8.056,8.056,0,0,1-.817-.373,2.468,2.468,0,0,1-.588-.424,1.577,1.577,0,0,1-.355-.537,1.9,1.9,0,0,1-.12-.7,1.673,1.673,0,0,1,.226-.872,2,2,0,0,1,.6-.636,2.805,2.805,0,0,1,.858-.386,3.805,3.805,0,0,1,.995-.13,4.016,4.016,0,0,1,1.627.314v1.135a3.171,3.171,0,0,0-1.777-.506,2.078,2.078,0,0,0-.567.072,1.389,1.389,0,0,0-.434.2.932.932,0,0,0-.28.311.819.819,0,0,0-.1.4.959.959,0,0,0,.1.458,1.008,1.008,0,0,0,.291.328,2.221,2.221,0,0,0,.465.26q.273.116.622.253a8.658,8.658,0,0,1,.834.366,2.86,2.86,0,0,1,.629.424,1.656,1.656,0,0,1,.4.543,1.753,1.753,0,0,1,.14.731,1.725,1.725,0,0,1-.229.9,1.963,1.963,0,0,1-.612.636,2.8,2.8,0,0,1-.882.376,4.354,4.354,0,0,1-1.046.123A3.971,3.971,0,0,1,101.049-.253ZM113.073,0h-1.121V-1.107h-.027a2.3,2.3,0,0,1-2.16,1.271q-2.5,0-2.5-2.98V-7h1.114v4.006q0,2.215,1.7,2.215a1.715,1.715,0,0,0,1.35-.6,2.315,2.315,0,0,0,.53-1.583V-7h1.121Zm1.839-.253v-1.2a3.318,3.318,0,0,0,2.017.677q1.477,0,1.477-.984a.854.854,0,0,0-.126-.475,1.26,1.26,0,0,0-.342-.345,2.631,2.631,0,0,0-.506-.27q-.291-.12-.625-.25a8.056,8.056,0,0,1-.817-.373A2.468,2.468,0,0,1,115.4-3.9a1.577,1.577,0,0,1-.355-.537,1.9,1.9,0,0,1-.12-.7,1.673,1.673,0,0,1,.226-.872,2,2,0,0,1,.6-.636,2.805,2.805,0,0,1,.858-.386,3.805,3.805,0,0,1,.995-.13,4.016,4.016,0,0,1,1.627.314v1.135a3.171,3.171,0,0,0-1.777-.506,2.078,2.078,0,0,0-.567.072,1.389,1.389,0,0,0-.434.2.932.932,0,0,0-.28.311.819.819,0,0,0-.1.4.959.959,0,0,0,.1.458,1.008,1.008,0,0,0,.291.328,2.221,2.221,0,0,0,.465.26q.273.116.622.253a8.658,8.658,0,0,1,.834.366,2.86,2.86,0,0,1,.629.424,1.656,1.656,0,0,1,.4.543,1.753,1.753,0,0,1,.14.731,1.725,1.725,0,0,1-.229.9,1.963,1.963,0,0,1-.612.636,2.8,2.8,0,0,1-.882.376,4.354,4.354,0,0,1-1.046.123A3.971,3.971,0,0,1,114.912-.253ZM130.122,0H129V-1.094h-.027A2.347,2.347,0,0,1,126.82.164a2.3,2.3,0,0,1-1.637-.554,1.918,1.918,0,0,1-.591-1.47q0-1.962,2.311-2.283l2.1-.294q0-1.784-1.442-1.784a3.446,3.446,0,0,0-2.283.861V-6.508a4.338,4.338,0,0,1,2.379-.656q2.468,0,2.468,2.611ZM129-3.541l-1.688.232a2.741,2.741,0,0,0-1.176.386,1.114,1.114,0,0,0-.4.981,1.068,1.068,0,0,0,.366.837,1.413,1.413,0,0,0,.974.325,1.8,1.8,0,0,0,1.377-.584A2.088,2.088,0,0,0,129-2.844Zm6.645,3.288v-1.2a3.318,3.318,0,0,0,2.017.677q1.477,0,1.477-.984a.854.854,0,0,0-.126-.475,1.26,1.26,0,0,0-.342-.345,2.631,2.631,0,0,0-.506-.27q-.291-.12-.625-.25a8.056,8.056,0,0,1-.817-.373,2.468,2.468,0,0,1-.588-.424,1.577,1.577,0,0,1-.355-.537,1.9,1.9,0,0,1-.12-.7,1.673,1.673,0,0,1,.226-.872,2,2,0,0,1,.6-.636,2.805,2.805,0,0,1,.858-.386,3.805,3.805,0,0,1,.995-.13,4.016,4.016,0,0,1,1.627.314v1.135a3.171,3.171,0,0,0-1.777-.506,2.078,2.078,0,0,0-.567.072,1.389,1.389,0,0,0-.434.2.932.932,0,0,0-.28.311.819.819,0,0,0-.1.4.959.959,0,0,0,.1.458,1.008,1.008,0,0,0,.291.328,2.221,2.221,0,0,0,.465.26q.273.116.622.253a8.658,8.658,0,0,1,.834.366,2.86,2.86,0,0,1,.629.424,1.656,1.656,0,0,1,.4.543,1.753,1.753,0,0,1,.14.731,1.725,1.725,0,0,1-.229.9,1.963,1.963,0,0,1-.612.636,2.8,2.8,0,0,1-.882.376,4.354,4.354,0,0,1-1.046.123A3.971,3.971,0,0,1,135.646-.253Zm9.29.417a3.247,3.247,0,0,1-2.478-.981,3.634,3.634,0,0,1-.926-2.6,3.785,3.785,0,0,1,.964-2.755,3.465,3.465,0,0,1,2.6-.991,3.14,3.14,0,0,1,2.444.964,3.822,3.822,0,0,1,.878,2.673,3.761,3.761,0,0,1-.947,2.683A3.317,3.317,0,0,1,144.936.164Zm.082-6.385a2.132,2.132,0,0,0-1.709.735,3.018,3.018,0,0,0-.629,2.027,2.854,2.854,0,0,0,.636,1.962,2.161,2.161,0,0,0,1.7.718,2.049,2.049,0,0,0,1.671-.7,3.055,3.055,0,0,0,.584-2,3.108,3.108,0,0,0-.584-2.023A2.04,2.04,0,0,0,145.018-6.221ZM156.188,0h-1.121V-1.189h-.027A2.588,2.588,0,0,1,152.633.164a2.615,2.615,0,0,1-2.109-.94,3.856,3.856,0,0,1-.79-2.56,4.2,4.2,0,0,1,.875-2.782,2.886,2.886,0,0,1,2.331-1.046,2.244,2.244,0,0,1,2.1,1.135h.027v-4.334h1.121Zm-1.121-3.165V-4.2a2,2,0,0,0-.561-1.436,1.88,1.88,0,0,0-1.422-.588,1.936,1.936,0,0,0-1.613.752,3.3,3.3,0,0,0-.588,2.078,2.964,2.964,0,0,0,.564,1.911,1.843,1.843,0,0,0,1.514.7,1.915,1.915,0,0,0,1.521-.677A2.521,2.521,0,0,0,155.066-3.165ZM163.468,0h-1.121V-1.094h-.027A2.347,2.347,0,0,1,160.166.164a2.3,2.3,0,0,1-1.637-.554,1.918,1.918,0,0,1-.591-1.47q0-1.962,2.311-2.283l2.1-.294q0-1.784-1.442-1.784a3.446,3.446,0,0,0-2.283.861V-6.508A4.338,4.338,0,0,1,161-7.164q2.468,0,2.468,2.611Zm-1.121-3.541-1.688.232a2.741,2.741,0,0,0-1.176.386,1.114,1.114,0,0,0-.4.981,1.068,1.068,0,0,0,.366.837,1.413,1.413,0,0,0,.974.325,1.8,1.8,0,0,0,1.377-.584,2.088,2.088,0,0,0,.543-1.48ZM166.7,0H165.58V-10.363H166.7Zm7.9-3.22h-4.942a2.618,2.618,0,0,0,.629,1.8,2.168,2.168,0,0,0,1.654.636,3.439,3.439,0,0,0,2.174-.779V-.506a4.063,4.063,0,0,1-2.44.67A2.959,2.959,0,0,1,169.34-.79a3.9,3.9,0,0,1-.848-2.683,3.828,3.828,0,0,1,.926-2.663,2.97,2.97,0,0,1,2.3-1.029,2.632,2.632,0,0,1,2.126.889,3.705,3.705,0,0,1,.752,2.468Zm-1.148-.95a2.281,2.281,0,0,0-.468-1.511,1.6,1.6,0,0,0-1.282-.54,1.811,1.811,0,0,0-1.347.567,2.575,2.575,0,0,0-.684,1.483Zm2.42,3.917v-1.2a3.318,3.318,0,0,0,2.017.677q1.477,0,1.477-.984a.854.854,0,0,0-.126-.475,1.26,1.26,0,0,0-.342-.345,2.631,2.631,0,0,0-.506-.27q-.291-.12-.625-.25a8.056,8.056,0,0,1-.817-.373,2.468,2.468,0,0,1-.588-.424A1.577,1.577,0,0,1,176-4.437a1.9,1.9,0,0,1-.12-.7,1.673,1.673,0,0,1,.226-.872,2,2,0,0,1,.6-.636,2.805,2.805,0,0,1,.858-.386,3.805,3.805,0,0,1,.995-.13,4.016,4.016,0,0,1,1.627.314v1.135a3.171,3.171,0,0,0-1.777-.506,2.078,2.078,0,0,0-.567.072,1.389,1.389,0,0,0-.434.2.932.932,0,0,0-.28.311.819.819,0,0,0-.1.4.959.959,0,0,0,.1.458,1.008,1.008,0,0,0,.291.328,2.221,2.221,0,0,0,.465.26q.273.116.622.253a8.658,8.658,0,0,1,.834.366,2.86,2.86,0,0,1,.629.424,1.656,1.656,0,0,1,.4.543,1.753,1.753,0,0,1,.14.731,1.725,1.725,0,0,1-.229.9,1.963,1.963,0,0,1-.612.636,2.8,2.8,0,0,1-.882.376,4.354,4.354,0,0,1-1.046.123A3.971,3.971,0,0,1,175.868-.253ZM191.078,0h-1.121V-1.094h-.027A2.347,2.347,0,0,1,187.776.164a2.3,2.3,0,0,1-1.637-.554,1.918,1.918,0,0,1-.591-1.47q0-1.962,2.311-2.283l2.1-.294q0-1.784-1.442-1.784a3.446,3.446,0,0,0-2.283.861V-6.508a4.338,4.338,0,0,1,2.379-.656q2.468,0,2.468,2.611Zm-1.121-3.541-1.688.232a2.741,2.741,0,0,0-1.176.386,1.114,1.114,0,0,0-.4.981,1.068,1.068,0,0,0,.366.837,1.413,1.413,0,0,0,.974.325,1.8,1.8,0,0,0,1.377-.584,2.088,2.088,0,0,0,.543-1.48ZM199,0H197.88V-3.992q0-2.229-1.627-2.229a1.765,1.765,0,0,0-1.391.632,2.344,2.344,0,0,0-.55,1.6V0H193.19V-7h1.121v1.162h.027a2.526,2.526,0,0,1,2.3-1.326,2.142,2.142,0,0,1,1.757.742A3.3,3.3,0,0,1,199-4.279Zm5.359-.068a2.162,2.162,0,0,1-1.046.219q-1.839,0-1.839-2.051V-6.043h-1.2V-7h1.2V-8.709l1.121-.362V-7h1.764v.957H202.6V-2.1a1.635,1.635,0,0,0,.239,1,.955.955,0,0,0,.793.3,1.179,1.179,0,0,0,.731-.232Zm7.123-3.151h-4.942a2.618,2.618,0,0,0,.629,1.8,2.168,2.168,0,0,0,1.654.636A3.439,3.439,0,0,0,211-1.559V-.506a4.063,4.063,0,0,1-2.44.67,2.959,2.959,0,0,1-2.331-.954,3.9,3.9,0,0,1-.848-2.683,3.828,3.828,0,0,1,.926-2.663,2.97,2.97,0,0,1,2.3-1.029,2.632,2.632,0,0,1,2.126.889,3.705,3.705,0,0,1,.752,2.468Zm-1.148-.95a2.281,2.281,0,0,0-.468-1.511,1.6,1.6,0,0,0-1.282-.54,1.811,1.811,0,0,0-1.347.567,2.575,2.575,0,0,0-.684,1.483ZM213.568.15a.726.726,0,0,1-.537-.226.742.742,0,0,1-.222-.54.754.754,0,0,1,.222-.543.72.72,0,0,1,.537-.229.739.739,0,0,1,.547.229.748.748,0,0,1,.226.543.737.737,0,0,1-.226.54A.745.745,0,0,1,213.568.15Z" transform="translate(2524.5 51.598)"/><path class="e" d="M7.125.223A5.983,5.983,0,0,1,2.519-1.642,6.849,6.849,0,0,1,.789-6.494a7.257,7.257,0,0,1,1.763-5.121,6.193,6.193,0,0,1,4.787-1.911,5.85,5.85,0,0,1,4.513,1.855,6.873,6.873,0,0,1,1.712,4.852A7.279,7.279,0,0,1,11.81-1.67,6.08,6.08,0,0,1,7.125.223Zm.1-11.81a3.7,3.7,0,0,0-2.973,1.364,5.4,5.4,0,0,0-1.146,3.59A5.447,5.447,0,0,0,4.221-3.062,3.59,3.59,0,0,0,7.134-1.707,3.761,3.761,0,0,0,10.149-3a5.38,5.38,0,0,0,1.1-3.609,5.64,5.64,0,0,0-1.072-3.683A3.623,3.623,0,0,0,7.227-11.587Zm22.535.158H25.939V0H23.731V-11.43H19.918V-13.3h9.843Zm2.792-.065a1.294,1.294,0,0,1-.9-.343,1.129,1.129,0,0,1-.376-.872,1.158,1.158,0,0,1,.376-.881,1.275,1.275,0,0,1,.9-.353,1.315,1.315,0,0,1,.928.353,1.152,1.152,0,0,1,.38.881,1.136,1.136,0,0,1-.38.858A1.305,1.305,0,0,1,32.554-11.495ZM33.621,0H31.469V-9.5h2.152Zm7.821-.1a3.73,3.73,0,0,1-1.661.315q-2.765,0-2.765-2.653V-7.812H35.43V-9.5h1.586v-2.2l2.152-.612V-9.5h2.273v1.688H39.169v4.75a1.872,1.872,0,0,0,.306,1.206,1.271,1.271,0,0,0,1.021.362,1.48,1.48,0,0,0,.946-.315Zm10.14.1H49.43V-1.5h-.037A3.1,3.1,0,0,1,46.479.223q-3.368,0-3.368-4.045V-9.5h2.152v5.455q0,2.561,1.976,2.561a2,2,0,0,0,1.573-.705,2.7,2.7,0,0,0,.617-1.846V-9.5h2.152Zm4.963,0H54.384V-14.064h2.162Zm7.014.223a4.709,4.709,0,0,1-3.511-1.331,4.809,4.809,0,0,1-1.313-3.53A5,5,0,0,1,60.1-8.377a5.032,5.032,0,0,1,3.688-1.345,4.558,4.558,0,0,1,3.47,1.308A5.053,5.053,0,0,1,68.5-4.787a4.979,4.979,0,0,1-1.341,3.641A4.815,4.815,0,0,1,63.559.223Zm.1-8.229a2.457,2.457,0,0,0-1.995.881,3.69,3.69,0,0,0-.733,2.431,3.476,3.476,0,0,0,.742,2.352,2.493,2.493,0,0,0,1.985.858,2.365,2.365,0,0,0,1.953-.844,3.737,3.737,0,0,0,.682-2.4,3.794,3.794,0,0,0-.682-2.421A2.354,2.354,0,0,0,63.661-8.006Z" transform="translate(2524.5 89)"/><path class="e" d="M5.236.164A4.327,4.327,0,0,1,1.894-1.21,5.1,5.1,0,0,1,.643-4.785,5.384,5.384,0,0,1,1.921-8.559,4.478,4.478,0,0,1,5.4-9.967,4.209,4.209,0,0,1,8.668-8.6,5.106,5.106,0,0,1,9.912-5.024,5.417,5.417,0,0,1,8.641-1.23,3.773,3.773,0,0,1,8-.656l2.755,1.976H8.668L6.822-.062A5.314,5.314,0,0,1,5.236.164Zm.082-9.092A3.16,3.16,0,0,0,2.81-7.813a4.314,4.314,0,0,0-.964,2.926,4.384,4.384,0,0,0,.937,2.919,3.08,3.08,0,0,0,2.454,1.1A3.218,3.218,0,0,0,7.779-1.921a4.3,4.3,0,0,0,.93-2.946,4.479,4.479,0,0,0-.9-3A3.094,3.094,0,0,0,5.318-8.928ZM17.35,0H16.229V-1.107H16.2A2.3,2.3,0,0,1,14.041.164q-2.5,0-2.5-2.98V-7h1.114v4.006q0,2.215,1.7,2.215a1.715,1.715,0,0,0,1.35-.6,2.315,2.315,0,0,0,.53-1.583V-7H17.35Zm2.837-8.777a.71.71,0,0,1-.513-.205.692.692,0,0,1-.212-.52.7.7,0,0,1,.212-.523.7.7,0,0,1,.513-.208.724.724,0,0,1,.523.208.7.7,0,0,1,.215.523.693.693,0,0,1-.215.513A.718.718,0,0,1,20.187-8.777ZM20.733,0H19.612V-7h1.121Zm1.846-.253v-1.2A3.318,3.318,0,0,0,24.6-.779q1.477,0,1.477-.984a.854.854,0,0,0-.126-.475,1.26,1.26,0,0,0-.342-.345,2.631,2.631,0,0,0-.506-.27q-.291-.12-.625-.25a8.056,8.056,0,0,1-.817-.373,2.468,2.468,0,0,1-.588-.424,1.577,1.577,0,0,1-.355-.537,1.9,1.9,0,0,1-.12-.7,1.673,1.673,0,0,1,.226-.872,2,2,0,0,1,.6-.636,2.805,2.805,0,0,1,.858-.386,3.805,3.805,0,0,1,.995-.13A4.016,4.016,0,0,1,26.9-6.85v1.135a3.171,3.171,0,0,0-1.777-.506,2.078,2.078,0,0,0-.567.072,1.389,1.389,0,0,0-.434.2.932.932,0,0,0-.28.311.819.819,0,0,0-.1.4.959.959,0,0,0,.1.458,1.008,1.008,0,0,0,.291.328,2.221,2.221,0,0,0,.465.26q.273.116.622.253a8.658,8.658,0,0,1,.834.366,2.86,2.86,0,0,1,.629.424,1.656,1.656,0,0,1,.4.543,1.753,1.753,0,0,1,.14.731,1.725,1.725,0,0,1-.229.9,1.963,1.963,0,0,1-.612.636A2.8,2.8,0,0,1,25.5.041a4.354,4.354,0,0,1-1.046.123A3.971,3.971,0,0,1,22.579-.253ZM38.589,0H37.468V-4.033q0-2.188-1.627-2.187a1.774,1.774,0,0,0-1.381.632A2.356,2.356,0,0,0,33.9-3.965V0H32.778V-10.363H33.9v4.525h.027a2.546,2.546,0,0,1,2.3-1.326q2.365,0,2.365,2.851Zm7.738-3.22H41.385a2.618,2.618,0,0,0,.629,1.8,2.168,2.168,0,0,0,1.654.636,3.439,3.439,0,0,0,2.174-.779V-.506a4.063,4.063,0,0,1-2.44.67A2.959,2.959,0,0,1,41.07-.79a3.9,3.9,0,0,1-.848-2.683,3.828,3.828,0,0,1,.926-2.663,2.97,2.97,0,0,1,2.3-1.029,2.632,2.632,0,0,1,2.126.889,3.705,3.705,0,0,1,.752,2.468Zm-1.148-.95a2.281,2.281,0,0,0-.468-1.511,1.6,1.6,0,0,0-1.282-.54,1.811,1.811,0,0,0-1.347.567A2.575,2.575,0,0,0,41.4-4.17ZM53.833,0H52.712V-3.992q0-2.229-1.627-2.229a1.765,1.765,0,0,0-1.391.632,2.344,2.344,0,0,0-.55,1.6V0H48.022V-7h1.121v1.162h.027a2.526,2.526,0,0,1,2.3-1.326,2.142,2.142,0,0,1,1.757.742,3.3,3.3,0,0,1,.608,2.143ZM61.92,0H60.8V-1.189h-.027A2.588,2.588,0,0,1,58.365.164a2.615,2.615,0,0,1-2.109-.94,3.856,3.856,0,0,1-.79-2.56,4.2,4.2,0,0,1,.875-2.782,2.886,2.886,0,0,1,2.331-1.046,2.244,2.244,0,0,1,2.1,1.135H60.8v-4.334H61.92ZM60.8-3.165V-4.2a2,2,0,0,0-.561-1.436,1.88,1.88,0,0,0-1.422-.588,1.936,1.936,0,0,0-1.613.752,3.3,3.3,0,0,0-.588,2.078,2.964,2.964,0,0,0,.564,1.911,1.843,1.843,0,0,0,1.514.7,1.915,1.915,0,0,0,1.521-.677A2.521,2.521,0,0,0,60.8-3.165Zm7.041-2.7a1.371,1.371,0,0,0-.848-.226,1.431,1.431,0,0,0-1.2.677,3.129,3.129,0,0,0-.482,1.846V0H64.189V-7h1.121v1.442h.027a2.444,2.444,0,0,1,.731-1.152,1.668,1.668,0,0,1,1.1-.414,1.83,1.83,0,0,1,.67.1ZM74.683-3.22H69.74a2.618,2.618,0,0,0,.629,1.8,2.168,2.168,0,0,0,1.654.636A3.439,3.439,0,0,0,74.2-1.559V-.506a4.063,4.063,0,0,1-2.44.67A2.959,2.959,0,0,1,69.426-.79a3.9,3.9,0,0,1-.848-2.683A3.828,3.828,0,0,1,69.5-6.135a2.97,2.97,0,0,1,2.3-1.029,2.632,2.632,0,0,1,2.126.889,3.705,3.705,0,0,1,.752,2.468Zm-1.148-.95a2.281,2.281,0,0,0-.468-1.511,1.6,1.6,0,0,0-1.282-.54,1.811,1.811,0,0,0-1.347.567,2.575,2.575,0,0,0-.684,1.483Zm6.494-1.7a1.371,1.371,0,0,0-.848-.226,1.431,1.431,0,0,0-1.2.677A3.129,3.129,0,0,0,77.5-3.568V0H76.378V-7H77.5v1.442h.027a2.444,2.444,0,0,1,.731-1.152,1.668,1.668,0,0,1,1.1-.414,1.83,1.83,0,0,1,.67.1Zm1.791-2.912a.71.71,0,0,1-.513-.205.692.692,0,0,1-.212-.52.7.7,0,0,1,.212-.523.7.7,0,0,1,.513-.208.724.724,0,0,1,.523.208.7.7,0,0,1,.215.523.693.693,0,0,1-.215.513A.718.718,0,0,1,81.819-8.777ZM82.366,0H81.245V-7h1.121Zm5.517-.068A2.161,2.161,0,0,1,86.837.15Q85,.15,85-1.9V-6.043h-1.2V-7H85V-8.709l1.121-.362V-7h1.764v.957H86.119V-2.1a1.635,1.635,0,0,0,.239,1,.955.955,0,0,0,.793.3,1.179,1.179,0,0,0,.731-.232Zm8.982-5.8a1.371,1.371,0,0,0-.848-.226,1.431,1.431,0,0,0-1.2.677,3.129,3.129,0,0,0-.482,1.846V0H93.215V-7h1.121v1.442h.027a2.444,2.444,0,0,1,.731-1.152,1.668,1.668,0,0,1,1.1-.414,1.83,1.83,0,0,1,.67.1Zm1.791-2.912a.71.71,0,0,1-.513-.205.692.692,0,0,1-.212-.52.7.7,0,0,1,.212-.523.7.7,0,0,1,.513-.208.724.724,0,0,1,.523.208.7.7,0,0,1,.215.523.693.693,0,0,1-.215.513A.718.718,0,0,1,98.656-8.777ZM99.2,0H98.082V-7H99.2Zm1.846-.253v-1.2a3.318,3.318,0,0,0,2.017.677q1.477,0,1.477-.984a.854.854,0,0,0-.126-.475,1.26,1.26,0,0,0-.342-.345,2.631,2.631,0,0,0-.506-.27q-.291-.12-.625-.25a8.056,8.056,0,0,1-.817-.373,2.468,2.468,0,0,1-.588-.424,1.577,1.577,0,0,1-.355-.537,1.9,1.9,0,0,1-.12-.7,1.673,1.673,0,0,1,.226-.872,2,2,0,0,1,.6-.636,2.805,2.805,0,0,1,.858-.386,3.805,3.805,0,0,1,.995-.13,4.016,4.016,0,0,1,1.627.314v1.135a3.171,3.171,0,0,0-1.777-.506,2.078,2.078,0,0,0-.567.072,1.389,1.389,0,0,0-.434.2.932.932,0,0,0-.28.311.819.819,0,0,0-.1.4.959.959,0,0,0,.1.458,1.008,1.008,0,0,0,.291.328,2.221,2.221,0,0,0,.465.26q.273.116.622.253a8.658,8.658,0,0,1,.834.366,2.86,2.86,0,0,1,.629.424,1.656,1.656,0,0,1,.4.543,1.753,1.753,0,0,1,.14.731,1.725,1.725,0,0,1-.229.9,1.963,1.963,0,0,1-.612.636,2.8,2.8,0,0,1-.882.376,4.354,4.354,0,0,1-1.046.123A3.971,3.971,0,0,1,101.049-.253ZM113.073,0h-1.121V-1.107h-.027a2.3,2.3,0,0,1-2.16,1.271q-2.5,0-2.5-2.98V-7h1.114v4.006q0,2.215,1.7,2.215a1.715,1.715,0,0,0,1.35-.6,2.315,2.315,0,0,0,.53-1.583V-7h1.121Zm1.839-.253v-1.2a3.318,3.318,0,0,0,2.017.677q1.477,0,1.477-.984a.854.854,0,0,0-.126-.475,1.26,1.26,0,0,0-.342-.345,2.631,2.631,0,0,0-.506-.27q-.291-.12-.625-.25a8.056,8.056,0,0,1-.817-.373A2.468,2.468,0,0,1,115.4-3.9a1.577,1.577,0,0,1-.355-.537,1.9,1.9,0,0,1-.12-.7,1.673,1.673,0,0,1,.226-.872,2,2,0,0,1,.6-.636,2.805,2.805,0,0,1,.858-.386,3.805,3.805,0,0,1,.995-.13,4.016,4.016,0,0,1,1.627.314v1.135a3.171,3.171,0,0,0-1.777-.506,2.078,2.078,0,0,0-.567.072,1.389,1.389,0,0,0-.434.2.932.932,0,0,0-.28.311.819.819,0,0,0-.1.4.959.959,0,0,0,.1.458,1.008,1.008,0,0,0,.291.328,2.221,2.221,0,0,0,.465.26q.273.116.622.253a8.658,8.658,0,0,1,.834.366,2.86,2.86,0,0,1,.629.424,1.656,1.656,0,0,1,.4.543,1.753,1.753,0,0,1,.14.731,1.725,1.725,0,0,1-.229.9,1.963,1.963,0,0,1-.612.636,2.8,2.8,0,0,1-.882.376,4.354,4.354,0,0,1-1.046.123A3.971,3.971,0,0,1,114.912-.253ZM130.122,0H129V-1.094h-.027A2.347,2.347,0,0,1,126.82.164a2.3,2.3,0,0,1-1.637-.554,1.918,1.918,0,0,1-.591-1.47q0-1.962,2.311-2.283l2.1-.294q0-1.784-1.442-1.784a3.446,3.446,0,0,0-2.283.861V-6.508a4.338,4.338,0,0,1,2.379-.656q2.468,0,2.468,2.611ZM129-3.541l-1.688.232a2.741,2.741,0,0,0-1.176.386,1.114,1.114,0,0,0-.4.981,1.068,1.068,0,0,0,.366.837,1.413,1.413,0,0,0,.974.325,1.8,1.8,0,0,0,1.377-.584A2.088,2.088,0,0,0,129-2.844Zm6.645,3.288v-1.2a3.318,3.318,0,0,0,2.017.677q1.477,0,1.477-.984a.854.854,0,0,0-.126-.475,1.26,1.26,0,0,0-.342-.345,2.631,2.631,0,0,0-.506-.27q-.291-.12-.625-.25a8.056,8.056,0,0,1-.817-.373,2.468,2.468,0,0,1-.588-.424,1.577,1.577,0,0,1-.355-.537,1.9,1.9,0,0,1-.12-.7,1.673,1.673,0,0,1,.226-.872,2,2,0,0,1,.6-.636,2.805,2.805,0,0,1,.858-.386,3.805,3.805,0,0,1,.995-.13,4.016,4.016,0,0,1,1.627.314v1.135a3.171,3.171,0,0,0-1.777-.506,2.078,2.078,0,0,0-.567.072,1.389,1.389,0,0,0-.434.2.932.932,0,0,0-.28.311.819.819,0,0,0-.1.4.959.959,0,0,0,.1.458,1.008,1.008,0,0,0,.291.328,2.221,2.221,0,0,0,.465.26q.273.116.622.253a8.658,8.658,0,0,1,.834.366,2.86,2.86,0,0,1,.629.424,1.656,1.656,0,0,1,.4.543,1.753,1.753,0,0,1,.14.731,1.725,1.725,0,0,1-.229.9,1.963,1.963,0,0,1-.612.636,2.8,2.8,0,0,1-.882.376,4.354,4.354,0,0,1-1.046.123A3.971,3.971,0,0,1,135.646-.253Zm9.29.417a3.247,3.247,0,0,1-2.478-.981,3.634,3.634,0,0,1-.926-2.6,3.785,3.785,0,0,1,.964-2.755,3.465,3.465,0,0,1,2.6-.991,3.14,3.14,0,0,1,2.444.964,3.822,3.822,0,0,1,.878,2.673,3.761,3.761,0,0,1-.947,2.683A3.317,3.317,0,0,1,144.936.164Zm.082-6.385a2.132,2.132,0,0,0-1.709.735,3.018,3.018,0,0,0-.629,2.027,2.854,2.854,0,0,0,.636,1.962,2.161,2.161,0,0,0,1.7.718,2.049,2.049,0,0,0,1.671-.7,3.055,3.055,0,0,0,.584-2,3.108,3.108,0,0,0-.584-2.023A2.04,2.04,0,0,0,145.018-6.221ZM156.188,0h-1.121V-1.189h-.027A2.588,2.588,0,0,1,152.633.164a2.615,2.615,0,0,1-2.109-.94,3.856,3.856,0,0,1-.79-2.56,4.2,4.2,0,0,1,.875-2.782,2.886,2.886,0,0,1,2.331-1.046,2.244,2.244,0,0,1,2.1,1.135h.027v-4.334h1.121Zm-1.121-3.165V-4.2a2,2,0,0,0-.561-1.436,1.88,1.88,0,0,0-1.422-.588,1.936,1.936,0,0,0-1.613.752,3.3,3.3,0,0,0-.588,2.078,2.964,2.964,0,0,0,.564,1.911,1.843,1.843,0,0,0,1.514.7,1.915,1.915,0,0,0,1.521-.677A2.521,2.521,0,0,0,155.066-3.165ZM163.468,0h-1.121V-1.094h-.027A2.347,2.347,0,0,1,160.166.164a2.3,2.3,0,0,1-1.637-.554,1.918,1.918,0,0,1-.591-1.47q0-1.962,2.311-2.283l2.1-.294q0-1.784-1.442-1.784a3.446,3.446,0,0,0-2.283.861V-6.508A4.338,4.338,0,0,1,161-7.164q2.468,0,2.468,2.611Zm-1.121-3.541-1.688.232a2.741,2.741,0,0,0-1.176.386,1.114,1.114,0,0,0-.4.981,1.068,1.068,0,0,0,.366.837,1.413,1.413,0,0,0,.974.325,1.8,1.8,0,0,0,1.377-.584,2.088,2.088,0,0,0,.543-1.48ZM166.7,0H165.58V-10.363H166.7Zm7.9-3.22h-4.942a2.618,2.618,0,0,0,.629,1.8,2.168,2.168,0,0,0,1.654.636,3.439,3.439,0,0,0,2.174-.779V-.506a4.063,4.063,0,0,1-2.44.67A2.959,2.959,0,0,1,169.34-.79a3.9,3.9,0,0,1-.848-2.683,3.828,3.828,0,0,1,.926-2.663,2.97,2.97,0,0,1,2.3-1.029,2.632,2.632,0,0,1,2.126.889,3.705,3.705,0,0,1,.752,2.468Zm-1.148-.95a2.281,2.281,0,0,0-.468-1.511,1.6,1.6,0,0,0-1.282-.54,1.811,1.811,0,0,0-1.347.567,2.575,2.575,0,0,0-.684,1.483Zm2.42,3.917v-1.2a3.318,3.318,0,0,0,2.017.677q1.477,0,1.477-.984a.854.854,0,0,0-.126-.475,1.26,1.26,0,0,0-.342-.345,2.631,2.631,0,0,0-.506-.27q-.291-.12-.625-.25a8.056,8.056,0,0,1-.817-.373,2.468,2.468,0,0,1-.588-.424A1.577,1.577,0,0,1,176-4.437a1.9,1.9,0,0,1-.12-.7,1.673,1.673,0,0,1,.226-.872,2,2,0,0,1,.6-.636,2.805,2.805,0,0,1,.858-.386,3.805,3.805,0,0,1,.995-.13,4.016,4.016,0,0,1,1.627.314v1.135a3.171,3.171,0,0,0-1.777-.506,2.078,2.078,0,0,0-.567.072,1.389,1.389,0,0,0-.434.2.932.932,0,0,0-.28.311.819.819,0,0,0-.1.4.959.959,0,0,0,.1.458,1.008,1.008,0,0,0,.291.328,2.221,2.221,0,0,0,.465.26q.273.116.622.253a8.658,8.658,0,0,1,.834.366,2.86,2.86,0,0,1,.629.424,1.656,1.656,0,0,1,.4.543,1.753,1.753,0,0,1,.14.731,1.725,1.725,0,0,1-.229.9,1.963,1.963,0,0,1-.612.636,2.8,2.8,0,0,1-.882.376,4.354,4.354,0,0,1-1.046.123A3.971,3.971,0,0,1,175.868-.253ZM191.078,0h-1.121V-1.094h-.027A2.347,2.347,0,0,1,187.776.164a2.3,2.3,0,0,1-1.637-.554,1.918,1.918,0,0,1-.591-1.47q0-1.962,2.311-2.283l2.1-.294q0-1.784-1.442-1.784a3.446,3.446,0,0,0-2.283.861V-6.508a4.338,4.338,0,0,1,2.379-.656q2.468,0,2.468,2.611Zm-1.121-3.541-1.688.232a2.741,2.741,0,0,0-1.176.386,1.114,1.114,0,0,0-.4.981,1.068,1.068,0,0,0,.366.837,1.413,1.413,0,0,0,.974.325,1.8,1.8,0,0,0,1.377-.584,2.088,2.088,0,0,0,.543-1.48ZM199,0H197.88V-3.992q0-2.229-1.627-2.229a1.765,1.765,0,0,0-1.391.632,2.344,2.344,0,0,0-.55,1.6V0H193.19V-7h1.121v1.162h.027a2.526,2.526,0,0,1,2.3-1.326,2.142,2.142,0,0,1,1.757.742A3.3,3.3,0,0,1,199-4.279Zm5.359-.068a2.162,2.162,0,0,1-1.046.219q-1.839,0-1.839-2.051V-6.043h-1.2V-7h1.2V-8.709l1.121-.362V-7h1.764v.957H202.6V-2.1a1.635,1.635,0,0,0,.239,1,.955.955,0,0,0,.793.3,1.179,1.179,0,0,0,.731-.232Zm7.123-3.151h-4.942a2.618,2.618,0,0,0,.629,1.8,2.168,2.168,0,0,0,1.654.636A3.439,3.439,0,0,0,211-1.559V-.506a4.063,4.063,0,0,1-2.44.67,2.959,2.959,0,0,1-2.331-.954,3.9,3.9,0,0,1-.848-2.683,3.828,3.828,0,0,1,.926-2.663,2.97,2.97,0,0,1,2.3-1.029,2.632,2.632,0,0,1,2.126.889,3.705,3.705,0,0,1,.752,2.468Zm-1.148-.95a2.281,2.281,0,0,0-.468-1.511,1.6,1.6,0,0,0-1.282-.54,1.811,1.811,0,0,0-1.347.567,2.575,2.575,0,0,0-.684,1.483ZM213.568.15a.726.726,0,0,1-.537-.226.742.742,0,0,1-.222-.54.754.754,0,0,1,.222-.543.72.72,0,0,1,.537-.229.739.739,0,0,1,.547.229.748.748,0,0,1,.226.543.737.737,0,0,1-.226.54A.745.745,0,0,1,213.568.15Z" transform="translate(2524.5 114.598)"/><g class="f" transform="translate(2214 1.5)"><g transform="translate(-753.5 -470.5)"><line class="g" y2="4" transform="translate(753.5 470.5)"/></g><g transform="translate(-752.5 -470.5)"><line class="g" y2="4" transform="translate(753.5 470.5)"/></g><g transform="translate(-753.5 -462.5)"><line class="g" y2="4" transform="translate(753.5 470.5)"/></g><g transform="translate(-752.5 -462.5)"><line class="g" y2="4" transform="translate(753.5 470.5)"/></g><g transform="translate(-753.5 -454.5)"><line class="g" y2="4" transform="translate(753.5 470.5)"/></g><g transform="translate(-752.5 -454.5)"><line class="g" y2="4" transform="translate(753.5 470.5)"/></g><g transform="translate(-753.5 -446.5)"><line class="g" y2="4" transform="translate(753.5 470.5)"/></g><g transform="translate(-752.5 -446.5)"><line class="g" y2="4" transform="translate(753.5 470.5)"/></g><g transform="translate(-753.5 -438.5)"><line class="g" y2="4" transform="translate(753.5 470.5)"/></g><g transform="translate(-752.5 -438.5)"><line class="g" y2="4" transform="translate(753.5 470.5)"/></g><g transform="translate(-753.5 -430.5)"><line class="g" y2="4" transform="translate(753.5 470.5)"/></g><g transform="translate(-752.5 -430.5)"><line class="g" y2="4" transform="translate(753.5 470.5)"/></g><g transform="translate(-753.5 -422.5)"><line class="g" y2="4" transform="translate(753.5 470.5)"/></g><g transform="translate(-752.5 -422.5)"><line class="g" y2="4" transform="translate(753.5 470.5)"/></g><g transform="translate(-753.5 -414.5)"><line class="g" y2="4" transform="translate(753.5 470.5)"/></g><g transform="translate(-752.5 -414.5)"><line class="g" y2="4" transform="translate(753.5 470.5)"/></g><g transform="translate(-753.5 -406.5)"><line class="g" y2="4" transform="translate(753.5 470.5)"/></g><g transform="translate(-752.5 -406.5)"><line class="g" y2="4" transform="translate(753.5 470.5)"/></g><g transform="translate(-753.5 -398.5)"><line class="g" y2="4" transform="translate(753.5 470.5)"/></g><g transform="translate(-752.5 -398.5)"><line class="g" y2="4" transform="translate(753.5 470.5)"/></g><g transform="translate(-753.5 -390.5)"><line class="g" y2="4" transform="translate(753.5 470.5)"/></g><g transform="translate(-752.5 -390.5)"><line class="g" y2="4" transform="translate(753.5 470.5)"/></g><g transform="translate(-753.5 -382.5)"><line class="g" y2="4" transform="translate(753.5 470.5)"/></g><g transform="translate(-752.5 -382.5)"><line class="g" y2="4" transform="translate(753.5 470.5)"/></g><g transform="translate(-753.5 -374.5)"><line class="g" y2="4" transform="translate(753.5 470.5)"/></g><g transform="translate(-752.5 -374.5)"><line class="g" y2="4" transform="translate(753.5 470.5)"/></g><g transform="translate(-753.5 -366.5)"><line class="g" y2="4" transform="translate(753.5 470.5)"/></g><g transform="translate(-752.5 -366.5)"><line class="g" y2="4" transform="translate(753.5 470.5)"/></g><g transform="translate(-753.5 -358.5)"><line class="g" y2="4" transform="translate(753.5 470.5)"/></g><g transform="translate(-752.5 -358.5)"><line class="g" y2="4" transform="translate(753.5 470.5)"/></g><g transform="translate(-753.5 -350.5)"><line class="g" y2="4" transform="translate(753.5 470.5)"/></g><g transform="translate(-752.5 -350.5)"><line class="g" y2="4" transform="translate(753.5 470.5)"/></g><g transform="translate(-753.5 -342.5)"><line class="g" y2="4" transform="translate(753.5 470.5)"/></g><g transform="translate(-752.5 -342.5)"><line class="g" y2="4" transform="translate(753.5 470.5)"/></g></g><g class="h" transform="translate(2227 41.5)"><g transform="translate(-753.5 -470.5)"><line class="g" y2="4" transform="translate(753.5 470.5)"/></g><g transform="translate(-752.5 -470.5)"><line class="g" y2="4" transform="translate(753.5 470.5)"/></g><g transform="translate(-753.5 -462.5)"><line class="g" y2="4" transform="translate(753.5 470.5)"/></g><g transform="translate(-752.5 -462.5)"><line class="g" y2="4" transform="translate(753.5 470.5)"/></g><g transform="translate(-753.5 -454.5)"><line class="g" y2="4" transform="translate(753.5 470.5)"/></g><g transform="translate(-752.5 -454.5)"><line class="g" y2="4" transform="translate(753.5 470.5)"/></g><g transform="translate(-753.5 -446.5)"><line class="g" y2="4" transform="translate(753.5 470.5)"/></g><g transform="translate(-752.5 -446.5)"><line class="g" y2="4" transform="translate(753.5 470.5)"/></g><g transform="translate(-753.5 -438.5)"><line class="g" y2="4" transform="translate(753.5 470.5)"/></g><g transform="translate(-752.5 -438.5)"><line class="g" y2="4" transform="translate(753.5 470.5)"/></g><g transform="translate(-753.5 -430.5)"><line class="g" y2="4" transform="translate(753.5 470.5)"/></g><g transform="translate(-752.5 -430.5)"><line class="g" y2="4" transform="translate(753.5 470.5)"/></g><g transform="translate(-753.5 -422.5)"><line class="g" y2="4" transform="translate(753.5 470.5)"/></g><g transform="translate(-752.5 -422.5)"><line class="g" y2="4" transform="translate(753.5 470.5)"/></g><g transform="translate(-753.5 -414.5)"><line class="g" y2="4" transform="translate(753.5 470.5)"/></g><g transform="translate(-752.5 -414.5)"><line class="g" y2="4" transform="translate(753.5 470.5)"/></g><g transform="translate(-753.5 -406.5)"><line class="g" y2="4" transform="translate(753.5 470.5)"/></g><g transform="translate(-752.5 -406.5)"><line class="g" y2="4" transform="translate(753.5 470.5)"/></g><g transform="translate(-753.5 -398.5)"><line class="g" y2="4" transform="translate(753.5 470.5)"/></g><g transform="translate(-752.5 -398.5)"><line class="g" y2="4" transform="translate(753.5 470.5)"/></g></g><g class="f" transform="translate(2524 0.5)"><g transform="translate(-753.5 -470.5)"><line class="i" y2="4" transform="translate(753.5 470.5)"/></g><g transform="translate(-752.5 -470.5)"><line class="i" y2="4" transform="translate(753.5 470.5)"/></g><g transform="translate(-753.5 -462.5)"><line class="i" y2="4" transform="translate(753.5 470.5)"/></g><g transform="translate(-752.5 -462.5)"><line class="i" y2="4" transform="translate(753.5 470.5)"/></g><g transform="translate(-753.5 -454.5)"><line class="i" y2="4" transform="translate(753.5 470.5)"/></g><g transform="translate(-752.5 -454.5)"><line class="i" y2="4" transform="translate(753.5 470.5)"/></g><g transform="translate(-753.5 -446.5)"><line class="i" y2="4" transform="translate(753.5 470.5)"/></g><g transform="translate(-752.5 -446.5)"><line class="i" y2="4" transform="translate(753.5 470.5)"/></g><g transform="translate(-753.5 -438.5)"><line class="i" y2="4" transform="translate(753.5 470.5)"/></g><g transform="translate(-752.5 -438.5)"><line class="i" y2="4" transform="translate(753.5 470.5)"/></g><g transform="translate(-753.5 -430.5)"><line class="i" y2="4" transform="translate(753.5 470.5)"/></g><g transform="translate(-752.5 -430.5)"><line class="i" y2="4" transform="translate(753.5 470.5)"/></g><g transform="translate(-753.5 -422.5)"><line class="i" y2="4" transform="translate(753.5 470.5)"/></g><g transform="translate(-752.5 -422.5)"><line class="i" y2="4" transform="translate(753.5 470.5)"/></g><g transform="translate(-753.5 -414.5)"><line class="i" y2="4" transform="translate(753.5 470.5)"/></g><g transform="translate(-752.5 -414.5)"><line class="i" y2="4" transform="translate(753.5 470.5)"/></g><g transform="translate(-753.5 -406.5)"><line class="i" y2="4" transform="translate(753.5 470.5)"/></g><g transform="translate(-752.5 -406.5)"><line class="i" y2="4" transform="translate(753.5 470.5)"/></g><g transform="translate(-753.5 -398.5)"><line class="i" y2="4" transform="translate(753.5 470.5)"/></g><g transform="translate(-752.5 -398.5)"><line class="i" y2="4" transform="translate(753.5 470.5)"/></g><g transform="translate(-753.5 -390.5)"><line class="i" y2="4" transform="translate(753.5 470.5)"/></g><g transform="translate(-752.5 -390.5)"><line class="i" y2="4" transform="translate(753.5 470.5)"/></g><g transform="translate(-753.5 -382.5)"><line class="i" y2="4" transform="translate(753.5 470.5)"/></g><g transform="translate(-752.5 -382.5)"><line class="i" y2="4" transform="translate(753.5 470.5)"/></g><g transform="translate(-753.5 -374.5)"><line class="i" y2="4" transform="translate(753.5 470.5)"/></g><g transform="translate(-752.5 -374.5)"><line class="i" y2="4" transform="translate(753.5 470.5)"/></g><g transform="translate(-753.5 -366.5)"><line class="i" y2="4" transform="translate(753.5 470.5)"/></g><g transform="translate(-752.5 -366.5)"><line class="i" y2="4" transform="translate(753.5 470.5)"/></g><g transform="translate(-753.5 -358.5)"><line class="i" y2="4" transform="translate(753.5 470.5)"/></g><g transform="translate(-752.5 -358.5)"><line class="i" y2="4" transform="translate(753.5 470.5)"/></g><g transform="translate(-753.5 -350.5)"><line class="i" y2="4" transform="translate(753.5 470.5)"/></g><g transform="translate(-752.5 -350.5)"><line class="i" y2="4" transform="translate(753.5 470.5)"/></g><g transform="translate(-753.5 -342.5)"><line class="i" y2="4" transform="translate(753.5 470.5)"/></g><g transform="translate(-752.5 -342.5)"><line class="i" y2="4" transform="translate(753.5 470.5)"/></g></g></g></svg>