<?xml version="1.0" standalone="no"?><!-- Generator: Gravit.io --><svg xmlns="http://www.w3.org/2000/svg" xmlns:xlink="http://www.w3.org/1999/xlink" style="isolation:isolate" viewBox="0 0 845.209 400" width="845.209" height="400"><g id="null"><g opacity="0.151"><path d=" M 735.571 51.284 L 704.635 74.596 L 742.786 89.609 L 735.571 51.284 Z " fill="rgb(255,255,255)"/></g><g opacity="0.151"><path d=" M 623.623 133.832 C 623.623 126.314 629.728 120.21 637.246 120.21 C 644.765 120.21 650.869 126.314 650.869 133.832 C 650.869 141.351 644.765 147.455 637.246 147.455 C 629.728 147.455 623.623 141.351 623.623 133.832 Z " fill="rgb(255,255,255)"/></g><g opacity="0.151"><rect x="86.498" y="299.251" width="14.596" height="14.596" transform="matrix(1,0,0,1,0,0)" fill="rgb(255,255,255)"/></g><g opacity="0.151"><rect x="15.464" y="137.725" width="22.38" height="22.38" transform="matrix(0.5,0.866,-0.866,0.5,142.291,51.374)" fill="rgb(255,255,255)"/></g><g opacity="0.151"><path d=" M 542.6 267.831 L 532.568 305.25 L 571.881 293.597 L 542.6 267.831 Z " fill="none" vector-effect="non-scaling-stroke" stroke-width="3.893" stroke="rgb(255,255,255)" stroke-linejoin="miter" stroke-linecap="butt" stroke-miterlimit="4"/></g><g id="null" style="opacity:0.151;"><g opacity="0.151"><path d=" M 123.474 51.123 C 123.474 43.604 129.578 37.5 137.097 37.5 C 144.615 37.5 150.719 43.604 150.719 51.123 C 150.719 58.641 144.615 64.746 137.097 64.746 C 129.578 64.746 123.474 58.641 123.474 51.123 Z " fill="none"/></g><g opacity="0.151"><path d=" M 124.933 51.123 C 124.933 44.41 130.383 38.96 137.097 38.96 C 143.81 38.96 149.26 44.41 149.26 51.123 C 149.26 57.836 143.81 63.286 137.097 63.286 C 130.383 63.286 124.933 57.836 124.933 51.123 Z " fill="none" vector-effect="non-scaling-stroke" stroke-width="2.919" stroke="rgb(255,255,255)" stroke-linejoin="miter" stroke-linecap="butt" stroke-miterlimit="4"/></g></g><g id="null" style="opacity:0.179;"><clipPath id="_clipPath_aacZVmrjWNS9kEK4MVm9A2hUpNp0rJCF"><path d=" M 619.731 360.925 L 621.444 355.261 C 624.082 356.683 627.031 357.428 630.027 357.431 C 631.498 357.568 632.966 357.152 634.146 356.264 C 635.495 355.299 636.427 354.668 636.799 353.094 C 637.077 352.127 636.892 351.085 636.297 350.273 C 635.775 349.367 634.708 348.963 632.989 347.85 L 630.024 346.521 C 627.592 344.917 626.716 344.432 625.898 343.018 C 625.041 341.006 624.818 338.781 625.26 336.64 C 625.86 334.101 626.88 333.429 629.112 331.786 C 631.345 330.142 635.048 329.463 637.903 329.463 C 640.981 329.432 644.049 329.818 647.023 330.61 L 645.429 335.992 C 643.406 334.967 641.177 334.413 638.909 334.371 C 637.417 334.311 635.926 334.518 634.507 334.983 C 633.188 335.36 632.229 336.498 632.079 337.861 C 631.819 338.96 632.371 340.012 634.145 341.184 L 637.657 343.276 C 640.131 344.895 642.343 346.412 643.133 347.85 C 644.064 349.794 644.354 351.983 643.96 354.103 C 643.357 356.772 641.682 359.076 639.329 360.473 C 636.798 362.208 632.038 362.5 628.543 362.5 C 625.55 362.361 622.587 361.831 619.731 360.925 Z  M 657.163 348.099 L 648.91 329.679 L 656.305 329.679 L 661.404 342.874 L 672.957 329.679 L 681.398 329.679 L 664.457 348.506 L 661.409 361.986 L 654.249 361.986 L 657.163 348.099 Z  M 683.765 329.644 L 692.793 329.644 L 700.291 353.701 L 706.041 329.644 L 712.95 329.644 L 705.524 362 L 696.183 362 L 688.567 336.7 L 683.228 362 L 676.065 362 L 683.765 329.644 Z  M 714.655 356.643 C 711.507 351.376 711.365 349.498 711.943 343.931 C 712.521 338.364 714.719 336.215 718.283 333.186 C 721.847 330.157 727.087 328.939 732.264 328.939 C 735.679 328.972 739.076 329.432 742.376 330.311 L 741.147 336.007 C 736.993 334.45 734.717 333.829 732.264 333.926 C 725.403 334.198 722.659 337.465 721.633 338.777 C 720.608 340.089 719.698 340.826 719.145 344.726 C 718.593 348.626 719.663 350.552 720.823 352.965 C 721.983 355.378 725.883 357.02 729.514 357.02 C 732.638 357.02 732.809 356.753 736.831 354.838 L 735.664 361.207 C 726.826 363.056 717.8 361.908 714.651 356.642 L 714.655 356.643 Z  M 745.15 329.134 L 752.456 329.134 L 749.406 341.881 L 763.775 341.881 L 766.838 328.817 L 773.668 328.817 L 766.842 361.276 L 759.431 361.276 L 762.687 347.407 L 748.344 347.407 L 745.15 361.276 L 737.995 361.276 L 745.15 329.134 Z  M 776.332 329.224 L 788.377 329.224 C 791.545 329.224 794.725 329.575 796.707 331.475 C 798.703 333.322 799.472 336.144 798.69 338.748 C 796.707 345.073 791.404 344.369 788.641 344.77 C 789.822 344.847 790.928 345.377 791.728 346.25 C 793.115 347.735 795.945 361.18 795.945 361.18 L 788.641 361.18 C 788.641 361.18 786.662 351.171 785.345 349.237 C 784.733 348.336 784.469 347.963 783.572 347.963 L 779.514 347.963 L 776.558 360.929 L 769.301 360.929 L 776.332 329.222 L 776.332 329.224 Z  M 783.839 342.527 C 789.73 342.527 791.201 340.275 791.571 338.468 C 792.446 334.177 787.824 334.213 785.108 334.213 L 782.469 334.213 L 780.814 342.527 L 783.839 342.527 Z  M 801.408 356.078 C 799.365 352.909 798.545 348.796 799.776 343.585 C 800.853 338.915 803.559 334.781 807.407 331.925 C 810.979 329.154 814.617 328.441 819.304 328.441 C 823.974 328.441 829.316 330.29 831.388 333.42 C 833.772 337.314 834.454 342.016 833.275 346.427 C 832.017 351.757 830.018 354.249 826.468 357.373 C 822.919 360.497 817.623 361.516 812.818 361.516 C 808.236 361.516 803.449 359.246 801.407 356.077 L 801.408 356.078 Z  M 821.018 353.765 C 823.564 351.537 825.294 348.524 825.934 345.202 C 826.947 340.912 826.323 337.505 824.322 335.471 C 822.32 333.438 819.512 333.368 818.105 333.368 C 815.368 333.635 812.806 334.832 810.844 336.758 C 808.524 339.209 807.046 342.336 806.624 345.685 C 806.173 347.974 806.262 350.337 806.885 352.587 C 807.267 353.602 809.883 356.583 813.112 356.583 C 816.489 356.583 818.602 356.194 821.019 353.761 L 821.018 353.765 Z " fill="rgb(255,255,255)"/></clipPath><g clip-path="url(#_clipPath_aacZVmrjWNS9kEK4MVm9A2hUpNp0rJCF)"><g id="null" style="opacity:0.179;"><g opacity="0.179"><path d=" M 614.866 367.365 L 838.668 367.365 L 838.668 323.578 L 614.866 323.578 L 614.866 367.365 Z " fill="rgb(255,255,255)"/></g></g></g></g></g></svg>