<svg xmlns="http://www.w3.org/2000/svg" xmlns:xlink="http://www.w3.org/1999/xlink" viewBox="0 0 652 206"><defs><style>.a{clip-path:url(#b);}.b{fill:#fb1010;}.b,.c,.d{stroke:rgba(0,0,0,0);}.c{fill:#2aa213;}.d{fill:#b1b2b2;}</style><clipPath id="b"><rect width="652" height="206"/></clipPath></defs><g id="a" class="a"><path class="b" d="M8.274,0H5.88L2.562-7.826q.126,1.036.189,1.876t.063,2V0H1.134V-9.674H3.472l3.374,7.84q-.084-.56-.168-1.477T6.594-5.138V-9.674h1.68ZM17.6-3.164a3.6,3.6,0,0,1-.413,1.743,2.907,2.907,0,0,1-1.232,1.2A4.15,4.15,0,0,1,13.986.21a3.617,3.617,0,0,1-2.66-.917A3.306,3.306,0,0,1,10.4-3.164v-6.51H12.25v6.412a2.317,2.317,0,0,0,.427,1.526,1.621,1.621,0,0,0,1.309.5,1.639,1.639,0,0,0,1.323-.5,2.317,2.317,0,0,0,.427-1.526V-9.674H17.6ZM26.866,0H24.472L21.154-7.826q.126,1.036.189,1.876t.063,2V0h-1.68V-9.674h2.338l3.374,7.84q-.084-.56-.168-1.477t-.084-1.827V-9.674h1.68ZM32.83-9.884a4.3,4.3,0,0,1,1.54.252,4.664,4.664,0,0,1,1.288.77L34.72-7.77a2.824,2.824,0,0,0-1.792-.686,2.056,2.056,0,0,0-1.729.868,4.575,4.575,0,0,0-.651,2.73,4.594,4.594,0,0,0,.644,2.7,2.04,2.04,0,0,0,1.736.882,2.451,2.451,0,0,0,1.022-.2,5.169,5.169,0,0,0,.952-.581L35.77-.966a3.969,3.969,0,0,1-1.239.84A4.043,4.043,0,0,1,32.858.21a4.2,4.2,0,0,1-2.226-.588,3.875,3.875,0,0,1-1.5-1.729A6.471,6.471,0,0,1,28.6-4.858a6.143,6.143,0,0,1,.553-2.716A4.026,4.026,0,0,1,30.667-9.3,4.055,4.055,0,0,1,32.83-9.884ZM42.21,0l-.6-2.24H38.4L37.8,0H35.882l3.01-9.674h2.282L44.17,0ZM38.766-3.64H41.23L40-8.26Z" transform="translate(47 153)"/><path class="c" d="M3.92-9.884A4.895,4.895,0,0,1,5.7-9.59a4.518,4.518,0,0,1,1.414.9L6.2-7.644a3.6,3.6,0,0,0-1.043-.63,3.2,3.2,0,0,0-1.127-.2,1.8,1.8,0,0,0-1.085.3.987.987,0,0,0-.413.847,1.052,1.052,0,0,0,.161.6,1.491,1.491,0,0,0,.581.448,8.5,8.5,0,0,0,1.246.462A5.654,5.654,0,0,1,6.671-4.7a2.507,2.507,0,0,1,.721,1.939,2.743,2.743,0,0,1-.441,1.54A2.924,2.924,0,0,1,5.684-.168,4.677,4.677,0,0,1,3.724.21,5.2,5.2,0,0,1,1.743-.147,4.624,4.624,0,0,1,.238-1.12L1.19-2.184a4.3,4.3,0,0,0,1.162.721,3.5,3.5,0,0,0,1.33.245A2.051,2.051,0,0,0,4.97-1.6,1.266,1.266,0,0,0,5.46-2.66a1.3,1.3,0,0,0-.168-.693,1.457,1.457,0,0,0-.574-.49A6.993,6.993,0,0,0,3.542-4.3,5.519,5.519,0,0,1,1.316-5.446,2.359,2.359,0,0,1,.63-7.21a2.385,2.385,0,0,1,.42-1.4,2.767,2.767,0,0,1,1.169-.938A4.114,4.114,0,0,1,3.92-9.884Zm10.668.21-.2,1.372h-3.57v2.7H13.93v1.372H10.822v2.842h3.822V0H8.974V-9.674ZM25.564,0H23.758l-.252-4.046q-.126-2.17-.126-3.444v-.5L21.616-1.05h-1.75L17.99-8.008q.028.924.028,1.4,0,1.274-.084,2.618L17.7,0H15.9l.77-9.674h2.38L20.776-2.9,22.4-9.674h2.408ZM30.2-9.674a4.744,4.744,0,0,1,2.891.77,2.7,2.7,0,0,1,1.029,2.31,2.869,2.869,0,0,1-1.036,2.415,4.375,4.375,0,0,1-2.758.8H29.19V0H27.342V-9.674ZM30.184-4.76a2.322,2.322,0,0,0,1.5-.413,1.745,1.745,0,0,0,.5-1.421q0-1.722-2-1.722H29.19V-4.76Zm8.456.882H37.464V0H35.616V-9.674H38.5q3.836,0,3.836,2.842a2.573,2.573,0,0,1-.476,1.6,3.3,3.3,0,0,1-1.484,1.022L42.91,0H40.782Zm-1.176-1.33h1.148a2.022,2.022,0,0,0,1.337-.385A1.538,1.538,0,0,0,40.4-6.832a1.342,1.342,0,0,0-.469-1.141,2.448,2.448,0,0,0-1.477-.357h-.994Zm12.32-4.466-.2,1.372h-3.57v2.7h3.108v1.372H46.018v2.842H49.84V0H44.17V-9.674Z" transform="translate(362 153)"/><path class="d" d="M8.25.258A6.928,6.928,0,0,1,2.917-1.9a7.931,7.931,0,0,1-2-5.618,8.4,8.4,0,0,1,2.041-5.93A7.171,7.171,0,0,1,8.5-15.662a6.774,6.774,0,0,1,5.226,2.148A7.958,7.958,0,0,1,15.705-7.9a8.429,8.429,0,0,1-2.03,5.962A7.04,7.04,0,0,1,8.25.258Zm.118-13.675a4.286,4.286,0,0,0-3.443,1.579A6.247,6.247,0,0,0,3.6-7.681,6.307,6.307,0,0,0,4.888-3.545,4.156,4.156,0,0,0,8.261-1.977,4.355,4.355,0,0,0,11.752-3.47,6.229,6.229,0,0,0,13.03-7.648a6.531,6.531,0,0,0-1.241-4.265A4.2,4.2,0,0,0,8.368-13.417Zm26.093.183H30.035V0H27.479V-13.234H23.063V-15.4h11.4Zm3.233-.075a1.5,1.5,0,0,1-1.047-.4,1.308,1.308,0,0,1-.435-1.01,1.341,1.341,0,0,1,.435-1.021,1.476,1.476,0,0,1,1.047-.408,1.522,1.522,0,0,1,1.074.408,1.334,1.334,0,0,1,.44,1.021,1.315,1.315,0,0,1-.44.994A1.511,1.511,0,0,1,37.694-13.31ZM38.93,0H36.438V-11H38.93Zm9.056-.118a4.319,4.319,0,0,1-1.923.365q-3.2,0-3.2-3.072v-6.22H41.024V-11h1.837v-2.546l2.492-.709V-11h2.632v1.955H45.354v5.5a2.167,2.167,0,0,0,.354,1.4,1.472,1.472,0,0,0,1.182.419,1.713,1.713,0,0,0,1.1-.365ZM59.727,0H57.234V-1.74h-.043a3.587,3.587,0,0,1-3.373,2q-3.9,0-3.9-4.684V-11h2.492v6.316q0,2.965,2.288,2.965a2.312,2.312,0,0,0,1.821-.816,3.129,3.129,0,0,0,.714-2.138V-11h2.492Zm5.747,0h-2.5V-16.285h2.5Zm8.121.258a5.452,5.452,0,0,1-4.066-1.542,5.569,5.569,0,0,1-1.52-4.087A5.794,5.794,0,0,1,69.593-9.7a5.826,5.826,0,0,1,4.27-1.558,5.277,5.277,0,0,1,4.018,1.515,5.851,5.851,0,0,1,1.439,4.2,5.765,5.765,0,0,1-1.552,4.216A5.576,5.576,0,0,1,73.595.258Zm.118-9.528A2.845,2.845,0,0,0,71.4-8.25a4.273,4.273,0,0,0-.849,2.814,4.025,4.025,0,0,0,.859,2.723,2.886,2.886,0,0,0,2.3.994A2.739,2.739,0,0,0,75.974-2.7a4.327,4.327,0,0,0,.79-2.782,4.393,4.393,0,0,0-.79-2.8A2.726,2.726,0,0,0,73.713-9.271Z" transform="translate(47 24)"/><path class="d" d="M.914-.325V-1.872A4.266,4.266,0,0,0,3.507-1q1.9,0,1.9-1.266a1.1,1.1,0,0,0-.163-.611A1.62,1.62,0,0,0,4.8-3.322a3.383,3.383,0,0,0-.65-.347q-.374-.154-.8-.321A10.357,10.357,0,0,1,2.3-4.469a3.173,3.173,0,0,1-.756-.545,2.028,2.028,0,0,1-.457-.69,2.441,2.441,0,0,1-.154-.905,2.15,2.15,0,0,1,.29-1.121A2.572,2.572,0,0,1,2-8.547a3.607,3.607,0,0,1,1.1-.5,4.893,4.893,0,0,1,1.279-.167,5.164,5.164,0,0,1,2.092.4v1.459A4.077,4.077,0,0,0,4.184-8a2.671,2.671,0,0,0-.729.092,1.786,1.786,0,0,0-.558.259,1.2,1.2,0,0,0-.36.4,1.053,1.053,0,0,0-.127.514,1.233,1.233,0,0,0,.127.589,1.3,1.3,0,0,0,.374.422,2.855,2.855,0,0,0,.6.334q.352.149.8.325a11.131,11.131,0,0,1,1.072.47,3.678,3.678,0,0,1,.809.545,2.129,2.129,0,0,1,.514.7,2.254,2.254,0,0,1,.18.94,2.217,2.217,0,0,1-.294,1.16A2.523,2.523,0,0,1,5.8-.431,3.6,3.6,0,0,1,4.667.053,5.6,5.6,0,0,1,3.322.211,5.106,5.106,0,0,1,.914-.325ZM16.374,0H14.933V-1.424H14.9A2.96,2.96,0,0,1,12.12.211Q8.9.211,8.9-3.621V-9h1.433v5.15Q10.336-1,12.516-1a2.205,2.205,0,0,0,1.736-.778,2.976,2.976,0,0,0,.681-2.035V-9h1.441ZM20.76-1.3h-.035V0H19.283V-13.324h1.441v5.906h.035a3.408,3.408,0,0,1,3.111-1.793A3.3,3.3,0,0,1,26.583-8a4.99,4.99,0,0,1,.98,3.239,5.578,5.578,0,0,1-1.1,3.617A3.658,3.658,0,0,1,23.458.211,2.96,2.96,0,0,1,20.76-1.3Zm-.035-3.63v1.257A2.676,2.676,0,0,0,21.45-1.78,2.408,2.408,0,0,0,23.291-1a2.413,2.413,0,0,0,2.052-1,4.6,4.6,0,0,0,.743-2.786,3.629,3.629,0,0,0-.694-2.355A2.3,2.3,0,0,0,23.511-8a2.554,2.554,0,0,0-2.021.875A3.211,3.211,0,0,0,20.725-4.931ZM34.04-.088A2.779,2.779,0,0,1,32.7.193q-2.364,0-2.364-2.637V-7.77H28.784V-9h1.547v-2.2l1.441-.466V-9H34.04v1.23H31.772V-2.7a2.1,2.1,0,0,0,.308,1.292,1.228,1.228,0,0,0,1.02.387,1.515,1.515,0,0,0,.94-.3Zm2.663-11.2a.913.913,0,0,1-.659-.264.89.89,0,0,1-.272-.668.9.9,0,0,1,.272-.672.905.905,0,0,1,.659-.268.931.931,0,0,1,.672.268.9.9,0,0,1,.277.672.891.891,0,0,1-.277.659A.923.923,0,0,1,36.7-11.285ZM37.406,0H35.965V-9h1.441ZM44.5-.088a2.779,2.779,0,0,1-1.345.281q-2.364,0-2.364-2.637V-7.77H39.243V-9H40.79v-2.2l1.441-.466V-9H44.5v1.23H42.231V-2.7a2.1,2.1,0,0,0,.308,1.292,1.228,1.228,0,0,0,1.02.387,1.515,1.515,0,0,0,.94-.3ZM53.7,0H52.26V-1.424h-.035A2.96,2.96,0,0,1,49.447.211q-3.217,0-3.217-3.832V-9h1.433v5.15Q47.663-1,49.843-1a2.205,2.205,0,0,0,1.736-.778,2.976,2.976,0,0,0,.681-2.035V-9H53.7Zm4.351,0H56.61V-13.324h1.441Zm6.68.211A4.175,4.175,0,0,1,61.545-1.05a4.672,4.672,0,0,1-1.191-3.344,4.867,4.867,0,0,1,1.239-3.542,4.455,4.455,0,0,1,3.349-1.274,4.037,4.037,0,0,1,3.142,1.239,4.914,4.914,0,0,1,1.129,3.437A4.835,4.835,0,0,1,68-1.085,4.265,4.265,0,0,1,64.731.211ZM64.837-8a2.742,2.742,0,0,0-2.2.945,3.88,3.88,0,0,0-.809,2.606,3.67,3.67,0,0,0,.817,2.522A2.778,2.778,0,0,0,64.837-1a2.635,2.635,0,0,0,2.149-.905,3.928,3.928,0,0,0,.751-2.575,4,4,0,0,0-.751-2.6A2.623,2.623,0,0,0,64.837-8Z" transform="translate(47 45)"/><path class="d" d="M5.984.188a4.945,4.945,0,0,1-3.82-1.57A5.834,5.834,0,0,1,.734-5.469,6.154,6.154,0,0,1,2.2-9.781a5.118,5.118,0,0,1,3.977-1.609A4.81,4.81,0,0,1,9.906-9.828a5.836,5.836,0,0,1,1.422,4.086A6.191,6.191,0,0,1,9.875-1.406a4.312,4.312,0,0,1-.734.656l3.148,2.258H9.906L7.8-.07A6.073,6.073,0,0,1,5.984.188ZM6.078-10.2A3.612,3.612,0,0,0,3.211-8.93a4.93,4.93,0,0,0-1.1,3.344A5.011,5.011,0,0,0,3.18-2.25a3.519,3.519,0,0,0,2.8,1.258A3.678,3.678,0,0,0,8.891-2.2,4.917,4.917,0,0,0,9.953-5.562a5.119,5.119,0,0,0-1.031-3.43A3.536,3.536,0,0,0,6.078-10.2ZM19.828,0H18.547V-1.266h-.031A2.631,2.631,0,0,1,16.047.188q-2.859,0-2.859-3.406V-8h1.273v4.578q0,2.531,1.938,2.531a1.96,1.96,0,0,0,1.543-.691,2.645,2.645,0,0,0,.605-1.809V-8h1.281ZM23.07-10.031a.812.812,0,0,1-.586-.234.791.791,0,0,1-.242-.594.8.8,0,0,1,.242-.6.8.8,0,0,1,.586-.238.827.827,0,0,1,.6.238.8.8,0,0,1,.246.6.792.792,0,0,1-.246.586A.82.82,0,0,1,23.07-10.031ZM23.7,0H22.414V-8H23.7ZM25.8-.289V-1.664a3.792,3.792,0,0,0,2.3.773q1.688,0,1.688-1.125a.976.976,0,0,0-.145-.543,1.44,1.44,0,0,0-.391-.395,3.007,3.007,0,0,0-.578-.309q-.332-.137-.715-.285a9.207,9.207,0,0,1-.934-.426,2.82,2.82,0,0,1-.672-.484,1.8,1.8,0,0,1-.406-.613,2.17,2.17,0,0,1-.137-.8,1.912,1.912,0,0,1,.258-1,2.286,2.286,0,0,1,.688-.727,3.206,3.206,0,0,1,.98-.441,4.349,4.349,0,0,1,1.137-.148,4.59,4.59,0,0,1,1.859.359v1.3a3.624,3.624,0,0,0-2.031-.578,2.374,2.374,0,0,0-.648.082,1.587,1.587,0,0,0-.5.23,1.065,1.065,0,0,0-.32.355.936.936,0,0,0-.113.457,1.1,1.1,0,0,0,.113.523,1.152,1.152,0,0,0,.332.375,2.538,2.538,0,0,0,.531.3q.313.133.711.289a9.9,9.9,0,0,1,.953.418,3.269,3.269,0,0,1,.719.484,1.893,1.893,0,0,1,.457.621,2,2,0,0,1,.16.836,1.971,1.971,0,0,1-.262,1.031,2.243,2.243,0,0,1-.7.727,3.2,3.2,0,0,1-1.008.43,4.976,4.976,0,0,1-1.2.141A4.539,4.539,0,0,1,25.8-.289ZM44.1,0H42.82V-4.609q0-2.5-1.859-2.5a2.027,2.027,0,0,0-1.578.723,2.693,2.693,0,0,0-.641,1.855V0H37.461V-11.844h1.281v5.172h.031A2.91,2.91,0,0,1,41.4-8.187q2.7,0,2.7,3.258Zm8.844-3.68H47.3a2.992,2.992,0,0,0,.719,2.063,2.478,2.478,0,0,0,1.891.727,3.931,3.931,0,0,0,2.484-.891v1.2A4.643,4.643,0,0,1,49.6.188,3.381,3.381,0,0,1,46.938-.9a4.461,4.461,0,0,1-.969-3.066,4.375,4.375,0,0,1,1.059-3.043,3.394,3.394,0,0,1,2.629-1.176,3.008,3.008,0,0,1,2.43,1.016,4.234,4.234,0,0,1,.859,2.82ZM51.633-4.766A2.607,2.607,0,0,0,51.1-6.492a1.823,1.823,0,0,0-1.465-.617,2.07,2.07,0,0,0-1.539.648,2.943,2.943,0,0,0-.781,1.7ZM61.523,0H60.242V-4.562q0-2.547-1.859-2.547a2.017,2.017,0,0,0-1.59.723,2.679,2.679,0,0,0-.629,1.824V0H54.883V-8h1.281v1.328H56.2A2.887,2.887,0,0,1,58.82-8.187a2.448,2.448,0,0,1,2.008.848,3.776,3.776,0,0,1,.7,2.449Zm9.242,0H69.484V-1.359h-.031A2.958,2.958,0,0,1,66.7.188a2.988,2.988,0,0,1-2.41-1.074,4.407,4.407,0,0,1-.9-2.926,4.794,4.794,0,0,1,1-3.18,3.3,3.3,0,0,1,2.664-1.2,2.564,2.564,0,0,1,2.4,1.3h.031v-4.953h1.281ZM69.484-3.617V-4.8a2.289,2.289,0,0,0-.641-1.641,2.149,2.149,0,0,0-1.625-.672,2.212,2.212,0,0,0-1.844.859A3.766,3.766,0,0,0,64.7-3.875a3.387,3.387,0,0,0,.645,2.184,2.107,2.107,0,0,0,1.73.8,2.188,2.188,0,0,0,1.738-.773A2.882,2.882,0,0,0,69.484-3.617ZM77.531-6.7a1.567,1.567,0,0,0-.969-.258,1.635,1.635,0,0,0-1.371.773,3.576,3.576,0,0,0-.551,2.109V0H73.359V-8h1.281v1.648h.031a2.793,2.793,0,0,1,.836-1.316,1.906,1.906,0,0,1,1.258-.473,2.092,2.092,0,0,1,.766.109Zm7.82,3.023H79.7a2.992,2.992,0,0,0,.719,2.063,2.478,2.478,0,0,0,1.891.727A3.931,3.931,0,0,0,84.8-1.781v1.2a4.643,4.643,0,0,1-2.789.766A3.381,3.381,0,0,1,79.344-.9a4.461,4.461,0,0,1-.969-3.066,4.375,4.375,0,0,1,1.059-3.043,3.394,3.394,0,0,1,2.629-1.176,3.008,3.008,0,0,1,2.43,1.016,4.234,4.234,0,0,1,.859,2.82ZM84.039-4.766A2.607,2.607,0,0,0,83.5-6.492a1.823,1.823,0,0,0-1.465-.617,2.07,2.07,0,0,0-1.539.648,2.943,2.943,0,0,0-.781,1.7ZM91.461-6.7a1.567,1.567,0,0,0-.969-.258,1.635,1.635,0,0,0-1.371.773,3.576,3.576,0,0,0-.551,2.109V0H87.289V-8H88.57v1.648H88.6a2.793,2.793,0,0,1,.836-1.316A1.906,1.906,0,0,1,90.7-8.141a2.092,2.092,0,0,1,.766.109Zm2.047-3.328a.812.812,0,0,1-.586-.234.791.791,0,0,1-.242-.594.8.8,0,0,1,.242-.6.8.8,0,0,1,.586-.238.827.827,0,0,1,.6.238.8.8,0,0,1,.246.6.792.792,0,0,1-.246.586A.82.82,0,0,1,93.508-10.031ZM94.133,0H92.852V-8h1.281Zm6.3-.078a2.47,2.47,0,0,1-1.2.25q-2.1,0-2.1-2.344V-6.906H95.766V-8h1.375V-9.953l1.281-.414V-8h2.016v1.094H98.422V-2.4A1.869,1.869,0,0,0,98.7-1.25a1.091,1.091,0,0,0,.906.344,1.347,1.347,0,0,0,.836-.266ZM110.7-6.7a1.567,1.567,0,0,0-.969-.258,1.635,1.635,0,0,0-1.371.773,3.576,3.576,0,0,0-.551,2.109V0h-1.281V-8h1.281v1.648h.031a2.793,2.793,0,0,1,.836-1.316,1.906,1.906,0,0,1,1.258-.473,2.092,2.092,0,0,1,.766.109Zm2.047-3.328a.812.812,0,0,1-.586-.234.791.791,0,0,1-.242-.594.8.8,0,0,1,.242-.6.8.8,0,0,1,.586-.238.827.827,0,0,1,.6.238.8.8,0,0,1,.246.6.792.792,0,0,1-.246.586A.82.82,0,0,1,112.75-10.031ZM113.375,0h-1.281V-8h1.281Zm2.109-.289V-1.664a3.792,3.792,0,0,0,2.3.773q1.688,0,1.688-1.125a.976.976,0,0,0-.145-.543,1.44,1.44,0,0,0-.391-.395,3.007,3.007,0,0,0-.578-.309q-.332-.137-.715-.285a9.207,9.207,0,0,1-.934-.426,2.82,2.82,0,0,1-.672-.484,1.8,1.8,0,0,1-.406-.613,2.17,2.17,0,0,1-.137-.8,1.912,1.912,0,0,1,.258-1,2.286,2.286,0,0,1,.688-.727,3.206,3.206,0,0,1,.98-.441,4.349,4.349,0,0,1,1.137-.148,4.59,4.59,0,0,1,1.859.359v1.3a3.624,3.624,0,0,0-2.031-.578,2.374,2.374,0,0,0-.648.082,1.587,1.587,0,0,0-.5.23,1.065,1.065,0,0,0-.32.355.936.936,0,0,0-.113.457,1.1,1.1,0,0,0,.113.523,1.152,1.152,0,0,0,.332.375,2.538,2.538,0,0,0,.531.3q.313.133.711.289a9.9,9.9,0,0,1,.953.418,3.269,3.269,0,0,1,.719.484,1.893,1.893,0,0,1,.457.621,2,2,0,0,1,.16.836,1.971,1.971,0,0,1-.262,1.031,2.243,2.243,0,0,1-.7.727,3.2,3.2,0,0,1-1.008.43,4.976,4.976,0,0,1-1.2.141A4.539,4.539,0,0,1,115.484-.289ZM129.227,0h-1.281V-1.266h-.031A2.631,2.631,0,0,1,125.445.188q-2.859,0-2.859-3.406V-8h1.273v4.578q0,2.531,1.938,2.531a1.96,1.96,0,0,0,1.543-.691,2.645,2.645,0,0,0,.605-1.809V-8h1.281Zm2.1-.289V-1.664a3.792,3.792,0,0,0,2.3.773q1.688,0,1.688-1.125a.976.976,0,0,0-.145-.543,1.441,1.441,0,0,0-.391-.395,3.007,3.007,0,0,0-.578-.309q-.332-.137-.715-.285a9.207,9.207,0,0,1-.934-.426,2.82,2.82,0,0,1-.672-.484,1.8,1.8,0,0,1-.406-.613,2.17,2.17,0,0,1-.137-.8,1.912,1.912,0,0,1,.258-1,2.286,2.286,0,0,1,.688-.727,3.206,3.206,0,0,1,.98-.441,4.349,4.349,0,0,1,1.137-.148,4.59,4.59,0,0,1,1.859.359v1.3a3.624,3.624,0,0,0-2.031-.578,2.374,2.374,0,0,0-.648.082,1.587,1.587,0,0,0-.5.23,1.065,1.065,0,0,0-.32.355.936.936,0,0,0-.113.457,1.1,1.1,0,0,0,.113.523,1.152,1.152,0,0,0,.332.375,2.538,2.538,0,0,0,.531.3q.312.133.711.289a9.894,9.894,0,0,1,.953.418,3.269,3.269,0,0,1,.719.484,1.893,1.893,0,0,1,.457.621,2,2,0,0,1,.16.836,1.971,1.971,0,0,1-.262,1.031,2.243,2.243,0,0,1-.7.727,3.2,3.2,0,0,1-1.008.43,4.976,4.976,0,0,1-1.2.141A4.539,4.539,0,0,1,131.328-.289ZM148.711,0H147.43V-1.25H147.4A2.682,2.682,0,0,1,144.938.188a2.63,2.63,0,0,1-1.871-.633,2.192,2.192,0,0,1-.676-1.68q0-2.242,2.641-2.609l2.4-.336q0-2.039-1.648-2.039a3.938,3.938,0,0,0-2.609.984V-7.437a4.958,4.958,0,0,1,2.719-.75q2.82,0,2.82,2.984ZM147.43-4.047l-1.93.266a3.133,3.133,0,0,0-1.344.441,1.273,1.273,0,0,0-.453,1.121,1.221,1.221,0,0,0,.418.957,1.615,1.615,0,0,0,1.113.371,2.056,2.056,0,0,0,1.574-.668,2.387,2.387,0,0,0,.621-1.691Zm7.594,3.758V-1.664a3.792,3.792,0,0,0,2.3.773q1.688,0,1.688-1.125a.976.976,0,0,0-.145-.543,1.441,1.441,0,0,0-.391-.395,3.007,3.007,0,0,0-.578-.309q-.332-.137-.715-.285a9.207,9.207,0,0,1-.934-.426,2.82,2.82,0,0,1-.672-.484,1.8,1.8,0,0,1-.406-.613,2.17,2.17,0,0,1-.137-.8,1.912,1.912,0,0,1,.258-1,2.286,2.286,0,0,1,.688-.727,3.206,3.206,0,0,1,.98-.441,4.349,4.349,0,0,1,1.137-.148,4.59,4.59,0,0,1,1.859.359v1.3a3.624,3.624,0,0,0-2.031-.578,2.374,2.374,0,0,0-.648.082,1.587,1.587,0,0,0-.5.23,1.065,1.065,0,0,0-.32.355.936.936,0,0,0-.113.457,1.1,1.1,0,0,0,.113.523,1.152,1.152,0,0,0,.332.375,2.538,2.538,0,0,0,.531.3q.312.133.711.289a9.894,9.894,0,0,1,.953.418,3.269,3.269,0,0,1,.719.484,1.893,1.893,0,0,1,.457.621,2,2,0,0,1,.16.836,1.971,1.971,0,0,1-.262,1.031,2.243,2.243,0,0,1-.7.727,3.2,3.2,0,0,1-1.008.43,4.976,4.976,0,0,1-1.2.141A4.539,4.539,0,0,1,155.023-.289Zm10.617.477a3.711,3.711,0,0,1-2.832-1.121,4.153,4.153,0,0,1-1.059-2.973,4.326,4.326,0,0,1,1.1-3.148,3.96,3.96,0,0,1,2.977-1.133,3.588,3.588,0,0,1,2.793,1.1,4.368,4.368,0,0,1,1,3.055,4.3,4.3,0,0,1-1.082,3.066A3.791,3.791,0,0,1,165.641.188Zm.094-7.3a2.437,2.437,0,0,0-1.953.84,3.449,3.449,0,0,0-.719,2.316,3.262,3.262,0,0,0,.727,2.242,2.469,2.469,0,0,0,1.945.82,2.342,2.342,0,0,0,1.91-.8,3.492,3.492,0,0,0,.668-2.289,3.552,3.552,0,0,0-.668-2.312A2.332,2.332,0,0,0,165.734-7.109ZM178.5,0h-1.281V-1.359h-.031a2.958,2.958,0,0,1-2.75,1.547,2.988,2.988,0,0,1-2.41-1.074,4.407,4.407,0,0,1-.9-2.926,4.794,4.794,0,0,1,1-3.18,3.3,3.3,0,0,1,2.664-1.2,2.564,2.564,0,0,1,2.4,1.3h.031v-4.953H178.5Zm-1.281-3.617V-4.8a2.289,2.289,0,0,0-.641-1.641,2.149,2.149,0,0,0-1.625-.672,2.212,2.212,0,0,0-1.844.859,3.766,3.766,0,0,0-.672,2.375,3.387,3.387,0,0,0,.645,2.184,2.107,2.107,0,0,0,1.73.8,2.188,2.188,0,0,0,1.738-.773A2.882,2.882,0,0,0,177.219-3.617ZM186.82,0h-1.281V-1.25h-.031A2.682,2.682,0,0,1,183.047.188a2.63,2.63,0,0,1-1.871-.633,2.192,2.192,0,0,1-.676-1.68q0-2.242,2.641-2.609l2.4-.336q0-2.039-1.648-2.039a3.938,3.938,0,0,0-2.609.984V-7.437A4.958,4.958,0,0,1,184-8.187q2.82,0,2.82,2.984Zm-1.281-4.047-1.93.266a3.133,3.133,0,0,0-1.344.441,1.273,1.273,0,0,0-.453,1.121,1.221,1.221,0,0,0,.418.957,1.615,1.615,0,0,0,1.113.371,2.056,2.056,0,0,0,1.574-.668,2.387,2.387,0,0,0,.621-1.691ZM190.516,0h-1.281V-11.844h1.281Zm9.023-3.68h-5.648a2.992,2.992,0,0,0,.719,2.063,2.478,2.478,0,0,0,1.891.727,3.931,3.931,0,0,0,2.484-.891v1.2A4.643,4.643,0,0,1,196.2.188,3.381,3.381,0,0,1,193.531-.9a4.461,4.461,0,0,1-.969-3.066,4.374,4.374,0,0,1,1.059-3.043,3.394,3.394,0,0,1,2.629-1.176,3.008,3.008,0,0,1,2.43,1.016,4.234,4.234,0,0,1,.859,2.82Zm-1.312-1.086a2.607,2.607,0,0,0-.535-1.727,1.823,1.823,0,0,0-1.465-.617,2.07,2.07,0,0,0-1.539.648,2.943,2.943,0,0,0-.781,1.7Zm2.766,4.477V-1.664a3.792,3.792,0,0,0,2.3.773q1.688,0,1.688-1.125a.976.976,0,0,0-.145-.543,1.441,1.441,0,0,0-.391-.395,3.007,3.007,0,0,0-.578-.309q-.332-.137-.715-.285a9.207,9.207,0,0,1-.934-.426,2.82,2.82,0,0,1-.672-.484,1.8,1.8,0,0,1-.406-.613,2.17,2.17,0,0,1-.137-.8,1.912,1.912,0,0,1,.258-1,2.286,2.286,0,0,1,.688-.727,3.206,3.206,0,0,1,.98-.441,4.349,4.349,0,0,1,1.137-.148,4.59,4.59,0,0,1,1.859.359v1.3a3.624,3.624,0,0,0-2.031-.578,2.374,2.374,0,0,0-.648.082,1.587,1.587,0,0,0-.5.23,1.065,1.065,0,0,0-.32.355.936.936,0,0,0-.113.457,1.1,1.1,0,0,0,.113.523,1.152,1.152,0,0,0,.332.375,2.538,2.538,0,0,0,.531.3q.312.133.711.289a9.894,9.894,0,0,1,.953.418,3.269,3.269,0,0,1,.719.484,1.893,1.893,0,0,1,.457.621,2,2,0,0,1,.16.836,1.971,1.971,0,0,1-.262,1.031,2.243,2.243,0,0,1-.7.727,3.2,3.2,0,0,1-1.008.43,4.976,4.976,0,0,1-1.2.141A4.539,4.539,0,0,1,200.992-.289ZM218.375,0h-1.281V-1.25h-.031A2.682,2.682,0,0,1,214.6.188a2.63,2.63,0,0,1-1.871-.633,2.192,2.192,0,0,1-.676-1.68q0-2.242,2.641-2.609l2.4-.336q0-2.039-1.648-2.039a3.938,3.938,0,0,0-2.609.984V-7.437a4.958,4.958,0,0,1,2.719-.75q2.82,0,2.82,2.984Zm-1.281-4.047-1.93.266a3.133,3.133,0,0,0-1.344.441,1.273,1.273,0,0,0-.453,1.121,1.221,1.221,0,0,0,.418.957,1.615,1.615,0,0,0,1.113.371,2.056,2.056,0,0,0,1.574-.668,2.387,2.387,0,0,0,.621-1.691ZM227.43,0h-1.281V-4.562q0-2.547-1.859-2.547a2.017,2.017,0,0,0-1.59.723,2.679,2.679,0,0,0-.629,1.824V0h-1.281V-8h1.281v1.328h.031a2.887,2.887,0,0,1,2.625-1.516,2.448,2.448,0,0,1,2.008.848,3.776,3.776,0,0,1,.7,2.449Zm6.125-.078a2.47,2.47,0,0,1-1.2.25q-2.1,0-2.1-2.344V-6.906h-1.375V-8h1.375V-9.953l1.281-.414V-8h2.016v1.094h-2.016V-2.4a1.869,1.869,0,0,0,.273,1.148,1.091,1.091,0,0,0,.906.344,1.347,1.347,0,0,0,.836-.266Zm8.141-3.6h-5.648a2.992,2.992,0,0,0,.719,2.063,2.478,2.478,0,0,0,1.891.727,3.931,3.931,0,0,0,2.484-.891v1.2a4.643,4.643,0,0,1-2.789.766A3.381,3.381,0,0,1,235.688-.9a4.461,4.461,0,0,1-.969-3.066,4.374,4.374,0,0,1,1.059-3.043,3.394,3.394,0,0,1,2.629-1.176,3.008,3.008,0,0,1,2.43,1.016,4.234,4.234,0,0,1,.859,2.82Zm-1.312-1.086a2.607,2.607,0,0,0-.535-1.727,1.823,1.823,0,0,0-1.465-.617,2.07,2.07,0,0,0-1.539.648,2.943,2.943,0,0,0-.781,1.7ZM.813,20.711V19.336a3.792,3.792,0,0,0,2.3.773q1.688,0,1.688-1.125a.976.976,0,0,0-.145-.543,1.44,1.44,0,0,0-.391-.395,3.007,3.007,0,0,0-.578-.309q-.332-.137-.715-.285a9.207,9.207,0,0,1-.934-.426,2.82,2.82,0,0,1-.672-.484,1.8,1.8,0,0,1-.406-.613,2.17,2.17,0,0,1-.137-.8,1.912,1.912,0,0,1,.258-1,2.286,2.286,0,0,1,.688-.727,3.206,3.206,0,0,1,.98-.441,4.349,4.349,0,0,1,1.137-.148,4.59,4.59,0,0,1,1.859.359v1.3a3.624,3.624,0,0,0-2.031-.578,2.374,2.374,0,0,0-.648.082,1.587,1.587,0,0,0-.5.23,1.065,1.065,0,0,0-.32.355.936.936,0,0,0-.113.457,1.1,1.1,0,0,0,.113.523,1.152,1.152,0,0,0,.332.375,2.538,2.538,0,0,0,.531.3q.312.133.711.289a9.894,9.894,0,0,1,.953.418A3.269,3.269,0,0,1,5.5,17.4a1.893,1.893,0,0,1,.457.621,2,2,0,0,1,.16.836,1.971,1.971,0,0,1-.262,1.031,2.243,2.243,0,0,1-.7.727,3.2,3.2,0,0,1-1.008.43,4.976,4.976,0,0,1-1.2.141A4.539,4.539,0,0,1,.813,20.711Zm13.7-3.391H8.867a2.992,2.992,0,0,0,.719,2.063,2.478,2.478,0,0,0,1.891.727,3.931,3.931,0,0,0,2.484-.891v1.2a4.643,4.643,0,0,1-2.789.766A3.381,3.381,0,0,1,8.508,20.1a4.461,4.461,0,0,1-.969-3.066A4.375,4.375,0,0,1,8.6,13.988a3.394,3.394,0,0,1,2.629-1.176,3.008,3.008,0,0,1,2.43,1.016,4.234,4.234,0,0,1,.859,2.82ZM13.2,16.234a2.607,2.607,0,0,0-.535-1.727,1.823,1.823,0,0,0-1.465-.617,2.07,2.07,0,0,0-1.539.648,2.943,2.943,0,0,0-.781,1.7ZM23.094,21H21.813V16.438q0-2.547-1.859-2.547a2.017,2.017,0,0,0-1.59.723,2.679,2.679,0,0,0-.629,1.824V21H16.453V13h1.281v1.328h.031a2.887,2.887,0,0,1,2.625-1.516,2.448,2.448,0,0,1,2.008.848,3.776,3.776,0,0,1,.7,2.449Zm8.844-3.68H26.289a2.992,2.992,0,0,0,.719,2.063,2.478,2.478,0,0,0,1.891.727,3.931,3.931,0,0,0,2.484-.891v1.2a4.643,4.643,0,0,1-2.789.766A3.381,3.381,0,0,1,25.93,20.1a4.461,4.461,0,0,1-.969-3.066,4.375,4.375,0,0,1,1.059-3.043,3.394,3.394,0,0,1,2.629-1.176,3.008,3.008,0,0,1,2.43,1.016,4.234,4.234,0,0,1,.859,2.82Zm-1.312-1.086a2.607,2.607,0,0,0-.535-1.727,1.823,1.823,0,0,0-1.465-.617,2.07,2.07,0,0,0-1.539.648,2.943,2.943,0,0,0-.781,1.7Zm8.7,4.4a4.163,4.163,0,0,1-2.187.555,3.622,3.622,0,0,1-2.762-1.113,4.035,4.035,0,0,1-1.051-2.887,4.435,4.435,0,0,1,1.133-3.176,3.963,3.963,0,0,1,3.023-1.2,4.209,4.209,0,0,1,1.859.391v1.313a3.258,3.258,0,0,0-1.906-.625,2.576,2.576,0,0,0-2.012.879,3.335,3.335,0,0,0-.785,2.309,3.176,3.176,0,0,0,.738,2.219,2.545,2.545,0,0,0,1.98.813,3.211,3.211,0,0,0,1.969-.7Zm5.648.289a2.47,2.47,0,0,1-1.2.25q-2.1,0-2.1-2.344V14.094H40.3V13H41.68V11.047l1.281-.414V13h2.016v1.094H42.961V18.6a1.869,1.869,0,0,0,.273,1.148,1.091,1.091,0,0,0,.906.344,1.347,1.347,0,0,0,.836-.266Zm8.18.078H51.875V19.734h-.031a2.631,2.631,0,0,1-2.469,1.453q-2.859,0-2.859-3.406V13h1.273v4.578q0,2.531,1.938,2.531a1.96,1.96,0,0,0,1.543-.691,2.645,2.645,0,0,0,.605-1.809V13h1.281Zm2.1-.289V19.336a3.792,3.792,0,0,0,2.3.773q1.688,0,1.688-1.125a.976.976,0,0,0-.145-.543,1.44,1.44,0,0,0-.391-.395,3.007,3.007,0,0,0-.578-.309q-.332-.137-.715-.285a9.207,9.207,0,0,1-.934-.426,2.82,2.82,0,0,1-.672-.484,1.8,1.8,0,0,1-.406-.613,2.17,2.17,0,0,1-.137-.8,1.912,1.912,0,0,1,.258-1,2.286,2.286,0,0,1,.688-.727,3.206,3.206,0,0,1,.98-.441,4.349,4.349,0,0,1,1.137-.148,4.59,4.59,0,0,1,1.859.359v1.3a3.624,3.624,0,0,0-2.031-.578,2.374,2.374,0,0,0-.648.082,1.587,1.587,0,0,0-.5.23,1.065,1.065,0,0,0-.32.355.936.936,0,0,0-.113.457,1.1,1.1,0,0,0,.113.523,1.152,1.152,0,0,0,.332.375,2.538,2.538,0,0,0,.531.3q.312.133.711.289a9.894,9.894,0,0,1,.953.418,3.269,3.269,0,0,1,.719.484,1.893,1.893,0,0,1,.457.621,2,2,0,0,1,.16.836,1.971,1.971,0,0,1-.262,1.031,2.243,2.243,0,0,1-.7.727,3.2,3.2,0,0,1-1.008.43,4.976,4.976,0,0,1-1.2.141A4.539,4.539,0,0,1,55.258,20.711ZM73.2,13l-3.187,8H68.758l-3.031-8h1.406l2.031,5.813a5.217,5.217,0,0,1,.281,1.117h.031a5.283,5.283,0,0,1,.25-1.086L71.852,13Zm7.8,4.32H75.359a2.992,2.992,0,0,0,.719,2.063,2.478,2.478,0,0,0,1.891.727,3.931,3.931,0,0,0,2.484-.891v1.2a4.643,4.643,0,0,1-2.789.766A3.381,3.381,0,0,1,75,20.1a4.461,4.461,0,0,1-.969-3.066,4.375,4.375,0,0,1,1.059-3.043,3.394,3.394,0,0,1,2.629-1.176,3.008,3.008,0,0,1,2.43,1.016,4.234,4.234,0,0,1,.859,2.82ZM79.7,16.234a2.607,2.607,0,0,0-.535-1.727,1.823,1.823,0,0,0-1.465-.617,2.07,2.07,0,0,0-1.539.648,2.943,2.943,0,0,0-.781,1.7Zm2.766,4.477V19.336a3.792,3.792,0,0,0,2.3.773q1.688,0,1.688-1.125a.976.976,0,0,0-.145-.543,1.44,1.44,0,0,0-.391-.395,3.007,3.007,0,0,0-.578-.309q-.332-.137-.715-.285a9.207,9.207,0,0,1-.934-.426,2.82,2.82,0,0,1-.672-.484,1.8,1.8,0,0,1-.406-.613,2.17,2.17,0,0,1-.137-.8,1.912,1.912,0,0,1,.258-1,2.286,2.286,0,0,1,.688-.727,3.206,3.206,0,0,1,.98-.441,4.349,4.349,0,0,1,1.137-.148,4.59,4.59,0,0,1,1.859.359v1.3a3.624,3.624,0,0,0-2.031-.578,2.374,2.374,0,0,0-.648.082,1.587,1.587,0,0,0-.5.23,1.065,1.065,0,0,0-.32.355.936.936,0,0,0-.113.457,1.1,1.1,0,0,0,.113.523,1.152,1.152,0,0,0,.332.375,2.538,2.538,0,0,0,.531.3q.313.133.711.289a9.9,9.9,0,0,1,.953.418,3.269,3.269,0,0,1,.719.484,1.893,1.893,0,0,1,.457.621,2,2,0,0,1,.16.836,1.971,1.971,0,0,1-.262,1.031,2.243,2.243,0,0,1-.7.727,3.2,3.2,0,0,1-1.008.43,4.976,4.976,0,0,1-1.2.141A4.539,4.539,0,0,1,82.461,20.711Zm10.984.211a2.47,2.47,0,0,1-1.2.25q-2.1,0-2.1-2.344V14.094H88.773V13h1.375V11.047l1.281-.414V13h2.016v1.094H91.43V18.6A1.869,1.869,0,0,0,91.7,19.75a1.091,1.091,0,0,0,.906.344,1.347,1.347,0,0,0,.836-.266Zm2.367-9.953a.812.812,0,0,1-.586-.234.791.791,0,0,1-.242-.594.821.821,0,0,1,.828-.836.827.827,0,0,1,.6.238.835.835,0,0,1,0,1.184A.82.82,0,0,1,95.813,10.969ZM96.438,21H95.156V13h1.281Zm3.906-1.156h-.031V21H99.031V9.156h1.281v5.25h.031a3.03,3.03,0,0,1,2.766-1.594,2.932,2.932,0,0,1,2.41,1.074,4.436,4.436,0,0,1,.871,2.879,4.959,4.959,0,0,1-.977,3.215,3.251,3.251,0,0,1-2.672,1.207A2.631,2.631,0,0,1,100.344,19.844Zm-.031-3.227v1.117a2.379,2.379,0,0,0,.645,1.684,2.3,2.3,0,0,0,3.461-.2,4.086,4.086,0,0,0,.66-2.477,3.225,3.225,0,0,0-.617-2.094,2.043,2.043,0,0,0-1.672-.758,2.27,2.27,0,0,0-1.8.777A2.854,2.854,0,0,0,100.313,16.617ZM114.906,21h-1.281V19.734h-.031a2.631,2.631,0,0,1-2.469,1.453q-2.859,0-2.859-3.406V13h1.273v4.578q0,2.531,1.938,2.531a1.96,1.96,0,0,0,1.543-.691,2.645,2.645,0,0,0,.605-1.809V13h1.281Zm3.867,0h-1.281V9.156h1.281Zm9.063,0h-1.281V19.734h-.031a2.631,2.631,0,0,1-2.469,1.453q-2.859,0-2.859-3.406V13h1.273v4.578q0,2.531,1.938,2.531a1.96,1.96,0,0,0,1.543-.691,2.645,2.645,0,0,0,.605-1.809V13h1.281Zm13.945,0H140.5V16.406a3.466,3.466,0,0,0-.41-1.922,1.555,1.555,0,0,0-1.379-.594,1.708,1.708,0,0,0-1.395.75,2.869,2.869,0,0,0-.574,1.8V21h-1.281V16.25q0-2.359-1.82-2.359a1.686,1.686,0,0,0-1.391.707,2.923,2.923,0,0,0-.547,1.84V21h-1.281V13H131.7v1.266h.031a2.718,2.718,0,0,1,2.484-1.453,2.311,2.311,0,0,1,2.266,1.656,2.855,2.855,0,0,1,2.656-1.656q2.641,0,2.641,3.258Zm8.086,0h-1.281V9.156h1.281Zm8.32,0h-1.281V19.75h-.031a2.682,2.682,0,0,1-2.461,1.438,2.63,2.63,0,0,1-1.871-.633,2.192,2.192,0,0,1-.676-1.68q0-2.242,2.641-2.609l2.4-.336q0-2.039-1.648-2.039a3.938,3.938,0,0,0-2.609.984V13.563a4.958,4.958,0,0,1,2.719-.75q2.82,0,2.82,2.984Zm-1.281-4.047-1.93.266a3.133,3.133,0,0,0-1.344.441,1.273,1.273,0,0,0-.453,1.121,1.221,1.221,0,0,0,.418.957,1.615,1.615,0,0,0,1.113.371,2.056,2.056,0,0,0,1.574-.668,2.387,2.387,0,0,0,.621-1.691Zm9.148,3.68a4.163,4.163,0,0,1-2.187.555,3.622,3.622,0,0,1-2.762-1.113,4.035,4.035,0,0,1-1.051-2.887,4.435,4.435,0,0,1,1.133-3.176,3.963,3.963,0,0,1,3.023-1.2,4.209,4.209,0,0,1,1.859.391v1.313a3.258,3.258,0,0,0-1.906-.625,2.576,2.576,0,0,0-2.012.879,3.335,3.335,0,0,0-.785,2.309,3.176,3.176,0,0,0,.738,2.219,2.545,2.545,0,0,0,1.98.813,3.211,3.211,0,0,0,1.969-.7Zm8.406.367H173.18V19.734h-.031a2.631,2.631,0,0,1-2.469,1.453q-2.859,0-2.859-3.406V13h1.273v4.578q0,2.531,1.938,2.531a1.96,1.96,0,0,0,1.543-.691,2.645,2.645,0,0,0,.605-1.809V13h1.281Zm2.1-.289V19.336a3.792,3.792,0,0,0,2.3.773q1.688,0,1.688-1.125a.976.976,0,0,0-.145-.543,1.441,1.441,0,0,0-.391-.395,3.007,3.007,0,0,0-.578-.309q-.332-.137-.715-.285a9.207,9.207,0,0,1-.934-.426,2.82,2.82,0,0,1-.672-.484,1.8,1.8,0,0,1-.406-.613,2.17,2.17,0,0,1-.137-.8,1.912,1.912,0,0,1,.258-1,2.286,2.286,0,0,1,.688-.727,3.206,3.206,0,0,1,.98-.441,4.349,4.349,0,0,1,1.137-.148,4.59,4.59,0,0,1,1.859.359v1.3a3.624,3.624,0,0,0-2.031-.578,2.374,2.374,0,0,0-.648.082,1.587,1.587,0,0,0-.5.23,1.065,1.065,0,0,0-.32.355.936.936,0,0,0-.113.457,1.1,1.1,0,0,0,.113.523,1.152,1.152,0,0,0,.332.375,2.538,2.538,0,0,0,.531.3q.312.133.711.289a9.894,9.894,0,0,1,.953.418,3.269,3.269,0,0,1,.719.484,1.893,1.893,0,0,1,.457.621,2,2,0,0,1,.16.836,1.971,1.971,0,0,1-.262,1.031,2.243,2.243,0,0,1-.7.727,3.2,3.2,0,0,1-1.008.43,4.976,4.976,0,0,1-1.2.141A4.539,4.539,0,0,1,176.563,20.711ZM195.047,21h-1.281V19.641h-.031a2.958,2.958,0,0,1-2.75,1.547,2.988,2.988,0,0,1-2.41-1.074,4.407,4.407,0,0,1-.9-2.926,4.794,4.794,0,0,1,1-3.18,3.3,3.3,0,0,1,2.664-1.2,2.564,2.564,0,0,1,2.4,1.3h.031V9.156h1.281Zm-1.281-3.617V16.2a2.289,2.289,0,0,0-.641-1.641,2.149,2.149,0,0,0-1.625-.672,2.212,2.212,0,0,0-1.844.859,3.766,3.766,0,0,0-.672,2.375,3.387,3.387,0,0,0,.645,2.184,2.107,2.107,0,0,0,1.73.8,2.188,2.188,0,0,0,1.738-.773A2.882,2.882,0,0,0,193.766,17.383Zm4.531-6.414a.812.812,0,0,1-.586-.234.791.791,0,0,1-.242-.594A.821.821,0,0,1,198.3,9.3a.827.827,0,0,1,.6.238.835.835,0,0,1,0,1.184A.82.82,0,0,1,198.3,10.969ZM198.922,21h-1.281V13h1.281Zm2.109-.289V19.336a3.792,3.792,0,0,0,2.3.773q1.688,0,1.688-1.125a.976.976,0,0,0-.145-.543,1.441,1.441,0,0,0-.391-.395,3.007,3.007,0,0,0-.578-.309q-.332-.137-.715-.285a9.207,9.207,0,0,1-.934-.426,2.82,2.82,0,0,1-.672-.484,1.8,1.8,0,0,1-.406-.613,2.17,2.17,0,0,1-.137-.8,1.912,1.912,0,0,1,.258-1,2.286,2.286,0,0,1,.688-.727,3.206,3.206,0,0,1,.98-.441,4.349,4.349,0,0,1,1.137-.148,4.59,4.59,0,0,1,1.859.359v1.3a3.624,3.624,0,0,0-2.031-.578,2.374,2.374,0,0,0-.648.082,1.587,1.587,0,0,0-.5.23,1.065,1.065,0,0,0-.32.355.936.936,0,0,0-.113.457,1.1,1.1,0,0,0,.113.523,1.152,1.152,0,0,0,.332.375,2.538,2.538,0,0,0,.531.3q.312.133.711.289a9.894,9.894,0,0,1,.953.418,3.269,3.269,0,0,1,.719.484,1.893,1.893,0,0,1,.457.621,2,2,0,0,1,.16.836,1.971,1.971,0,0,1-.262,1.031,2.243,2.243,0,0,1-.7.727,3.2,3.2,0,0,1-1.008.43,4.976,4.976,0,0,1-1.2.141A4.539,4.539,0,0,1,201.031,20.711Zm18.3.289h-1.281V16.438q0-2.547-1.859-2.547a2.017,2.017,0,0,0-1.59.723,2.679,2.679,0,0,0-.629,1.824V21h-1.281V13h1.281v1.328H214a2.887,2.887,0,0,1,2.625-1.516,2.448,2.448,0,0,1,2.008.848,3.776,3.776,0,0,1,.7,2.449Zm5.758.188a3.711,3.711,0,0,1-2.832-1.121,4.153,4.153,0,0,1-1.059-2.973,4.326,4.326,0,0,1,1.1-3.148,3.96,3.96,0,0,1,2.977-1.133,3.588,3.588,0,0,1,2.793,1.1,4.368,4.368,0,0,1,1,3.055,4.3,4.3,0,0,1-1.082,3.066A3.791,3.791,0,0,1,225.086,21.188Zm.094-7.3a2.437,2.437,0,0,0-1.953.84,3.449,3.449,0,0,0-.719,2.316,3.262,3.262,0,0,0,.727,2.242,2.469,2.469,0,0,0,1.945.82,2.342,2.342,0,0,0,1.91-.8,3.492,3.492,0,0,0,.668-2.289,3.552,3.552,0,0,0-.668-2.312A2.332,2.332,0,0,0,225.18,13.891ZM237.758,21h-1.281V16.438q0-2.547-1.859-2.547a2.017,2.017,0,0,0-1.59.723,2.679,2.679,0,0,0-.629,1.824V21h-1.281V13H232.4v1.328h.031a2.887,2.887,0,0,1,2.625-1.516,2.448,2.448,0,0,1,2.008.848,3.776,3.776,0,0,1,.7,2.449ZM7.727,38.32H2.078A2.992,2.992,0,0,0,2.8,40.383a2.478,2.478,0,0,0,1.891.727,3.931,3.931,0,0,0,2.484-.891v1.2a4.643,4.643,0,0,1-2.789.766A3.381,3.381,0,0,1,1.719,41.1,4.461,4.461,0,0,1,.75,38.031a4.375,4.375,0,0,1,1.059-3.043,3.394,3.394,0,0,1,2.629-1.176,3.008,3.008,0,0,1,2.43,1.016,4.234,4.234,0,0,1,.859,2.82ZM6.414,37.234a2.607,2.607,0,0,0-.535-1.727,1.823,1.823,0,0,0-1.465-.617,2.07,2.07,0,0,0-1.539.648,2.943,2.943,0,0,0-.781,1.7ZM16.133,42H14.852V40.734H14.82a2.631,2.631,0,0,1-2.469,1.453q-2.859,0-2.859-3.406V34h1.273v4.578q0,2.531,1.938,2.531a1.96,1.96,0,0,0,1.543-.691,2.645,2.645,0,0,0,.605-1.809V34h1.281Zm3.242-10.031a.812.812,0,0,1-.586-.234.791.791,0,0,1-.242-.594.821.821,0,0,1,.828-.836.827.827,0,0,1,.6.238.835.835,0,0,1,0,1.184A.82.82,0,0,1,19.375,31.969ZM20,42H18.719V34H20Zm2.109-.289V40.336a3.792,3.792,0,0,0,2.3.773q1.688,0,1.688-1.125a.976.976,0,0,0-.145-.543,1.44,1.44,0,0,0-.391-.395,3.007,3.007,0,0,0-.578-.309q-.332-.137-.715-.285a9.206,9.206,0,0,1-.934-.426,2.82,2.82,0,0,1-.672-.484,1.8,1.8,0,0,1-.406-.613,2.17,2.17,0,0,1-.137-.8,1.912,1.912,0,0,1,.258-1,2.286,2.286,0,0,1,.688-.727,3.206,3.206,0,0,1,.98-.441,4.349,4.349,0,0,1,1.137-.148,4.59,4.59,0,0,1,1.859.359v1.3a3.624,3.624,0,0,0-2.031-.578,2.374,2.374,0,0,0-.648.082,1.587,1.587,0,0,0-.5.23,1.065,1.065,0,0,0-.32.355.936.936,0,0,0-.113.457,1.1,1.1,0,0,0,.113.523,1.152,1.152,0,0,0,.332.375,2.538,2.538,0,0,0,.531.3q.313.133.711.289a9.9,9.9,0,0,1,.953.418,3.269,3.269,0,0,1,.719.484,1.893,1.893,0,0,1,.457.621,2,2,0,0,1,.16.836,1.971,1.971,0,0,1-.262,1.031,2.243,2.243,0,0,1-.7.727,3.2,3.2,0,0,1-1.008.43,4.976,4.976,0,0,1-1.2.141A4.539,4.539,0,0,1,22.109,41.711ZM40.742,42H39.461V37.406a3.466,3.466,0,0,0-.41-1.922,1.555,1.555,0,0,0-1.379-.594,1.708,1.708,0,0,0-1.395.75,2.869,2.869,0,0,0-.574,1.8V42H34.422V37.25q0-2.359-1.82-2.359a1.686,1.686,0,0,0-1.391.707,2.923,2.923,0,0,0-.547,1.84V42H29.383V34h1.281v1.266H30.7a2.718,2.718,0,0,1,2.484-1.453,2.311,2.311,0,0,1,2.266,1.656A2.855,2.855,0,0,1,38.1,33.813q2.641,0,2.641,3.258Zm5.766.188a3.711,3.711,0,0,1-2.832-1.121,4.153,4.153,0,0,1-1.059-2.973,4.326,4.326,0,0,1,1.1-3.148A3.96,3.96,0,0,1,46.7,33.813a3.588,3.588,0,0,1,2.793,1.1,4.368,4.368,0,0,1,1,3.055,4.3,4.3,0,0,1-1.082,3.066A3.791,3.791,0,0,1,46.508,42.188Zm.094-7.3a2.437,2.437,0,0,0-1.953.84,3.449,3.449,0,0,0-.719,2.316,3.262,3.262,0,0,0,.727,2.242,2.469,2.469,0,0,0,1.945.82,2.342,2.342,0,0,0,1.91-.8,3.492,3.492,0,0,0,.668-2.289,3.552,3.552,0,0,0-.668-2.312A2.332,2.332,0,0,0,46.6,34.891ZM59.367,42H58.086V40.641h-.031a2.958,2.958,0,0,1-2.75,1.547,2.988,2.988,0,0,1-2.41-1.074,4.407,4.407,0,0,1-.9-2.926,4.794,4.794,0,0,1,1-3.18,3.3,3.3,0,0,1,2.664-1.2,2.564,2.564,0,0,1,2.4,1.3h.031V30.156h1.281Zm-1.281-3.617V37.2a2.289,2.289,0,0,0-.641-1.641,2.149,2.149,0,0,0-1.625-.672,2.212,2.212,0,0,0-1.844.859,3.766,3.766,0,0,0-.672,2.375,3.387,3.387,0,0,0,.645,2.184,2.107,2.107,0,0,0,1.73.8,2.188,2.188,0,0,0,1.738-.773A2.882,2.882,0,0,0,58.086,38.383Zm14.688-.062H67.125a2.992,2.992,0,0,0,.719,2.063,2.478,2.478,0,0,0,1.891.727,3.931,3.931,0,0,0,2.484-.891v1.2a4.643,4.643,0,0,1-2.789.766,3.381,3.381,0,0,1-2.664-1.09,4.461,4.461,0,0,1-.969-3.066,4.375,4.375,0,0,1,1.059-3.043,3.394,3.394,0,0,1,2.629-1.176,3.008,3.008,0,0,1,2.43,1.016,4.234,4.234,0,0,1,.859,2.82Zm-1.312-1.086a2.607,2.607,0,0,0-.535-1.727,1.823,1.823,0,0,0-1.465-.617,2.07,2.07,0,0,0-1.539.648,2.943,2.943,0,0,0-.781,1.7ZM81.352,42H80.07V37.438q0-2.547-1.859-2.547a2.017,2.017,0,0,0-1.59.723,2.679,2.679,0,0,0-.629,1.824V42H74.711V34h1.281v1.328h.031a2.887,2.887,0,0,1,2.625-1.516,2.448,2.448,0,0,1,2.008.848,3.776,3.776,0,0,1,.7,2.449Zm3.07-10.031a.812.812,0,0,1-.586-.234.791.791,0,0,1-.242-.594.821.821,0,0,1,.828-.836.827.827,0,0,1,.6.238.835.835,0,0,1,0,1.184A.82.82,0,0,1,84.422,31.969ZM85.047,42H83.766V34h1.281ZM99,42H97.719V37.406a3.466,3.466,0,0,0-.41-1.922,1.555,1.555,0,0,0-1.379-.594,1.708,1.708,0,0,0-1.395.75,2.869,2.869,0,0,0-.574,1.8V42H92.68V37.25q0-2.359-1.82-2.359a1.686,1.686,0,0,0-1.391.707,2.923,2.923,0,0,0-.547,1.84V42H87.641V34h1.281v1.266h.031a2.718,2.718,0,0,1,2.484-1.453A2.311,2.311,0,0,1,93.7,35.469a2.855,2.855,0,0,1,2.656-1.656Q99,33.813,99,37.07Zm12.258-.367a4.163,4.163,0,0,1-2.187.555,3.622,3.622,0,0,1-2.762-1.113,4.035,4.035,0,0,1-1.051-2.887,4.435,4.435,0,0,1,1.133-3.176,3.963,3.963,0,0,1,3.023-1.2,4.209,4.209,0,0,1,1.859.391v1.313a3.258,3.258,0,0,0-1.906-.625,2.576,2.576,0,0,0-2.012.879,3.335,3.335,0,0,0-.785,2.309,3.176,3.176,0,0,0,.738,2.219,2.545,2.545,0,0,0,1.98.813,3.211,3.211,0,0,0,1.969-.7Zm6.109-6.336a1.567,1.567,0,0,0-.969-.258,1.635,1.635,0,0,0-1.371.773,3.576,3.576,0,0,0-.551,2.109V42H113.2V34h1.281v1.648h.031a2.793,2.793,0,0,1,.836-1.316,1.906,1.906,0,0,1,1.258-.473,2.092,2.092,0,0,1,.766.109Zm7.117,6.7H123.2V40.75h-.031a2.682,2.682,0,0,1-2.461,1.438,2.63,2.63,0,0,1-1.871-.633,2.192,2.192,0,0,1-.676-1.68q0-2.242,2.641-2.609l2.4-.336q0-2.039-1.648-2.039a3.938,3.938,0,0,0-2.609.984V34.563a4.958,4.958,0,0,1,2.719-.75q2.82,0,2.82,2.984ZM123.2,37.953l-1.93.266a3.133,3.133,0,0,0-1.344.441,1.273,1.273,0,0,0-.453,1.121,1.221,1.221,0,0,0,.418.957,1.615,1.615,0,0,0,1.113.371,2.056,2.056,0,0,0,1.574-.668,2.387,2.387,0,0,0,.621-1.691Zm3.211,3.758V40.336a3.792,3.792,0,0,0,2.3.773q1.688,0,1.688-1.125a.976.976,0,0,0-.145-.543,1.44,1.44,0,0,0-.391-.395,3.007,3.007,0,0,0-.578-.309q-.332-.137-.715-.285a9.206,9.206,0,0,1-.934-.426,2.82,2.82,0,0,1-.672-.484,1.8,1.8,0,0,1-.406-.613,2.17,2.17,0,0,1-.137-.8,1.912,1.912,0,0,1,.258-1,2.286,2.286,0,0,1,.688-.727,3.206,3.206,0,0,1,.98-.441,4.349,4.349,0,0,1,1.137-.148,4.59,4.59,0,0,1,1.859.359v1.3a3.624,3.624,0,0,0-2.031-.578,2.374,2.374,0,0,0-.648.082,1.587,1.587,0,0,0-.5.23,1.065,1.065,0,0,0-.32.355.936.936,0,0,0-.113.457,1.1,1.1,0,0,0,.113.523,1.152,1.152,0,0,0,.332.375,2.538,2.538,0,0,0,.531.3q.312.133.711.289a9.894,9.894,0,0,1,.953.418,3.269,3.269,0,0,1,.719.484,1.893,1.893,0,0,1,.457.621,2,2,0,0,1,.16.836,1.971,1.971,0,0,1-.262,1.031,2.243,2.243,0,0,1-.7.727,3.2,3.2,0,0,1-1.008.43,4.976,4.976,0,0,1-1.2.141A4.539,4.539,0,0,1,126.414,41.711Zm7.719.461a.829.829,0,0,1-.613-.258.849.849,0,0,1-.254-.617.862.862,0,0,1,.254-.621.823.823,0,0,1,.613-.262.845.845,0,0,1,.625.262.855.855,0,0,1,.258.621.842.842,0,0,1-.258.617A.851.851,0,0,1,134.133,42.172ZM150.383,42H148.93l-1.187-3.141h-4.75L141.875,42h-1.461l4.3-11.2h1.359Zm-3.07-4.32-1.758-4.773a4.571,4.571,0,0,1-.172-.75h-.031a4.185,4.185,0,0,1-.18.75L143.43,37.68ZM162.531,34l-3.187,8h-1.258l-3.031-8h1.406l2.031,5.813a5.216,5.216,0,0,1,.281,1.117h.031a5.283,5.283,0,0,1,.25-1.086L161.18,34Zm7.8,4.32h-5.648a2.992,2.992,0,0,0,.719,2.063,2.478,2.478,0,0,0,1.891.727,3.931,3.931,0,0,0,2.484-.891v1.2a4.643,4.643,0,0,1-2.789.766,3.381,3.381,0,0,1-2.664-1.09,4.461,4.461,0,0,1-.969-3.066,4.374,4.374,0,0,1,1.059-3.043,3.394,3.394,0,0,1,2.629-1.176,3.008,3.008,0,0,1,2.43,1.016,4.234,4.234,0,0,1,.859,2.82Zm-1.312-1.086a2.607,2.607,0,0,0-.535-1.727,1.823,1.823,0,0,0-1.465-.617,2.07,2.07,0,0,0-1.539.648,2.943,2.943,0,0,0-.781,1.7Zm2.766,4.477V40.336a3.792,3.792,0,0,0,2.3.773q1.688,0,1.688-1.125a.976.976,0,0,0-.145-.543,1.44,1.44,0,0,0-.391-.395,3.007,3.007,0,0,0-.578-.309q-.332-.137-.715-.285a9.206,9.206,0,0,1-.934-.426,2.82,2.82,0,0,1-.672-.484,1.8,1.8,0,0,1-.406-.613,2.17,2.17,0,0,1-.137-.8,1.912,1.912,0,0,1,.258-1,2.286,2.286,0,0,1,.688-.727,3.206,3.206,0,0,1,.98-.441,4.349,4.349,0,0,1,1.137-.148,4.59,4.59,0,0,1,1.859.359v1.3a3.624,3.624,0,0,0-2.031-.578,2.374,2.374,0,0,0-.648.082,1.587,1.587,0,0,0-.5.23,1.065,1.065,0,0,0-.32.355.936.936,0,0,0-.113.457,1.1,1.1,0,0,0,.113.523,1.152,1.152,0,0,0,.332.375,2.538,2.538,0,0,0,.531.3q.312.133.711.289a9.894,9.894,0,0,1,.953.418,3.269,3.269,0,0,1,.719.484,1.893,1.893,0,0,1,.457.621,2,2,0,0,1,.16.836,1.971,1.971,0,0,1-.262,1.031,2.243,2.243,0,0,1-.7.727,3.2,3.2,0,0,1-1.008.43,4.976,4.976,0,0,1-1.2.141A4.539,4.539,0,0,1,171.789,41.711Zm10.984.211a2.47,2.47,0,0,1-1.2.25q-2.1,0-2.1-2.344V35.094H178.1V34h1.375V32.047l1.281-.414V34h2.016v1.094h-2.016V39.6a1.869,1.869,0,0,0,.273,1.148,1.091,1.091,0,0,0,.906.344,1.347,1.347,0,0,0,.836-.266Zm2.367-9.953a.812.812,0,0,1-.586-.234.791.791,0,0,1-.242-.594.821.821,0,0,1,.828-.836.827.827,0,0,1,.6.238.835.835,0,0,1,0,1.184A.82.82,0,0,1,185.141,31.969ZM185.766,42h-1.281V34h1.281Zm3.906-1.156h-.031V42h-1.281V30.156h1.281v5.25h.031a3.03,3.03,0,0,1,2.766-1.594,2.932,2.932,0,0,1,2.41,1.074,4.436,4.436,0,0,1,.871,2.879,4.958,4.958,0,0,1-.977,3.215,3.251,3.251,0,0,1-2.672,1.207A2.631,2.631,0,0,1,189.672,40.844Zm-.031-3.227v1.117a2.379,2.379,0,0,0,.645,1.684,2.3,2.3,0,0,0,3.461-.2,4.086,4.086,0,0,0,.66-2.477,3.225,3.225,0,0,0-.617-2.094,2.043,2.043,0,0,0-1.672-.758,2.27,2.27,0,0,0-1.8.777A2.854,2.854,0,0,0,189.641,37.617ZM204.234,42h-1.281V40.734h-.031a2.631,2.631,0,0,1-2.469,1.453q-2.859,0-2.859-3.406V34h1.273v4.578q0,2.531,1.938,2.531a1.96,1.96,0,0,0,1.543-.691,2.645,2.645,0,0,0,.605-1.809V34h1.281Zm3.867,0H206.82V30.156H208.1Zm9.063,0h-1.281V40.734h-.031a2.631,2.631,0,0,1-2.469,1.453q-2.859,0-2.859-3.406V34H211.8v4.578q0,2.531,1.938,2.531a1.96,1.96,0,0,0,1.543-.691,2.645,2.645,0,0,0,.605-1.809V34h1.281Zm13.945,0h-1.281V37.406a3.466,3.466,0,0,0-.41-1.922,1.555,1.555,0,0,0-1.379-.594,1.708,1.708,0,0,0-1.395.75,2.869,2.869,0,0,0-.574,1.8V42h-1.281V37.25q0-2.359-1.82-2.359a1.686,1.686,0,0,0-1.391.707,2.923,2.923,0,0,0-.547,1.84V42H219.75V34h1.281v1.266h.031a2.718,2.718,0,0,1,2.484-1.453,2.311,2.311,0,0,1,2.266,1.656,2.855,2.855,0,0,1,2.656-1.656q2.641,0,2.641,3.258Zm2.867.172a.829.829,0,0,1-.613-.258.849.849,0,0,1-.254-.617.862.862,0,0,1,.254-.621.823.823,0,0,1,.613-.262.845.845,0,0,1,.625.262.855.855,0,0,1,.258.621.842.842,0,0,1-.258.617A.851.851,0,0,1,233.977,42.172Z" transform="translate(47 65)"/><path class="d" d="M8.25.258A6.928,6.928,0,0,1,2.917-1.9a7.931,7.931,0,0,1-2-5.618,8.4,8.4,0,0,1,2.041-5.93A7.171,7.171,0,0,1,8.5-15.662a6.774,6.774,0,0,1,5.226,2.148A7.958,7.958,0,0,1,15.705-7.9a8.429,8.429,0,0,1-2.03,5.962A7.04,7.04,0,0,1,8.25.258Zm.118-13.675a4.286,4.286,0,0,0-3.443,1.579A6.247,6.247,0,0,0,3.6-7.681,6.307,6.307,0,0,0,4.888-3.545,4.156,4.156,0,0,0,8.261-1.977,4.355,4.355,0,0,0,11.752-3.47,6.229,6.229,0,0,0,13.03-7.648a6.531,6.531,0,0,0-1.241-4.265A4.2,4.2,0,0,0,8.368-13.417Zm26.093.183H30.035V0H27.479V-13.234H23.063V-15.4h11.4Zm3.233-.075a1.5,1.5,0,0,1-1.047-.4,1.308,1.308,0,0,1-.435-1.01,1.341,1.341,0,0,1,.435-1.021,1.476,1.476,0,0,1,1.047-.408,1.522,1.522,0,0,1,1.074.408,1.334,1.334,0,0,1,.44,1.021,1.315,1.315,0,0,1-.44.994A1.511,1.511,0,0,1,37.694-13.31ZM38.93,0H36.438V-11H38.93Zm9.056-.118a4.319,4.319,0,0,1-1.923.365q-3.2,0-3.2-3.072v-6.22H41.024V-11h1.837v-2.546l2.492-.709V-11h2.632v1.955H45.354v5.5a2.167,2.167,0,0,0,.354,1.4,1.472,1.472,0,0,0,1.182.419,1.713,1.713,0,0,0,1.1-.365ZM59.727,0H57.234V-1.74h-.043a3.587,3.587,0,0,1-3.373,2q-3.9,0-3.9-4.684V-11h2.492v6.316q0,2.965,2.288,2.965a2.312,2.312,0,0,0,1.821-.816,3.129,3.129,0,0,0,.714-2.138V-11h2.492Zm5.747,0h-2.5V-16.285h2.5Zm8.121.258a5.452,5.452,0,0,1-4.066-1.542,5.569,5.569,0,0,1-1.52-4.087A5.794,5.794,0,0,1,69.593-9.7a5.826,5.826,0,0,1,4.27-1.558,5.277,5.277,0,0,1,4.018,1.515,5.851,5.851,0,0,1,1.439,4.2,5.765,5.765,0,0,1-1.552,4.216A5.576,5.576,0,0,1,73.595.258Zm.118-9.528A2.845,2.845,0,0,0,71.4-8.25a4.273,4.273,0,0,0-.849,2.814,4.025,4.025,0,0,0,.859,2.723,2.886,2.886,0,0,0,2.3.994A2.739,2.739,0,0,0,75.974-2.7a4.327,4.327,0,0,0,.79-2.782,4.393,4.393,0,0,0-.79-2.8A2.726,2.726,0,0,0,73.713-9.271Z" transform="translate(362 16)"/><path class="d" d="M.914-.325V-1.872A4.266,4.266,0,0,0,3.507-1q1.9,0,1.9-1.266a1.1,1.1,0,0,0-.163-.611A1.62,1.62,0,0,0,4.8-3.322a3.383,3.383,0,0,0-.65-.347q-.374-.154-.8-.321A10.357,10.357,0,0,1,2.3-4.469a3.173,3.173,0,0,1-.756-.545,2.028,2.028,0,0,1-.457-.69,2.441,2.441,0,0,1-.154-.905,2.15,2.15,0,0,1,.29-1.121A2.572,2.572,0,0,1,2-8.547a3.607,3.607,0,0,1,1.1-.5,4.893,4.893,0,0,1,1.279-.167,5.164,5.164,0,0,1,2.092.4v1.459A4.077,4.077,0,0,0,4.184-8a2.671,2.671,0,0,0-.729.092,1.786,1.786,0,0,0-.558.259,1.2,1.2,0,0,0-.36.4,1.053,1.053,0,0,0-.127.514,1.233,1.233,0,0,0,.127.589,1.3,1.3,0,0,0,.374.422,2.855,2.855,0,0,0,.6.334q.352.149.8.325a11.131,11.131,0,0,1,1.072.47,3.678,3.678,0,0,1,.809.545,2.129,2.129,0,0,1,.514.7,2.254,2.254,0,0,1,.18.94,2.217,2.217,0,0,1-.294,1.16A2.523,2.523,0,0,1,5.8-.431,3.6,3.6,0,0,1,4.667.053,5.6,5.6,0,0,1,3.322.211,5.106,5.106,0,0,1,.914-.325ZM16.374,0H14.933V-1.424H14.9A2.96,2.96,0,0,1,12.12.211Q8.9.211,8.9-3.621V-9h1.433v5.15Q10.336-1,12.516-1a2.205,2.205,0,0,0,1.736-.778,2.976,2.976,0,0,0,.681-2.035V-9h1.441ZM20.76-1.3h-.035V0H19.283V-13.324h1.441v5.906h.035a3.408,3.408,0,0,1,3.111-1.793A3.3,3.3,0,0,1,26.583-8a4.99,4.99,0,0,1,.98,3.239,5.578,5.578,0,0,1-1.1,3.617A3.658,3.658,0,0,1,23.458.211,2.96,2.96,0,0,1,20.76-1.3Zm-.035-3.63v1.257A2.676,2.676,0,0,0,21.45-1.78,2.408,2.408,0,0,0,23.291-1a2.413,2.413,0,0,0,2.052-1,4.6,4.6,0,0,0,.743-2.786,3.629,3.629,0,0,0-.694-2.355A2.3,2.3,0,0,0,23.511-8a2.554,2.554,0,0,0-2.021.875A3.211,3.211,0,0,0,20.725-4.931ZM34.04-.088A2.779,2.779,0,0,1,32.7.193q-2.364,0-2.364-2.637V-7.77H28.784V-9h1.547v-2.2l1.441-.466V-9H34.04v1.23H31.772V-2.7a2.1,2.1,0,0,0,.308,1.292,1.228,1.228,0,0,0,1.02.387,1.515,1.515,0,0,0,.94-.3Zm2.663-11.2a.913.913,0,0,1-.659-.264.89.89,0,0,1-.272-.668.9.9,0,0,1,.272-.672.905.905,0,0,1,.659-.268.931.931,0,0,1,.672.268.9.9,0,0,1,.277.672.891.891,0,0,1-.277.659A.923.923,0,0,1,36.7-11.285ZM37.406,0H35.965V-9h1.441ZM44.5-.088a2.779,2.779,0,0,1-1.345.281q-2.364,0-2.364-2.637V-7.77H39.243V-9H40.79v-2.2l1.441-.466V-9H44.5v1.23H42.231V-2.7a2.1,2.1,0,0,0,.308,1.292,1.228,1.228,0,0,0,1.02.387,1.515,1.515,0,0,0,.94-.3ZM53.7,0H52.26V-1.424h-.035A2.96,2.96,0,0,1,49.447.211q-3.217,0-3.217-3.832V-9h1.433v5.15Q47.663-1,49.843-1a2.205,2.205,0,0,0,1.736-.778,2.976,2.976,0,0,0,.681-2.035V-9H53.7Zm4.351,0H56.61V-13.324h1.441Zm6.68.211A4.175,4.175,0,0,1,61.545-1.05a4.672,4.672,0,0,1-1.191-3.344,4.867,4.867,0,0,1,1.239-3.542,4.455,4.455,0,0,1,3.349-1.274,4.037,4.037,0,0,1,3.142,1.239,4.914,4.914,0,0,1,1.129,3.437A4.835,4.835,0,0,1,68-1.085,4.265,4.265,0,0,1,64.731.211ZM64.837-8a2.742,2.742,0,0,0-2.2.945,3.88,3.88,0,0,0-.809,2.606,3.67,3.67,0,0,0,.817,2.522A2.778,2.778,0,0,0,64.837-1a2.635,2.635,0,0,0,2.149-.905,3.928,3.928,0,0,0,.751-2.575,4,4,0,0,0-.751-2.6A2.623,2.623,0,0,0,64.837-8Z" transform="translate(362 44)"/><path class="d" d="M5.984.188a4.945,4.945,0,0,1-3.82-1.57A5.834,5.834,0,0,1,.734-5.469,6.154,6.154,0,0,1,2.2-9.781a5.118,5.118,0,0,1,3.977-1.609A4.81,4.81,0,0,1,9.906-9.828a5.836,5.836,0,0,1,1.422,4.086A6.191,6.191,0,0,1,9.875-1.406a4.312,4.312,0,0,1-.734.656l3.148,2.258H9.906L7.8-.07A6.073,6.073,0,0,1,5.984.188ZM6.078-10.2A3.612,3.612,0,0,0,3.211-8.93a4.93,4.93,0,0,0-1.1,3.344A5.011,5.011,0,0,0,3.18-2.25a3.519,3.519,0,0,0,2.8,1.258A3.678,3.678,0,0,0,8.891-2.2,4.917,4.917,0,0,0,9.953-5.562a5.119,5.119,0,0,0-1.031-3.43A3.536,3.536,0,0,0,6.078-10.2ZM19.828,0H18.547V-1.266h-.031A2.631,2.631,0,0,1,16.047.188q-2.859,0-2.859-3.406V-8h1.273v4.578q0,2.531,1.938,2.531a1.96,1.96,0,0,0,1.543-.691,2.645,2.645,0,0,0,.605-1.809V-8h1.281ZM23.07-10.031a.812.812,0,0,1-.586-.234.791.791,0,0,1-.242-.594.8.8,0,0,1,.242-.6.8.8,0,0,1,.586-.238.827.827,0,0,1,.6.238.8.8,0,0,1,.246.6.792.792,0,0,1-.246.586A.82.82,0,0,1,23.07-10.031ZM23.7,0H22.414V-8H23.7ZM25.8-.289V-1.664a3.792,3.792,0,0,0,2.3.773q1.688,0,1.688-1.125a.976.976,0,0,0-.145-.543,1.44,1.44,0,0,0-.391-.395,3.007,3.007,0,0,0-.578-.309q-.332-.137-.715-.285a9.207,9.207,0,0,1-.934-.426,2.82,2.82,0,0,1-.672-.484,1.8,1.8,0,0,1-.406-.613,2.17,2.17,0,0,1-.137-.8,1.912,1.912,0,0,1,.258-1,2.286,2.286,0,0,1,.688-.727,3.206,3.206,0,0,1,.98-.441,4.349,4.349,0,0,1,1.137-.148,4.59,4.59,0,0,1,1.859.359v1.3a3.624,3.624,0,0,0-2.031-.578,2.374,2.374,0,0,0-.648.082,1.587,1.587,0,0,0-.5.23,1.065,1.065,0,0,0-.32.355.936.936,0,0,0-.113.457,1.1,1.1,0,0,0,.113.523,1.152,1.152,0,0,0,.332.375,2.538,2.538,0,0,0,.531.3q.313.133.711.289a9.9,9.9,0,0,1,.953.418,3.269,3.269,0,0,1,.719.484,1.893,1.893,0,0,1,.457.621,2,2,0,0,1,.16.836,1.971,1.971,0,0,1-.262,1.031,2.243,2.243,0,0,1-.7.727,3.2,3.2,0,0,1-1.008.43,4.976,4.976,0,0,1-1.2.141A4.539,4.539,0,0,1,25.8-.289ZM44.1,0H42.82V-4.609q0-2.5-1.859-2.5a2.027,2.027,0,0,0-1.578.723,2.693,2.693,0,0,0-.641,1.855V0H37.461V-11.844h1.281v5.172h.031A2.91,2.91,0,0,1,41.4-8.187q2.7,0,2.7,3.258Zm8.844-3.68H47.3a2.992,2.992,0,0,0,.719,2.063,2.478,2.478,0,0,0,1.891.727,3.931,3.931,0,0,0,2.484-.891v1.2A4.643,4.643,0,0,1,49.6.188,3.381,3.381,0,0,1,46.938-.9a4.461,4.461,0,0,1-.969-3.066,4.375,4.375,0,0,1,1.059-3.043,3.394,3.394,0,0,1,2.629-1.176,3.008,3.008,0,0,1,2.43,1.016,4.234,4.234,0,0,1,.859,2.82ZM51.633-4.766A2.607,2.607,0,0,0,51.1-6.492a1.823,1.823,0,0,0-1.465-.617,2.07,2.07,0,0,0-1.539.648,2.943,2.943,0,0,0-.781,1.7ZM61.523,0H60.242V-4.562q0-2.547-1.859-2.547a2.017,2.017,0,0,0-1.59.723,2.679,2.679,0,0,0-.629,1.824V0H54.883V-8h1.281v1.328H56.2A2.887,2.887,0,0,1,58.82-8.187a2.448,2.448,0,0,1,2.008.848,3.776,3.776,0,0,1,.7,2.449Zm9.242,0H69.484V-1.359h-.031A2.958,2.958,0,0,1,66.7.188a2.988,2.988,0,0,1-2.41-1.074,4.407,4.407,0,0,1-.9-2.926,4.794,4.794,0,0,1,1-3.18,3.3,3.3,0,0,1,2.664-1.2,2.564,2.564,0,0,1,2.4,1.3h.031v-4.953h1.281ZM69.484-3.617V-4.8a2.289,2.289,0,0,0-.641-1.641,2.149,2.149,0,0,0-1.625-.672,2.212,2.212,0,0,0-1.844.859A3.766,3.766,0,0,0,64.7-3.875a3.387,3.387,0,0,0,.645,2.184,2.107,2.107,0,0,0,1.73.8,2.188,2.188,0,0,0,1.738-.773A2.882,2.882,0,0,0,69.484-3.617ZM77.531-6.7a1.567,1.567,0,0,0-.969-.258,1.635,1.635,0,0,0-1.371.773,3.576,3.576,0,0,0-.551,2.109V0H73.359V-8h1.281v1.648h.031a2.793,2.793,0,0,1,.836-1.316,1.906,1.906,0,0,1,1.258-.473,2.092,2.092,0,0,1,.766.109Zm7.82,3.023H79.7a2.992,2.992,0,0,0,.719,2.063,2.478,2.478,0,0,0,1.891.727A3.931,3.931,0,0,0,84.8-1.781v1.2a4.643,4.643,0,0,1-2.789.766A3.381,3.381,0,0,1,79.344-.9a4.461,4.461,0,0,1-.969-3.066,4.375,4.375,0,0,1,1.059-3.043,3.394,3.394,0,0,1,2.629-1.176,3.008,3.008,0,0,1,2.43,1.016,4.234,4.234,0,0,1,.859,2.82ZM84.039-4.766A2.607,2.607,0,0,0,83.5-6.492a1.823,1.823,0,0,0-1.465-.617,2.07,2.07,0,0,0-1.539.648,2.943,2.943,0,0,0-.781,1.7ZM91.461-6.7a1.567,1.567,0,0,0-.969-.258,1.635,1.635,0,0,0-1.371.773,3.576,3.576,0,0,0-.551,2.109V0H87.289V-8H88.57v1.648H88.6a2.793,2.793,0,0,1,.836-1.316A1.906,1.906,0,0,1,90.7-8.141a2.092,2.092,0,0,1,.766.109Zm2.047-3.328a.812.812,0,0,1-.586-.234.791.791,0,0,1-.242-.594.8.8,0,0,1,.242-.6.8.8,0,0,1,.586-.238.827.827,0,0,1,.6.238.8.8,0,0,1,.246.6.792.792,0,0,1-.246.586A.82.82,0,0,1,93.508-10.031ZM94.133,0H92.852V-8h1.281Zm6.3-.078a2.47,2.47,0,0,1-1.2.25q-2.1,0-2.1-2.344V-6.906H95.766V-8h1.375V-9.953l1.281-.414V-8h2.016v1.094H98.422V-2.4A1.869,1.869,0,0,0,98.7-1.25a1.091,1.091,0,0,0,.906.344,1.347,1.347,0,0,0,.836-.266ZM110.7-6.7a1.567,1.567,0,0,0-.969-.258,1.635,1.635,0,0,0-1.371.773,3.576,3.576,0,0,0-.551,2.109V0h-1.281V-8h1.281v1.648h.031a2.793,2.793,0,0,1,.836-1.316,1.906,1.906,0,0,1,1.258-.473,2.092,2.092,0,0,1,.766.109Zm2.047-3.328a.812.812,0,0,1-.586-.234.791.791,0,0,1-.242-.594.8.8,0,0,1,.242-.6.8.8,0,0,1,.586-.238.827.827,0,0,1,.6.238.8.8,0,0,1,.246.6.792.792,0,0,1-.246.586A.82.82,0,0,1,112.75-10.031ZM113.375,0h-1.281V-8h1.281Zm2.109-.289V-1.664a3.792,3.792,0,0,0,2.3.773q1.688,0,1.688-1.125a.976.976,0,0,0-.145-.543,1.44,1.44,0,0,0-.391-.395,3.007,3.007,0,0,0-.578-.309q-.332-.137-.715-.285a9.207,9.207,0,0,1-.934-.426,2.82,2.82,0,0,1-.672-.484,1.8,1.8,0,0,1-.406-.613,2.17,2.17,0,0,1-.137-.8,1.912,1.912,0,0,1,.258-1,2.286,2.286,0,0,1,.688-.727,3.206,3.206,0,0,1,.98-.441,4.349,4.349,0,0,1,1.137-.148,4.59,4.59,0,0,1,1.859.359v1.3a3.624,3.624,0,0,0-2.031-.578,2.374,2.374,0,0,0-.648.082,1.587,1.587,0,0,0-.5.23,1.065,1.065,0,0,0-.32.355.936.936,0,0,0-.113.457,1.1,1.1,0,0,0,.113.523,1.152,1.152,0,0,0,.332.375,2.538,2.538,0,0,0,.531.3q.313.133.711.289a9.9,9.9,0,0,1,.953.418,3.269,3.269,0,0,1,.719.484,1.893,1.893,0,0,1,.457.621,2,2,0,0,1,.16.836,1.971,1.971,0,0,1-.262,1.031,2.243,2.243,0,0,1-.7.727,3.2,3.2,0,0,1-1.008.43,4.976,4.976,0,0,1-1.2.141A4.539,4.539,0,0,1,115.484-.289ZM129.227,0h-1.281V-1.266h-.031A2.631,2.631,0,0,1,125.445.188q-2.859,0-2.859-3.406V-8h1.273v4.578q0,2.531,1.938,2.531a1.96,1.96,0,0,0,1.543-.691,2.645,2.645,0,0,0,.605-1.809V-8h1.281Zm2.1-.289V-1.664a3.792,3.792,0,0,0,2.3.773q1.688,0,1.688-1.125a.976.976,0,0,0-.145-.543,1.441,1.441,0,0,0-.391-.395,3.007,3.007,0,0,0-.578-.309q-.332-.137-.715-.285a9.207,9.207,0,0,1-.934-.426,2.82,2.82,0,0,1-.672-.484,1.8,1.8,0,0,1-.406-.613,2.17,2.17,0,0,1-.137-.8,1.912,1.912,0,0,1,.258-1,2.286,2.286,0,0,1,.688-.727,3.206,3.206,0,0,1,.98-.441,4.349,4.349,0,0,1,1.137-.148,4.59,4.59,0,0,1,1.859.359v1.3a3.624,3.624,0,0,0-2.031-.578,2.374,2.374,0,0,0-.648.082,1.587,1.587,0,0,0-.5.23,1.065,1.065,0,0,0-.32.355.936.936,0,0,0-.113.457,1.1,1.1,0,0,0,.113.523,1.152,1.152,0,0,0,.332.375,2.538,2.538,0,0,0,.531.3q.312.133.711.289a9.894,9.894,0,0,1,.953.418,3.269,3.269,0,0,1,.719.484,1.893,1.893,0,0,1,.457.621,2,2,0,0,1,.16.836,1.971,1.971,0,0,1-.262,1.031,2.243,2.243,0,0,1-.7.727,3.2,3.2,0,0,1-1.008.43,4.976,4.976,0,0,1-1.2.141A4.539,4.539,0,0,1,131.328-.289ZM148.711,0H147.43V-1.25H147.4A2.682,2.682,0,0,1,144.938.188a2.63,2.63,0,0,1-1.871-.633,2.192,2.192,0,0,1-.676-1.68q0-2.242,2.641-2.609l2.4-.336q0-2.039-1.648-2.039a3.938,3.938,0,0,0-2.609.984V-7.437a4.958,4.958,0,0,1,2.719-.75q2.82,0,2.82,2.984ZM147.43-4.047l-1.93.266a3.133,3.133,0,0,0-1.344.441,1.273,1.273,0,0,0-.453,1.121,1.221,1.221,0,0,0,.418.957,1.615,1.615,0,0,0,1.113.371,2.056,2.056,0,0,0,1.574-.668,2.387,2.387,0,0,0,.621-1.691Zm7.594,3.758V-1.664a3.792,3.792,0,0,0,2.3.773q1.688,0,1.688-1.125a.976.976,0,0,0-.145-.543,1.441,1.441,0,0,0-.391-.395,3.007,3.007,0,0,0-.578-.309q-.332-.137-.715-.285a9.207,9.207,0,0,1-.934-.426,2.82,2.82,0,0,1-.672-.484,1.8,1.8,0,0,1-.406-.613,2.17,2.17,0,0,1-.137-.8,1.912,1.912,0,0,1,.258-1,2.286,2.286,0,0,1,.688-.727,3.206,3.206,0,0,1,.98-.441,4.349,4.349,0,0,1,1.137-.148,4.59,4.59,0,0,1,1.859.359v1.3a3.624,3.624,0,0,0-2.031-.578,2.374,2.374,0,0,0-.648.082,1.587,1.587,0,0,0-.5.23,1.065,1.065,0,0,0-.32.355.936.936,0,0,0-.113.457,1.1,1.1,0,0,0,.113.523,1.152,1.152,0,0,0,.332.375,2.538,2.538,0,0,0,.531.3q.312.133.711.289a9.894,9.894,0,0,1,.953.418,3.269,3.269,0,0,1,.719.484,1.893,1.893,0,0,1,.457.621,2,2,0,0,1,.16.836,1.971,1.971,0,0,1-.262,1.031,2.243,2.243,0,0,1-.7.727,3.2,3.2,0,0,1-1.008.43,4.976,4.976,0,0,1-1.2.141A4.539,4.539,0,0,1,155.023-.289Zm10.617.477a3.711,3.711,0,0,1-2.832-1.121,4.153,4.153,0,0,1-1.059-2.973,4.326,4.326,0,0,1,1.1-3.148,3.96,3.96,0,0,1,2.977-1.133,3.588,3.588,0,0,1,2.793,1.1,4.368,4.368,0,0,1,1,3.055,4.3,4.3,0,0,1-1.082,3.066A3.791,3.791,0,0,1,165.641.188Zm.094-7.3a2.437,2.437,0,0,0-1.953.84,3.449,3.449,0,0,0-.719,2.316,3.262,3.262,0,0,0,.727,2.242,2.469,2.469,0,0,0,1.945.82,2.342,2.342,0,0,0,1.91-.8,3.492,3.492,0,0,0,.668-2.289,3.552,3.552,0,0,0-.668-2.312A2.332,2.332,0,0,0,165.734-7.109ZM178.5,0h-1.281V-1.359h-.031a2.958,2.958,0,0,1-2.75,1.547,2.988,2.988,0,0,1-2.41-1.074,4.407,4.407,0,0,1-.9-2.926,4.794,4.794,0,0,1,1-3.18,3.3,3.3,0,0,1,2.664-1.2,2.564,2.564,0,0,1,2.4,1.3h.031v-4.953H178.5Zm-1.281-3.617V-4.8a2.289,2.289,0,0,0-.641-1.641,2.149,2.149,0,0,0-1.625-.672,2.212,2.212,0,0,0-1.844.859,3.766,3.766,0,0,0-.672,2.375,3.387,3.387,0,0,0,.645,2.184,2.107,2.107,0,0,0,1.73.8,2.188,2.188,0,0,0,1.738-.773A2.882,2.882,0,0,0,177.219-3.617ZM186.82,0h-1.281V-1.25h-.031A2.682,2.682,0,0,1,183.047.188a2.63,2.63,0,0,1-1.871-.633,2.192,2.192,0,0,1-.676-1.68q0-2.242,2.641-2.609l2.4-.336q0-2.039-1.648-2.039a3.938,3.938,0,0,0-2.609.984V-7.437A4.958,4.958,0,0,1,184-8.187q2.82,0,2.82,2.984Zm-1.281-4.047-1.93.266a3.133,3.133,0,0,0-1.344.441,1.273,1.273,0,0,0-.453,1.121,1.221,1.221,0,0,0,.418.957,1.615,1.615,0,0,0,1.113.371,2.056,2.056,0,0,0,1.574-.668,2.387,2.387,0,0,0,.621-1.691ZM190.516,0h-1.281V-11.844h1.281Zm9.023-3.68h-5.648a2.992,2.992,0,0,0,.719,2.063,2.478,2.478,0,0,0,1.891.727,3.931,3.931,0,0,0,2.484-.891v1.2A4.643,4.643,0,0,1,196.2.188,3.381,3.381,0,0,1,193.531-.9a4.461,4.461,0,0,1-.969-3.066,4.374,4.374,0,0,1,1.059-3.043,3.394,3.394,0,0,1,2.629-1.176,3.008,3.008,0,0,1,2.43,1.016,4.234,4.234,0,0,1,.859,2.82Zm-1.312-1.086a2.607,2.607,0,0,0-.535-1.727,1.823,1.823,0,0,0-1.465-.617,2.07,2.07,0,0,0-1.539.648,2.943,2.943,0,0,0-.781,1.7Zm2.766,4.477V-1.664a3.792,3.792,0,0,0,2.3.773q1.688,0,1.688-1.125a.976.976,0,0,0-.145-.543,1.441,1.441,0,0,0-.391-.395,3.007,3.007,0,0,0-.578-.309q-.332-.137-.715-.285a9.207,9.207,0,0,1-.934-.426,2.82,2.82,0,0,1-.672-.484,1.8,1.8,0,0,1-.406-.613,2.17,2.17,0,0,1-.137-.8,1.912,1.912,0,0,1,.258-1,2.286,2.286,0,0,1,.688-.727,3.206,3.206,0,0,1,.98-.441,4.349,4.349,0,0,1,1.137-.148,4.59,4.59,0,0,1,1.859.359v1.3a3.624,3.624,0,0,0-2.031-.578,2.374,2.374,0,0,0-.648.082,1.587,1.587,0,0,0-.5.23,1.065,1.065,0,0,0-.32.355.936.936,0,0,0-.113.457,1.1,1.1,0,0,0,.113.523,1.152,1.152,0,0,0,.332.375,2.538,2.538,0,0,0,.531.3q.312.133.711.289a9.894,9.894,0,0,1,.953.418,3.269,3.269,0,0,1,.719.484,1.893,1.893,0,0,1,.457.621,2,2,0,0,1,.16.836,1.971,1.971,0,0,1-.262,1.031,2.243,2.243,0,0,1-.7.727,3.2,3.2,0,0,1-1.008.43,4.976,4.976,0,0,1-1.2.141A4.539,4.539,0,0,1,200.992-.289ZM218.375,0h-1.281V-1.25h-.031A2.682,2.682,0,0,1,214.6.188a2.63,2.63,0,0,1-1.871-.633,2.192,2.192,0,0,1-.676-1.68q0-2.242,2.641-2.609l2.4-.336q0-2.039-1.648-2.039a3.938,3.938,0,0,0-2.609.984V-7.437a4.958,4.958,0,0,1,2.719-.75q2.82,0,2.82,2.984Zm-1.281-4.047-1.93.266a3.133,3.133,0,0,0-1.344.441,1.273,1.273,0,0,0-.453,1.121,1.221,1.221,0,0,0,.418.957,1.615,1.615,0,0,0,1.113.371,2.056,2.056,0,0,0,1.574-.668,2.387,2.387,0,0,0,.621-1.691ZM227.43,0h-1.281V-4.562q0-2.547-1.859-2.547a2.017,2.017,0,0,0-1.59.723,2.679,2.679,0,0,0-.629,1.824V0h-1.281V-8h1.281v1.328h.031a2.887,2.887,0,0,1,2.625-1.516,2.448,2.448,0,0,1,2.008.848,3.776,3.776,0,0,1,.7,2.449Zm6.125-.078a2.47,2.47,0,0,1-1.2.25q-2.1,0-2.1-2.344V-6.906h-1.375V-8h1.375V-9.953l1.281-.414V-8h2.016v1.094h-2.016V-2.4a1.869,1.869,0,0,0,.273,1.148,1.091,1.091,0,0,0,.906.344,1.347,1.347,0,0,0,.836-.266Zm8.141-3.6h-5.648a2.992,2.992,0,0,0,.719,2.063,2.478,2.478,0,0,0,1.891.727,3.931,3.931,0,0,0,2.484-.891v1.2a4.643,4.643,0,0,1-2.789.766A3.381,3.381,0,0,1,235.688-.9a4.461,4.461,0,0,1-.969-3.066,4.374,4.374,0,0,1,1.059-3.043,3.394,3.394,0,0,1,2.629-1.176,3.008,3.008,0,0,1,2.43,1.016,4.234,4.234,0,0,1,.859,2.82Zm-1.312-1.086a2.607,2.607,0,0,0-.535-1.727,1.823,1.823,0,0,0-1.465-.617,2.07,2.07,0,0,0-1.539.648,2.943,2.943,0,0,0-.781,1.7ZM.813,20.711V19.336a3.792,3.792,0,0,0,2.3.773q1.688,0,1.688-1.125a.976.976,0,0,0-.145-.543,1.44,1.44,0,0,0-.391-.395,3.007,3.007,0,0,0-.578-.309q-.332-.137-.715-.285a9.207,9.207,0,0,1-.934-.426,2.82,2.82,0,0,1-.672-.484,1.8,1.8,0,0,1-.406-.613,2.17,2.17,0,0,1-.137-.8,1.912,1.912,0,0,1,.258-1,2.286,2.286,0,0,1,.688-.727,3.206,3.206,0,0,1,.98-.441,4.349,4.349,0,0,1,1.137-.148,4.59,4.59,0,0,1,1.859.359v1.3a3.624,3.624,0,0,0-2.031-.578,2.374,2.374,0,0,0-.648.082,1.587,1.587,0,0,0-.5.23,1.065,1.065,0,0,0-.32.355.936.936,0,0,0-.113.457,1.1,1.1,0,0,0,.113.523,1.152,1.152,0,0,0,.332.375,2.538,2.538,0,0,0,.531.3q.312.133.711.289a9.894,9.894,0,0,1,.953.418A3.269,3.269,0,0,1,5.5,17.4a1.893,1.893,0,0,1,.457.621,2,2,0,0,1,.16.836,1.971,1.971,0,0,1-.262,1.031,2.243,2.243,0,0,1-.7.727,3.2,3.2,0,0,1-1.008.43,4.976,4.976,0,0,1-1.2.141A4.539,4.539,0,0,1,.813,20.711Zm13.7-3.391H8.867a2.992,2.992,0,0,0,.719,2.063,2.478,2.478,0,0,0,1.891.727,3.931,3.931,0,0,0,2.484-.891v1.2a4.643,4.643,0,0,1-2.789.766A3.381,3.381,0,0,1,8.508,20.1a4.461,4.461,0,0,1-.969-3.066A4.375,4.375,0,0,1,8.6,13.988a3.394,3.394,0,0,1,2.629-1.176,3.008,3.008,0,0,1,2.43,1.016,4.234,4.234,0,0,1,.859,2.82ZM13.2,16.234a2.607,2.607,0,0,0-.535-1.727,1.823,1.823,0,0,0-1.465-.617,2.07,2.07,0,0,0-1.539.648,2.943,2.943,0,0,0-.781,1.7ZM23.094,21H21.813V16.438q0-2.547-1.859-2.547a2.017,2.017,0,0,0-1.59.723,2.679,2.679,0,0,0-.629,1.824V21H16.453V13h1.281v1.328h.031a2.887,2.887,0,0,1,2.625-1.516,2.448,2.448,0,0,1,2.008.848,3.776,3.776,0,0,1,.7,2.449Zm8.844-3.68H26.289a2.992,2.992,0,0,0,.719,2.063,2.478,2.478,0,0,0,1.891.727,3.931,3.931,0,0,0,2.484-.891v1.2a4.643,4.643,0,0,1-2.789.766A3.381,3.381,0,0,1,25.93,20.1a4.461,4.461,0,0,1-.969-3.066,4.375,4.375,0,0,1,1.059-3.043,3.394,3.394,0,0,1,2.629-1.176,3.008,3.008,0,0,1,2.43,1.016,4.234,4.234,0,0,1,.859,2.82Zm-1.312-1.086a2.607,2.607,0,0,0-.535-1.727,1.823,1.823,0,0,0-1.465-.617,2.07,2.07,0,0,0-1.539.648,2.943,2.943,0,0,0-.781,1.7Zm8.7,4.4a4.163,4.163,0,0,1-2.187.555,3.622,3.622,0,0,1-2.762-1.113,4.035,4.035,0,0,1-1.051-2.887,4.435,4.435,0,0,1,1.133-3.176,3.963,3.963,0,0,1,3.023-1.2,4.209,4.209,0,0,1,1.859.391v1.313a3.258,3.258,0,0,0-1.906-.625,2.576,2.576,0,0,0-2.012.879,3.335,3.335,0,0,0-.785,2.309,3.176,3.176,0,0,0,.738,2.219,2.545,2.545,0,0,0,1.98.813,3.211,3.211,0,0,0,1.969-.7Zm5.648.289a2.47,2.47,0,0,1-1.2.25q-2.1,0-2.1-2.344V14.094H40.3V13H41.68V11.047l1.281-.414V13h2.016v1.094H42.961V18.6a1.869,1.869,0,0,0,.273,1.148,1.091,1.091,0,0,0,.906.344,1.347,1.347,0,0,0,.836-.266Zm8.18.078H51.875V19.734h-.031a2.631,2.631,0,0,1-2.469,1.453q-2.859,0-2.859-3.406V13h1.273v4.578q0,2.531,1.938,2.531a1.96,1.96,0,0,0,1.543-.691,2.645,2.645,0,0,0,.605-1.809V13h1.281Zm2.1-.289V19.336a3.792,3.792,0,0,0,2.3.773q1.688,0,1.688-1.125a.976.976,0,0,0-.145-.543,1.44,1.44,0,0,0-.391-.395,3.007,3.007,0,0,0-.578-.309q-.332-.137-.715-.285a9.207,9.207,0,0,1-.934-.426,2.82,2.82,0,0,1-.672-.484,1.8,1.8,0,0,1-.406-.613,2.17,2.17,0,0,1-.137-.8,1.912,1.912,0,0,1,.258-1,2.286,2.286,0,0,1,.688-.727,3.206,3.206,0,0,1,.98-.441,4.349,4.349,0,0,1,1.137-.148,4.59,4.59,0,0,1,1.859.359v1.3a3.624,3.624,0,0,0-2.031-.578,2.374,2.374,0,0,0-.648.082,1.587,1.587,0,0,0-.5.23,1.065,1.065,0,0,0-.32.355.936.936,0,0,0-.113.457,1.1,1.1,0,0,0,.113.523,1.152,1.152,0,0,0,.332.375,2.538,2.538,0,0,0,.531.3q.312.133.711.289a9.894,9.894,0,0,1,.953.418,3.269,3.269,0,0,1,.719.484,1.893,1.893,0,0,1,.457.621,2,2,0,0,1,.16.836,1.971,1.971,0,0,1-.262,1.031,2.243,2.243,0,0,1-.7.727,3.2,3.2,0,0,1-1.008.43,4.976,4.976,0,0,1-1.2.141A4.539,4.539,0,0,1,55.258,20.711ZM73.2,13l-3.187,8H68.758l-3.031-8h1.406l2.031,5.813a5.217,5.217,0,0,1,.281,1.117h.031a5.283,5.283,0,0,1,.25-1.086L71.852,13Zm7.8,4.32H75.359a2.992,2.992,0,0,0,.719,2.063,2.478,2.478,0,0,0,1.891.727,3.931,3.931,0,0,0,2.484-.891v1.2a4.643,4.643,0,0,1-2.789.766A3.381,3.381,0,0,1,75,20.1a4.461,4.461,0,0,1-.969-3.066,4.375,4.375,0,0,1,1.059-3.043,3.394,3.394,0,0,1,2.629-1.176,3.008,3.008,0,0,1,2.43,1.016,4.234,4.234,0,0,1,.859,2.82ZM79.7,16.234a2.607,2.607,0,0,0-.535-1.727,1.823,1.823,0,0,0-1.465-.617,2.07,2.07,0,0,0-1.539.648,2.943,2.943,0,0,0-.781,1.7Zm2.766,4.477V19.336a3.792,3.792,0,0,0,2.3.773q1.688,0,1.688-1.125a.976.976,0,0,0-.145-.543,1.44,1.44,0,0,0-.391-.395,3.007,3.007,0,0,0-.578-.309q-.332-.137-.715-.285a9.207,9.207,0,0,1-.934-.426,2.82,2.82,0,0,1-.672-.484,1.8,1.8,0,0,1-.406-.613,2.17,2.17,0,0,1-.137-.8,1.912,1.912,0,0,1,.258-1,2.286,2.286,0,0,1,.688-.727,3.206,3.206,0,0,1,.98-.441,4.349,4.349,0,0,1,1.137-.148,4.59,4.59,0,0,1,1.859.359v1.3a3.624,3.624,0,0,0-2.031-.578,2.374,2.374,0,0,0-.648.082,1.587,1.587,0,0,0-.5.23,1.065,1.065,0,0,0-.32.355.936.936,0,0,0-.113.457,1.1,1.1,0,0,0,.113.523,1.152,1.152,0,0,0,.332.375,2.538,2.538,0,0,0,.531.3q.313.133.711.289a9.9,9.9,0,0,1,.953.418,3.269,3.269,0,0,1,.719.484,1.893,1.893,0,0,1,.457.621,2,2,0,0,1,.16.836,1.971,1.971,0,0,1-.262,1.031,2.243,2.243,0,0,1-.7.727,3.2,3.2,0,0,1-1.008.43,4.976,4.976,0,0,1-1.2.141A4.539,4.539,0,0,1,82.461,20.711Zm10.984.211a2.47,2.47,0,0,1-1.2.25q-2.1,0-2.1-2.344V14.094H88.773V13h1.375V11.047l1.281-.414V13h2.016v1.094H91.43V18.6A1.869,1.869,0,0,0,91.7,19.75a1.091,1.091,0,0,0,.906.344,1.347,1.347,0,0,0,.836-.266Zm2.367-9.953a.812.812,0,0,1-.586-.234.791.791,0,0,1-.242-.594.821.821,0,0,1,.828-.836.827.827,0,0,1,.6.238.835.835,0,0,1,0,1.184A.82.82,0,0,1,95.813,10.969ZM96.438,21H95.156V13h1.281Zm3.906-1.156h-.031V21H99.031V9.156h1.281v5.25h.031a3.03,3.03,0,0,1,2.766-1.594,2.932,2.932,0,0,1,2.41,1.074,4.436,4.436,0,0,1,.871,2.879,4.959,4.959,0,0,1-.977,3.215,3.251,3.251,0,0,1-2.672,1.207A2.631,2.631,0,0,1,100.344,19.844Zm-.031-3.227v1.117a2.379,2.379,0,0,0,.645,1.684,2.3,2.3,0,0,0,3.461-.2,4.086,4.086,0,0,0,.66-2.477,3.225,3.225,0,0,0-.617-2.094,2.043,2.043,0,0,0-1.672-.758,2.27,2.27,0,0,0-1.8.777A2.854,2.854,0,0,0,100.313,16.617ZM114.906,21h-1.281V19.734h-.031a2.631,2.631,0,0,1-2.469,1.453q-2.859,0-2.859-3.406V13h1.273v4.578q0,2.531,1.938,2.531a1.96,1.96,0,0,0,1.543-.691,2.645,2.645,0,0,0,.605-1.809V13h1.281Zm3.867,0h-1.281V9.156h1.281Zm9.063,0h-1.281V19.734h-.031a2.631,2.631,0,0,1-2.469,1.453q-2.859,0-2.859-3.406V13h1.273v4.578q0,2.531,1.938,2.531a1.96,1.96,0,0,0,1.543-.691,2.645,2.645,0,0,0,.605-1.809V13h1.281Zm13.945,0H140.5V16.406a3.466,3.466,0,0,0-.41-1.922,1.555,1.555,0,0,0-1.379-.594,1.708,1.708,0,0,0-1.395.75,2.869,2.869,0,0,0-.574,1.8V21h-1.281V16.25q0-2.359-1.82-2.359a1.686,1.686,0,0,0-1.391.707,2.923,2.923,0,0,0-.547,1.84V21h-1.281V13H131.7v1.266h.031a2.718,2.718,0,0,1,2.484-1.453,2.311,2.311,0,0,1,2.266,1.656,2.855,2.855,0,0,1,2.656-1.656q2.641,0,2.641,3.258Zm8.086,0h-1.281V9.156h1.281Zm8.32,0h-1.281V19.75h-.031a2.682,2.682,0,0,1-2.461,1.438,2.63,2.63,0,0,1-1.871-.633,2.192,2.192,0,0,1-.676-1.68q0-2.242,2.641-2.609l2.4-.336q0-2.039-1.648-2.039a3.938,3.938,0,0,0-2.609.984V13.563a4.958,4.958,0,0,1,2.719-.75q2.82,0,2.82,2.984Zm-1.281-4.047-1.93.266a3.133,3.133,0,0,0-1.344.441,1.273,1.273,0,0,0-.453,1.121,1.221,1.221,0,0,0,.418.957,1.615,1.615,0,0,0,1.113.371,2.056,2.056,0,0,0,1.574-.668,2.387,2.387,0,0,0,.621-1.691Zm9.148,3.68a4.163,4.163,0,0,1-2.187.555,3.622,3.622,0,0,1-2.762-1.113,4.035,4.035,0,0,1-1.051-2.887,4.435,4.435,0,0,1,1.133-3.176,3.963,3.963,0,0,1,3.023-1.2,4.209,4.209,0,0,1,1.859.391v1.313a3.258,3.258,0,0,0-1.906-.625,2.576,2.576,0,0,0-2.012.879,3.335,3.335,0,0,0-.785,2.309,3.176,3.176,0,0,0,.738,2.219,2.545,2.545,0,0,0,1.98.813,3.211,3.211,0,0,0,1.969-.7Zm8.406.367H173.18V19.734h-.031a2.631,2.631,0,0,1-2.469,1.453q-2.859,0-2.859-3.406V13h1.273v4.578q0,2.531,1.938,2.531a1.96,1.96,0,0,0,1.543-.691,2.645,2.645,0,0,0,.605-1.809V13h1.281Zm2.1-.289V19.336a3.792,3.792,0,0,0,2.3.773q1.688,0,1.688-1.125a.976.976,0,0,0-.145-.543,1.441,1.441,0,0,0-.391-.395,3.007,3.007,0,0,0-.578-.309q-.332-.137-.715-.285a9.207,9.207,0,0,1-.934-.426,2.82,2.82,0,0,1-.672-.484,1.8,1.8,0,0,1-.406-.613,2.17,2.17,0,0,1-.137-.8,1.912,1.912,0,0,1,.258-1,2.286,2.286,0,0,1,.688-.727,3.206,3.206,0,0,1,.98-.441,4.349,4.349,0,0,1,1.137-.148,4.59,4.59,0,0,1,1.859.359v1.3a3.624,3.624,0,0,0-2.031-.578,2.374,2.374,0,0,0-.648.082,1.587,1.587,0,0,0-.5.23,1.065,1.065,0,0,0-.32.355.936.936,0,0,0-.113.457,1.1,1.1,0,0,0,.113.523,1.152,1.152,0,0,0,.332.375,2.538,2.538,0,0,0,.531.3q.312.133.711.289a9.894,9.894,0,0,1,.953.418,3.269,3.269,0,0,1,.719.484,1.893,1.893,0,0,1,.457.621,2,2,0,0,1,.16.836,1.971,1.971,0,0,1-.262,1.031,2.243,2.243,0,0,1-.7.727,3.2,3.2,0,0,1-1.008.43,4.976,4.976,0,0,1-1.2.141A4.539,4.539,0,0,1,176.563,20.711ZM195.047,21h-1.281V19.641h-.031a2.958,2.958,0,0,1-2.75,1.547,2.988,2.988,0,0,1-2.41-1.074,4.407,4.407,0,0,1-.9-2.926,4.794,4.794,0,0,1,1-3.18,3.3,3.3,0,0,1,2.664-1.2,2.564,2.564,0,0,1,2.4,1.3h.031V9.156h1.281Zm-1.281-3.617V16.2a2.289,2.289,0,0,0-.641-1.641,2.149,2.149,0,0,0-1.625-.672,2.212,2.212,0,0,0-1.844.859,3.766,3.766,0,0,0-.672,2.375,3.387,3.387,0,0,0,.645,2.184,2.107,2.107,0,0,0,1.73.8,2.188,2.188,0,0,0,1.738-.773A2.882,2.882,0,0,0,193.766,17.383Zm4.531-6.414a.812.812,0,0,1-.586-.234.791.791,0,0,1-.242-.594A.821.821,0,0,1,198.3,9.3a.827.827,0,0,1,.6.238.835.835,0,0,1,0,1.184A.82.82,0,0,1,198.3,10.969ZM198.922,21h-1.281V13h1.281Zm2.109-.289V19.336a3.792,3.792,0,0,0,2.3.773q1.688,0,1.688-1.125a.976.976,0,0,0-.145-.543,1.441,1.441,0,0,0-.391-.395,3.007,3.007,0,0,0-.578-.309q-.332-.137-.715-.285a9.207,9.207,0,0,1-.934-.426,2.82,2.82,0,0,1-.672-.484,1.8,1.8,0,0,1-.406-.613,2.17,2.17,0,0,1-.137-.8,1.912,1.912,0,0,1,.258-1,2.286,2.286,0,0,1,.688-.727,3.206,3.206,0,0,1,.98-.441,4.349,4.349,0,0,1,1.137-.148,4.59,4.59,0,0,1,1.859.359v1.3a3.624,3.624,0,0,0-2.031-.578,2.374,2.374,0,0,0-.648.082,1.587,1.587,0,0,0-.5.23,1.065,1.065,0,0,0-.32.355.936.936,0,0,0-.113.457,1.1,1.1,0,0,0,.113.523,1.152,1.152,0,0,0,.332.375,2.538,2.538,0,0,0,.531.3q.312.133.711.289a9.894,9.894,0,0,1,.953.418,3.269,3.269,0,0,1,.719.484,1.893,1.893,0,0,1,.457.621,2,2,0,0,1,.16.836,1.971,1.971,0,0,1-.262,1.031,2.243,2.243,0,0,1-.7.727,3.2,3.2,0,0,1-1.008.43,4.976,4.976,0,0,1-1.2.141A4.539,4.539,0,0,1,201.031,20.711Zm18.3.289h-1.281V16.438q0-2.547-1.859-2.547a2.017,2.017,0,0,0-1.59.723,2.679,2.679,0,0,0-.629,1.824V21h-1.281V13h1.281v1.328H214a2.887,2.887,0,0,1,2.625-1.516,2.448,2.448,0,0,1,2.008.848,3.776,3.776,0,0,1,.7,2.449Zm5.758.188a3.711,3.711,0,0,1-2.832-1.121,4.153,4.153,0,0,1-1.059-2.973,4.326,4.326,0,0,1,1.1-3.148,3.96,3.96,0,0,1,2.977-1.133,3.588,3.588,0,0,1,2.793,1.1,4.368,4.368,0,0,1,1,3.055,4.3,4.3,0,0,1-1.082,3.066A3.791,3.791,0,0,1,225.086,21.188Zm.094-7.3a2.437,2.437,0,0,0-1.953.84,3.449,3.449,0,0,0-.719,2.316,3.262,3.262,0,0,0,.727,2.242,2.469,2.469,0,0,0,1.945.82,2.342,2.342,0,0,0,1.91-.8,3.492,3.492,0,0,0,.668-2.289,3.552,3.552,0,0,0-.668-2.312A2.332,2.332,0,0,0,225.18,13.891ZM237.758,21h-1.281V16.438q0-2.547-1.859-2.547a2.017,2.017,0,0,0-1.59.723,2.679,2.679,0,0,0-.629,1.824V21h-1.281V13H232.4v1.328h.031a2.887,2.887,0,0,1,2.625-1.516,2.448,2.448,0,0,1,2.008.848,3.776,3.776,0,0,1,.7,2.449ZM7.727,38.32H2.078A2.992,2.992,0,0,0,2.8,40.383a2.478,2.478,0,0,0,1.891.727,3.931,3.931,0,0,0,2.484-.891v1.2a4.643,4.643,0,0,1-2.789.766A3.381,3.381,0,0,1,1.719,41.1,4.461,4.461,0,0,1,.75,38.031a4.375,4.375,0,0,1,1.059-3.043,3.394,3.394,0,0,1,2.629-1.176,3.008,3.008,0,0,1,2.43,1.016,4.234,4.234,0,0,1,.859,2.82ZM6.414,37.234a2.607,2.607,0,0,0-.535-1.727,1.823,1.823,0,0,0-1.465-.617,2.07,2.07,0,0,0-1.539.648,2.943,2.943,0,0,0-.781,1.7ZM16.133,42H14.852V40.734H14.82a2.631,2.631,0,0,1-2.469,1.453q-2.859,0-2.859-3.406V34h1.273v4.578q0,2.531,1.938,2.531a1.96,1.96,0,0,0,1.543-.691,2.645,2.645,0,0,0,.605-1.809V34h1.281Zm3.242-10.031a.812.812,0,0,1-.586-.234.791.791,0,0,1-.242-.594.821.821,0,0,1,.828-.836.827.827,0,0,1,.6.238.835.835,0,0,1,0,1.184A.82.82,0,0,1,19.375,31.969ZM20,42H18.719V34H20Zm2.109-.289V40.336a3.792,3.792,0,0,0,2.3.773q1.688,0,1.688-1.125a.976.976,0,0,0-.145-.543,1.44,1.44,0,0,0-.391-.395,3.007,3.007,0,0,0-.578-.309q-.332-.137-.715-.285a9.206,9.206,0,0,1-.934-.426,2.82,2.82,0,0,1-.672-.484,1.8,1.8,0,0,1-.406-.613,2.17,2.17,0,0,1-.137-.8,1.912,1.912,0,0,1,.258-1,2.286,2.286,0,0,1,.688-.727,3.206,3.206,0,0,1,.98-.441,4.349,4.349,0,0,1,1.137-.148,4.59,4.59,0,0,1,1.859.359v1.3a3.624,3.624,0,0,0-2.031-.578,2.374,2.374,0,0,0-.648.082,1.587,1.587,0,0,0-.5.23,1.065,1.065,0,0,0-.32.355.936.936,0,0,0-.113.457,1.1,1.1,0,0,0,.113.523,1.152,1.152,0,0,0,.332.375,2.538,2.538,0,0,0,.531.3q.313.133.711.289a9.9,9.9,0,0,1,.953.418,3.269,3.269,0,0,1,.719.484,1.893,1.893,0,0,1,.457.621,2,2,0,0,1,.16.836,1.971,1.971,0,0,1-.262,1.031,2.243,2.243,0,0,1-.7.727,3.2,3.2,0,0,1-1.008.43,4.976,4.976,0,0,1-1.2.141A4.539,4.539,0,0,1,22.109,41.711ZM40.742,42H39.461V37.406a3.466,3.466,0,0,0-.41-1.922,1.555,1.555,0,0,0-1.379-.594,1.708,1.708,0,0,0-1.395.75,2.869,2.869,0,0,0-.574,1.8V42H34.422V37.25q0-2.359-1.82-2.359a1.686,1.686,0,0,0-1.391.707,2.923,2.923,0,0,0-.547,1.84V42H29.383V34h1.281v1.266H30.7a2.718,2.718,0,0,1,2.484-1.453,2.311,2.311,0,0,1,2.266,1.656A2.855,2.855,0,0,1,38.1,33.813q2.641,0,2.641,3.258Zm5.766.188a3.711,3.711,0,0,1-2.832-1.121,4.153,4.153,0,0,1-1.059-2.973,4.326,4.326,0,0,1,1.1-3.148A3.96,3.96,0,0,1,46.7,33.813a3.588,3.588,0,0,1,2.793,1.1,4.368,4.368,0,0,1,1,3.055,4.3,4.3,0,0,1-1.082,3.066A3.791,3.791,0,0,1,46.508,42.188Zm.094-7.3a2.437,2.437,0,0,0-1.953.84,3.449,3.449,0,0,0-.719,2.316,3.262,3.262,0,0,0,.727,2.242,2.469,2.469,0,0,0,1.945.82,2.342,2.342,0,0,0,1.91-.8,3.492,3.492,0,0,0,.668-2.289,3.552,3.552,0,0,0-.668-2.312A2.332,2.332,0,0,0,46.6,34.891ZM59.367,42H58.086V40.641h-.031a2.958,2.958,0,0,1-2.75,1.547,2.988,2.988,0,0,1-2.41-1.074,4.407,4.407,0,0,1-.9-2.926,4.794,4.794,0,0,1,1-3.18,3.3,3.3,0,0,1,2.664-1.2,2.564,2.564,0,0,1,2.4,1.3h.031V30.156h1.281Zm-1.281-3.617V37.2a2.289,2.289,0,0,0-.641-1.641,2.149,2.149,0,0,0-1.625-.672,2.212,2.212,0,0,0-1.844.859,3.766,3.766,0,0,0-.672,2.375,3.387,3.387,0,0,0,.645,2.184,2.107,2.107,0,0,0,1.73.8,2.188,2.188,0,0,0,1.738-.773A2.882,2.882,0,0,0,58.086,38.383Zm14.688-.062H67.125a2.992,2.992,0,0,0,.719,2.063,2.478,2.478,0,0,0,1.891.727,3.931,3.931,0,0,0,2.484-.891v1.2a4.643,4.643,0,0,1-2.789.766,3.381,3.381,0,0,1-2.664-1.09,4.461,4.461,0,0,1-.969-3.066,4.375,4.375,0,0,1,1.059-3.043,3.394,3.394,0,0,1,2.629-1.176,3.008,3.008,0,0,1,2.43,1.016,4.234,4.234,0,0,1,.859,2.82Zm-1.312-1.086a2.607,2.607,0,0,0-.535-1.727,1.823,1.823,0,0,0-1.465-.617,2.07,2.07,0,0,0-1.539.648,2.943,2.943,0,0,0-.781,1.7ZM81.352,42H80.07V37.438q0-2.547-1.859-2.547a2.017,2.017,0,0,0-1.59.723,2.679,2.679,0,0,0-.629,1.824V42H74.711V34h1.281v1.328h.031a2.887,2.887,0,0,1,2.625-1.516,2.448,2.448,0,0,1,2.008.848,3.776,3.776,0,0,1,.7,2.449Zm3.07-10.031a.812.812,0,0,1-.586-.234.791.791,0,0,1-.242-.594.821.821,0,0,1,.828-.836.827.827,0,0,1,.6.238.835.835,0,0,1,0,1.184A.82.82,0,0,1,84.422,31.969ZM85.047,42H83.766V34h1.281ZM99,42H97.719V37.406a3.466,3.466,0,0,0-.41-1.922,1.555,1.555,0,0,0-1.379-.594,1.708,1.708,0,0,0-1.395.75,2.869,2.869,0,0,0-.574,1.8V42H92.68V37.25q0-2.359-1.82-2.359a1.686,1.686,0,0,0-1.391.707,2.923,2.923,0,0,0-.547,1.84V42H87.641V34h1.281v1.266h.031a2.718,2.718,0,0,1,2.484-1.453A2.311,2.311,0,0,1,93.7,35.469a2.855,2.855,0,0,1,2.656-1.656Q99,33.813,99,37.07Zm12.258-.367a4.163,4.163,0,0,1-2.187.555,3.622,3.622,0,0,1-2.762-1.113,4.035,4.035,0,0,1-1.051-2.887,4.435,4.435,0,0,1,1.133-3.176,3.963,3.963,0,0,1,3.023-1.2,4.209,4.209,0,0,1,1.859.391v1.313a3.258,3.258,0,0,0-1.906-.625,2.576,2.576,0,0,0-2.012.879,3.335,3.335,0,0,0-.785,2.309,3.176,3.176,0,0,0,.738,2.219,2.545,2.545,0,0,0,1.98.813,3.211,3.211,0,0,0,1.969-.7Zm6.109-6.336a1.567,1.567,0,0,0-.969-.258,1.635,1.635,0,0,0-1.371.773,3.576,3.576,0,0,0-.551,2.109V42H113.2V34h1.281v1.648h.031a2.793,2.793,0,0,1,.836-1.316,1.906,1.906,0,0,1,1.258-.473,2.092,2.092,0,0,1,.766.109Zm7.117,6.7H123.2V40.75h-.031a2.682,2.682,0,0,1-2.461,1.438,2.63,2.63,0,0,1-1.871-.633,2.192,2.192,0,0,1-.676-1.68q0-2.242,2.641-2.609l2.4-.336q0-2.039-1.648-2.039a3.938,3.938,0,0,0-2.609.984V34.563a4.958,4.958,0,0,1,2.719-.75q2.82,0,2.82,2.984ZM123.2,37.953l-1.93.266a3.133,3.133,0,0,0-1.344.441,1.273,1.273,0,0,0-.453,1.121,1.221,1.221,0,0,0,.418.957,1.615,1.615,0,0,0,1.113.371,2.056,2.056,0,0,0,1.574-.668,2.387,2.387,0,0,0,.621-1.691Zm3.211,3.758V40.336a3.792,3.792,0,0,0,2.3.773q1.688,0,1.688-1.125a.976.976,0,0,0-.145-.543,1.44,1.44,0,0,0-.391-.395,3.007,3.007,0,0,0-.578-.309q-.332-.137-.715-.285a9.206,9.206,0,0,1-.934-.426,2.82,2.82,0,0,1-.672-.484,1.8,1.8,0,0,1-.406-.613,2.17,2.17,0,0,1-.137-.8,1.912,1.912,0,0,1,.258-1,2.286,2.286,0,0,1,.688-.727,3.206,3.206,0,0,1,.98-.441,4.349,4.349,0,0,1,1.137-.148,4.59,4.59,0,0,1,1.859.359v1.3a3.624,3.624,0,0,0-2.031-.578,2.374,2.374,0,0,0-.648.082,1.587,1.587,0,0,0-.5.23,1.065,1.065,0,0,0-.32.355.936.936,0,0,0-.113.457,1.1,1.1,0,0,0,.113.523,1.152,1.152,0,0,0,.332.375,2.538,2.538,0,0,0,.531.3q.312.133.711.289a9.894,9.894,0,0,1,.953.418,3.269,3.269,0,0,1,.719.484,1.893,1.893,0,0,1,.457.621,2,2,0,0,1,.16.836,1.971,1.971,0,0,1-.262,1.031,2.243,2.243,0,0,1-.7.727,3.2,3.2,0,0,1-1.008.43,4.976,4.976,0,0,1-1.2.141A4.539,4.539,0,0,1,126.414,41.711Zm7.719.461a.829.829,0,0,1-.613-.258.849.849,0,0,1-.254-.617.862.862,0,0,1,.254-.621.823.823,0,0,1,.613-.262.845.845,0,0,1,.625.262.855.855,0,0,1,.258.621.842.842,0,0,1-.258.617A.851.851,0,0,1,134.133,42.172ZM150.383,42H148.93l-1.187-3.141h-4.75L141.875,42h-1.461l4.3-11.2h1.359Zm-3.07-4.32-1.758-4.773a4.571,4.571,0,0,1-.172-.75h-.031a4.185,4.185,0,0,1-.18.75L143.43,37.68ZM162.531,34l-3.187,8h-1.258l-3.031-8h1.406l2.031,5.813a5.216,5.216,0,0,1,.281,1.117h.031a5.283,5.283,0,0,1,.25-1.086L161.18,34Zm7.8,4.32h-5.648a2.992,2.992,0,0,0,.719,2.063,2.478,2.478,0,0,0,1.891.727,3.931,3.931,0,0,0,2.484-.891v1.2a4.643,4.643,0,0,1-2.789.766,3.381,3.381,0,0,1-2.664-1.09,4.461,4.461,0,0,1-.969-3.066,4.374,4.374,0,0,1,1.059-3.043,3.394,3.394,0,0,1,2.629-1.176,3.008,3.008,0,0,1,2.43,1.016,4.234,4.234,0,0,1,.859,2.82Zm-1.312-1.086a2.607,2.607,0,0,0-.535-1.727,1.823,1.823,0,0,0-1.465-.617,2.07,2.07,0,0,0-1.539.648,2.943,2.943,0,0,0-.781,1.7Zm2.766,4.477V40.336a3.792,3.792,0,0,0,2.3.773q1.688,0,1.688-1.125a.976.976,0,0,0-.145-.543,1.44,1.44,0,0,0-.391-.395,3.007,3.007,0,0,0-.578-.309q-.332-.137-.715-.285a9.206,9.206,0,0,1-.934-.426,2.82,2.82,0,0,1-.672-.484,1.8,1.8,0,0,1-.406-.613,2.17,2.17,0,0,1-.137-.8,1.912,1.912,0,0,1,.258-1,2.286,2.286,0,0,1,.688-.727,3.206,3.206,0,0,1,.98-.441,4.349,4.349,0,0,1,1.137-.148,4.59,4.59,0,0,1,1.859.359v1.3a3.624,3.624,0,0,0-2.031-.578,2.374,2.374,0,0,0-.648.082,1.587,1.587,0,0,0-.5.23,1.065,1.065,0,0,0-.32.355.936.936,0,0,0-.113.457,1.1,1.1,0,0,0,.113.523,1.152,1.152,0,0,0,.332.375,2.538,2.538,0,0,0,.531.3q.312.133.711.289a9.894,9.894,0,0,1,.953.418,3.269,3.269,0,0,1,.719.484,1.893,1.893,0,0,1,.457.621,2,2,0,0,1,.16.836,1.971,1.971,0,0,1-.262,1.031,2.243,2.243,0,0,1-.7.727,3.2,3.2,0,0,1-1.008.43,4.976,4.976,0,0,1-1.2.141A4.539,4.539,0,0,1,171.789,41.711Zm10.984.211a2.47,2.47,0,0,1-1.2.25q-2.1,0-2.1-2.344V35.094H178.1V34h1.375V32.047l1.281-.414V34h2.016v1.094h-2.016V39.6a1.869,1.869,0,0,0,.273,1.148,1.091,1.091,0,0,0,.906.344,1.347,1.347,0,0,0,.836-.266Zm2.367-9.953a.812.812,0,0,1-.586-.234.791.791,0,0,1-.242-.594.821.821,0,0,1,.828-.836.827.827,0,0,1,.6.238.835.835,0,0,1,0,1.184A.82.82,0,0,1,185.141,31.969ZM185.766,42h-1.281V34h1.281Zm3.906-1.156h-.031V42h-1.281V30.156h1.281v5.25h.031a3.03,3.03,0,0,1,2.766-1.594,2.932,2.932,0,0,1,2.41,1.074,4.436,4.436,0,0,1,.871,2.879,4.958,4.958,0,0,1-.977,3.215,3.251,3.251,0,0,1-2.672,1.207A2.631,2.631,0,0,1,189.672,40.844Zm-.031-3.227v1.117a2.379,2.379,0,0,0,.645,1.684,2.3,2.3,0,0,0,3.461-.2,4.086,4.086,0,0,0,.66-2.477,3.225,3.225,0,0,0-.617-2.094,2.043,2.043,0,0,0-1.672-.758,2.27,2.27,0,0,0-1.8.777A2.854,2.854,0,0,0,189.641,37.617ZM204.234,42h-1.281V40.734h-.031a2.631,2.631,0,0,1-2.469,1.453q-2.859,0-2.859-3.406V34h1.273v4.578q0,2.531,1.938,2.531a1.96,1.96,0,0,0,1.543-.691,2.645,2.645,0,0,0,.605-1.809V34h1.281Zm3.867,0H206.82V30.156H208.1Zm9.063,0h-1.281V40.734h-.031a2.631,2.631,0,0,1-2.469,1.453q-2.859,0-2.859-3.406V34H211.8v4.578q0,2.531,1.938,2.531a1.96,1.96,0,0,0,1.543-.691,2.645,2.645,0,0,0,.605-1.809V34h1.281Zm13.945,0h-1.281V37.406a3.466,3.466,0,0,0-.41-1.922,1.555,1.555,0,0,0-1.379-.594,1.708,1.708,0,0,0-1.395.75,2.869,2.869,0,0,0-.574,1.8V42h-1.281V37.25q0-2.359-1.82-2.359a1.686,1.686,0,0,0-1.391.707,2.923,2.923,0,0,0-.547,1.84V42H219.75V34h1.281v1.266h.031a2.718,2.718,0,0,1,2.484-1.453,2.311,2.311,0,0,1,2.266,1.656,2.855,2.855,0,0,1,2.656-1.656q2.641,0,2.641,3.258Zm2.867.172a.829.829,0,0,1-.613-.258.849.849,0,0,1-.254-.617.862.862,0,0,1,.254-.621.823.823,0,0,1,.613-.262.845.845,0,0,1,.625.262.855.855,0,0,1,.258.621.842.842,0,0,1-.258.617A.851.851,0,0,1,233.977,42.172Z" transform="translate(362 80)"/></g></svg>