<svg xmlns="http://www.w3.org/2000/svg" xmlns:xlink="http://www.w3.org/1999/xlink" viewBox="0 192 1043 536"><defs><style>.a{clip-path:url(#b);}.b{fill:#747678;}.c{fill:#8b9092;}.d{fill:#adafb0;}.e{fill:#a0a7ad;}.f{fill:#cacacc;}.g{fill:#e5f4f7;}.h{fill:#f37c54;}.i{fill:#5cd2d2;}.j{fill:#cf3a52;}.k{fill:#e3516e;}.l{fill:#4f9cd0;}.m{fill:#f2c06b;}.n{fill:#8f959b;}.o{fill:#b5b5b7;}.p{fill:#c76746;}.q{fill:#4baeaf;}.r{fill:#9fe5e5;}.s{fill:#20aae0;}.t{fill:#f6678a;}.u{fill:#4181ad;}.v{fill:#97c5e4;}.w{fill:#d1d3d4;}.x{fill:#c69f59;}.y{fill:#f8b29b;}.z{fill:#f8daa9;}.aa{fill:#909193;}.ab{fill:#758082;}.ac{fill:#adb5b6;}.ad{fill:#e4e4e5;}.ae{fill:#eb4517;}.af{fill:#fff;}.ag{fill:#c59e78;}.ah{fill:#485654;}.ai{fill:#6e8583;}.aj{fill:#5b6e6c;}.ak{fill:#3b4846;}.al{fill:#262729;}.am{fill:#7f56c5;}.an{fill:#c2a9e3;}.ao{fill:#e8dbf3;opacity:0.8;}.ap{fill:#00a19b;}.aq{fill:#7c98ab;}.ar{fill:#a7bac9;}.as{fill:#5d7e95;}.at{fill:#21adad;}.au{fill:#e6e7e8;}.av{fill:#d3d1d3;}.aw{fill:#a4dae7;}.ax{fill:#d3ecf3;}.ay{fill:#c8858f;}.az,.ba{fill:#446ca9;}.ba,.bt{opacity:0.5;}.bb{fill:#1e428a;}.bc{fill:#959bc4;opacity:0.25;}.bd{fill:#e7e9ea;}.be{fill:#afb6bb;}.bf{fill:#543e36;}.bg{fill:#72594b;}.bh{fill:#fffffe;}.bi{fill:#d2cfcb;}.bj{fill:#b19380;}.bk{fill:#a08171;}.bl{fill:#008fbe;}.bm{fill:#00c1de;}.bn{fill:#55565a;}.bo{fill:#342e1f;}.bp{fill:#6fd1e6;}.bq{fill:#f0d0b4;}.br{fill:#222;}.bs{fill:#77bc1f;}.bt,.bv{fill:#bde087;}.bu{fill:#a4d55d;}.bw{fill:#fd5373;}.bx{fill:#cf0a2c;}.by{fill:#f3f4f4;}.bz{fill:#e4615b;}.ca{fill:#768ebe;}.cb{fill:#1ccfc9;}.cc{fill:#8ae1db;}.cd{fill:#00c4bc;}.ce{fill:#edeeee;}.cf{fill:#f18b81;}.cg{fill:#5e6ca6;}.ch{fill:#0d9eff;}.ci{fill:#5d8baa;}</style><clipPath id="b"><rect y="192" width="1043" height="536"/></clipPath></defs><g id="a" class="a"><rect class="af" y="192" width="1043" height="536"/><g transform="translate(475.9 201.93)"><g transform="translate(30.1 20.192)"><g transform="translate(267.061 344.189)"><path class="b" d="M462.969,513.9,415.1,541.614v4.969l47.869-27.644V513.9" transform="translate(-412.721 -512.57)"/><path class="c" d="M411.7,551.5v4.969l2.379,1.4V552.9l-2.379-1.4" transform="translate(-411.7 -523.856)"/><path class="d" d="M459.639,512h0L411.7,539.644l2.379,1.4,47.869-27.714L459.639,512" transform="translate(-411.7 -512)"/></g><g transform="translate(258.383 339.15)"><path class="b" d="M450.539,506.7,402.6,534.344v5.039l47.939-27.644V506.7" transform="translate(-400.291 -505.37)"/><path class="c" d="M399.3,544.3v4.969l2.31,1.4V545.63l-2.31-1.33" transform="translate(-399.3 -516.656)"/><path class="d" d="M447.169,504.8h0L399.3,532.444h0l2.31,1.33,47.939-27.644-2.379-1.33" transform="translate(-399.3 -504.8)"/></g><g transform="translate(249.704 334.181)"><path class="b" d="M438.169,499.6,390.3,527.244v5.039l47.869-27.644V499.6" transform="translate(-387.921 -498.27)"/><path class="c" d="M386.9,537.2v4.969l2.379,1.4V538.53L386.9,537.2" transform="translate(-386.9 -509.556)"/><path class="d" d="M434.839,497.7,386.9,525.344l2.379,1.33,47.869-27.644-2.309-1.33" transform="translate(-386.9 -497.7)"/></g><path class="e" d="M461.459,367.39,197.2,214.824a19.488,19.488,0,0,1-9.8-16.936V30a9.787,9.787,0,0,1,14.7-8.468L466.358,173.743a19.517,19.517,0,0,1,9.8,17.006V358.922a9.774,9.774,0,0,1-14.7,8.468" transform="translate(-77.314 -20.192)"/><path class="e" d="M326.673,388l.07,25.334a16.954,16.954,0,0,1-8.4,14.627L296.3,440.7l60.956,35.2,22.115-12.737a16.694,16.694,0,0,0,8.4-14.557V423.132L326.673,388" transform="translate(-110.001 -130.592)"/><path class="e" d="M584.3,516.568l5.809-2.939L585.14,506.7Z" transform="translate(-196.446 -166.22)"/><path class="e" d="M191.779,22.2,185.9,25.209h2.939Z" transform="translate(-76.864 -20.795)"/><path class="f" d="M452.659,371.991,188.4,219.424a19.488,19.488,0,0,1-9.8-16.936V34.6a9.787,9.787,0,0,1,14.7-8.468L457.558,178.344a19.517,19.517,0,0,1,9.8,17.006V363.522a9.81,9.81,0,0,1-14.7,8.468" transform="translate(-74.673 -21.573)"/><path class="g" d="M197.3,47.3V207.844L458.832,358.871V197.7L197.3,47.3" transform="translate(-80.286 -28.329)"/><path class="h" d="M216,79.2V99.356l230.739,133.18.07-20.086L216,79.2" transform="translate(-85.899 -37.904)"/><path class="i" d="M216.1,122.4v60.4l47.8,27.574.07-60.327L216.1,122.4" transform="translate(-85.929 -50.87)"/><path class="j" d="M296.77,176.2l-.07,60.257,48.009,27.784v-60.4L296.77,176.2" transform="translate(-110.121 -67.019)"/><path class="k" d="M307.268,232.048h0l4.269,2.519h0l-4.269-2.519M296.77,176.2l-.07,60.187,10.568,6.089v-10.5l-.21-.14-1.12.56-.21-.49.7-.42,4.339-2.519.84.49,3.079,1.75h0l.56.35.7.42,5.739,3.289,2.869,1.68h0l3.569,3.779a1.382,1.382,0,0,0,.98.42,1.35,1.35,0,0,0,.7-.21l3.359-1.96,4.409,2.519-7.838,4.549a1.35,1.35,0,0,1-.7.21,2.281,2.281,0,0,1-.91-.28l-3.639-2.939h0l3.639,2.939a1.407,1.407,0,0,0,.91.28,1.35,1.35,0,0,0,.7-.21l7.838-4.549v2.939l-7.838,4.549a1.35,1.35,0,0,1-.7.21,1.539,1.539,0,0,1-.91-.28l-3.639-2.939v6.579l20.086,11.617V203.844L296.77,176.2" transform="translate(-110.121 -67.019)"/><path class="l" d="M390.1,222.9v60.4l47.939,27.574.21-60.257L390.1,222.9" transform="translate(-138.156 -81.036)"/><path class="m" d="M477.3,273.2V378.807l47.939,27.644.14-105.537L477.3,273.2" transform="translate(-164.33 -96.134)"/><path class="n" d="M420.8,434.6v5.039l4.339-2.519L420.8,434.6" transform="translate(-147.371 -144.579)"/><path class="o" d="M420.8,434.6h0l4.339,2.519h.07L420.8,434.6" transform="translate(-147.371 -144.579)"/><path class="e" d="M377.9,395.928c0,2.519-2.03,3.359-4.549,1.89S368.8,393.2,368.8,390.68s2.03-3.359,4.549-1.89S377.9,393.409,377.9,395.928Z" transform="translate(-131.763 -130.612)"/><path class="h" d="M216,78.66l2.24-1.26L448.978,210.65l-.07,20.156-2.1,1.26-.07-20.156L216,78.66" transform="translate(-85.899 -37.363)"/><path class="p" d="M547.94,267.8l-2.24,1.26.07,20.156,2.1-1.33.07-20.086" transform="translate(-184.86 -94.513)"/><path class="e" d="M200.029,48.91V209.454l-2.729-1.61V47.3Z" transform="translate(-80.286 -28.329)"/><path class="e" d="M200.029,274.5l258.8,149.347v3.219L197.3,276.11l2.729-1.61" transform="translate(-80.286 -96.524)"/><path class="i" d="M215.9,121.76l2.31-1.26,47.869,27.644.07,60.327-2.31,1.33.07-60.327L215.9,121.76" transform="translate(-85.869 -50.3)"/><path class="q" d="M286.639,160l-2.17,1.33-.07,60.327,2.309-1.33L286.639,160" transform="translate(-106.43 -62.156)"/><path class="r" d="M218.21,120.5l-2.31,1.26,48.009,27.714,2.17-1.33L218.21,120.5" transform="translate(-85.869 -50.3)"/><path class="s" d="M296.8,174.579l6.649-3.779,47.869,27.644-.07,60.4-6.509,3.779v-60.4L296.8,174.579" transform="translate(-110.151 -65.398)"/><path class="j" d="M296.8,174.579l6.649-3.779,47.869,27.644-6.579,3.779L296.8,174.579" transform="translate(-110.151 -65.398)"/><path class="t" d="M303.449,170.8l-6.649,3.779,47.939,27.644,6.579-3.779L303.449,170.8" transform="translate(-110.151 -65.398)"/><path class="j" d="M371.879,210.3l-.07,60.4-6.509,3.779v-60.4Z" transform="translate(-130.712 -77.254)"/><path class="l" d="M390.1,222.33l2.309-1.33,47.869,27.714.07,60.257-2.309,1.33.21-60.257L390.1,222.33" transform="translate(-138.156 -80.466)"/><path class="u" d="M460.84,260.6l-2.03,1.33-.21,60.257,2.309-1.33-.07-60.257" transform="translate(-158.717 -92.352)"/><path class="v" d="M392.409,221l-2.309,1.33,48.149,27.714,2.03-1.33L392.409,221" transform="translate(-138.156 -80.466)"/><path class="m" d="M477.3,272.66l2.24-1.26,47.939,27.644V404.65l-2.24,1.26-.07-105.676L477.3,272.66" transform="translate(-164.33 -95.594)"/><path class="g" d="M549,310.9h0V416.507h0V310.9" transform="translate(-185.851 -107.45)"/><path class="w" d="M549,310.9h0V416.507h0V310.9" transform="translate(-185.851 -107.45)"/><path class="x" d="M548.01,310.9l-2.31,1.19.07,105.677,2.24-1.26V310.9" transform="translate(-184.86 -107.45)"/><path class="y" d="M218.24,77.4,216,78.66,446.739,211.91l2.24-1.26L218.24,77.4" transform="translate(-85.899 -37.363)"/><path class="z" d="M479.539,271.4l-2.24,1.26,47.869,27.574,2.31-1.19L479.539,271.4" transform="translate(-164.33 -95.594)"/><path class="g" d="M215.9,222.9v5.039l47.939,27.644v-5.039L215.9,222.9" transform="translate(-85.869 -81.036)"/><path class="aa" d="M215.9,222.9v5.039l47.939,27.644v-5.039L215.9,222.9" transform="translate(-85.869 -81.036)"/><path class="g" d="M286.709,260.5l-2.309,1.33v5.039l2.24-1.33.07-5.039" transform="translate(-106.43 -92.322)"/><path class="ab" d="M286.709,260.5l-2.309,1.33v5.039l2.24-1.33.07-5.039" transform="translate(-106.43 -92.322)"/><path class="g" d="M218.279,221l-2.379,1.33,47.939,27.644,2.31-1.33L218.279,221" transform="translate(-85.869 -80.466)"/><path class="ac" d="M218.279,221l-2.379,1.33,47.939,27.644,2.31-1.33L218.279,221" transform="translate(-85.869 -80.466)"/><path class="g" d="M215.9,237.3v5.039l47.939,27.644v-5.039L215.9,237.3" transform="translate(-85.869 -85.358)"/><path class="aa" d="M215.9,237.3v5.039l47.939,27.644v-5.039L215.9,237.3" transform="translate(-85.869 -85.358)"/><path class="g" d="M286.709,274.9l-2.309,1.33v5.039l2.24-1.33.07-5.039" transform="translate(-106.43 -96.644)"/><path class="ab" d="M286.709,274.9l-2.309,1.33v5.039l2.24-1.33.07-5.039" transform="translate(-106.43 -96.644)"/><path class="g" d="M218.279,235.4l-2.379,1.33,47.939,27.644,2.31-1.33L218.279,235.4" transform="translate(-85.869 -84.788)"/><path class="ac" d="M218.279,235.4l-2.379,1.33,47.939,27.644,2.31-1.33L218.279,235.4" transform="translate(-85.869 -84.788)"/><path class="g" d="M215.9,251.7v4.969l47.939,27.714v-5.039L215.9,251.7" transform="translate(-85.869 -89.68)"/><path class="aa" d="M215.9,251.7v4.969l47.939,27.714v-5.039L215.9,251.7" transform="translate(-85.869 -89.68)"/><path class="g" d="M286.709,289.2l-2.309,1.4v5.039l2.24-1.33.07-5.109" transform="translate(-106.43 -100.936)"/><path class="ab" d="M286.709,289.2l-2.309,1.4v5.039l2.24-1.33.07-5.109" transform="translate(-106.43 -100.936)"/><path class="g" d="M218.279,249.7l-2.379,1.4,47.939,27.644,2.31-1.4L218.279,249.7" transform="translate(-85.869 -89.08)"/><path class="ac" d="M218.279,249.7l-2.379,1.4,47.939,27.644,2.31-1.4L218.279,249.7" transform="translate(-85.869 -89.08)"/><path class="g" d="M215.9,266v5.039l47.939,27.644v-4.969L215.9,266" transform="translate(-85.869 -93.973)"/><path class="aa" d="M215.9,266v5.039l47.939,27.644v-4.969L215.9,266" transform="translate(-85.869 -93.973)"/><path class="g" d="M286.709,303.6,284.4,305v4.969l2.24-1.33.07-5.039" transform="translate(-106.43 -105.259)"/><path class="ab" d="M286.709,303.6,284.4,305v4.969l2.24-1.33.07-5.039" transform="translate(-106.43 -105.259)"/><path class="g" d="M218.279,264.1l-2.379,1.33,47.939,27.714,2.31-1.4L218.279,264.1" transform="translate(-85.869 -93.402)"/><path class="ac" d="M218.279,264.1l-2.379,1.33,47.939,27.714,2.31-1.4L218.279,264.1" transform="translate(-85.869 -93.402)"/><path class="g" d="M326.515,286.777v5.039l11.2,6.439,1.68-.98,4.339,2.519-.35,1.75,7.558,4.339v-5.039l-24.425-14.067M303,273.2v5.039l6.089,3.5V276.7L303,273.2" transform="translate(-112.012 -96.134)"/><path class="aa" d="M326.515,286.777v5.039l11.2,6.439,1.68-.98,4.339,2.519-.35,1.75,7.558,4.339v-5.039l-24.425-14.067M303,273.2v5.039l6.089,3.5V276.7L303,273.2" transform="translate(-112.012 -96.134)"/><path class="g" d="M373.81,310.8l-2.31,1.33v5.039l2.31-1.33V310.8" transform="translate(-132.573 -107.42)"/><path class="ab" d="M373.81,310.8l-2.31,1.33v5.039l2.31-1.33V310.8" transform="translate(-132.573 -107.42)"/><path class="g" d="M326.545,283.477v2.729l24.425,14.137,2.31-1.33-26.734-15.537M305.409,271.3l-2.309,1.33,6.089,3.5v-2.66l-3.779-2.17" transform="translate(-112.042 -95.564)"/><path class="ac" d="M326.545,283.477v2.729l24.425,14.137,2.31-1.33-26.734-15.537M305.409,271.3l-2.309,1.33,6.089,3.5v-2.66l-3.779-2.17" transform="translate(-112.042 -95.564)"/><path class="g" d="M342.4,310.345l-.98,4.479,9.518,5.529v-5.039l-8.538-4.969m-20.226-11.687v4.549l-6.858-3.919-.07.42,22.815,13.157.98-4.479-16.866-9.728M303,287.6v5.039l4.549,2.589.98-4.479L303,287.6" transform="translate(-112.012 -100.456)"/><path class="aa" d="M342.4,310.345l-.98,4.479,9.518,5.529v-5.039l-8.538-4.969m-20.226-11.687v4.549l-6.858-3.919-.07.42,22.815,13.157.98-4.479-16.866-9.728M303,287.6v5.039l4.549,2.589.98-4.479L303,287.6" transform="translate(-112.012 -100.456)"/><path class="g" d="M373.81,325.2l-2.31,1.33v5.039l2.31-1.33V325.2" transform="translate(-132.573 -111.742)"/><path class="ab" d="M373.81,325.2l-2.31,1.33v5.039l2.31-1.33V325.2" transform="translate(-132.573 -111.742)"/><path class="g" d="M342.921,307.325l-.56,2.379,8.538,4.969,2.31-1.33-10.288-6.019M322.206,297.6v.49l16.866,9.728.35-1.75-4.339-2.519.63-.35-9.168-5.319v2.17h0l-4.339-2.449m-16.8-11.9-2.309,1.33,5.529,3.149.42-1.75.21-.14v-.49l-3.849-2.1" transform="translate(-112.042 -99.886)"/><path class="ac" d="M342.921,307.325l-.56,2.379,8.538,4.969,2.31-1.33-10.288-6.019M322.206,297.6v.49l16.866,9.728.35-1.75-4.339-2.519.63-.35-9.168-5.319v2.17h0l-4.339-2.449m-16.8-11.9-2.309,1.33,5.529,3.149.42-1.75.21-.14v-.49l-3.849-2.1" transform="translate(-112.042 -99.886)"/><path class="g" d="M336.173,325.655l-.42.21.28.14.14-.35m4.2-2.1-.98,4.479,11.547,6.648v-5.039l-10.568-6.089M303,302v5.039l2.519,1.47.98-4.479L303,302" transform="translate(-112.012 -104.778)"/><path class="aa" d="M336.173,325.655l-.42.21.28.14.14-.35m4.2-2.1-.98,4.479,11.547,6.648v-5.039l-10.568-6.089M303,302v5.039l2.519,1.47.98-4.479L303,302" transform="translate(-112.012 -104.778)"/><path class="g" d="M373.81,339.5l-2.31,1.4v5.039l2.31-1.33V339.5" transform="translate(-132.573 -116.034)"/><path class="ab" d="M373.81,339.5l-2.31,1.4v5.039l2.31-1.33V339.5" transform="translate(-132.573 -116.034)"/><path class="g" d="M340.932,320.575l-.56,2.379,10.568,6.089,2.309-1.33-12.317-7.138m-26.1-15.117-.14.63h0L337.5,319.176l.14-.56-22.815-13.157M305.379,300,303,301.4l3.5,2.03.56-2.379L305.38,300" transform="translate(-112.012 -104.178)"/><path class="ac" d="M340.932,320.575l-.56,2.379,10.568,6.089,2.309-1.33-12.317-7.138m-26.1-15.117-.14.63h0L337.5,319.176l.14-.56-22.815-13.157M305.379,300,303,301.4l3.5,2.03.56-2.379L305.38,300" transform="translate(-112.012 -104.178)"/><path class="g" d="M338.412,336.735l-.98,4.479,13.507,7.768v-5.039l-12.527-7.208m-26.1-15.047-.98,4.479,22.815,13.157.98-4.479-22.815-13.157M303,316.3v5.039l.56.35.98-4.479L303,316.3" transform="translate(-112.012 -109.071)"/><path class="aa" d="M338.412,336.735l-.98,4.479,13.507,7.768v-5.039l-12.527-7.208m-26.1-15.047-.98,4.479,22.815,13.157.98-4.479-22.815-13.157M303,316.3v5.039l.56.35.98-4.479L303,316.3" transform="translate(-112.012 -109.071)"/><path class="g" d="M373.81,353.9l-2.31,1.33v5.039l2.31-1.33V353.9" transform="translate(-132.573 -120.356)"/><path class="ab" d="M373.81,353.9l-2.31,1.33v5.039l2.31-1.33V353.9" transform="translate(-132.573 -120.356)"/><path class="g" d="M338.972,333.876l-.56,2.379,12.527,7.208,2.309-1.33-14.277-8.258m-26.244-14.487-.42,1.82,22.815,13.157.56-2.379-1.89-1.05-.56.35h0l-20.505-11.9m-7.7-4.689L303,315.89l1.54.91.49-2.1" transform="translate(-112.012 -108.59)"/><path class="ac" d="M338.972,333.876l-.56,2.379,12.527,7.208,2.309-1.33-14.277-8.258m-26.244-14.487-.42,1.82,22.815,13.157.56-2.379-1.89-1.05-.56.35h0l-20.505-11.9m-7.7-4.689L303,315.89l1.54.91.49-2.1" transform="translate(-112.012 -108.59)"/><path class="g" d="M390.2,323.6v5.039l47.869,27.644v-5.039L390.2,323.6" transform="translate(-138.186 -111.262)"/><path class="aa" d="M390.2,323.6v5.039l47.869,27.644v-5.039L390.2,323.6" transform="translate(-138.186 -111.262)"/><path class="g" d="M460.979,361.1l-2.379,1.4v5.039l2.309-1.33.07-5.109" transform="translate(-158.717 -122.517)"/><path class="ab" d="M460.979,361.1l-2.379,1.4v5.039l2.309-1.33.07-5.109" transform="translate(-158.717 -122.517)"/><path class="g" d="M392.509,321.6,390.2,323l47.869,27.644,2.379-1.4L392.509,321.6" transform="translate(-138.186 -110.661)"/><path class="ac" d="M392.509,321.6,390.2,323l47.869,27.644,2.379-1.4L392.509,321.6" transform="translate(-138.186 -110.661)"/><path class="g" d="M390.2,337.9v5.039l47.869,27.644v-4.969L390.2,337.9" transform="translate(-138.186 -115.554)"/><path class="aa" d="M390.2,337.9v5.039l47.869,27.644v-4.969L390.2,337.9" transform="translate(-138.186 -115.554)"/><path class="g" d="M460.979,375.5l-2.379,1.4v4.969l2.309-1.33.07-5.039" transform="translate(-158.717 -126.84)"/><path class="ab" d="M460.979,375.5l-2.379,1.4v4.969l2.309-1.33.07-5.039" transform="translate(-158.717 -126.84)"/><path class="g" d="M392.509,336l-2.309,1.33,47.869,27.714,2.379-1.4L392.509,336" transform="translate(-138.186 -114.984)"/><path class="ac" d="M392.509,336l-2.309,1.33,47.869,27.714,2.379-1.4L392.509,336" transform="translate(-138.186 -114.984)"/><path class="g" d="M390.2,352.3v5.039l47.869,27.644v-5.039L390.2,352.3" transform="translate(-138.186 -119.876)"/><path class="aa" d="M390.2,352.3v5.039l47.869,27.644v-5.039L390.2,352.3" transform="translate(-138.186 -119.876)"/><path class="g" d="M460.979,389.9l-2.379,1.33v5.039l2.309-1.33.07-5.039" transform="translate(-158.717 -131.162)"/><path class="ab" d="M460.979,389.9l-2.379,1.33v5.039l2.309-1.33.07-5.039" transform="translate(-158.717 -131.162)"/><path class="g" d="M392.509,350.4l-2.309,1.33,47.869,27.644,2.379-1.33L392.509,350.4" transform="translate(-138.186 -119.306)"/><path class="ac" d="M392.509,350.4l-2.309,1.33,47.869,27.644,2.379-1.33L392.509,350.4" transform="translate(-138.186 -119.306)"/><path class="g" d="M390.2,366.7v5.039l47.869,27.644v-5.039L390.2,366.7" transform="translate(-138.186 -124.198)"/><path class="aa" d="M390.2,366.7v5.039l47.869,27.644v-5.039L390.2,366.7" transform="translate(-138.186 -124.198)"/><path class="g" d="M460.979,404.3l-2.379,1.33v5.039l2.309-1.33.07-5.039" transform="translate(-158.717 -135.484)"/><path class="ab" d="M460.979,404.3l-2.379,1.33v5.039l2.309-1.33.07-5.039" transform="translate(-158.717 -135.484)"/><path class="g" d="M392.509,364.7l-2.309,1.4,47.869,27.644,2.379-1.33L392.509,364.7" transform="translate(-138.186 -123.598)"/><path class="ac" d="M392.509,364.7l-2.309,1.4,47.869,27.644,2.379-1.33L392.509,364.7" transform="translate(-138.186 -123.598)"/><path class="f" d="M322.334,384.4l.07,27.014a14.046,14.046,0,0,1-7,12.177l-19.1,11.058,60.956,35.2,19.176-10.988a14.018,14.018,0,0,0,7-12.107V419.672l-61.1-35.272" transform="translate(-110.001 -129.511)"/><path class="e" d="M296.3,456.1v5.039l4.339-2.519L296.3,456.1" transform="translate(-110.001 -151.032)"/><path class="ad" d="M333.5,388.3v2.17h0V388.3h0" transform="translate(-121.167 -130.682)"/><path class="o" d="M340.608,388.669l-.56,2.659-1.68.98,56.2,32.473v-5.039L340.61,388.669m-6.23-3.569v2.729l-.98-.56v2.17l2.8,1.61.98-4.339-.49-.28-2.379,1.4.07-2.729" transform="translate(-121.137 -129.721)"/><path class="ae" d="M136.336,443.362,30.1,382.056V361.9l106.236,61.306v20.156" transform="translate(-30.1 -122.758)"/><path class="h" d="M136.336,443.362,30.1,382.056V361.9l106.236,61.306v20.156" transform="translate(-30.1 -122.758)"/><path class="af" d="M33.45,370.928l-1.05-.56V363.3l1.05.56v7.068" transform="translate(-30.79 -123.178)"/><path class="af" d="M37.15,373.1l-1.05-.63V365.4l1.05.63v7.07" transform="translate(-31.901 -123.808)"/><path class="af" d="M40.95,375.228l-1.05-.56V367.6l1.05.56v7.068" transform="translate(-33.042 -124.468)"/><path class="af" d="M44.65,377.4l-1.05-.63V369.7l1.05.63v7.07" transform="translate(-34.152 -125.099)"/><path class="af" d="M52.15,381.7l-1.05-.56V374l1.05.63v7.07" transform="translate(-36.403 -126.389)"/><path class="af" d="M55.85,383.9l-1.05-.63V376.2l1.05.63v7.07" transform="translate(-37.514 -127.05)"/><path class="af" d="M59.65,386.028l-1.05-.56V378.4l1.05.56v7.068" transform="translate(-38.654 -127.71)"/><path class="af" d="M63.35,388.2l-1.05-.63V380.5l1.05.63v7.07" transform="translate(-39.765 -128.34)"/><path class="af" d="M70.85,392.5l-1.05-.63V384.8l1.05.63v7.07" transform="translate(-42.016 -129.631)"/><path class="af" d="M74.55,394.7l-1.05-.63V387l1.05.56v7.14" transform="translate(-43.127 -130.292)"/><path class="af" d="M78.28,396.8l-.98-.56V389.1l.98.63v7.07" transform="translate(-44.267 -130.922)"/><path class="af" d="M82.05,399,81,398.37V391.3l1.05.63V399" transform="translate(-45.378 -131.582)"/><path class="af" d="M89.55,403.3l-1.05-.63V395.6l1.05.63v7.07" transform="translate(-47.629 -132.873)"/><path class="af" d="M93.25,405.428l-1.05-.56V397.8l1.05.56v7.068" transform="translate(-48.74 -133.533)"/><path class="af" d="M96.95,407.6l-1.05-.63V399.9l1.05.63v7.07" transform="translate(-49.85 -134.164)"/><path class="af" d="M100.75,409.8l-1.05-.63V402.1l1.05.56v7.14" transform="translate(-50.991 -134.824)"/><path class="af" d="M108.18,414.1l-.98-.63V406.4l.98.63v7.07" transform="translate(-53.242 -136.115)"/><path class="af" d="M111.95,416.228l-1.05-.56V408.6l1.05.56v7.068" transform="translate(-54.353 -136.775)"/><path class="af" d="M115.65,418.4l-1.05-.63V410.7l1.05.63v7.07" transform="translate(-55.463 -137.405)"/><path class="af" d="M119.45,420.528l-1.05-.56V412.9l1.05.56v7.068" transform="translate(-56.604 -138.066)"/><path class="af" d="M126.85,424.828l-1.05-.56V417.2l1.05.56v7.068" transform="translate(-58.825 -139.356)"/><path class="af" d="M130.65,427l-1.05-.63V419.3l1.05.63V427" transform="translate(-59.965 -139.987)"/><path class="af" d="M134.35,429.2l-1.05-.63V421.5l1.05.63v7.07" transform="translate(-61.076 -140.647)"/><path class="af" d="M138.15,431.3l-1.05-.56V423.6l1.05.63v7.07" transform="translate(-62.217 -141.277)"/><path class="af" d="M145.55,435.628l-1.05-.56V428l1.05.56v7.068" transform="translate(-64.438 -142.598)"/><path class="af" d="M149.35,437.8l-1.05-.63V430.1l1.05.63v7.07" transform="translate(-65.578 -143.228)"/><path class="af" d="M153.05,439.928l-1.05-.56V432.3l1.05.56v7.068" transform="translate(-66.689 -143.889)"/><path class="af" d="M156.78,442.1l-.98-.63V434.4l.98.63v7.07" transform="translate(-67.83 -144.519)"/><path class="af" d="M164.25,446.4l-1.05-.56V438.7l1.05.63v7.07" transform="translate(-70.051 -145.81)"/><path class="af" d="M168.05,448.6l-1.05-.63V440.9l1.05.63v7.07" transform="translate(-71.191 -146.47)"/><path class="af" d="M171.75,450.728l-1.05-.56V443.1l1.05.56v7.068" transform="translate(-72.302 -147.13)"/><path class="af" d="M175.45,452.9l-1.05-.63V445.2l1.05.63v7.07" transform="translate(-73.412 -147.761)"/><path class="af" d="M48.38,382.538l-.98-.56V371.9l.98.63v10.008" transform="translate(-35.293 -125.759)"/><path class="af" d="M67.05,393.338l-1.05-.56V382.7l1.05.56v10.078" transform="translate(-40.876 -129.001)"/><path class="af" d="M85.75,404.138l-1.05-.63V393.5l1.05.56v10.078" transform="translate(-46.488 -132.243)"/><path class="af" d="M104.45,414.908l-1.05-.63V404.2l1.05.63v10.078" transform="translate(-52.101 -135.454)"/><path class="af" d="M123.15,425.708l-1.05-.63V415l1.05.63v10.078" transform="translate(-57.714 -138.696)"/><path class="af" d="M141.85,436.438l-1.05-.56V425.8l1.05.63v10.008" transform="translate(-63.327 -141.938)"/><path class="af" d="M160.55,447.238l-1.05-.56V436.6l1.05.56v10.078" transform="translate(-68.94 -145.179)"/><path class="af" d="M179.25,458.038l-1.05-.56V447.4l1.05.56v10.078" transform="translate(-74.553 -148.421)"/><path class="h" d="M186.449,446.2v20.086l-4.549,2.379V448.509l4.549-2.309" transform="translate(-75.664 -148.061)"/><path class="p" d="M186.449,446.2l-4.549,2.309v20.156l4.549-2.379V446.2" transform="translate(-75.664 -148.061)"/><path class="h" d="M30.1,360.789l4.479-2.589,106.306,61.586-4.549,2.31L30.1,360.789" transform="translate(-30.1 -121.647)"/><path class="y" d="M34.579,358.2,30.1,360.789,136.336,422.1l4.549-2.31L34.579,358.2" transform="translate(-30.1 -121.647)"/><path class="ag" d="M568.328,562.559a3.084,3.084,0,0,1-1.12,2.659l-.49.28h0a4.681,4.681,0,0,1-3.919-.63,12.114,12.114,0,0,1-3.639-3.429h0a9.793,9.793,0,0,1-1.96-5.389,3.08,3.08,0,0,1,1.19-2.729h.07l.21-.14h0c.98-.49,2.449-.35,4.129.56a12.359,12.359,0,0,1,3.639,3.5v.07a9.637,9.637,0,0,1,1.89,5.249" transform="translate(-188.312 -180.088)"/><path class="ah" d="M527.208,557.34l-.35.14h-.07l-3.009,1.75-3.849,2.24-47.66,27.643-37.862,21.975h0l-.56.35-7.348-4.409.21-.14,92.449-53.468h.07l.21-.14h0c.98-.49,2.449-.35,4.129.56a10.821,10.821,0,0,1,3.639,3.5h0" transform="translate(-149.082 -180.118)"/><path class="ai" d="M520.889,552.9a2.84,2.84,0,0,0-1.33.28h0l-.21.14h-.07L426.9,606.72a3.268,3.268,0,0,1,1.19-.21,6.023,6.023,0,0,1,2.8.84,11.989,11.989,0,0,1,3.709,3.569l37.862-21.9L520.12,561.37l3.849-2.24,3.009-1.75h.07l.35-.21a12.36,12.36,0,0,0-3.639-3.5,7.659,7.659,0,0,0-2.869-.77" transform="translate(-149.202 -180.087)"/><path class="ah" d="M532.519,564.419a3.084,3.084,0,0,1-1.12,2.659l-.49.28h0L438.32,620.826l-.07.07h0l-.35-8.048h0l37.792-21.905L523.351,563.3l3.849-2.24,3.079-1.75.35-.21v.07a9.637,9.637,0,0,1,1.889,5.249" transform="translate(-152.503 -181.948)"/><path class="ah" d="M418.161,640.93l1.05-2.17.07-.07,3.709-7.558.14-.28h0c.84-1.47,2.8-1.75,5.109-.42A12.845,12.845,0,0,1,431.948,634h0a9.683,9.683,0,0,1,1.82,5.179c0,2.03-1.12,3.219-2.8,3.149h0l-9.1-.21h-.28L419,642.05a.637.637,0,0,1-.56-.28l-.07-.14-.07-.14c-.28-.07-.28-.35-.14-.56" transform="translate(-146.551 -203.102)"/><path class="aj" d="M431.117,642.407h0m1.19-.35h0a3.413,3.413,0,0,1-.77.28,3.413,3.413,0,0,0,.77-.28m.77-5.809c.07.07.07.21.14.28l.07.14.42,1.47c0,.14.07.35.07.49h0v.56h0a3.488,3.488,0,0,1-.56,2.03,3.49,3.49,0,0,0,.56-2.03,9.437,9.437,0,0,0-.7-2.939m-1.19-2.169h0l.07.07a1.754,1.754,0,0,1,.28.49l.07.07c.14.21.21.42.35.63a2.483,2.483,0,0,1,.28.63h0a12.742,12.742,0,0,0-1.05-1.89h0m-6.439-4.479a2.482,2.482,0,0,0-2.31,1.26h0l-.14.28L419.29,638.7l-.07.07-1.05,2.169a.761.761,0,0,0-.07.35c0,.14,0,.21.07.28l.07.14h0l1.54-.84,1.96-1.12.21-.14,2.659-1.47,6.719-3.779.56-.35h0a11.246,11.246,0,0,0-3.709-3.569,5.779,5.779,0,0,0-2.729-.84" transform="translate(-146.56 -203.109)"/><path class="ah" d="M418.3,643.758l.07.14a.864.864,0,0,0,.56.28h.7l2.1.07h.07l9.1.21h0a2.838,2.838,0,0,0,1.33-.28l.07-.07a3.133,3.133,0,0,0,1.4-2.869v-.56h0c0-.14-.07-.35-.07-.49a5.81,5.81,0,0,0-.42-1.47l-.07-.14c-.07-.14-.14-.35-.21-.49h0c-.07-.21-.21-.42-.28-.63a2.839,2.839,0,0,0-.35-.63l-.07-.07c-.07-.14-.21-.35-.28-.49l-.07-.07h0l-.56.35-6.719,3.779-2.659,1.47-.21.14-1.96,1.12-1.47.7" transform="translate(-146.62 -205.09)"/><path class="ak" d="M431.947,636h0l-.56.35-6.719,3.779-2.659,1.47-.21.14-1.96,1.12-1.54.84h0l.07.14a.864.864,0,0,0,.56.28h.7l2.1.07h.07l9.1.21h.07a2.4,2.4,0,0,0,1.26-.28l.07-.07a3.133,3.133,0,0,0,1.4-2.869v-.56h0c0-.14-.07-.35-.07-.49a5.811,5.811,0,0,0-.42-1.47l-.07-.14c-.07-.14-.14-.35-.21-.49h0c-.07-.21-.21-.42-.28-.63a2.838,2.838,0,0,0-.35-.63l-.07-.07c-.07-.14-.21-.35-.28-.49V636h0" transform="translate(-146.62 -205.03)"/><path class="al" d="M418.15,645.569l.07.14h0l.07.14a.864.864,0,0,0,.56.28h.7l2.1.07h0V643.68l-2.519-.98-1.05,2.169A.828.828,0,0,0,418.15,645.569Z" transform="translate(-146.541 -207.041)"/><path class="al" d="M419.6,642.977a3.5,3.5,0,0,0,1.68,2.659c.91.56,1.68.21,1.68-.7a3.5,3.5,0,0,0-1.68-2.659C420.37,641.718,419.6,642,419.6,642.977Z" transform="translate(-147.011 -206.829)"/><path class="am" d="M197.2,536.217V521.1l13.087,7.558V543.7L197.2,536.217" transform="translate(-80.256 -170.542)"/><path class="an" d="M197.2,521.1v15.117l13.087,7.488V528.658L197.2,521.1" transform="translate(-80.256 -170.542)"/><path class="am" d="M197.2,517.858l13.087-7.558,13.087,7.558-13.087,7.558L197.2,517.858" transform="translate(-80.256 -167.301)"/><path class="ao" d="M210.287,510.3,197.2,517.858l13.087,7.558,13.087-7.558L210.287,510.3" transform="translate(-80.256 -167.301)"/><path class="ap" d="M215.9,528.658l13.087-7.558v15.117L215.9,543.7Z" transform="translate(-85.869 -170.542)"/><path class="am" d="M215.9,528.658l13.087-7.558v15.117L215.9,543.7Z" transform="translate(-85.869 -170.542)"/><path class="aq" d="M135.1,327.747V312.7l13.087,7.558V335.3Z" transform="translate(-61.616 -107.99)"/><path class="ar" d="M135.1,309.458l13.087-7.558,13.087,7.558-13.087,7.558Z" transform="translate(-61.616 -104.748)"/><path class="ap" d="M153.8,320.258l13.087-7.558v15.047L153.8,335.3Z" transform="translate(-67.229 -107.99)"/><path class="as" d="M153.8,320.258l13.087-7.558v15.047L153.8,335.3Z" transform="translate(-67.229 -107.99)"/><path class="j" d="M122.6,371.017V355.9l13.087,7.558v15.117L122.6,371.017" transform="translate(-57.864 -120.957)"/><path class="k" d="M122.6,355.9v15.117l13.087,7.558V363.458L122.6,355.9" transform="translate(-57.864 -120.957)"/><path class="j" d="M122.6,352.688l13.087-7.488,13.087,7.488-13.087,7.558L122.6,352.688" transform="translate(-57.864 -117.745)"/><path class="t" d="M135.687,345.2,122.6,352.688l13.087,7.558,13.087-7.558L135.687,345.2" transform="translate(-57.864 -117.745)"/><path class="j" d="M141.3,363.458l13.087-7.558v15.117L141.3,378.575Z" transform="translate(-63.477 -120.957)"/><path class="i" d="M76.682,258.7,41.9,278.856l.07,40.241,34.712-20.156V258.7" transform="translate(-33.642 -91.782)"/><path class="at" d="M76.682,258.7,41.9,278.856l.07,40.241,34.712-20.156V258.7" transform="translate(-33.642 -91.782)"/><path class="af" d="M77.958,302.971c0-2.309-1.89-3.079-4.129-1.75A8.572,8.572,0,0,0,69.7,307.8c0,2.309,1.89,3.079,4.129,1.75S77.958,305.28,77.958,302.971Z" transform="translate(-41.986 -104.349)"/><path class="af" d="M77.958,279.771c0-2.309-1.89-3.079-4.129-1.75A8.572,8.572,0,0,0,69.7,284.6c0,2.31,1.89,3.079,4.129,1.75C76.069,284.949,77.958,282.01,77.958,279.771Z" transform="translate(-41.986 -97.386)"/><path class="af" d="M58.758,302.371c0-2.309-1.89-3.079-4.129-1.75A8.572,8.572,0,0,0,50.5,307.2c0,2.309,1.89,3.079,4.129,1.75S58.758,304.68,58.758,302.371Z" transform="translate(-36.223 -104.169)"/><path class="af" d="M56.96,304.8l-1.26,2.939,13.017.35,1.33-2.939Z" transform="translate(-37.784 -105.619)"/><path class="af" d="M68.717,283.5,55.7,298.9l1.26,1.4,13.087-15.4Z" transform="translate(-37.784 -99.225)"/><path class="af" d="M122.6,591.486,157.522,571.4,192.3,591.486l-34.852,20.086Z" transform="translate(-57.864 -185.64)"/><path class="au" d="M122.6,600.1v5.039l34.852,20.086L192.3,605.139V600.1l-34.852,20.086Z" transform="translate(-57.864 -194.255)"/><path class="av" d="M172.4,620.186v5.039l34.852-20.086V600.1Z" transform="translate(-72.812 -194.255)"/><path class="i" d="M40.079,326.691,35.6,324.1V284l4.409,2.449.07,40.241" transform="translate(-31.751 -99.375)"/><path class="c" d="M399.3,544.3h0" transform="translate(-140.917 -177.506)"/><g transform="translate(258.383 339.15)"><path class="aw" d="M447.169,504.8,399.3,532.444v4.969l2.31,1.4,47.939-27.644V506.13l-2.379-1.33" transform="translate(-399.3 -504.8)"/><path class="ax" d="M399.3,544.3v4.969l2.31,1.4V545.63l-2.31-1.33" transform="translate(-399.3 -516.656)"/><path class="ax" d="M447.169,504.8h0L399.3,532.444h0l2.31,1.33,47.939-27.644-2.379-1.33" transform="translate(-399.3 -504.8)"/></g><g transform="translate(249.704 334.181)"><path class="aw" d="M434.839,497.7,386.9,525.344v4.969l2.379,1.4,47.869-27.644V499.03l-2.309-1.33" transform="translate(-386.9 -497.7)"/><path class="ax" d="M386.9,537.2v4.969l2.379,1.4V538.53L386.9,537.2" transform="translate(-386.9 -509.556)"/><path class="ax" d="M434.839,497.7,386.9,525.344l2.379,1.33,47.869-27.644-2.309-1.33" transform="translate(-386.9 -497.7)"/></g><path class="b" d="M462.969,513.9h0v5.039L415.1,546.583l47.869-27.644V513.9" transform="translate(-145.66 -168.381)"/><g transform="translate(267.061 344.189)"><path class="aw" d="M459.639,512,411.7,539.644v4.969l2.379,1.4,47.869-27.644V513.33L459.639,512" transform="translate(-411.7 -512)"/><path class="ax" d="M411.7,551.5v4.969l2.379,1.4V552.9l-2.379-1.4" transform="translate(-411.7 -523.856)"/><path class="ax" d="M459.639,512h0L411.7,539.644l2.379,1.4,47.869-27.714L459.639,512" transform="translate(-411.7 -512)"/></g><path class="ay" d="M566.286,562.528a3.254,3.254,0,0,1-1.05,2.659h0l-.56.28h0l-5.809,3.359a3.174,3.174,0,0,0,1.12-2.659,9.451,9.451,0,0,0-1.89-5.249v-.07a12.359,12.359,0,0,0-3.639-3.5c-1.61-.98-3.079-1.12-4.059-.56l6.579-3.779a4.681,4.681,0,0,1,3.919.63,12.362,12.362,0,0,1,3.639,3.5v.07a11.1,11.1,0,0,1,1.75,5.319Z" transform="translate(-186.271 -180.057)"/><path class="ar" d="M562.35,575.8h0l-.35.21Z" transform="translate(-189.753 -186.961)"/><path class="ar" d="M550.08,558.6l-.21.14-.07.07.35-.21Z" transform="translate(-186.091 -181.798)"/><path class="ar" d="M561.7,576.24l.21-.14-.21.07Z" transform="translate(-189.663 -187.051)"/><path class="ay" d="M557.7,554.12l.77-.42-.07.07-.56.28Z" transform="translate(-188.462 -180.327)"/><path class="ay" d="M569.9,571.29l.91-.49Z" transform="translate(-192.124 -185.46)"/><path class="ar" d="M569.75,571.57v-.07l-.35.21Z" transform="translate(-191.974 -185.67)"/><path class="ar" d="M557.48,554.3l-.21.14-.07.07.35-.21Z" transform="translate(-188.312 -180.508)"/><path class="ar" d="M569.1,571.94l.21-.14Z" transform="translate(-191.884 -185.76)"/><path class="j" d="M271.4,576.786,306.252,556.7,341.1,576.786l-34.852,20.156L271.4,576.786" transform="translate(-102.528 -181.228)"/><path class="t" d="M306.252,556.7,271.4,576.786l34.852,20.156L341.1,576.786,306.252,556.7" transform="translate(-102.528 -181.228)"/><path class="j" d="M271.4,585.4v5.039L306.252,610.6,341.1,590.439V585.4l-34.852,20.156L271.4,585.4" transform="translate(-102.528 -189.842)"/><path class="af" d="M324.915,577.149,322.4,582.4l6.089,4.829-9.518-.56-5.039,4.339-3.289-5.6-9.238-2.169,7.488-2.869-.63-5.669,7.838,3.779Z" transform="translate(-111.532 -186.631)"/><path class="k" d="M271.4,585.4v5.039L306.252,610.6v-5.039L271.4,585.4" transform="translate(-102.528 -189.842)"/><path class="az" d="M66.3,492.686,101.222,472.6,136,492.686l-34.852,20.156L66.3,492.686" transform="translate(-40.966 -155.985)"/><path class="ba" d="M101.222,472.6,66.3,492.686l34.852,20.156L136,492.686,101.222,472.6" transform="translate(-40.966 -155.985)"/><path class="bb" d="M66.3,501.3v5.039l34.922,20.156L136,506.339V501.3l-34.852,20.156L66.3,501.3" transform="translate(-40.966 -164.599)"/><path class="af" d="M108.795,489.213l14.627,8.468a1.44,1.44,0,0,1,0,2.449l-10.288,5.949a1.271,1.271,0,0,1-1.4,0L103.9,501.6l-6.788-3.919a1.44,1.44,0,0,1,0-2.449l10.288-5.949a1.158,1.158,0,0,1,1.4-.07Z" transform="translate(-50.008 -160.911)"/><path class="af" d="M106.9,511.769l4.339-2.519-4.129-2.45Z" transform="translate(-53.152 -166.25)"/><path class="bc" d="M66.3,501.3v5.039l34.922,20.156-.07-5.039L66.3,501.3" transform="translate(-40.966 -164.599)"/><path class="bd" d="M300.639,459.7l-4.339,2.519,60.956,35.132L296.3,462.219l4.339-2.519h0" transform="translate(-110.001 -152.113)"/><path class="be" d="M300.639,459.7l-4.339,2.519,60.956,35.132v-4.969L300.639,459.7" transform="translate(-110.001 -152.113)"/><path class="be" d="M296.3,456.1v5.039l4.339-2.519L296.3,456.1" transform="translate(-110.001 -151.032)"/><path class="bf" d="M307.838,288.519,312.177,286l4.339,2.519-12.877,57.947-4.339,2.589,12.877-57.947-4.339-2.589" transform="translate(-110.902 -99.976)"/><path class="bg" d="M308.8,309.5v5.039l26.1,15.117v-5.039L308.8,309.5" transform="translate(-113.753 -107.029)"/><path class="bf" d="M308.8,308.449,313.139,306l26.174,15.047v5.039L334.9,328.6v-5.039l-26.1-15.117" transform="translate(-113.753 -105.979)"/><path class="bh" d="M319.7,308.7h0l22.815,13.157L319.7,308.7" transform="translate(-117.025 -106.789)"/><path class="bi" d="M319.7,308.7h0l22.815,13.157L319.7,308.7" transform="translate(-117.025 -106.789)"/><path class="bj" d="M313.5,312.3h0l22.815,13.157L313.5,312.3" transform="translate(-115.164 -107.87)"/><path class="bk" d="M317.839,308.7l-4.339,2.519,22.815,13.157v5.039l3.009-1.75,1.33-5.809L317.839,308.7" transform="translate(-115.164 -106.789)"/><path class="bg" d="M303.1,334.9v5.039l26.174,15.047-.07-5.039L303.1,334.9" transform="translate(-112.042 -114.653)"/><path class="bf" d="M303.1,333.819l4.339-2.519,26.174,15.117v5.039l-4.339,2.449-.07-5.039-26.1-15.047" transform="translate(-112.042 -113.573)"/><path class="bh" d="M314,334.1h0l22.815,13.087h0L314,334.1" transform="translate(-115.314 -114.413)"/><path class="af" d="M314,334.1h0l22.815,13.087h0L314,334.1" transform="translate(-115.314 -114.413)"/><path class="bk" d="M314,334.1h0" transform="translate(-115.314 -114.413)"/><path class="bk" d="M312.169,334.1l-4.269,2.449,22.745,13.157.07,5.039,3.009-1.68,1.26-5.879L312.169,334.1h0" transform="translate(-113.483 -114.413)"/><path class="bf" d="M345.138,310.119l4.339-2.519,4.339,2.519-12.877,57.947-4.339,2.589,12.947-58.017-4.409-2.519" transform="translate(-122.098 -106.459)"/><path class="bg" d="M293.1,347.547l4.339,2.589,12.877-57.947-4.339-2.589L293.1,347.547" transform="translate(-109.041 -101.056)"/><path class="bk" d="M311.71,289.5l-.21.07.21.14v-.21" transform="translate(-114.564 -101.026)"/><path class="bk" d="M353.139,307.6l-3.709,2.17-.63.35,4.409,2.519,4.269-2.519-4.339-2.519" transform="translate(-125.76 -106.459)"/><path class="bf" d="M292.306,339.289l4.339-2.589,4.339,2.589L278.239,441.747l-4.339,2.519,22.745-102.457-4.339-2.519" transform="translate(-103.278 -115.194)"/><path class="bg" d="M297.5,360.3v5.039l26.1,15.047v-5.039L297.5,360.3" transform="translate(-110.362 -122.277)"/><path class="bg" d="M289.97,413.9l-2.17,3.849L313.974,432.8l-.07-5.039L289.97,413.9" transform="translate(-107.45 -138.366)"/><path class="bg" d="M284.119,439.4l-2.519,3.639,26.174,15.047-.07-5.039L284.119,439.4" transform="translate(-105.589 -146.02)"/><path class="bg" d="M296.18,388.4l-.98,4.479,23.8,13.721-.07-5.039L296.18,388.4" transform="translate(-109.671 -130.712)"/><path class="bg" d="M278.339,464.9l-2.939,3.359,26.1,15.047v-5.039L278.339,464.9" transform="translate(-103.728 -153.674)"/><path class="bf" d="M279.6,463.819l4.269-2.519L307.1,474.667v5.039l-4.339,2.519v-5.039L279.6,463.819" transform="translate(-104.989 -152.593)"/><path class="bf" d="M297.5,359.219l4.339-2.519,26.174,15.117v5.039L323.6,379.3v-5.039l-26.1-15.047" transform="translate(-110.362 -121.197)"/><path class="bf" d="M296.6,387.319l4.269-2.519,22.885,13.157V403l-4.339,2.519-.07-5.039L296.6,387.319" transform="translate(-110.091 -129.631)"/><path class="bf" d="M290.9,412.849l4.339-2.449,24,13.787v5.039l-4.339,2.519-.07-5.039L290.9,412.849" transform="translate(-108.381 -137.315)"/><path class="bf" d="M285.2,438.349l4.339-2.449,23.655,13.577v5.039l-4.339,2.519-.07-5.039L285.2,438.349" transform="translate(-106.67 -144.969)"/><path class="bk" d="M306.539,359.5l-4.339,2.449,22.815,13.157v5.039l4.409-2.449v-5.039L306.539,359.5" transform="translate(-111.772 -122.037)"/><path class="bk" d="M300.869,384.8l-4.269,2.519,22.745,13.157.07,5.039L323.754,403v-5.039l-1.33-.77L300.869,384.8" transform="translate(-110.091 -129.631)"/><path class="bk" d="M295.239,410.4h0l-4.339,2.449,23.935,13.857.07,5.039,4.339-2.519v-5.039l-24-13.787" transform="translate(-108.381 -137.315)"/><path class="bk" d="M289.539,435.9l-4.339,2.449L308.785,452l.07,5.039,4.339-2.519v-5.039l-9.728-5.529L289.539,435.9" transform="translate(-106.67 -144.969)"/><path class="bk" d="M283.869,461.3l-4.269,2.519,23.165,13.367v5.039l4.339-2.519v-5.039L283.869,461.3" transform="translate(-104.989 -152.593)"/><path class="bf" d="M329.606,360.889l4.339-2.589,4.339,2.589L315.539,463.347l-4.339,2.519,22.815-102.457Z" transform="translate(-114.474 -121.677)"/><path class="bg" d="M267.7,438.955l4.339,2.519L297.373,327.4l-6.928,9.1Z" transform="translate(-101.417 -112.402)"/><path class="bg" d="M304.2,335.5v5.039l26.174,15.117-.07-5.039Z" transform="translate(-112.373 -114.833)"/><path class="bg" d="M305,457.884l4.339,2.519,26.734-120.3-8.328,15.327Z" transform="translate(-112.613 -116.214)"/><path class="bf" d="M305.819,359.189l1.05-.56.21-.84-3.569-1.19-.21,1.05Z" transform="translate(-112.102 -121.167)"/><path class="bg" d="M330.4,369.147l4.339,2.589,12.947-58.017-4.409-2.519Z" transform="translate(-120.237 -107.54)"/><path class="bl" d="M309.5,254.639l.7-.42,4.339-2.519.91.49,4.339,2.519-4.339,2.519-4.339-2.519h0l-.21-.14-1.12.56-.28-.49" transform="translate(-113.963 -89.68)"/><path class="bl" d="M319.088,254.289l.7.42h0l-.7-.42m-4.549-2.589-4.339,2.519-.7.42.21.49,1.12-.56.21.14h0l4.269,2.449V252.12l3.079,1.75h0l-3.079-1.75-.77-.42" transform="translate(-113.963 -89.68)"/><path class="bm" d="M324.787,263.558v30.163L311.7,286.163,311.77,256l13.017,7.558" transform="translate(-114.624 -90.971)"/><path class="bm" d="M330.987,259.888v30.163L317.9,282.563l.07-30.163,13.017,7.488" transform="translate(-116.485 -89.891)"/><path class="bn" d="M327.518,308.219v30.163l-6.719-3.919V304.3Z" transform="translate(-117.355 -105.469)"/><path class="bn" d="M318.069,302.739V332.9l-6.369-3.639V299.1Z" transform="translate(-114.624 -103.908)"/><path class="bl" d="M334.739,263.1v30.163l-4.339-2.449V265.689l4.339-2.589" transform="translate(-120.237 -93.102)"/><path class="bl" d="M330.4,302.7h0l4.339,2.449-4.339,2.589Z" transform="translate(-120.237 -104.988)"/><path class="bo" d="M319.1,333.533l2.379,1.33V304.7l-2.379-1.4Z" transform="translate(-116.845 -105.168)"/><path class="bm" d="M330.4,266.8l7.908,6.439a1.479,1.479,0,0,0,1.61.14l7.838-4.549v2.939l-7.838,4.549a1.5,1.5,0,0,1-1.61-.14l-7.908-6.369V266.8" transform="translate(-120.237 -94.213)"/><path class="bl" d="M322.339,256l8.678,4.969-4.339,2.589L318,258.519,322.339,256" transform="translate(-116.515 -90.971)"/><path class="bl" d="M343.347,265.23l4.409,2.519-7.838,4.549a1.5,1.5,0,0,1-1.61-.14l-7.908-6.439,4.339-2.519,3.569,3.779a1.382,1.382,0,0,0,1.68.28l3.359-2.03" transform="translate(-120.237 -93.132)"/><path class="bl" d="M322.4,254.9h0l1.26.77h0l-.7-.42-.56-.35" transform="translate(-117.835 -90.641)"/><path class="bp" d="M321.079,254.9,318,258.189l4.339-2.519-1.26-.77" transform="translate(-116.515 -90.641)"/><path class="bh" d="M321.079,254.9,318,258.189l4.339-2.519-1.26-.77" transform="translate(-116.515 -90.641)"/><path class="bl" d="M322.339,256h0L318,258.519l8.678,5.039h0l4.339-2.589L322.339,256" transform="translate(-116.515 -90.971)"/><path class="bl" d="M334.739,263.1h0l-4.339,2.519,7.908,6.439a1.407,1.407,0,0,0,.91.28,1.35,1.35,0,0,0,.7-.21l7.838-4.549-4.409-2.519-3.359,1.96a1.35,1.35,0,0,1-.7.21,1.271,1.271,0,0,1-.98-.42l-3.569-3.709" transform="translate(-120.237 -93.102)"/><path class="bq" d="M351.24,264.2,349,265.46l4.409,2.589,2.24-1.33Z" transform="translate(-125.82 -93.432)"/><path class="bq" d="M355.3,269.13l2.24-1.33v2.869L355.3,272Z" transform="translate(-127.711 -94.513)"/><path class="bq" d="M310.77,297.6l-2.17-1.26V294.1l2.17,1.26Z" transform="translate(-113.693 -102.407)"/><path class="bo" d="M335,342.809l4.339-2.519L335,337.7Z" transform="translate(-121.617 -115.494)"/><path class="bo" d="M335.719,341.274l-5.319,3.079v5.039l8.678-5.039v-1.12a2.252,2.252,0,0,0-3.359-1.959Z" transform="translate(-120.237 -116.478)"/><path class="bo" d="M334.739,306.2v30.233l-4.339,2.519V308.789Z" transform="translate(-120.237 -106.039)"/><path class="br" d="M329.487,242.689l-6.928-3.989-5.319,2.939a2.747,2.747,0,0,0-1.47,2.449l-.07,8.258,7.208,4.2,4.129-2.379a4.851,4.851,0,0,0,2.449-4.269V242.69Z" transform="translate(-115.824 -85.778)"/><path class="bq" d="M333.209,246.8l-3.709,2.17a2.823,2.823,0,0,0-1.4,2.449v6.719l2.589-1.54a4.934,4.934,0,0,0,2.449-4.269V246.8Z" transform="translate(-119.546 -88.21)"/><path class="br" d="M326.73,237.5l6.928,3.989v.14a2.73,2.73,0,0,1-1.33,2.379v-1.68L325.4,238.34Z" transform="translate(-118.736 -85.418)"/><path class="bm" d="M308.6,282.549l2.24,1.26V255.885l-.14-.07a1.4,1.4,0,0,0-2.1,1.19Z" transform="translate(-113.693 -90.856)"/><path class="i" d="M35.6,275.386,70.592,255.3l4.2,2.379L40.009,277.835,35.6,275.386" transform="translate(-31.751 -90.761)"/><path class="r" d="M70.592,255.3,35.6,275.386l4.409,2.449,34.782-20.156-4.2-2.379" transform="translate(-31.751 -90.761)"/><path class="j" d="M191.1,334.658l13.017-7.558,13.087,7.558-13.087,7.558Z" transform="translate(-78.425 -112.312)"/><path class="af" d="M191.1,334.658l13.017-7.558,13.087,7.558-13.087,7.558Z" transform="translate(-78.425 -112.312)"/><path class="av" d="M209.7,345.458l13.087-7.558v15.047L209.7,360.505Z" transform="translate(-84.008 -115.554)"/><path class="au" d="M191.1,352.947V337.9l13.017,7.558v15.047Z" transform="translate(-78.425 -115.554)"/><path class="bs" d="M464.9,561.217V546.1l13.087,7.558V568.7L464.9,561.217" transform="translate(-160.608 -178.046)"/><path class="bt" d="M464.9,546.1v15.117l13.087,7.488V553.658L464.9,546.1" transform="translate(-160.608 -178.046)"/><path class="bu" d="M464.9,542.858l13.087-7.558L491,542.858l-13.017,7.558L464.9,542.858" transform="translate(-160.608 -174.805)"/><path class="bv" d="M477.987,535.3,464.9,542.858l13.087,7.558L491,542.858,477.987,535.3" transform="translate(-160.608 -174.805)"/><path class="ap" d="M483.6,553.658l13.017-7.558v15.117L483.6,568.705Z" transform="translate(-166.221 -178.046)"/><path class="bs" d="M483.6,553.658l13.017-7.558v15.117L483.6,568.705Z" transform="translate(-166.221 -178.046)"/><path class="bs" d="M483.6,553.658l13.017-7.558v15.117L483.6,568.705Z" transform="translate(-166.221 -178.046)"/><path class="bw" d="M570.6,613.086,605.452,593l34.782,20.086-34.782,20.086L570.6,613.086" transform="translate(-192.334 -192.124)"/><path class="bx" d="M570.6,621.7v4.969l34.852,20.155,34.782-20.155V621.7l-34.782,20.086L570.6,621.7" transform="translate(-192.334 -200.738)"/><path class="m" d="M153.9,397.286,188.752,377.2,223.6,397.286l-34.852,20.156L153.9,397.286" transform="translate(-67.259 -127.35)"/><path class="z" d="M188.752,377.2,153.9,397.286l34.852,20.156L223.6,397.286,188.752,377.2" transform="translate(-67.259 -127.35)"/><path class="m" d="M153.9,405.9v5.039L188.752,431.1,223.6,410.939V405.9l-34.852,20.156L153.9,405.9" transform="translate(-67.259 -135.964)"/><path class="af" d="M196.677,401.738,184.5,403.7c.07-.07.14-.07.21-.14l15.327-9.518c.07-.07.14-.07.21-.14l-2.659,7.278a1.221,1.221,0,0,1-.911.558Z" transform="translate(-76.444 -132.363)"/><path class="af" d="M202.226,394.18l7.974,4.62c.77.42.7,1.19-.14,1.75l-14.76,9.166a3.206,3.206,0,0,1-2.869.14l-7.978-4.619a.843.843,0,0,1-.35-.35L196.347,403a3.251,3.251,0,0,0,1.68-.63,1.866,1.866,0,0,0,.91-1.05l2.729-7.418a4.127,4.127,0,0,0,.56.278Z" transform="translate(-76.324 -132.363)"/><path class="x" d="M238.552,405.9h0L203.7,426.056V431.1l34.852-20.156V405.9" transform="translate(-82.207 -135.964)"/><path class="by" d="M570.5,625.4v2.379l34.922,20.156h0L570.57,627.779V625.4h-.07" transform="translate(-192.304 -201.849)"/><path class="bz" d="M570.6,625.4v2.379l34.852,20.156-.07-4.969-2.239,1.26h0L570.6,625.4" transform="translate(-192.334 -201.849)"/><path class="az" d="M567.3,607.786,602.222,587.7,637,607.786l-34.852,20.086L567.3,607.786" transform="translate(-191.344 -190.533)"/><path class="ca" d="M571.779,612.7l-4.479,2.589,34.852,20.086L637,615.289l-.07-.07-30.373,17.566L571.779,612.7" transform="translate(-191.344 -198.037)"/><path class="bb" d="M567.3,616.4v4.969l34.852,20.156L637,621.369V616.4l-34.852,20.086L567.3,616.4" transform="translate(-191.344 -199.147)"/><path class="cb" d="M573.6,596.886,608.452,576.8l34.782,20.086-34.782,20.086L573.6,596.886" transform="translate(-193.235 -187.261)"/><path class="cc" d="M608.452,576.8,573.6,596.886l34.852,20.086,34.782-20.086L608.452,576.8" transform="translate(-193.235 -187.261)"/><path class="ap" d="M573.6,605.5v5.039l34.852,20.086,34.782-20.086V605.5l-34.782,20.086L573.6,605.5" transform="translate(-193.235 -195.875)"/><path class="af" d="M632.283,604.44a4.118,4.118,0,0,0-2.24-2.939,11.223,11.223,0,0,0-4.9-1.47l-2.03-.14-.14-1.19a4.118,4.118,0,0,0-2.24-2.939,11.222,11.222,0,0,0-4.9-1.47c-3.709-.21-6.579,1.47-6.439,3.709l.14,1.19.07,1.05.14,1.47.49,5.669,9.378.49,2.449.14,1.68.07,2.03.14C629.553,608.359,632.423,606.68,632.283,604.44Z" transform="translate(-203.978 -192.506)"/><path class="cd" d="M573.6,605.5v5.039l34.852,20.086v-5.039L573.6,605.5" transform="translate(-193.235 -195.875)"/><path class="by" d="M567.3,616.4v4.969l2.24,1.33h0l-2.24-1.33V616.4h0" transform="translate(-191.344 -199.147)"/><path class="ce" d="M570.5,625.4h0" transform="translate(-192.304 -201.849)"/><path class="cf" d="M570.6,625.4h0l32.543,18.826h0L570.6,625.4" transform="translate(-192.334 -201.849)"/><path class="af" d="M570.6,625.4h0l32.543,18.826h0L570.6,625.4" transform="translate(-192.334 -201.849)"/><path class="cg" d="M567.3,616.4v4.969l2.24,1.33h.07l32.543,18.826v-5.039L567.3,616.4" transform="translate(-191.344 -199.147)"/></g><path class="bg" d="M334.739,371.737l-4.339-2.589L343.277,311.2l4.409,2.519Z" transform="translate(-90.137 -87.348)"/></g><path class="ch" d="M7.76-13.63a6.463,6.463,0,0,1,1.9,1.21L8.62-11.26a5.922,5.922,0,0,0-1.53-.91,4.425,4.425,0,0,0-1.61-.29,2.988,2.988,0,0,0-1.78.5A1.681,1.681,0,0,0,3-10.5a1.97,1.97,0,0,0,.24,1.01,2.144,2.144,0,0,0,.89.75,11.637,11.637,0,0,0,1.89.72,12.311,12.311,0,0,1,2.16.86A3.745,3.745,0,0,1,9.57-5.89a3.673,3.673,0,0,1,.53,2.05,3.841,3.841,0,0,1-.59,2.12A3.946,3.946,0,0,1,7.81-.28,6.149,6.149,0,0,1,5.18.24,6.412,6.412,0,0,1,.5-1.54L1.54-2.7a6.778,6.778,0,0,0,1.7,1.03,5.051,5.051,0,0,0,1.92.35,3.435,3.435,0,0,0,2.12-.63,2.147,2.147,0,0,0,.84-1.83,2.232,2.232,0,0,0-.26-1.13,2.316,2.316,0,0,0-.89-.81,9.124,9.124,0,0,0-1.83-.72,8.053,8.053,0,0,1-3.1-1.54,3.15,3.15,0,0,1-.98-2.44,3.262,3.262,0,0,1,.55-1.86,3.66,3.66,0,0,1,1.54-1.28,5.28,5.28,0,0,1,2.25-.46A6.384,6.384,0,0,1,7.76-13.63ZM20.14,0,19.1-3.46H13.88L12.84,0H10.92l4.42-13.78h2.4L22.14,0Zm-5.8-5h4.3L16.5-12.2ZM31.4-13.78l-.2,1.62H27.38V0h-1.9V-12.16H21.56v-1.62ZM43.04-4.42a5.014,5.014,0,0,1-.57,2.43A4.017,4.017,0,0,1,40.81-.35,5.41,5.41,0,0,1,38.2.24a4.758,4.758,0,0,1-3.55-1.27A4.623,4.623,0,0,1,33.4-4.42v-9.36h1.9v9.22a3.489,3.489,0,0,0,.72,2.4,2.786,2.786,0,0,0,2.18.8,2.833,2.833,0,0,0,2.2-.79,3.483,3.483,0,0,0,.72-2.41v-9.22h1.92Zm7.84-1.42H48.74V0h-1.9V-13.78h3.62a6.543,6.543,0,0,1,3.91.98A3.4,3.4,0,0,1,55.7-9.88a3.565,3.565,0,0,1-.74,2.34,4.525,4.525,0,0,1-2.24,1.36L56.44,0H54.18ZM50.66-7.3a3.556,3.556,0,0,0,2.26-.61,2.379,2.379,0,0,0,.76-1.97,2.149,2.149,0,0,0-.77-1.85,4.2,4.2,0,0,0-2.47-.57h-1.7v5ZM68.6,0H66.06l-5.6-11.7q.12,1.38.19,2.55t.07,2.83V0H58.94V-13.78h2.48L67.08-2.06q-.06-.52-.16-1.82t-.1-2.38v-7.52H68.6Zm3.2-5.48V-7.04h5.66v1.56Zm17.36-8.3L84.76,0H82.72L78.28-13.78h2.04L83.78-2.06l3.46-11.72Z" transform="translate(86 285)"/><path class="ci" d="M9.34,0,8.3-3.46H3.08L2.04,0H.12L4.54-13.78h2.4L11.34,0ZM3.54-5h4.3L5.7-12.2Zm17.5-7.71a3.764,3.764,0,0,1,1.4,3.19,3.936,3.936,0,0,1-1.46,3.36,6.29,6.29,0,0,1-3.88,1.1H15.36V0h-1.9V-13.78h3.62A6.4,6.4,0,0,1,21.04-12.71ZM19.55-7.2a2.681,2.681,0,0,0,.87-2.3,2.514,2.514,0,0,0-.87-2.14,4.056,4.056,0,0,0-2.49-.66h-1.7v5.74h1.66A4.23,4.23,0,0,0,19.55-7.2Zm13.5-5.99a5.47,5.47,0,0,1,2.04,2.43,9.308,9.308,0,0,1,.73,3.88,9.2,9.2,0,0,1-.73,3.84A5.535,5.535,0,0,1,33.05-.6,5.526,5.526,0,0,1,30,.24a5.628,5.628,0,0,1-3.05-.82A5.406,5.406,0,0,1,24.91-3a9.254,9.254,0,0,1-.73-3.86,9.286,9.286,0,0,1,.73-3.84,5.559,5.559,0,0,1,2.05-2.47A5.491,5.491,0,0,1,30-14.02,5.576,5.576,0,0,1,33.05-13.19ZM27.2-11.1a7.2,7.2,0,0,0-1,4.24,7.006,7.006,0,0,0,1.01,4.2A3.3,3.3,0,0,0,30-1.32q3.8,0,3.8-5.56,0-5.58-3.8-5.58A3.276,3.276,0,0,0,27.2-11.1Zm13.62-2.68V-1.66h5.66L46.26,0H38.92V-13.78Zm9.96,0V-1.66h5.66L56.22,0H48.88V-13.78Zm15.13.59a5.47,5.47,0,0,1,2.04,2.43,9.308,9.308,0,0,1,.73,3.88,9.2,9.2,0,0,1-.73,3.84A5.535,5.535,0,0,1,65.91-.6a5.526,5.526,0,0,1-3.05.84,5.628,5.628,0,0,1-3.05-.82A5.406,5.406,0,0,1,57.77-3a9.253,9.253,0,0,1-.73-3.86,9.286,9.286,0,0,1,.73-3.84,5.559,5.559,0,0,1,2.05-2.47,5.491,5.491,0,0,1,3.04-.85A5.576,5.576,0,0,1,65.91-13.19ZM60.06-11.1a7.2,7.2,0,0,0-1,4.24,7.006,7.006,0,0,0,1.01,4.2,3.3,3.3,0,0,0,2.79,1.34q3.8,0,3.8-5.56,0-5.58-3.8-5.58A3.276,3.276,0,0,0,60.06-11.1ZM70.98-5.48V-7.04h5.66v1.56Zm11.92-7.9V0H81.06V-11.42l-3.12,1.9-.8-1.3,4.14-2.56Zm8.38,0V0H89.44V-11.42l-3.12,1.9-.8-1.3,4.14-2.56Z" transform="translate(86 395)"/><path class="ch" d="M1.8,0V-12.4H8.388l-.2,1.368H3.51V-6.8H7.56v1.35H3.51V0ZM14.976-9.594l-.306,1.62a3.413,3.413,0,0,0-.828-.108,1.76,1.76,0,0,0-1.422.648,4.815,4.815,0,0,0-.846,2.016V0H9.918V-9.486H11.34L11.5-7.56a3.6,3.6,0,0,1,1.026-1.6A2.29,2.29,0,0,1,14.04-9.7,3.852,3.852,0,0,1,14.976-9.594Zm7.848,8.235a1.207,1.207,0,0,0,.594.423L23.04.216A2.531,2.531,0,0,1,21.852-.2a1.894,1.894,0,0,1-.666-1.008A3.182,3.182,0,0,1,18.36.216a3.031,3.031,0,0,1-2.214-.792,2.766,2.766,0,0,1-.81-2.07,2.719,2.719,0,0,1,1.089-2.322,5.1,5.1,0,0,1,3.087-.81H20.97v-.7a1.845,1.845,0,0,0-.486-1.44,2.2,2.2,0,0,0-1.494-.432,8.357,8.357,0,0,0-2.556.5L16.02-9.054A9.547,9.547,0,0,1,19.3-9.7a3.424,3.424,0,0,1,2.5.819,3.133,3.133,0,0,1,.828,2.331v4.338A1.487,1.487,0,0,0,22.824-1.359ZM20.97-2.5V-4.68H19.728Q17.1-4.68,17.1-2.736a1.78,1.78,0,0,0,.414,1.278,1.619,1.619,0,0,0,1.224.432A2.472,2.472,0,0,0,20.97-2.5ZM37.422-8.919a3.051,3.051,0,0,1,.7,2.115V0H36.468V-6.57q0-1.836-1.332-1.836a1.794,1.794,0,0,0-1.188.4A5.666,5.666,0,0,0,32.9-6.732V0H31.248V-6.57q0-1.836-1.332-1.836a1.8,1.8,0,0,0-1.206.414,5.673,5.673,0,0,0-1.026,1.26V0H26.028V-9.486H27.45L27.594-8.1A3.177,3.177,0,0,1,30.33-9.7a2.492,2.492,0,0,1,1.5.45,2.468,2.468,0,0,1,.891,1.26,4.458,4.458,0,0,1,1.233-1.269A2.847,2.847,0,0,1,35.55-9.7,2.391,2.391,0,0,1,37.422-8.919Zm11.16,4.743H42.534a3.7,3.7,0,0,0,.792,2.3,2.3,2.3,0,0,0,1.764.738,3.853,3.853,0,0,0,1.26-.2,5.081,5.081,0,0,0,1.206-.63l.72.99A5.243,5.243,0,0,1,44.964.216a3.841,3.841,0,0,1-3.087-1.3A5.312,5.312,0,0,1,40.77-4.644a6.751,6.751,0,0,1,.477-2.619,4.109,4.109,0,0,1,1.368-1.791,3.469,3.469,0,0,1,2.1-.648,3.516,3.516,0,0,1,2.9,1.242,5.31,5.31,0,0,1,1.008,3.438Q48.618-4.608,48.582-4.176Zm-1.6-1.332a3.507,3.507,0,0,0-.558-2.142,1.966,1.966,0,0,0-1.674-.738q-2.034,0-2.214,2.988H46.98ZM62.1-9.486,59.94,0H57.69L56.034-7.992,54.324,0h-2.2L49.914-9.486H51.57l1.71,8.334,1.872-8.334h1.854l1.782,8.334,1.728-8.334ZM70.839-8.37a5.488,5.488,0,0,1,1.107,3.618,6.306,6.306,0,0,1-.5,2.6A3.952,3.952,0,0,1,69.984-.405a4.065,4.065,0,0,1-2.268.621A3.84,3.84,0,0,1,64.6-1.116a5.458,5.458,0,0,1-1.116-3.618,6.306,6.306,0,0,1,.5-2.6,3.952,3.952,0,0,1,1.458-1.746A4.1,4.1,0,0,1,67.734-9.7,3.814,3.814,0,0,1,70.839-8.37ZM65.268-4.734q0,3.618,2.448,3.618t2.448-3.636q0-3.618-2.43-3.618Q65.268-8.37,65.268-4.734ZM79.74-9.594l-.306,1.62a3.413,3.413,0,0,0-.828-.108,1.76,1.76,0,0,0-1.422.648,4.815,4.815,0,0,0-.846,2.016V0H74.682V-9.486H76.1l.162,1.926a3.6,3.6,0,0,1,1.026-1.6A2.29,2.29,0,0,1,78.8-9.7,3.852,3.852,0,0,1,79.74-9.594ZM83.286-13.5V0H81.63V-13.3ZM88.74-9.486,85.248-5.292,89.136,0h-1.98L83.394-5.184l3.492-4.3Zm13.185-2.844a5.619,5.619,0,0,1,1.557.936l-.936,1.1a3.75,3.75,0,0,0-2.394-.918,3.029,3.029,0,0,0-2.493,1.188,6.146,6.146,0,0,0-.945,3.816,6.172,6.172,0,0,0,.936,3.771,2.981,2.981,0,0,0,2.484,1.215,3.321,3.321,0,0,0,1.386-.27,7.279,7.279,0,0,0,1.26-.756l.846,1.08a4.613,4.613,0,0,1-1.476.99,5.1,5.1,0,0,1-2.07.4,4.92,4.92,0,0,1-2.691-.747,4.916,4.916,0,0,1-1.836-2.2A8.391,8.391,0,0,1,94.9-6.21a8.1,8.1,0,0,1,.684-3.483,5.045,5.045,0,0,1,1.854-2.187,4.791,4.791,0,0,1,2.61-.738A5.368,5.368,0,0,1,101.925-12.33Zm8.865.063a5.817,5.817,0,0,1,1.71,1.089l-.936,1.044a5.33,5.33,0,0,0-1.377-.819,3.983,3.983,0,0,0-1.449-.261,2.689,2.689,0,0,0-1.6.45,1.513,1.513,0,0,0-.63,1.314,1.773,1.773,0,0,0,.216.909,1.93,1.93,0,0,0,.8.675,10.473,10.473,0,0,0,1.7.648,11.08,11.08,0,0,1,1.944.774A3.371,3.371,0,0,1,112.419-5.3a3.306,3.306,0,0,1,.477,1.845,3.457,3.457,0,0,1-.531,1.908,3.552,3.552,0,0,1-1.53,1.3,5.535,5.535,0,0,1-2.367.468,5.771,5.771,0,0,1-4.212-1.6l.936-1.044a6.1,6.1,0,0,0,1.53.927,4.546,4.546,0,0,0,1.728.315,3.092,3.092,0,0,0,1.908-.567,1.932,1.932,0,0,0,.756-1.647,2.009,2.009,0,0,0-.234-1.017,2.085,2.085,0,0,0-.8-.729,8.212,8.212,0,0,0-1.647-.648,7.247,7.247,0,0,1-2.79-1.386,2.835,2.835,0,0,1-.882-2.2,2.936,2.936,0,0,1,.495-1.674,3.294,3.294,0,0,1,1.386-1.152,4.752,4.752,0,0,1,2.025-.414A5.745,5.745,0,0,1,110.79-12.267Zm9.594,0a5.817,5.817,0,0,1,1.71,1.089l-.936,1.044a5.33,5.33,0,0,0-1.377-.819,3.983,3.983,0,0,0-1.449-.261,2.689,2.689,0,0,0-1.6.45,1.513,1.513,0,0,0-.63,1.314,1.773,1.773,0,0,0,.216.909,1.93,1.93,0,0,0,.8.675,10.473,10.473,0,0,0,1.7.648,11.08,11.08,0,0,1,1.944.774A3.371,3.371,0,0,1,122.013-5.3a3.306,3.306,0,0,1,.477,1.845,3.457,3.457,0,0,1-.531,1.908,3.552,3.552,0,0,1-1.53,1.3,5.535,5.535,0,0,1-2.367.468,5.771,5.771,0,0,1-4.212-1.6l.936-1.044a6.1,6.1,0,0,0,1.53.927,4.546,4.546,0,0,0,1.728.315,3.092,3.092,0,0,0,1.908-.567,1.932,1.932,0,0,0,.756-1.647,2.009,2.009,0,0,0-.234-1.017,2.085,2.085,0,0,0-.8-.729,8.212,8.212,0,0,0-1.647-.648,7.247,7.247,0,0,1-2.79-1.386,2.835,2.835,0,0,1-.882-2.2,2.936,2.936,0,0,1,.495-1.674,3.294,3.294,0,0,1,1.386-1.152,4.752,4.752,0,0,1,2.025-.414A5.745,5.745,0,0,1,120.384-12.267Zm5.868,10.341a1.2,1.2,0,0,1,.36.882,3.178,3.178,0,0,1-.324,1.278l-1.206,2.754h-1.188L124.614,0a1.284,1.284,0,0,1-.369-.45,1.309,1.309,0,0,1-.135-.594,1.2,1.2,0,0,1,.36-.882,1.2,1.2,0,0,1,.882-.36A1.221,1.221,0,0,1,126.252-1.926Zm14.346.567a1.207,1.207,0,0,0,.594.423L140.814.216A2.531,2.531,0,0,1,139.626-.2a1.894,1.894,0,0,1-.666-1.008A3.182,3.182,0,0,1,136.134.216a3.031,3.031,0,0,1-2.214-.792,2.766,2.766,0,0,1-.81-2.07A2.719,2.719,0,0,1,134.2-4.968a5.1,5.1,0,0,1,3.087-.81h1.458v-.7a1.845,1.845,0,0,0-.486-1.44,2.2,2.2,0,0,0-1.494-.432,8.357,8.357,0,0,0-2.556.5l-.414-1.206A9.547,9.547,0,0,1,137.07-9.7a3.424,3.424,0,0,1,2.5.819,3.133,3.133,0,0,1,.828,2.331v4.338A1.487,1.487,0,0,0,140.6-1.359ZM138.744-2.5V-4.68H137.5q-2.628,0-2.628,1.944a1.78,1.78,0,0,0,.414,1.278,1.619,1.619,0,0,0,1.224.432A2.472,2.472,0,0,0,138.744-2.5Zm12.078-5.9a6.665,6.665,0,0,1,.846,3.654,6.086,6.086,0,0,1-.972,3.6A3.179,3.179,0,0,1,147.942.216a3.059,3.059,0,0,1-2.484-1.08v4.5l-1.656.2V-9.486h1.422l.126,1.278a3.63,3.63,0,0,1,1.26-1.107,3.289,3.289,0,0,1,1.548-.387A2.951,2.951,0,0,1,150.822-8.406Zm-.936,3.654q0-3.636-2.142-3.636a2.14,2.14,0,0,0-1.278.414,4.068,4.068,0,0,0-1.008,1.062v4.626a2.5,2.5,0,0,0,.9.855,2.424,2.424,0,0,0,1.188.3Q149.886-1.134,149.886-4.752Zm11.736.576h-6.048a3.7,3.7,0,0,0,.792,2.3,2.3,2.3,0,0,0,1.764.738,3.853,3.853,0,0,0,1.26-.2,5.081,5.081,0,0,0,1.206-.63l.72.99A5.243,5.243,0,0,1,158,.216a3.841,3.841,0,0,1-3.087-1.3,5.313,5.313,0,0,1-1.107-3.564,6.751,6.751,0,0,1,.477-2.619,4.109,4.109,0,0,1,1.368-1.791,3.469,3.469,0,0,1,2.1-.648,3.516,3.516,0,0,1,2.9,1.242,5.31,5.31,0,0,1,1.008,3.438Q161.658-4.608,161.622-4.176Zm-1.6-1.332a3.507,3.507,0,0,0-.558-2.142,1.966,1.966,0,0,0-1.674-.738q-2.034,0-2.214,2.988h4.446Zm10.773-3.42a2.974,2.974,0,0,1,.729,2.124V0h-1.656V-6.57a2.1,2.1,0,0,0-.378-1.422,1.436,1.436,0,0,0-1.116-.414,2.16,2.16,0,0,0-1.332.432,4.494,4.494,0,0,0-1.08,1.242V0H164.3V-9.486h1.422l.144,1.4a3.749,3.749,0,0,1,1.251-1.188,3.231,3.231,0,0,1,1.647-.432A2.647,2.647,0,0,1,170.793-8.928ZM181.44-1.359a1.207,1.207,0,0,0,.594.423L181.656.216A2.531,2.531,0,0,1,180.468-.2a1.894,1.894,0,0,1-.666-1.008A3.182,3.182,0,0,1,176.976.216a3.031,3.031,0,0,1-2.214-.792,2.766,2.766,0,0,1-.81-2.07,2.719,2.719,0,0,1,1.089-2.322,5.1,5.1,0,0,1,3.087-.81h1.458v-.7a1.845,1.845,0,0,0-.486-1.44,2.2,2.2,0,0,0-1.494-.432,8.357,8.357,0,0,0-2.556.5l-.414-1.206a9.547,9.547,0,0,1,3.276-.648,3.424,3.424,0,0,1,2.5.819,3.133,3.133,0,0,1,.828,2.331v4.338A1.487,1.487,0,0,0,181.44-1.359ZM179.586-2.5V-4.68h-1.242q-2.628,0-2.628,1.944a1.78,1.78,0,0,0,.414,1.278,1.619,1.619,0,0,0,1.224.432A2.472,2.472,0,0,0,179.586-2.5Zm9.2-6.93a5.255,5.255,0,0,1,1.476.81l-.7,1.044a5.729,5.729,0,0,0-1.233-.612,3.82,3.82,0,0,0-1.233-.2,2.168,2.168,0,0,0-1.278.333,1.057,1.057,0,0,0-.468.909,1.054,1.054,0,0,0,.441.9,5.119,5.119,0,0,0,1.593.63,5.691,5.691,0,0,1,2.367,1.08,2.357,2.357,0,0,1,.783,1.872,2.427,2.427,0,0,1-1.089,2.142,4.622,4.622,0,0,1-2.655.738A5.248,5.248,0,0,1,183.2-1.026l.882-1.008a4.3,4.3,0,0,0,2.664.918,2.534,2.534,0,0,0,1.485-.387,1.222,1.222,0,0,0,.549-1.053,1.389,1.389,0,0,0-.2-.783,1.607,1.607,0,0,0-.684-.522,9.385,9.385,0,0,0-1.422-.477A4.853,4.853,0,0,1,184.293-5.4a2.276,2.276,0,0,1-.675-1.692,2.219,2.219,0,0,1,.441-1.341,2.861,2.861,0,0,1,1.224-.936,4.443,4.443,0,0,1,1.755-.333A5.281,5.281,0,0,1,188.784-9.432Zm15.165-2.9a5.62,5.62,0,0,1,1.557.936l-.936,1.1a3.75,3.75,0,0,0-2.394-.918,3.029,3.029,0,0,0-2.493,1.188,6.145,6.145,0,0,0-.945,3.816,6.172,6.172,0,0,0,.936,3.771,2.981,2.981,0,0,0,2.484,1.215,3.321,3.321,0,0,0,1.386-.27,7.278,7.278,0,0,0,1.26-.756l.846,1.08a4.613,4.613,0,0,1-1.476.99,5.1,5.1,0,0,1-2.07.4,4.92,4.92,0,0,1-2.691-.747,4.916,4.916,0,0,1-1.836-2.2,8.391,8.391,0,0,1-.657-3.483,8.1,8.1,0,0,1,.684-3.483,5.045,5.045,0,0,1,1.854-2.187,4.791,4.791,0,0,1,2.61-.738A5.368,5.368,0,0,1,203.949-12.33Zm8.865.063a5.817,5.817,0,0,1,1.71,1.089l-.936,1.044a5.33,5.33,0,0,0-1.377-.819,3.983,3.983,0,0,0-1.449-.261,2.689,2.689,0,0,0-1.6.45,1.513,1.513,0,0,0-.63,1.314,1.773,1.773,0,0,0,.216.909,1.93,1.93,0,0,0,.8.675,10.473,10.473,0,0,0,1.7.648,11.08,11.08,0,0,1,1.944.774A3.371,3.371,0,0,1,214.443-5.3a3.306,3.306,0,0,1,.477,1.845,3.457,3.457,0,0,1-.531,1.908,3.552,3.552,0,0,1-1.53,1.3,5.535,5.535,0,0,1-2.367.468,5.771,5.771,0,0,1-4.212-1.6l.936-1.044a6.1,6.1,0,0,0,1.53.927,4.546,4.546,0,0,0,1.728.315,3.092,3.092,0,0,0,1.908-.567,1.932,1.932,0,0,0,.756-1.647,2.009,2.009,0,0,0-.234-1.017,2.085,2.085,0,0,0-.8-.729,8.212,8.212,0,0,0-1.647-.648,7.247,7.247,0,0,1-2.79-1.386,2.835,2.835,0,0,1-.882-2.2,2.936,2.936,0,0,1,.5-1.674,3.294,3.294,0,0,1,1.386-1.152,4.752,4.752,0,0,1,2.025-.414A5.745,5.745,0,0,1,212.814-12.267Zm9.594,0a5.817,5.817,0,0,1,1.71,1.089l-.936,1.044a5.33,5.33,0,0,0-1.377-.819,3.983,3.983,0,0,0-1.449-.261,2.689,2.689,0,0,0-1.6.45,1.513,1.513,0,0,0-.63,1.314,1.773,1.773,0,0,0,.216.909,1.93,1.93,0,0,0,.8.675,10.473,10.473,0,0,0,1.7.648,11.08,11.08,0,0,1,1.944.774A3.371,3.371,0,0,1,224.037-5.3a3.306,3.306,0,0,1,.477,1.845,3.457,3.457,0,0,1-.531,1.908,3.552,3.552,0,0,1-1.53,1.3,5.535,5.535,0,0,1-2.367.468,5.771,5.771,0,0,1-4.212-1.6l.936-1.044a6.1,6.1,0,0,0,1.53.927,4.546,4.546,0,0,0,1.728.315,3.092,3.092,0,0,0,1.908-.567,1.932,1.932,0,0,0,.756-1.647,2.009,2.009,0,0,0-.234-1.017,2.085,2.085,0,0,0-.8-.729A8.212,8.212,0,0,0,220.05-5.8a7.247,7.247,0,0,1-2.79-1.386,2.835,2.835,0,0,1-.882-2.2,2.936,2.936,0,0,1,.5-1.674,3.294,3.294,0,0,1,1.386-1.152,4.752,4.752,0,0,1,2.025-.414A5.745,5.745,0,0,1,222.408-12.267Zm5.886-.135-.18,8.262h-1.458l-.2-8.262Zm0,10.476a1.2,1.2,0,0,1,.36.882,1.229,1.229,0,0,1-.36.891,1.206,1.206,0,0,1-.9.369,1.185,1.185,0,0,1-.882-.369,1.229,1.229,0,0,1-.36-.891,1.2,1.2,0,0,1,.36-.882,1.2,1.2,0,0,1,.882-.36A1.221,1.221,0,0,1,228.294-1.926Z" transform="translate(86 314)"/><path class="ci" d="M6.984-12.267a5.817,5.817,0,0,1,1.71,1.089l-.936,1.044a5.33,5.33,0,0,0-1.377-.819,3.983,3.983,0,0,0-1.449-.261,2.689,2.689,0,0,0-1.6.45A1.513,1.513,0,0,0,2.7-9.45a1.773,1.773,0,0,0,.216.909,1.93,1.93,0,0,0,.8.675,10.473,10.473,0,0,0,1.7.648,11.08,11.08,0,0,1,1.944.774A3.371,3.371,0,0,1,8.613-5.3,3.306,3.306,0,0,1,9.09-3.456a3.457,3.457,0,0,1-.531,1.908,3.552,3.552,0,0,1-1.53,1.3A5.535,5.535,0,0,1,4.662.216,5.771,5.771,0,0,1,.45-1.386L1.386-2.43a6.1,6.1,0,0,0,1.53.927,4.546,4.546,0,0,0,1.728.315,3.092,3.092,0,0,0,1.908-.567A1.932,1.932,0,0,0,7.308-3.4a2.009,2.009,0,0,0-.234-1.017,2.085,2.085,0,0,0-.8-.729A8.212,8.212,0,0,0,4.626-5.8a7.247,7.247,0,0,1-2.79-1.386,2.835,2.835,0,0,1-.882-2.2,2.936,2.936,0,0,1,.5-1.674A3.294,3.294,0,0,1,2.835-12.2a4.752,4.752,0,0,1,2.025-.414A5.745,5.745,0,0,1,6.984-12.267ZM18.648-4.176H12.6a3.7,3.7,0,0,0,.792,2.3,2.3,2.3,0,0,0,1.764.738,3.853,3.853,0,0,0,1.26-.2,5.081,5.081,0,0,0,1.206-.63l.72.99A5.243,5.243,0,0,1,15.03.216a3.841,3.841,0,0,1-3.087-1.3,5.312,5.312,0,0,1-1.107-3.564,6.751,6.751,0,0,1,.477-2.619,4.109,4.109,0,0,1,1.368-1.791,3.469,3.469,0,0,1,2.1-.648,3.516,3.516,0,0,1,2.9,1.242,5.31,5.31,0,0,1,1.008,3.438Q18.684-4.608,18.648-4.176Zm-1.6-1.332a3.507,3.507,0,0,0-.558-2.142,1.966,1.966,0,0,0-1.674-.738Q12.78-8.388,12.6-5.4h4.446ZM26.118-.432a3.642,3.642,0,0,1-2.124.648,2.5,2.5,0,0,1-1.881-.693,2.762,2.762,0,0,1-.675-2.007V-8.208H19.782V-9.486h1.656v-2.142l1.656-.2v2.34h2.25l-.18,1.278h-2.07v5.652a1.745,1.745,0,0,0,.261,1.071,1.044,1.044,0,0,0,.873.333,2.715,2.715,0,0,0,1.26-.378ZM39.942-13.3V0H38.484l-.162-1.314a3.432,3.432,0,0,1-1.17,1.125,3.077,3.077,0,0,1-1.566.405,3.051,3.051,0,0,1-2.637-1.332A6.078,6.078,0,0,1,32-4.7a6.986,6.986,0,0,1,.45-2.592,4.013,4.013,0,0,1,1.3-1.773A3.193,3.193,0,0,1,35.73-9.7a3.4,3.4,0,0,1,2.556,1.17V-13.5Zm-2.7,11.853A4.043,4.043,0,0,0,38.286-2.5V-7.146a3.585,3.585,0,0,0-1-.927,2.3,2.3,0,0,0-1.2-.315,1.922,1.922,0,0,0-1.7.918,5.027,5.027,0,0,0-.6,2.736A5.3,5.3,0,0,0,34.344-2a1.779,1.779,0,0,0,1.6.9A2.326,2.326,0,0,0,37.242-1.449ZM50.49-4.176H44.442a3.7,3.7,0,0,0,.792,2.3A2.3,2.3,0,0,0,47-1.134a3.853,3.853,0,0,0,1.26-.2,5.081,5.081,0,0,0,1.206-.63l.72.99A5.243,5.243,0,0,1,46.872.216a3.841,3.841,0,0,1-3.087-1.3,5.312,5.312,0,0,1-1.107-3.564,6.751,6.751,0,0,1,.477-2.619,4.109,4.109,0,0,1,1.368-1.791,3.469,3.469,0,0,1,2.1-.648,3.516,3.516,0,0,1,2.9,1.242,5.31,5.31,0,0,1,1.008,3.438Q50.526-4.608,50.49-4.176Zm-1.6-1.332A3.507,3.507,0,0,0,48.33-7.65a1.966,1.966,0,0,0-1.674-.738q-2.034,0-2.214,2.988h4.446ZM62.946-9.459a4.319,4.319,0,0,1,1.35.783L63.5-7.632a4.066,4.066,0,0,0-.981-.531,3.1,3.1,0,0,0-1.053-.171,2.058,2.058,0,0,0-1.791.918A4.76,4.76,0,0,0,59.04-4.7a4.5,4.5,0,0,0,.63,2.655,2.1,2.1,0,0,0,1.8.855A2.969,2.969,0,0,0,62.5-1.359a5.215,5.215,0,0,0,1.044-.549L64.3-.828A4.5,4.5,0,0,1,61.4.216a3.779,3.779,0,0,1-3.033-1.3,5.342,5.342,0,0,1-1.107-3.582,6.465,6.465,0,0,1,.5-2.646,4.071,4.071,0,0,1,1.431-1.764A3.828,3.828,0,0,1,61.4-9.7,4.706,4.706,0,0,1,62.946-9.459ZM72.855-8.37a5.488,5.488,0,0,1,1.107,3.618,6.306,6.306,0,0,1-.5,2.6A3.952,3.952,0,0,1,72-.405a4.065,4.065,0,0,1-2.268.621,3.84,3.84,0,0,1-3.114-1.332A5.458,5.458,0,0,1,65.5-4.734a6.306,6.306,0,0,1,.5-2.6,3.952,3.952,0,0,1,1.458-1.746A4.1,4.1,0,0,1,69.75-9.7,3.814,3.814,0,0,1,72.855-8.37ZM67.284-4.734q0,3.618,2.448,3.618T72.18-4.752q0-3.618-2.43-3.618Q67.284-8.37,67.284-4.734ZM88.092-8.919a3.051,3.051,0,0,1,.7,2.115V0H87.138V-6.57q0-1.836-1.332-1.836a1.794,1.794,0,0,0-1.188.4,5.666,5.666,0,0,0-1.044,1.269V0H81.918V-6.57q0-1.836-1.332-1.836a1.8,1.8,0,0,0-1.206.414,5.673,5.673,0,0,0-1.026,1.26V0H76.7V-9.486H78.12L78.264-8.1A3.177,3.177,0,0,1,81-9.7a2.492,2.492,0,0,1,1.5.45,2.468,2.468,0,0,1,.891,1.26,4.458,4.458,0,0,1,1.233-1.269A2.847,2.847,0,0,1,86.22-9.7,2.391,2.391,0,0,1,88.092-8.919Zm11.052.513a6.665,6.665,0,0,1,.846,3.654,6.086,6.086,0,0,1-.972,3.6A3.179,3.179,0,0,1,96.264.216,3.059,3.059,0,0,1,93.78-.864v4.5l-1.656.2V-9.486h1.422l.126,1.278a3.629,3.629,0,0,1,1.26-1.107A3.289,3.289,0,0,1,96.48-9.7,2.951,2.951,0,0,1,99.144-8.406Zm-.936,3.654q0-3.636-2.142-3.636a2.14,2.14,0,0,0-1.278.414A4.068,4.068,0,0,0,93.78-6.912v4.626a2.5,2.5,0,0,0,.9.855,2.424,2.424,0,0,0,1.188.3Q98.208-1.134,98.208-4.752ZM109.485-8.37a5.488,5.488,0,0,1,1.107,3.618,6.306,6.306,0,0,1-.5,2.6A3.952,3.952,0,0,1,108.63-.405a4.065,4.065,0,0,1-2.268.621,3.84,3.84,0,0,1-3.114-1.332,5.458,5.458,0,0,1-1.116-3.618,6.306,6.306,0,0,1,.5-2.6,3.952,3.952,0,0,1,1.458-1.746A4.1,4.1,0,0,1,106.38-9.7,3.814,3.814,0,0,1,109.485-8.37Zm-5.571,3.636q0,3.618,2.448,3.618t2.448-3.636q0-3.618-2.43-3.618Q103.914-8.37,103.914-4.734Zm15.9-4.194a2.974,2.974,0,0,1,.729,2.124V0H118.89V-6.57a2.1,2.1,0,0,0-.378-1.422,1.436,1.436,0,0,0-1.116-.414,2.16,2.16,0,0,0-1.332.432,4.5,4.5,0,0,0-1.08,1.242V0h-1.656V-9.486h1.422l.144,1.4a3.749,3.749,0,0,1,1.251-1.188,3.231,3.231,0,0,1,1.647-.432A2.647,2.647,0,0,1,119.817-8.928ZM131-4.176h-6.048a3.7,3.7,0,0,0,.792,2.3,2.3,2.3,0,0,0,1.764.738,3.853,3.853,0,0,0,1.26-.2,5.081,5.081,0,0,0,1.206-.63l.72.99A5.243,5.243,0,0,1,127.386.216a3.841,3.841,0,0,1-3.087-1.3,5.312,5.312,0,0,1-1.107-3.564,6.751,6.751,0,0,1,.477-2.619,4.109,4.109,0,0,1,1.368-1.791,3.469,3.469,0,0,1,2.1-.648,3.516,3.516,0,0,1,2.9,1.242,5.31,5.31,0,0,1,1.008,3.438Q131.04-4.608,131-4.176Zm-1.6-1.332a3.507,3.507,0,0,0-.558-2.142,1.966,1.966,0,0,0-1.674-.738q-2.034,0-2.214,2.988H129.4Zm10.773-3.42A2.974,2.974,0,0,1,140.9-6.8V0h-1.656V-6.57a2.1,2.1,0,0,0-.378-1.422,1.436,1.436,0,0,0-1.116-.414,2.16,2.16,0,0,0-1.332.432,4.494,4.494,0,0,0-1.08,1.242V0h-1.656V-9.486h1.422l.144,1.4A3.749,3.749,0,0,1,136.5-9.27,3.231,3.231,0,0,1,138.15-9.7,2.647,2.647,0,0,1,140.175-8.928Zm8.847,8.5A3.642,3.642,0,0,1,146.9.216a2.5,2.5,0,0,1-1.881-.693,2.762,2.762,0,0,1-.675-2.007V-8.208h-1.656V-9.486h1.656v-2.142l1.656-.2v2.34h2.25l-.18,1.278H146v5.652a1.745,1.745,0,0,0,.261,1.071,1.044,1.044,0,0,0,.873.333,2.715,2.715,0,0,0,1.26-.378Zm8.568-3.744h-6.048a3.7,3.7,0,0,0,.792,2.3,2.3,2.3,0,0,0,1.764.738,3.853,3.853,0,0,0,1.26-.2,5.081,5.081,0,0,0,1.206-.63l.72.99A5.243,5.243,0,0,1,153.972.216a3.841,3.841,0,0,1-3.087-1.3,5.313,5.313,0,0,1-1.107-3.564,6.751,6.751,0,0,1,.477-2.619,4.109,4.109,0,0,1,1.368-1.791,3.469,3.469,0,0,1,2.1-.648,3.516,3.516,0,0,1,2.9,1.242,5.31,5.31,0,0,1,1.008,3.438Q157.626-4.608,157.59-4.176Zm-1.6-1.332a3.507,3.507,0,0,0-.558-2.142,1.966,1.966,0,0,0-1.674-.738q-2.034,0-2.214,2.988h4.446Zm8.6-3.924a5.255,5.255,0,0,1,1.476.81l-.7,1.044a5.729,5.729,0,0,0-1.233-.612,3.82,3.82,0,0,0-1.233-.2,2.168,2.168,0,0,0-1.278.333,1.057,1.057,0,0,0-.468.909,1.054,1.054,0,0,0,.441.9,5.119,5.119,0,0,0,1.593.63,5.691,5.691,0,0,1,2.367,1.08,2.357,2.357,0,0,1,.783,1.872,2.427,2.427,0,0,1-1.089,2.142,4.622,4.622,0,0,1-2.655.738,5.248,5.248,0,0,1-3.582-1.242l.882-1.008a4.3,4.3,0,0,0,2.664.918,2.534,2.534,0,0,0,1.485-.387,1.222,1.222,0,0,0,.549-1.053,1.389,1.389,0,0,0-.2-.783,1.607,1.607,0,0,0-.684-.522,9.385,9.385,0,0,0-1.422-.477A4.853,4.853,0,0,1,160.1-5.4a2.276,2.276,0,0,1-.675-1.692,2.219,2.219,0,0,1,.441-1.341,2.861,2.861,0,0,1,1.224-.936,4.443,4.443,0,0,1,1.755-.333A5.281,5.281,0,0,1,164.592-9.432Zm12.582,4.176h-1.926V0h-1.71V-12.4H176.8a5.889,5.889,0,0,1,3.519.882,3.055,3.055,0,0,1,1.2,2.628,3.209,3.209,0,0,1-.666,2.106,4.072,4.072,0,0,1-2.016,1.224L182.178,0h-2.034Zm-.2-1.314a3.2,3.2,0,0,0,2.034-.549,2.141,2.141,0,0,0,.684-1.773A1.934,1.934,0,0,0,179-10.557a3.783,3.783,0,0,0-2.223-.513h-1.53v4.5ZM191.2-4.176h-6.048a3.7,3.7,0,0,0,.792,2.3,2.3,2.3,0,0,0,1.764.738,3.853,3.853,0,0,0,1.26-.2,5.081,5.081,0,0,0,1.206-.63l.72.99A5.243,5.243,0,0,1,187.578.216a3.841,3.841,0,0,1-3.087-1.3,5.313,5.313,0,0,1-1.107-3.564,6.751,6.751,0,0,1,.477-2.619,4.109,4.109,0,0,1,1.368-1.791,3.469,3.469,0,0,1,2.1-.648,3.516,3.516,0,0,1,2.9,1.242,5.31,5.31,0,0,1,1.008,3.438Q191.232-4.608,191.2-4.176Zm-1.6-1.332a3.507,3.507,0,0,0-.558-2.142,1.966,1.966,0,0,0-1.674-.738q-2.034,0-2.214,2.988h4.446Zm10.692,4.149a1.207,1.207,0,0,0,.594.423L200.5.216A2.531,2.531,0,0,1,199.314-.2a1.894,1.894,0,0,1-.666-1.008A3.182,3.182,0,0,1,195.822.216a3.031,3.031,0,0,1-2.214-.792,2.766,2.766,0,0,1-.81-2.07,2.719,2.719,0,0,1,1.089-2.322,5.1,5.1,0,0,1,3.087-.81h1.458v-.7a1.845,1.845,0,0,0-.486-1.44,2.2,2.2,0,0,0-1.494-.432,8.357,8.357,0,0,0-2.556.5l-.414-1.206a9.547,9.547,0,0,1,3.276-.648,3.424,3.424,0,0,1,2.5.819,3.133,3.133,0,0,1,.828,2.331v4.338A1.487,1.487,0,0,0,200.286-1.359ZM198.432-2.5V-4.68H197.19q-2.628,0-2.628,1.944a1.78,1.78,0,0,0,.414,1.278,1.619,1.619,0,0,0,1.224.432A2.472,2.472,0,0,0,198.432-2.5Zm10.062-6.957a4.319,4.319,0,0,1,1.35.783l-.792,1.044a4.065,4.065,0,0,0-.981-.531,3.1,3.1,0,0,0-1.053-.171,2.058,2.058,0,0,0-1.791.918,4.76,4.76,0,0,0-.639,2.718,4.5,4.5,0,0,0,.63,2.655,2.1,2.1,0,0,0,1.8.855,2.969,2.969,0,0,0,1.026-.171,5.215,5.215,0,0,0,1.044-.549l.756,1.08a4.5,4.5,0,0,1-2.9,1.044,3.779,3.779,0,0,1-3.033-1.3,5.342,5.342,0,0,1-1.107-3.582,6.465,6.465,0,0,1,.5-2.646,4.071,4.071,0,0,1,1.431-1.764,3.828,3.828,0,0,1,2.205-.63A4.707,4.707,0,0,1,208.494-9.459Zm8.388,9.027a3.642,3.642,0,0,1-2.124.648,2.5,2.5,0,0,1-1.881-.693,2.762,2.762,0,0,1-.675-2.007V-8.208h-1.656V-9.486H212.2v-2.142l1.656-.2v2.34h2.25l-.18,1.278h-2.07v5.652a1.745,1.745,0,0,0,.261,1.071,1.044,1.044,0,0,0,.873.333,2.715,2.715,0,0,0,1.26-.378ZM220-1.926a1.2,1.2,0,0,1,.36.882,1.23,1.23,0,0,1-.36.891,1.206,1.206,0,0,1-.9.369,1.185,1.185,0,0,1-.882-.369,1.229,1.229,0,0,1-.36-.891,1.2,1.2,0,0,1,.36-.882,1.2,1.2,0,0,1,.882-.36A1.221,1.221,0,0,1,220-1.926Z" transform="translate(86 424)"/></g></svg>