<?xml version="1.0" encoding="iso-8859-1"?>
<!-- Generator: Adobe Illustrator 19.0.0, SVG Export Plug-In . SVG Version: 6.00 Build 0)  -->
<svg version="1.1" id="Layer_1" xmlns="http://www.w3.org/2000/svg" xmlns:xlink="http://www.w3.org/1999/xlink" x="0px" y="0px"
	 viewBox="0 0 395.701 395.701" style="enable-background:new 0 0 395.701 395.701;" xml:space="preserve">
<path style="fill:#FFFFFF;" d="M161.358,37.139v87.143L51.329,234.311H37.107c-17.325,0-30.901,13.576-30.901,30.901V37.139
	c0-17.325,13.576-30.901,30.901-30.901h93.349C147.717,6.238,161.358,19.814,161.358,37.139z"/>
<path style="fill:#2EA2DB;" d="M136.598,37.139v111.903l-85.333,85.333H37.042c-2.133,0-4.202,0.194-6.206,0.582V37.139
	c0-3.685,2.457-6.206,6.206-6.206h93.349C134.141,30.933,136.598,33.39,136.598,37.139z"/>
<path style="fill:#FFFFFF;" d="M352.388,153.374l-81.196,80.937H51.329l191.03-191.03c12.347-12.347,31.547-12.347,43.895,0
	l66.133,66.133C364.735,121.826,364.735,140.962,352.388,153.374z"/>
<path style="fill:#F16051;" d="M336.937,131.071c0,1.228-0.646,3.103-1.875,4.331l-98.909,98.909H86.562L260.267,60.606
	c1.228-1.228,3.103-1.875,4.331-1.875c1.228,0,3.103,0.646,4.331,1.875l66.133,66.133
	C336.291,127.968,336.937,129.842,336.937,131.071z"/>
<g>
	
		<rect x="247.138" y="90.328" transform="matrix(-0.7071 0.7071 -0.7071 -0.7071 500.6665 -14.3788)" style="fill:#193651;" width="12.347" height="12.347"/>
	
		<rect x="270.167" y="113.129" transform="matrix(0.7071 0.7071 -0.7071 0.7071 165.2978 -160.4595)" style="fill:#193651;" width="12.347" height="12.347"/>
	
		<rect x="293.18" y="135.964" transform="matrix(-0.7072 0.707 -0.707 -0.7072 611.5513 31.0136)" style="fill:#193651;" width="12.347" height="12.347"/>
</g>
<path id="SVGCleanerId_0" style="fill:#FFFFFF;" d="M6.206,358.562v-93.349c0-17.325,13.576-30.901,30.901-30.901h321.487
	c17.325,0,30.901,13.576,30.901,30.901v93.349c0,17.325-13.576,30.901-30.901,30.901H37.107
	C19.782,389.463,6.206,375.887,6.206,358.562z"/>
<g>
	<path id="SVGCleanerId_0_1_" style="fill:#FFFFFF;" d="M6.206,358.562v-93.349c0-17.325,13.576-30.901,30.901-30.901h321.487
		c17.325,0,30.901,13.576,30.901,30.901v93.349c0,17.325-13.576,30.901-30.901,30.901H37.107
		C19.782,389.463,6.206,375.887,6.206,358.562z"/>
</g>
<path style="fill:#193651;" d="M358.529,228.17H286.19l70.465-70.465c14.222-14.222,14.222-37.689,0-52.558L290.521,38.95
	c-6.788-6.788-16.097-11.119-25.988-11.119c-9.891,0-19.135,3.685-25.988,11.119l-71.111,70.465V37.139
	c0-20.428-16.679-37.107-37.107-37.107h-93.22C16.679,0.032,0,16.711,0,37.139v228.137v93.349c0,20.364,16.679,37.042,37.107,37.042
	h321.487c20.428,0,37.107-16.679,37.107-37.107v-93.349C395.636,244.849,378.958,228.17,358.529,228.17z M246.626,47.612
	c4.913-4.913,11.119-7.434,17.325-7.434c6.788,0,12.994,2.457,17.325,7.434l66.133,66.133c9.891,9.891,9.891,25.341,0,35.232
	l-78.481,79.192H66.78L246.626,47.612z M12.347,37.139c0-13.576,11.119-24.76,24.76-24.76h93.349c13.576,0,24.76,11.119,24.76,24.76
	v84.687L48.808,228.17H37.107c-9.244,0-17.907,3.685-24.76,9.244C12.347,237.414,12.347,37.139,12.347,37.139z M383.289,358.562
	c0,13.576-11.119,24.76-24.76,24.76H37.107c-13.576,0-24.76-11.119-24.76-24.76v-93.349c0-13.576,11.119-24.76,24.76-24.76h321.487
	c13.576,0,24.76,11.119,24.76,24.76v93.349H383.289z"/>
<path style="fill:#FDBF5E;" d="M37.107,364.768c-3.685,0-6.206-2.457-6.206-6.206v-93.349c0-3.685,2.457-6.206,6.206-6.206h321.487
	c3.685,0,6.206,2.457,6.206,6.206v93.349c0,3.685-2.457,6.206-6.206,6.206L37.107,364.768L37.107,364.768z"/>
<path style="fill:#FFFFFF;" d="M51.911,311.628L51.911,311.628c0-12.994,10.537-24.113,24.113-24.113l0,0
	c12.994,0,24.113,10.537,24.113,24.113l0,0c0,12.994-10.537,24.113-24.113,24.113l0,0C63.03,335.677,51.911,325.204,51.911,311.628z
	"/>
<g>
	<path style="fill:#193651;" d="M76.024,341.883c-16.679,0-30.319-13.576-30.319-30.319c0-16.679,13.576-30.319,30.319-30.319
		s30.319,13.576,30.319,30.319S92.703,341.883,76.024,341.883z M76.024,293.657c-9.891,0-17.907,8.016-17.907,17.907
		s8.016,17.907,17.907,17.907s17.907-8.016,17.907-17.907S85.915,293.657,76.024,293.657z"/>
	<rect x="327.628" y="273.293" style="fill:#193651;" width="12.347" height="12.347"/>
	<rect x="327.628" y="305.422" style="fill:#193651;" width="12.347" height="12.347"/>
	<rect x="327.628" y="338.198" style="fill:#193651;" width="12.347" height="12.347"/>
	<rect x="45.123" y="55.693" style="fill:#193651;" width="12.347" height="12.347"/>
	<rect x="77.899" y="55.693" style="fill:#193651;" width="12.347" height="12.347"/>
	<rect x="110.028" y="55.693" style="fill:#193651;" width="12.347" height="12.347"/>
</g>
<g>
</g>
<g>
</g>
<g>
</g>
<g>
</g>
<g>
</g>
<g>
</g>
<g>
</g>
<g>
</g>
<g>
</g>
<g>
</g>
<g>
</g>
<g>
</g>
<g>
</g>
<g>
</g>
<g>
</g>
</svg>
