<?xml version="1.0" encoding="iso-8859-1"?>
<!-- Generator: Adobe Illustrator 19.0.0, SVG Export Plug-In . SVG Version: 6.00 Build 0)  -->
<svg version="1.1" id="Layer_1" xmlns="http://www.w3.org/2000/svg" xmlns:xlink="http://www.w3.org/1999/xlink" x="0px" y="0px"
	 viewBox="0 0 395.636 395.636" style="enable-background:new 0 0 395.636 395.636;" xml:space="preserve">
<path style="fill:#FFFFFF;" d="M359.309,199.693l-44.283,7.564c-3.749-14.998-11.442-29.285-23.208-40.986
	c-17.713-17.196-40.469-25.794-63.354-25.794c-5.883,0-11.766,0.582-17.584,1.681l75.442,75.442l-68.655,68.008l-75.442-74.796
	c-6.206,28.444,1.875,58.699,24.113,81.002c14.158,14.158,32,22.497,50.489,25.018l-4.137,39.887l-47.58,1.875l-8.016-46.998
	c-13.576-2.521-27.216-7.434-39.564-14.869l-37.107,30.319l-35.232-32.776l27.863-38.982c-8.081-11.766-13.64-24.76-17.325-38.335
	l-47.58-4.913l-1.875-47.58l47.709-7.24c2.457-13.576,7.37-27.216,14.804-39.564L38.469,80.549l32.776-35.232l38.917,27.798
	c11.766-8.081,24.76-13.64,38.335-17.325l4.913-47.58l47.58-1.875l7.434,46.352c13.576,2.457,27.216,7.37,39.564,14.804
	l37.107-30.319l35.232,32.776l-27.798,38.917c8.081,11.766,13.64,24.76,17.325,38.335l47.58,4.913L359.309,199.693z"/>
<path style="fill:#D3D7DA;" d="M272.618,203.895c-8.016,33.745-34.521,60.38-68.202,68.525l-62.19-61.673
	c-4.267,19.653-1.745,40.21,7.564,58.376c-35.103-13.188-60.057-47.063-60.057-86.82c0-51.2,41.503-92.703,92.703-92.703
	c39.887,0,73.956,25.212,87.014,60.574c-12.865-6.529-26.893-9.762-40.986-9.762c-5.883,0-11.766,0.582-17.584,1.681
	L272.618,203.895z"/>
<circle style="fill:#FFFFFF;" cx="182.436" cy="182.368" r="45.123"/>
<path style="fill:#FDBF5E;" d="M210.881,142.158l75.442,75.442l-68.655,68.008l-75.442-74.796
	c-6.206,28.444,1.875,58.699,24.113,81.002l0,0c21.657,21.657,51.911,29.673,79.774,24.113l69.883,69.883
	c5.56,5.56,14.869,5.56,20.428,0l49.455-49.455c5.56-5.56,5.56-14.869,0-20.428l-69.947-69.883
	c5.56-27.798-2.457-58.117-24.113-79.774l0,0C269.58,144.679,239.325,136.598,210.881,142.158z"/>
<g>
	
		<rect x="283.147" y="283.604" transform="matrix(-0.707 -0.7072 0.7072 -0.707 288.9399 699.2615)" style="fill:#193651;" width="12.347" height="12.347"/>
	
		<rect x="306.16" y="305.954" transform="matrix(-0.7066 -0.7076 0.7076 -0.7066 312.1669 753.6877)" style="fill:#193651;" width="12.347" height="12.347"/>
	
		<rect x="328.841" y="328.752" transform="matrix(0.7076 -0.7066 0.7066 0.7076 -138.7049 334.6534)" style="fill:#193651;" width="12.347" height="12.347"/>
	<path style="fill:#193651;" d="M389.499,311.596l-66.715-67.426c1.875-10.537,1.228-21.01,0-31.547l42.667-7.434l-1.875-58.699
		l-48.873-4.331c-3.685-11.766-8.663-22.238-14.804-32.776l28.444-39.564l-42.667-40.21l-37.689,30.901
		c-10.537-5.56-21.657-9.891-33.358-12.347L205.903,0l-58.699,1.875l-4.978,48.808c-11.766,3.685-22.238,8.663-32.776,14.869
		L69.887,37.107l-40.21,42.667l30.901,37.689C55.018,128,50.687,139.119,48.23,150.82l-48.162,8.081L1.943,217.6l48.808,4.978
		c3.685,11.766,8.663,22.238,14.869,32.776l-28.444,39.564l42.667,40.21l37.689-30.901c10.537,5.56,21.657,9.891,33.358,12.347
		l8.016,48.226l58.699-1.875l3.685-39.564c2.457,0.646,17.325,0.646,22.238-0.646l68.137,66.715
		c3.685,3.685,9.244,6.206,14.222,6.206c5.56,0,10.537-1.875,14.222-6.206l49.455-49.455
		C397.58,332.606,397.58,319.612,389.499,311.596z M206.549,351.16l-37.107,1.228l-7.434-45.77
		c-16.097-3.103-30.901-8.663-45.77-17.325L80.36,318.966l-27.216-25.341l27.216-37.689c-9.891-13.576-16.097-28.444-19.782-44.541
		l-46.287-4.913l-1.228-37.107l45.77-7.434c2.457-15.451,8.663-30.901,17.325-45.77L46.485,80.291l25.341-27.216l37.689,27.216
		c12.347-9.244,27.798-15.451,44.477-19.782l4.978-46.352l37.107-1.228l7.434,45.77c16.097,2.457,31.547,8.663,45.77,17.325
		l35.879-29.673l27.216,25.341l-27.216,37.689c9.891,14.222,16.679,29.026,19.782,44.477l46.352,4.978l1.228,37.107l-32.776,5.56
		c-4.331-14.222-12.347-27.798-23.467-38.982c-17.907-17.907-41.438-27.798-66.78-27.798c-6.788,0-22.885,2.457-22.885,2.457
		c-7.434-3.685-15.451-5.56-23.467-5.56c-14.222,0-27.798,6.206-37.689,16.097c-9.244,9.891-14.222,22.885-13.576,36.461
		c0,8.016,2.457,15.451,5.56,21.657c-8.663,43.248,6.206,68.655,24.76,89.665c12.994,12.994,29.673,22.238,47.58,25.988
		L206.549,351.16z M233.119,173.123l43.895,43.895l-59.345,59.345l-44.477-43.248c4.978,2.457,29.673,2.457,46.352-15.451
		C230.663,206.481,235.576,191.612,233.119,173.123z M222.517,182.562c0,22.044-17.907,39.952-39.952,39.952l0,0
		c-22.044,0-39.952-17.907-39.952-39.952l0,0c0-22.044,17.907-39.952,39.952-39.952l0,0
		C204.675,142.61,222.517,160.453,222.517,182.562L222.517,182.562z M380.836,331.96l-49.455,49.455
		c-3.103,3.103-8.663,3.103-11.766,0l-71.111-72.339l-3.103,0.646c-5.56,3.103-34.586,1.228-34.586-0.646
		c-14.869-3.103-29.026-11.119-40.21-22.238c-16.679-16.679-25.341-40.21-24.113-63.03l70.465,70.465l77.253-77.252l-70.465-70.465
		c23.467-1.228,46.352,7.434,63.03,24.113c9.244,9.244,16.097,20.364,19.782,32.129c0,0,4.331,34.586,2.457,42.02v3.685
		l71.822,71.693C383.939,323.297,383.939,328.857,380.836,331.96z"/>
</g>
<g>
</g>
<g>
</g>
<g>
</g>
<g>
</g>
<g>
</g>
<g>
</g>
<g>
</g>
<g>
</g>
<g>
</g>
<g>
</g>
<g>
</g>
<g>
</g>
<g>
</g>
<g>
</g>
<g>
</g>
</svg>
