<?xml version="1.0" encoding="UTF-8" standalone="no"?>
<svg width="612px" height="304px" viewBox="0 0 612 304" version="1.1" xmlns="http://www.w3.org/2000/svg" xmlns:xlink="http://www.w3.org/1999/xlink">
    <!-- Generator: Sketch 39 (31667) - http://www.bohemiancoding.com/sketch -->
    <title>Group 16</title>
    <desc>Created with Sketch.</desc>
    <defs></defs>
    <g id="Page-1" stroke="none" stroke-width="1" fill="none" fill-rule="evenodd">
        <g id="Group-16">
            <g id="Group-9">
                <g id="Group-2">
                    <rect id="Rectangle" fill="#DFF5FF" x="0" y="0" width="130.019345" height="130.155689"></rect>
                    <rect id="Rectangle" fill="#8BD3F4" x="0" y="18.2035928" width="130.019345" height="111.952096"></rect>
                    <path d="M0,17.748503 L130.019345,17.748503" id="Line" stroke="#2079E6" stroke-dasharray="3,2"></path>
                </g>
                <path d="M39.5300293,70.5220341 L39.5300293,68.9461078 C40.126712,69.3354249 40.7580141,69.6087427 41.4239546,69.7660694 C42.089895,69.9233962 42.6546041,70.0020584 43.1180987,70.0020584 C43.8692795,70.0020584 44.4100151,69.8807319 44.7403216,69.6380754 C45.070628,69.3954189 45.2357788,69.0927694 45.2357788,68.7301179 C45.2357788,68.4901279 45.1585309,68.2848062 45.0040327,68.1141467 C44.8495345,67.9434872 44.4659585,67.7328325 43.8532933,67.4821763 L43.3418536,67.274186 L42.3109828,66.8662051 C41.2028579,66.4342231 40.5049627,66.0342459 40.2172764,65.6662612 C39.9242626,65.3036097 39.7777579,64.8609682 39.7777579,64.3383234 C39.7777579,63.6023541 40.0614443,62.9970551 40.6288256,62.5224083 C41.1962069,62.0477615 42.1165228,61.8104416 43.389801,61.8104416 C44.3434278,61.8104416 45.2464295,61.9491004 46.0988334,62.2264222 L46.0988334,63.5783589 C45.118569,63.2263736 44.1969212,63.0503836 43.3338623,63.0503836 C42.7052145,63.0503836 42.2137578,63.161044 41.8594775,63.3823681 C41.5051971,63.6036922 41.3280596,63.8796765 41.3280596,64.2103293 C41.3280596,64.530316 41.4825555,64.7863014 41.7915519,64.9782934 C42.0952207,65.1702854 42.590673,65.3916062 43.2779236,65.6422624 L44.2848206,66.0102451 C45.2064822,66.3462311 45.8537666,66.7115437 46.2266933,67.1061939 C46.59962,67.500844 46.7860805,67.9941494 46.7860805,68.5861246 C46.7860805,69.3594256 46.4890755,69.9953895 45.8950566,70.4940354 C45.3010377,70.9926812 44.3514208,71.2420004 43.0461775,71.2420004 C41.9060874,71.2420004 40.7340497,71.002014 39.5300293,70.5220341 L39.5300293,70.5220341 Z M52.9898901,70.994012 L49.1141359,62.05843 L50.74435,62.05843 L53.8049972,69.1300992 L56.9295743,62.05843 L58.415946,62.05843 L54.5082268,70.994012 L52.9898901,70.994012 Z M61.3273623,66.5862182 L61.3273623,65.3462762 L67.5285691,65.3462762 L67.5285691,66.5862182 L61.3273623,66.5862182 Z M72.7894116,64.0663361 C73.2475787,63.3197006 73.7936417,62.7570659 74.427617,62.378415 C75.0615924,61.9997642 75.6449475,61.8104416 76.1776999,61.8104416 C76.9235532,61.8104416 77.5948111,62.13309 78.1914938,62.7783963 C78.7881765,63.4237027 79.0865133,64.4023138 79.0865133,65.714259 C79.0865133,66.7488824 78.8880661,67.67283 78.4911655,68.4861293 C78.094265,69.2994287 77.5655162,69.9420588 76.9049032,70.4140391 C76.2442903,70.8860194 75.4265276,71.122006 74.4515908,71.122006 C74.1745595,71.122006 73.748364,71.0926743 73.1729914,71.0340101 C73.0877511,71.0233439 72.9598924,71.0100113 72.7894116,70.994012 L72.7894116,74.4658496 L71.3030399,74.4658496 L71.3030399,62.05843 L72.7894116,62.05843 L72.7894116,64.0663361 Z M72.7894116,65.8342534 L72.7894116,69.6660741 C73.3274915,69.804735 73.8229438,69.8740644 74.2757834,69.8740644 C75.1761349,69.8740644 75.9339638,69.5207511 76.5492928,68.814114 C77.1646218,68.1074768 77.4722817,67.140865 77.4722817,65.9142496 C77.4722817,65.0236202 77.3044672,64.3543248 76.9688332,63.9063436 C76.6331992,63.4583623 76.252287,63.234375 75.826085,63.234375 C75.3625905,63.234375 74.8524877,63.4690283 74.2957615,63.9383421 C73.7390352,64.4076558 73.2369236,65.0396199 72.7894116,65.8342534 L72.7894116,65.8342534 Z M89.5416657,70.6340288 C88.8437601,70.9273499 88.3376529,71.1020066 88.023329,71.1580043 C87.7090051,71.214002 87.4053408,71.2420004 87.112327,71.2420004 C86.4890067,71.2420004 85.9189702,71.1220072 85.4022004,70.8820172 C84.8854306,70.6420272 84.4951953,70.2873807 84.2314829,69.818067 C83.9677704,69.3487533 83.8359162,68.6234611 83.8359162,67.6421688 L83.8359162,64.0423372 L81.6063586,64.0423372 L81.6063586,62.8023952 L83.8359162,62.8023952 L83.8359162,59.2025636 L85.3222879,59.2025636 L85.3222879,62.8023952 L89.2939371,62.8023952 L89.2939371,64.0423372 L85.3222879,64.0423372 L85.3222879,67.6181699 C85.3222879,68.3381398 85.407527,68.846111 85.5780078,69.1420986 C85.7484885,69.4380862 85.9762368,69.6554072 86.2612593,69.7940681 C86.5462818,69.932729 86.8832426,70.0020584 87.2721519,70.0020584 C87.9913676,70.0020584 88.7478646,69.7754046 89.5416657,69.3220902 L89.5416657,70.6340288 Z" id="sv-pt" fill="#3977BF"></path>
            </g>
            <g id="Group-10" transform="translate(159.023810, 0.000000)">
                <g id="Group-3">
                    <rect id="Rectangle" fill="#DFF5FF" transform="translate(66.009673, 65.077844) rotate(-270.000000) translate(-66.009673, -65.077844) " x="1" y="2.84217094e-14" width="130.019345" height="130.155689"></rect>
                    <rect id="Rectangle" fill="#8BD3F4" transform="translate(56.917411, 65.077844) rotate(-270.000000) translate(-56.917411, -65.077844) " x="-8.0922619" y="9.10179641" width="130.019345" height="111.952096"></rect>
                    <path d="M47.5978423,65.760479 L178.981027,65.760479" id="Line" stroke="#2079E6" stroke-dasharray="3,2" transform="translate(113.289435, 65.760479) rotate(-270.000000) translate(-113.289435, -65.760479) "></path>
                </g>
                <path d="M31.0044643,70.603808 L31.0044643,69.0278817 C31.601147,69.4171988 32.2324491,69.6905166 32.8983895,69.8478434 C33.56433,70.0051701 34.1290391,70.0838323 34.5925337,70.0838323 C35.3437145,70.0838323 35.8844501,69.9625059 36.2147566,69.7198494 C36.545063,69.4771928 36.7102138,69.1745434 36.7102138,68.8118918 C36.7102138,68.5719019 36.6329659,68.3665802 36.4784677,68.1959207 C36.3239695,68.0252611 35.9403935,67.8146064 35.3277283,67.5639502 L34.8162885,67.35596 L33.7854178,66.947979 C32.6772929,66.5159971 31.9793977,66.1160198 31.6917114,65.7480352 C31.3986976,65.3853837 31.2521929,64.9427421 31.2521929,64.4200973 C31.2521929,63.6841281 31.5358793,63.0788291 32.1032606,62.6041823 C32.6706419,62.1295354 33.5909578,61.8922156 34.864236,61.8922156 C35.8178628,61.8922156 36.7208645,62.0308744 37.5732683,62.3081961 L37.5732683,63.6601329 C36.593004,63.3081476 35.6713562,63.1321576 34.8082973,63.1321576 C34.1796495,63.1321576 33.6881928,63.2428179 33.3339124,63.464142 C32.9796321,63.6854661 32.8024946,63.9614504 32.8024946,64.2921033 C32.8024946,64.6120899 32.9569905,64.8680754 33.2659869,65.0600674 C33.5696557,65.2520593 34.065108,65.4733801 34.7523586,65.7240363 L35.7592555,66.0920191 C36.6809172,66.428005 37.3282016,66.7933176 37.7011283,67.1879678 C38.0740549,67.582618 38.2605155,68.0759233 38.2605155,68.6678986 C38.2605155,69.4411996 37.9635105,70.0771635 37.3694916,70.5758093 C36.7754727,71.0744552 35.8258558,71.3237743 34.5206124,71.3237743 C33.3805223,71.3237743 32.2084847,71.083788 31.0044643,70.603808 L31.0044643,70.603808 Z M44.4643251,71.0757859 L40.5885709,62.140204 L42.218785,62.140204 L45.2794321,69.2118731 L48.4040093,62.140204 L49.890381,62.140204 L45.9826618,71.0757859 L44.4643251,71.0757859 Z M52.8017973,66.6679921 L52.8017973,65.4280501 L59.003004,65.4280501 L59.003004,66.6679921 L52.8017973,66.6679921 Z M64.2638466,64.14811 C64.7220137,63.4014746 65.2680767,62.8388398 65.902052,62.460189 C66.5360274,62.0815382 67.1193825,61.8922156 67.6521348,61.8922156 C68.3979882,61.8922156 69.0692461,62.2148639 69.6659288,62.8601703 C70.2626115,63.5054767 70.5609483,64.4840878 70.5609483,65.7960329 C70.5609483,66.8306564 70.362501,67.7546039 69.9656005,68.5679033 C69.5687,69.3812026 69.0399512,70.0238328 68.3793382,70.4958131 C67.7187253,70.9677933 66.9009626,71.2037799 65.9260258,71.2037799 C65.6489945,71.2037799 65.222799,71.1744483 64.6474264,71.1157841 C64.562186,71.1051178 64.4343274,71.0917853 64.2638466,71.0757859 L64.2638466,74.5476235 L62.7774749,74.5476235 L62.7774749,62.140204 L64.2638466,62.140204 L64.2638466,64.14811 Z M64.2638466,65.9160273 L64.2638466,69.7478481 C64.8019265,69.8865089 65.2973788,69.9558383 65.7502183,69.9558383 C66.6505699,69.9558383 67.4083988,69.6025251 68.0237278,68.8958879 C68.6390568,68.1892508 68.9467167,67.222639 68.9467167,65.9960236 C68.9467167,65.1053941 68.7789022,64.4360988 68.4432682,63.9881175 C68.1076342,63.5401362 67.7267219,63.316149 67.30052,63.316149 C66.8370255,63.316149 66.3269227,63.5508023 65.7701965,64.020116 C65.2134702,64.4894297 64.7113586,65.1213939 64.2638466,65.9160273 L64.2638466,65.9160273 Z M74.3114454,71.0757859 L74.3114454,62.140204 L75.7978172,62.140204 L75.7978172,64.0921126 C76.2613117,63.3561434 76.7927243,62.805508 77.3920707,62.4401899 C77.9914171,62.0748719 78.6586795,61.8922156 79.3938778,61.8922156 C79.9319577,61.8922156 80.4700295,61.9748775 81.0081094,62.140204 L81.0081094,65.3640531 L79.5776764,65.3640531 L79.5776764,63.3241486 C79.3272828,63.2814837 79.1301674,63.2601516 78.9863242,63.2601516 C78.4322618,63.2601516 77.8888625,63.4788058 77.3561101,63.9161209 C76.8233577,64.3534359 76.3039319,65.0093987 75.7978172,65.8840288 L75.7978172,71.0757859 L74.3114454,71.0757859 Z" id="sv-pr" fill="#3977BF"></path>
            </g>
            <g id="Group-11" transform="translate(320.956845, 0.000000)">
                <g id="Group-4" transform="translate(0.000000, 0.000000)">
                    <rect id="Rectangle" fill="#DFF5FF" transform="translate(65.009673, 65.077844) rotate(-180.000000) translate(-65.009673, -65.077844) " x="0" y="0" width="130.019345" height="130.155689"></rect>
                    <rect id="Rectangle" fill="#8BD3F4" transform="translate(65.009673, 55.976048) rotate(-180.000000) translate(-65.009673, -55.976048) " x="0" y="0" width="130.019345" height="111.952096"></rect>
                    <path d="M0,111.497006 L130.019345,111.497006" id="Line" stroke="#2079E6" stroke-dasharray="3,2" transform="translate(65.009673, 111.497006) rotate(-180.000000) translate(-65.009673, -111.497006) "></path>
                </g>
                <path d="M39.0967262,60.678939 L39.0967262,59.1030127 C39.6934089,59.4923298 40.324711,59.7656476 40.9906514,59.9229744 C41.6565919,60.0803011 42.221301,60.1589633 42.6847956,60.1589633 C43.4359764,60.1589633 43.976712,60.0376369 44.3070185,59.7949804 C44.6373249,59.5523238 44.8024757,59.2496743 44.8024757,58.8870228 C44.8024757,58.6470329 44.7252278,58.4417112 44.5707296,58.2710516 C44.4162314,58.1003921 44.0326554,57.8897374 43.4199902,57.6390812 L42.9085504,57.4310909 L41.8776797,57.02311 C40.7695548,56.5911281 40.0716596,56.1911508 39.7839733,55.8231662 C39.4909595,55.4605147 39.3444548,55.0178731 39.3444548,54.4952283 C39.3444548,53.759259 39.6281412,53.1539601 40.1955225,52.6793132 C40.7629038,52.2046664 41.6832197,51.9673466 42.9564979,51.9673466 C43.9101247,51.9673466 44.8131264,52.1060053 45.6655303,52.3833271 L45.6655303,53.7352638 C44.6852659,53.3832786 43.7636181,53.2072885 42.9005592,53.2072885 C42.2719114,53.2072885 41.7804547,53.3179489 41.4261743,53.539273 C41.071894,53.7605971 40.8947565,54.0365814 40.8947565,54.3672343 C40.8947565,54.6872209 41.0492524,54.9432064 41.3582488,55.1351984 C41.6619176,55.3271903 42.1573699,55.5485111 42.8446205,55.7991673 L43.8515175,56.1671501 C44.7731791,56.503136 45.4204635,56.8684486 45.7933902,57.2630988 C46.1663169,57.657749 46.3527774,58.1510543 46.3527774,58.7430296 C46.3527774,59.5163306 46.0557724,60.1522945 45.4617535,60.6509403 C44.8677346,61.1495861 43.9181177,61.3989053 42.6128743,61.3989053 C41.4727842,61.3989053 40.3007466,61.1589189 39.0967262,60.678939 L39.0967262,60.678939 Z M52.556587,61.1509169 L48.6808328,52.215335 L50.3110469,52.215335 L53.3716941,59.2870041 L56.4962712,52.215335 L57.9826429,52.215335 L54.0749237,61.1509169 L52.556587,61.1509169 Z M60.8940592,56.7431231 L60.8940592,55.5031811 L67.0952659,55.5031811 L67.0952659,56.7431231 L60.8940592,56.7431231 Z M72.3561085,54.223241 C72.8142756,53.4766055 73.3603386,52.9139708 73.9943139,52.53532 C74.6282893,52.1566691 75.2116444,51.9673466 75.7443968,51.9673466 C76.4902501,51.9673466 77.161508,52.2899949 77.7581907,52.9353013 C78.3548734,53.5806076 78.6532102,54.5592187 78.6532102,55.8711639 C78.6532102,56.9057874 78.4547629,57.8297349 78.0578624,58.6430342 C77.6609619,59.4563336 77.1322131,60.0989638 76.4716001,60.570944 C75.8109872,61.0429243 74.9932245,61.2789109 74.0182877,61.2789109 C73.7412564,61.2789109 73.3150609,61.2495793 72.7396883,61.190915 C72.6544479,61.1802488 72.5265893,61.1669162 72.3561085,61.1509169 L72.3561085,64.6227545 L70.8697368,64.6227545 L70.8697368,52.215335 L72.3561085,52.215335 L72.3561085,54.223241 Z M72.3561085,55.9911583 L72.3561085,59.822979 C72.8941884,59.9616399 73.3896407,60.0309693 73.8424803,60.0309693 C74.7428318,60.0309693 75.5006607,59.677656 76.1159897,58.9710189 C76.7313187,58.2643818 77.0389786,57.29777 77.0389786,56.0711546 C77.0389786,55.1805251 76.8711641,54.5112298 76.5355301,54.0632485 C76.1998961,53.6152672 75.8189838,53.3912799 75.3927819,53.3912799 C74.9292874,53.3912799 74.4191846,53.6259333 73.8624584,54.095247 C73.3057321,54.5645607 72.8036205,55.1965248 72.3561085,55.9911583 L72.3561085,55.9911583 Z M83.0190333,54.223241 C83.4772003,53.4766055 84.0232633,52.9139708 84.6572387,52.53532 C85.291214,52.1566691 85.8745691,51.9673466 86.4073215,51.9673466 C87.1531748,51.9673466 87.8244328,52.2899949 88.4211155,52.9353013 C89.0177981,53.5806076 89.316135,54.5592187 89.316135,55.8711639 C89.316135,56.9057874 89.1176877,57.8297349 88.7207872,58.6430342 C88.3238866,59.4563336 87.7951378,60.0989638 87.1345249,60.570944 C86.4739119,61.0429243 85.6561493,61.2789109 84.6812124,61.2789109 C84.4041812,61.2789109 83.9779857,61.2495793 83.4026131,61.190915 C83.3173727,61.1802488 83.189514,61.1669162 83.0190333,61.1509169 L81.5326616,61.1509169 L81.5326616,48.239521 L83.0190333,48.239521 L83.0190333,54.223241 Z M83.0190333,55.9911583 L83.0190333,59.822979 C83.5571132,59.9616399 84.0525655,60.0309693 84.505405,60.0309693 C85.4057565,60.0309693 86.1635854,59.677656 86.7789144,58.9710189 C87.3942434,58.2643818 87.7019033,57.29777 87.7019033,56.0711546 C87.7019033,55.1805251 87.5340888,54.5112298 87.1984548,54.0632485 C86.8628208,53.6152672 86.4819086,53.3912799 86.0557067,53.3912799 C85.5922121,53.3912799 85.0821094,53.6259333 84.5253831,54.095247 C83.9686569,54.5645607 83.4665453,55.1965248 83.0190333,55.9911583 L83.0190333,55.9911583 Z" id="sv-pb" fill="#3977BF"></path>
            </g>
            <g id="Group-12" transform="translate(479.980655, 0.000000)">
                <g id="Group-5">
                    <rect id="Rectangle" fill="#DFF5FF" transform="translate(66.009673, 65.077844) rotate(-90.000000) translate(-66.009673, -65.077844) " x="1" y="1.42108547e-14" width="130.019345" height="130.155689"></rect>
                    <rect id="Rectangle" fill="#8BD3F4" transform="translate(75.101935, 65.077844) rotate(-90.000000) translate(-75.101935, -65.077844) " x="10.0922619" y="9.10179641" width="130.019345" height="111.952096"></rect>
                    <path d="M-45.3705357,65.0778443 L84.6488095,65.0778443" id="Line" stroke="#2079E6" stroke-dasharray="3,2" transform="translate(19.639137, 65.077844) rotate(-90.000000) translate(-19.639137, -65.077844) "></path>
                </g>
                <path d="M49.1889881,70.690915 L49.1889881,69.1149888 C49.7856708,69.5043058 50.4169729,69.7776237 51.0829134,69.9349504 C51.7488538,70.0922772 52.3135629,70.1709394 52.7770575,70.1709394 C53.5282383,70.1709394 54.0689739,70.0496129 54.3992804,69.8069564 C54.7295868,69.5642999 54.8947376,69.2616504 54.8947376,68.8989989 C54.8947376,68.6590089 54.8174897,68.4536872 54.6629915,68.2830277 C54.5084933,68.1123682 54.1249173,67.9017135 53.5122521,67.6510573 L53.0008123,67.443067 L51.9699416,67.0350861 C50.8618167,66.6031041 50.1639215,66.2031268 49.8762352,65.8351422 C49.5832214,65.4724907 49.4367167,65.0298492 49.4367167,64.5072043 C49.4367167,63.7712351 49.7204031,63.1659361 50.2877844,62.6912893 C50.8551657,62.2166425 51.7754816,61.9793226 53.0487598,61.9793226 C54.0023866,61.9793226 54.9053883,62.1179814 55.7577922,62.3953031 L55.7577922,63.7472399 C54.7775278,63.3952546 53.85588,63.2192646 52.9928211,63.2192646 C52.3641733,63.2192646 51.8727166,63.329925 51.5184363,63.5512491 C51.1641559,63.7725732 50.9870184,64.0485575 50.9870184,64.3792103 C50.9870184,64.699197 51.1415143,64.9551824 51.4505107,65.1471744 C51.7541795,65.3391664 52.2496318,65.5604871 52.9368824,65.8111433 L53.9437794,66.1791261 C54.865441,66.5151121 55.5127254,66.8804247 55.8856521,67.2750749 C56.2585788,67.669725 56.4450393,68.1630303 56.4450393,68.7550056 C56.4450393,69.5283066 56.1480343,70.1642705 55.5540154,70.6629164 C54.9599965,71.1615622 54.0103796,71.4108814 52.7051363,71.4108814 C51.5650462,71.4108814 50.3930085,71.170895 49.1889881,70.690915 L49.1889881,70.690915 Z M62.6488489,71.162893 L58.7730947,62.227311 L60.4033088,62.227311 L63.463956,69.2989802 L66.5885331,62.227311 L68.0749048,62.227311 L64.1671856,71.162893 L62.6488489,71.162893 Z M70.9863211,66.7550992 L70.9863211,65.5151572 L77.1875279,65.5151572 L77.1875279,66.7550992 L70.9863211,66.7550992 Z M82.4483704,64.2352171 C82.9065375,63.4885816 83.4526005,62.9259469 84.0865758,62.547296 C84.7205512,62.1686452 85.3039063,61.9793226 85.8366587,61.9793226 C86.582512,61.9793226 87.2537699,62.301971 87.8504526,62.9472773 C88.4471353,63.5925837 88.7454721,64.5711948 88.7454721,65.88314 C88.7454721,66.9177634 88.5470248,67.8417109 88.1501243,68.6550103 C87.7532238,69.4683096 87.224475,70.1109398 86.563862,70.5829201 C85.9032491,71.0549004 85.0854864,71.290887 84.1105496,71.290887 C83.8335183,71.290887 83.4073228,71.2615553 82.8319502,71.2028911 C82.7467099,71.1922249 82.6188512,71.1788923 82.4483704,71.162893 L82.4483704,74.6347305 L80.9619987,74.6347305 L80.9619987,62.227311 L82.4483704,62.227311 L82.4483704,64.2352171 Z M82.4483704,66.0031344 L82.4483704,69.8349551 C82.9864503,69.973616 83.4819026,70.0429454 83.9347422,70.0429454 C84.8350937,70.0429454 85.5929226,69.6896321 86.2082516,68.9829949 C86.8235806,68.2763578 87.1312405,67.309746 87.1312405,66.0831306 C87.1312405,65.1925012 86.963426,64.5232058 86.627792,64.0752246 C86.292158,63.6272433 85.9112458,63.403256 85.4850438,63.403256 C85.0215493,63.403256 84.5114465,63.6379093 83.9547203,64.1072231 C83.397994,64.5765368 82.8958824,65.2085009 82.4483704,66.0031344 L82.4483704,66.0031344 Z M94.1341746,71.162893 L94.1341746,59.4994386 L91.4650985,59.4994386 L91.4650985,58.251497 L95.6205464,58.251497 L95.6205464,69.922951 L98.4094912,69.922951 L98.4094912,71.162893 L94.1341746,71.162893 Z" id="sv-pl" fill="#3977BF"></path>
            </g>
            <g id="Group-15" transform="translate(53.644345, 172.934132)">
                <g id="Group-8">
                    <rect id="Rectangle" fill="#DFF5FF" x="0" y="0" width="130.019345" height="130.155689"></rect>
                    <rect id="Rectangle" fill="#8BD3F4" x="0" y="18.2035928" width="130.019345" height="93.748503"></rect>
                    <path d="M0,18.6586826 L130.019345,18.6586826" id="Line" stroke="#2079E6" stroke-dasharray="3,2"></path>
                    <path d="M0,111.497006 L130.019345,111.497006" id="Line" stroke="#2079E6" stroke-dasharray="3,2"></path>
                </g>
                <path d="M39.5300293,70.5220341 L39.5300293,68.9461078 C40.126712,69.3354249 40.7580141,69.6087427 41.4239546,69.7660694 C42.089895,69.9233962 42.6546041,70.0020584 43.1180987,70.0020584 C43.8692795,70.0020584 44.4100151,69.8807319 44.7403216,69.6380754 C45.070628,69.3954189 45.2357788,69.0927694 45.2357788,68.7301179 C45.2357788,68.4901279 45.1585309,68.2848062 45.0040327,68.1141467 C44.8495345,67.9434872 44.4659585,67.7328325 43.8532933,67.4821763 L43.3418536,67.274186 L42.3109828,66.8662051 C41.2028579,66.4342231 40.5049627,66.0342459 40.2172764,65.6662612 C39.9242626,65.3036097 39.7777579,64.8609682 39.7777579,64.3383234 C39.7777579,63.6023541 40.0614443,62.9970551 40.6288256,62.5224083 C41.1962069,62.0477615 42.1165228,61.8104416 43.389801,61.8104416 C44.3434278,61.8104416 45.2464295,61.9491004 46.0988334,62.2264222 L46.0988334,63.5783589 C45.118569,63.2263736 44.1969212,63.0503836 43.3338623,63.0503836 C42.7052145,63.0503836 42.2137578,63.161044 41.8594775,63.3823681 C41.5051971,63.6036922 41.3280596,63.8796765 41.3280596,64.2103293 C41.3280596,64.530316 41.4825555,64.7863014 41.7915519,64.9782934 C42.0952207,65.1702854 42.590673,65.3916062 43.2779236,65.6422624 L44.2848206,66.0102451 C45.2064822,66.3462311 45.8537666,66.7115437 46.2266933,67.1061939 C46.59962,67.500844 46.7860805,67.9941494 46.7860805,68.5861246 C46.7860805,69.3594256 46.4890755,69.9953895 45.8950566,70.4940354 C45.3010377,70.9926812 44.3514208,71.2420004 43.0461775,71.2420004 C41.9060874,71.2420004 40.7340497,71.002014 39.5300293,70.5220341 L39.5300293,70.5220341 Z M52.9898901,70.994012 L49.1141359,62.05843 L50.74435,62.05843 L53.8049972,69.1300992 L56.9295743,62.05843 L58.415946,62.05843 L54.5082268,70.994012 L52.9898901,70.994012 Z M61.3273623,66.5862182 L61.3273623,65.3462762 L67.5285691,65.3462762 L67.5285691,66.5862182 L61.3273623,66.5862182 Z M72.7894116,64.0663361 C73.2475787,63.3197006 73.7936417,62.7570659 74.427617,62.378415 C75.0615924,61.9997642 75.6449475,61.8104416 76.1776999,61.8104416 C76.9235532,61.8104416 77.5948111,62.13309 78.1914938,62.7783963 C78.7881765,63.4237027 79.0865133,64.4023138 79.0865133,65.714259 C79.0865133,66.7488824 78.8880661,67.67283 78.4911655,68.4861293 C78.094265,69.2994287 77.5655162,69.9420588 76.9049032,70.4140391 C76.2442903,70.8860194 75.4265276,71.122006 74.4515908,71.122006 C74.1745595,71.122006 73.748364,71.0926743 73.1729914,71.0340101 C73.0877511,71.0233439 72.9598924,71.0100113 72.7894116,70.994012 L72.7894116,74.4658496 L71.3030399,74.4658496 L71.3030399,62.05843 L72.7894116,62.05843 L72.7894116,64.0663361 Z M72.7894116,65.8342534 L72.7894116,69.6660741 C73.3274915,69.804735 73.8229438,69.8740644 74.2757834,69.8740644 C75.1761349,69.8740644 75.9339638,69.5207511 76.5492928,68.814114 C77.1646218,68.1074768 77.4722817,67.140865 77.4722817,65.9142496 C77.4722817,65.0236202 77.3044672,64.3543248 76.9688332,63.9063436 C76.6331992,63.4583623 76.252287,63.234375 75.826085,63.234375 C75.3625905,63.234375 74.8524877,63.4690283 74.2957615,63.9383421 C73.7390352,64.4076558 73.2369236,65.0396199 72.7894116,65.8342534 L72.7894116,65.8342534 Z M84.9786643,70.994012 L81.1029101,62.05843 L82.7331243,62.05843 L85.7937714,69.1300992 L88.9183485,62.05843 L90.4047202,62.05843 L86.497001,70.994012 L84.9786643,70.994012 Z" id="sv-pv" fill="#3977BF"></path>
            </g>
            <g id="Group-14" transform="translate(226.306548, 172.934132)">
                <g id="Group-7" transform="translate(0.000000, 0.000000)">
                    <g id="Group" transform="translate(65.587517, 65.568172) rotate(-270.000000) translate(-65.587517, -65.568172) translate(0.087517, 0.068172)">
                        <rect id="Rectangle" fill="#DFF5FF" x="-1.42108547e-14" y="0" width="130.019345" height="130.155689"></rect>
                        <rect id="Rectangle" fill="#8BD3F4" x="-7.52176099e-15" y="18.2035928" width="130.019345" height="93.748503"></rect>
                        <path d="M-7.52176099e-15,18.6586826 L130.019345,18.6586826" id="Line" stroke="#2079E6" stroke-dasharray="3,2"></path>
                        <path d="M1.23789867e-14,111.497006 L130.019345,111.497006" id="Line" stroke="#2079E6" stroke-dasharray="3,2"></path>
                    </g>
                </g>
                <path d="M40.5300293,70.5220341 L40.5300293,68.9461078 C41.126712,69.3354249 41.7580141,69.6087427 42.4239546,69.7660694 C43.089895,69.9233962 43.6546041,70.0020584 44.1180987,70.0020584 C44.8692795,70.0020584 45.4100151,69.8807319 45.7403216,69.6380754 C46.070628,69.3954189 46.2357788,69.0927694 46.2357788,68.7301179 C46.2357788,68.4901279 46.1585309,68.2848062 46.0040327,68.1141467 C45.8495345,67.9434872 45.4659585,67.7328325 44.8532933,67.4821763 L44.3418536,67.274186 L43.3109828,66.8662051 C42.2028579,66.4342231 41.5049627,66.0342459 41.2172764,65.6662612 C40.9242626,65.3036097 40.7777579,64.8609682 40.7777579,64.3383234 C40.7777579,63.6023541 41.0614443,62.9970551 41.6288256,62.5224083 C42.1962069,62.0477615 43.1165228,61.8104416 44.389801,61.8104416 C45.3434278,61.8104416 46.2464295,61.9491004 47.0988334,62.2264222 L47.0988334,63.5783589 C46.118569,63.2263736 45.1969212,63.0503836 44.3338623,63.0503836 C43.7052145,63.0503836 43.2137578,63.161044 42.8594775,63.3823681 C42.5051971,63.6036922 42.3280596,63.8796765 42.3280596,64.2103293 C42.3280596,64.530316 42.4825555,64.7863014 42.7915519,64.9782934 C43.0952207,65.1702854 43.590673,65.3916062 44.2779236,65.6422624 L45.2848206,66.0102451 C46.2064822,66.3462311 46.8537666,66.7115437 47.2266933,67.1061939 C47.59962,67.500844 47.7860805,67.9941494 47.7860805,68.5861246 C47.7860805,69.3594256 47.4890755,69.9953895 46.8950566,70.4940354 C46.3010377,70.9926812 45.3514208,71.2420004 44.0461775,71.2420004 C42.9060874,71.2420004 41.7340497,71.002014 40.5300293,70.5220341 L40.5300293,70.5220341 Z M53.9898901,70.994012 L50.1141359,62.05843 L51.74435,62.05843 L54.8049972,69.1300992 L57.9295743,62.05843 L59.415946,62.05843 L55.5082268,70.994012 L53.9898901,70.994012 Z M62.3273623,66.5862182 L62.3273623,65.3462762 L68.5285691,65.3462762 L68.5285691,66.5862182 L62.3273623,66.5862182 Z M73.7894116,64.0663361 C74.2475787,63.3197006 74.7936417,62.7570659 75.427617,62.378415 C76.0615924,61.9997642 76.6449475,61.8104416 77.1776999,61.8104416 C77.9235532,61.8104416 78.5948111,62.13309 79.1914938,62.7783963 C79.7881765,63.4237027 80.0865133,64.4023138 80.0865133,65.714259 C80.0865133,66.7488824 79.8880661,67.67283 79.4911655,68.4861293 C79.094265,69.2994287 78.5655162,69.9420588 77.9049032,70.4140391 C77.2442903,70.8860194 76.4265276,71.122006 75.4515908,71.122006 C75.1745595,71.122006 74.748364,71.0926743 74.1729914,71.0340101 C74.0877511,71.0233439 73.9598924,71.0100113 73.7894116,70.994012 L73.7894116,74.4658496 L72.3030399,74.4658496 L72.3030399,62.05843 L73.7894116,62.05843 L73.7894116,64.0663361 Z M73.7894116,65.8342534 L73.7894116,69.6660741 C74.3274915,69.804735 74.8229438,69.8740644 75.2757834,69.8740644 C76.1761349,69.8740644 76.9339638,69.5207511 77.5492928,68.814114 C78.1646218,68.1074768 78.4722817,67.140865 78.4722817,65.9142496 C78.4722817,65.0236202 78.3044672,64.3543248 77.9688332,63.9063436 C77.6331992,63.4583623 77.252287,63.234375 76.826085,63.234375 C76.3625905,63.234375 75.8524877,63.4690283 75.2957615,63.9383421 C74.7390352,64.4076558 74.2369236,65.0396199 73.7894116,65.8342534 L73.7894116,65.8342534 Z M83.0778421,70.994012 L83.0778421,58.082616 L84.5642138,58.082616 L84.5642138,64.0103387 C84.9904157,63.3223674 85.5045141,62.7837314 86.1065243,62.3944143 C86.7085345,62.0050972 87.3105356,61.8104416 87.9125458,61.8104416 C88.4186606,61.8104416 88.8808164,61.9397676 89.299027,62.1984235 C89.7172376,62.4570793 90.0089152,62.7703949 90.1740684,63.1383795 C90.3072565,63.4210343 90.397823,63.7210173 90.4457707,64.0383374 C90.4937185,64.3556575 90.517692,65.010287 90.517692,66.0022455 L90.517692,70.994012 L89.0313202,70.994012 L89.0313202,65.8182541 C89.0313202,64.9596233 88.9900325,64.3929888 88.9074559,64.1183336 C88.8248793,63.8436785 88.6730472,63.6183579 88.4519549,63.4423653 C88.2308627,63.2663726 87.9897958,63.1783776 87.7287472,63.1783776 C87.2066498,63.1783776 86.6459364,63.4263635 86.0465899,63.9223428 C85.4472435,64.4183221 84.9531231,65.0396201 84.5642138,65.7862556 L84.5642138,70.994012 L83.0778421,70.994012 Z" id="sv-ph" fill="#3977BF"></path>
            </g>
            <g id="Group-13" transform="translate(399.968750, 172.934132)">
                <g id="Group-6">
                    <rect id="Rectangle" fill="#DFF5FF" transform="translate(66.009673, 65.077844) rotate(-270.000000) translate(-66.009673, -65.077844) " x="1" y="0" width="130.019345" height="130.155689"></rect>
                    <rect id="Rectangle" fill="#8BD3F4" transform="translate(66.009673, 65.077844) rotate(-270.000000) translate(-66.009673, -65.077844) " x="19.1845238" y="18.2035928" width="93.6502976" height="93.748503"></rect>
                    <path d="M47.1432292,65.3053892 L177.617187,65.3053892" id="Line" stroke="#2079E6" stroke-dasharray="3,2" transform="translate(112.380208, 65.305389) rotate(-270.000000) translate(-112.380208, -65.305389) "></path>
                    <path d="M1,18.6586826 L131.019345,18.6586826" id="Line" stroke="#2179E6" stroke-dasharray="3,1"></path>
                    <path d="M1,111.497006 L131.019345,111.497006" id="Line" stroke="#2179E6" stroke-dasharray="3,1"></path>
                    <path d="M-45.3705357,65.0778443 L84.6488095,65.0778443" id="Line" stroke="#2079E6" stroke-dasharray="3,2" transform="translate(19.639137, 65.077844) rotate(-270.000000) translate(-19.639137, -65.077844) "></path>
                </g>
                <path d="M40.5300293,70.5220341 L40.5300293,68.9461078 C41.126712,69.3354249 41.7580141,69.6087427 42.4239546,69.7660694 C43.089895,69.9233962 43.6546041,70.0020584 44.1180987,70.0020584 C44.8692795,70.0020584 45.4100151,69.8807319 45.7403216,69.6380754 C46.070628,69.3954189 46.2357788,69.0927694 46.2357788,68.7301179 C46.2357788,68.4901279 46.1585309,68.2848062 46.0040327,68.1141467 C45.8495345,67.9434872 45.4659585,67.7328325 44.8532933,67.4821763 L44.3418536,67.274186 L43.3109828,66.8662051 C42.2028579,66.4342231 41.5049627,66.0342459 41.2172764,65.6662612 C40.9242626,65.3036097 40.7777579,64.8609682 40.7777579,64.3383234 C40.7777579,63.6023541 41.0614443,62.9970551 41.6288256,62.5224083 C42.1962069,62.0477615 43.1165228,61.8104416 44.389801,61.8104416 C45.3434278,61.8104416 46.2464295,61.9491004 47.0988334,62.2264222 L47.0988334,63.5783589 C46.118569,63.2263736 45.1969212,63.0503836 44.3338623,63.0503836 C43.7052145,63.0503836 43.2137578,63.161044 42.8594775,63.3823681 C42.5051971,63.6036922 42.3280596,63.8796765 42.3280596,64.2103293 C42.3280596,64.530316 42.4825555,64.7863014 42.7915519,64.9782934 C43.0952207,65.1702854 43.590673,65.3916062 44.2779236,65.6422624 L45.2848206,66.0102451 C46.2064822,66.3462311 46.8537666,66.7115437 47.2266933,67.1061939 C47.59962,67.500844 47.7860805,67.9941494 47.7860805,68.5861246 C47.7860805,69.3594256 47.4890755,69.9953895 46.8950566,70.4940354 C46.3010377,70.9926812 45.3514208,71.2420004 44.0461775,71.2420004 C42.9060874,71.2420004 41.7340497,71.002014 40.5300293,70.5220341 L40.5300293,70.5220341 Z M53.9898901,70.994012 L50.1141359,62.05843 L51.74435,62.05843 L54.8049972,69.1300992 L57.9295743,62.05843 L59.415946,62.05843 L55.5082268,70.994012 L53.9898901,70.994012 Z M62.3273623,66.5862182 L62.3273623,65.3462762 L68.5285691,65.3462762 L68.5285691,66.5862182 L62.3273623,66.5862182 Z M73.7894116,64.0663361 C74.2475787,63.3197006 74.7936417,62.7570659 75.427617,62.378415 C76.0615924,61.9997642 76.6449475,61.8104416 77.1776999,61.8104416 C77.9235532,61.8104416 78.5948111,62.13309 79.1914938,62.7783963 C79.7881765,63.4237027 80.0865133,64.4023138 80.0865133,65.714259 C80.0865133,66.7488824 79.8880661,67.67283 79.4911655,68.4861293 C79.094265,69.2994287 78.5655162,69.9420588 77.9049032,70.4140391 C77.2442903,70.8860194 76.4265276,71.122006 75.4515908,71.122006 C75.1745595,71.122006 74.748364,71.0926743 74.1729914,71.0340101 C74.0877511,71.0233439 73.9598924,71.0100113 73.7894116,70.994012 L73.7894116,74.4658496 L72.3030399,74.4658496 L72.3030399,62.05843 L73.7894116,62.05843 L73.7894116,64.0663361 Z M73.7894116,65.8342534 L73.7894116,69.6660741 C74.3274915,69.804735 74.8229438,69.8740644 75.2757834,69.8740644 C76.1761349,69.8740644 76.9339638,69.5207511 77.5492928,68.814114 C78.1646218,68.1074768 78.4722817,67.140865 78.4722817,65.9142496 C78.4722817,65.0236202 78.3044672,64.3543248 77.9688332,63.9063436 C77.6331992,63.4583623 77.252287,63.234375 76.826085,63.234375 C76.3625905,63.234375 75.8524877,63.4690283 75.2957615,63.9383421 C74.7390352,64.4076558 74.2369236,65.0396199 73.7894116,65.8342534 L73.7894116,65.8342534 Z M88.9434165,68.9861059 C88.490577,69.7327414 87.9458459,70.2953761 87.3092068,70.6740269 C86.6725677,71.0526778 86.0878807,71.2420004 85.5551283,71.2420004 C84.809275,71.2420004 84.1393489,70.919352 83.54533,70.2740457 C82.9513111,69.6287393 82.6543061,68.6501282 82.6543061,67.338183 C82.6543061,66.3035596 82.8514215,65.379612 83.2456583,64.5663127 C83.639895,63.7530133 84.167312,63.1103832 84.8279249,62.6384029 C85.4885379,62.1664226 86.3063005,61.930436 87.2812374,61.930436 C87.5635962,61.930436 87.9897917,61.9597677 88.5598367,62.0184319 C88.6450771,62.0290981 88.7729358,62.0424307 88.9434165,62.05843 L90.4377795,62.05843 L90.4377795,68.3701347 C90.4377795,69.4474231 90.5496558,70.3220401 90.7734118,70.994012 L89.2231101,70.994012 C89.1059046,70.5033658 89.0126743,69.8340705 88.9434165,68.9861059 L88.9434165,68.9861059 Z M88.9434165,67.2181886 L88.9434165,63.3863679 C88.4159917,63.247707 87.9258668,63.1783776 87.4730273,63.1783776 C86.5566932,63.1783776 85.7935369,63.5330241 85.1835354,64.2423278 C84.5735339,64.9516315 84.2685377,65.9169101 84.2685377,67.1381924 C84.2685377,68.0234887 84.4350204,68.6914508 84.7679906,69.1420986 C85.1009608,69.5927465 85.4805412,69.818067 85.9067431,69.818067 C86.3702377,69.818067 86.8816723,69.5834136 87.4410623,69.1140999 C88.0004523,68.6447862 88.5012321,68.0128221 88.9434165,67.2181886 L88.9434165,67.2181886 Z" id="sv-pa" fill="#3977BF"></path>
            </g>
        </g>
    </g>
</svg>